<svg id="Layer_1" data-name="Layer 1" xmlns="http://www.w3.org/2000/svg" width="150" height="100" viewBox="0 0 150 100"><title>logo_time</title><path d="M72.06,30.41s-1.44,0-2.28,0c0,.35-.44,3.53-.79,6.09-.4,2.37-3.56,19.95-4.63,25.21-.28,1.59-1.15,6.08-1.23,6.53-1,.12-2.2.23-3,.26-.1,0-.27,0-.36,0v.91c.1,0,.6,0,1,0,.85,0,3.28-.15,3.74-.15,1.74,0,2.9.12,4.52.15,0,0,.46,0,.66,0v-.93h-.42a29.62,29.62,0,0,1-3-.23c.1-.6,1.58-9.71,2.29-13.35,1.35-6.73,2.29-11.51,2.29-11.51l.25.59L81.79,69.53h1.95s1.12-2.76,2.44-5.86c0-.07.13-.29.27-.61,1.39-3.21,8.26-19.52,8.26-19.52s.07.29.18.81c.65,3.2,2.87,14.72,3.34,17.5.22,1.43.43,2.88.55,3.73.18,1.21.3,2.38.3,2.72-.22,0-2.4.21-3.22.24h-.35v.93h.87c1.68,0,3.3-.17,5-.17,1.89,0,5,.17,6.92.18l.62,0v-.93l-.79,0c-.88-.07-2.37-.21-2.74-.23,0,0-.25-1.35-.57-2.9-1.28-6.22-4.94-25.12-5.5-29.77-.19-1.6-.73-5.19-.73-5.19h-2.2s-1.12,3.22-2.15,6.16c-.69,2-1.64,4.49-2.37,6.39-3.57,9.39-7.58,18.14-7.58,18.14s-8.52-20.32-9-21.5-3.24-9.21-3.24-9.21Zm-61.23,0,0,2.15,0,5.23h.57l.06-4.66,3.5,0h5.8l3.74,0V68.28h-.08c-.5,0-2.42.16-3.19.19h-.31v1c.15,0,.52,0,.57,0,1.84,0,4.34-.18,6.1-.18s4.32.18,5.88.2l.49,0v-.89h-.19c-.5,0-3.25-.18-3.54-.22,0-.44-.06-2.53-.06-2.58V33.12H40.45l2.48,0c0,.17.14,2.53.14,2.59s.09,1.93.09,2.36h.58l0-5.29,0-2.38c-2.19.06-7.75.13-16.38.13-7.41,0-14.55-.07-16.52-.16Zm34.58,0v.93c.3,0,2,.17,2.44.19l1.13.11c0,.3,0,2.34,0,3.15.06,7.66,0,24.59,0,30.58,0,1.73,0,2.85,0,2.85a9.42,9.42,0,0,1-1.2.12c-.44,0-2,.16-2.37.17v.93c.15,0,.42,0,.57,0,1.78,0,4.26-.22,6.08-.21s4.31.22,5.77.22h0l.55,0v-.92h-.12c-.06,0-1.93-.1-2.39-.14-.24,0-1.27-.11-1.28-.14s0-.3,0-.76v-2c0-6,0-24,0-30.84v-3l2.64-.25,1.13-.07v-1c-2,0-4.68.15-6.65.15s-4.6-.16-6.31-.16Zm93.34,0h-.6l-8.84.05c-2.48,0-4.42,0-7,0-1.79,0-4.3.09-5.84.09-2.48,0-4.49-.15-5.59-.16-.52,0-.81,0-1,0,0,0,0,.91,0,.91a2.74,2.74,0,0,0,.47,0c.62,0,1.78.13,2.37.21.12,0,.32.06.87.12,0,.2,0,2.52,0,3.92s0,30.13,0,30.13-.06,2.32-.06,2.5a31.05,31.05,0,0,1-3.51.28h-.19v.91l.75,0c1,0,3.71-.17,6.44-.17,1.91,0,4,.07,6.14.1,2.63,0,5.28,0,7.67.08,3.93,0,7.12.06,8.15.06,0,0,.13-7.3.13-7.89h-.57c0,.62-.23,2.93-.24,3-.07.87-.15,1.78-.21,2.23a3.25,3.25,0,0,1-.41,0c-.65,0-2.71.07-2.75.07H125.8L119.33,67l0-1.79V51.23c1.16,0,2.92-.1,4-.1.91,0,3.06-.05,4.26-.05l5.72,0,1.71.07c0,.12,0,.31.06.37.17,1.06.27,1.8.38,2.85a2.51,2.51,0,0,1,0,.27h.67s0-.37,0-.61c0-.82-.07-2.46-.07-4.27,0-1.26.07-3.18.08-4.11,0-.25,0-.43,0-.5h-.6c0,.2-.06.5-.06.5-.05.69-.24,1.57-.4,2.5a2.56,2.56,0,0,0-.07.28c-.07,0-2,.12-2.15.12l-2.88.08-10.65,0V33.27s1.36-.05,1.74-.05h6.57c3.73,0,7.35,0,7.36,0s1.12,0,1.14,0,1.41.06,1.74.08a2.29,2.29,0,0,1,.05.25c.15,1.62.28,3.55.33,4.23v.27h.56c0-1-.05-4-.06-6,0-.62,0-1.13,0-1.42v-.24Z" style="fill:#e90606"/></svg>