<svg xmlns="http://www.w3.org/2000/svg" xmlns:xlink="http://www.w3.org/1999/xlink" width="96.471" height="20.525" viewBox="0 0 96.471 20.525">
    <defs>
        <style>
            .cls-1{fill:#7a0014}.cls-2{fill:#231f20;opacity:.2}.cls-3{fill:url(#linear-gradient)}.cls-4{fill:url(#linear-gradient-2)}.cls-5{fill:url(#linear-gradient-3)}.cls-6{fill:#262524}
        </style>
        <linearGradient id="linear-gradient" x1=".163" x2="2.842" y1=".42" y2="1.057" gradientUnits="objectBoundingBox">
            <stop offset="0" stop-color="#ed273e"/>
            <stop offset=".124" stop-color="#e4253a"/>
            <stop offset=".326" stop-color="#cb1e30"/>
            <stop offset=".582" stop-color="#a31420"/>
            <stop offset=".878" stop-color="#6d060a"/>
            <stop offset="1" stop-color="#540000"/>
        </linearGradient>
        <linearGradient id="linear-gradient-2" x1="-.782" x2="2.708" y1=".191" y2="1.03" xlink:href="#linear-gradient"/>
        <linearGradient id="linear-gradient-3" x1="-2.066" x2="2.192" y1="-.44" y2="1.12" xlink:href="#linear-gradient"/>
    </defs>
    <g id="metubelogo" transform="translate(-.26 -4.9)">
        <g id="XMLID_14_">
            <g id="XMLID_16_">
                <path id="XMLID_22_" d="M86.65 23.03a2.012 2.012 0 0 0 1.35-2.5L84.65 8.45a2.012 2.012 0 0 0-2.5-1.35 2.012 2.012 0 0 0-1.35 2.5l3.35 12.08a2.016 2.016 0 0 0 2.5 1.35z" class="cls-1"/>
                <path id="XMLID_21_" d="M94.08 20.71a2.011 2.011 0 0 0 .81-2.72l-4.23-7.77a2.011 2.011 0 0 0-2.72-.81 2.011 2.011 0 0 0-.81 2.72l4.23 7.77a2.011 2.011 0 0 0 2.72.81z" class="cls-1"/>
                <path id="XMLID_20_" d="M92.7 13.97a.166.166 0 0 0-.13.1l-2.17 3.69c-.04.05-.12.18-.08.26l.86 1.58a2.174 2.174 0 0 0 .49.59 1.73 1.73 0 0 0 .34.14 2.011 2.011 0 0 0 2.35-1.59l.24-1.25z" class="cls-2"/>
                <path id="XMLID_19_" d="M85.82 12.68c-.02.04-.05.06-.06.1l-2.36 5.87a.422.422 0 0 0-.03.22l.74 2.66a1.989 1.989 0 0 0 .39.66 1.607 1.607 0 0 0 .31.19c1.04.38 1.59-3.09 1.97-4.13l.31-1.02z" class="cls-2"/>
                <path id="XMLID_18_" d="M77.29 25.35a2.017 2.017 0 0 1-1.39-2.48l4.89-14.39a2.017 2.017 0 0 1 2.48-1.39 2.017 2.017 0 0 1 1.39 2.48l-4.89 14.39a2.021 2.021 0 0 1-2.48 1.39z" class="cls-3"/>
                <path id="XMLID_17_" d="M85.71 23.08a2.033 2.033 0 0 1-1.61-2.36l2.79-9.95a2.016 2.016 0 0 1 2.37-1.59 2.033 2.033 0 0 1 1.61 2.36l-2.79 9.95a2.021 2.021 0 0 1-2.37 1.59z" class="cls-4"/>
            </g>
            <path id="XMLID_15_" d="M92.3 20.79a2.021 2.021 0 0 1-1-2.66l1.59-3.5a2.009 2.009 0 0 1 2.66-1 2.013 2.013 0 0 1 1 2.66l-1.59 3.5a2.006 2.006 0 0 1-2.66 1z" class="cls-5"/>
        </g>
        <path id="XMLID_12_" d="M33.08 6.56h2.56v3.6h5.46v2h-5.46v7.59c-.02.66.29.98.91.97h.96v2.46h-1.34a2.992 2.992 0 0 1-2.21-.85 3.041 3.041 0 0 1-.88-2.36v-7.81h-2.26v-2h2.26z" class="cls-6"/>
        <path id="XMLID_10_" d="M39.1 10.16h2.56l-.01 7.76a2.824 2.824 0 0 0 .72 2.06 2.434 2.434 0 0 0 1.82.74 2.359 2.359 0 0 0 1.8-.74 2.82 2.82 0 0 0 .71-2.06l.01-7.77h2.56l-.01 13.05H46.7v-1.4h-.05a4.049 4.049 0 0 1-3.3 1.54 4.288 4.288 0 0 1-2.86-1.18 4.122 4.122 0 0 1-1.41-3.33z" class="cls-6"/>
        <path id="XMLID_9_" d="M73.29 17.69v-2.15a5.378 5.378 0 0 0-1.55-4.04 5.3 5.3 0 0 0-5.53-1.13 4.642 4.642 0 0 0-1.71 1.1 5.612 5.612 0 0 0-1.23 2.06 9.2 9.2 0 0 0-.48 3.21 8.107 8.107 0 0 0 .55 3.26 5.175 5.175 0 0 0 1.31 2.03 4.812 4.812 0 0 0 .9.59 4.925 4.925 0 0 0 .93.44 6.518 6.518 0 0 0 1.96.3 5.914 5.914 0 0 0 4.59-2.11l-1.85-1.62a3.78 3.78 0 0 1-2.79 1.27 2.924 2.924 0 0 1-2.16-.83 3.05 3.05 0 0 1-.88-2.37V15.54a3.56 3.56 0 0 1 .8-2.3 2.77 2.77 0 0 1 3.78.01 3.363 3.363 0 0 1 .8 2.31h-3.47v2.16z" class="cls-6"/>
        <path id="XMLID_8_" d="M30.44 17.69v-2.15a5.378 5.378 0 0 0-1.55-4.04 5.3 5.3 0 0 0-5.53-1.13 4.642 4.642 0 0 0-1.71 1.1 5.612 5.612 0 0 0-1.23 2.06 9.2 9.2 0 0 0-.48 3.21 8.107 8.107 0 0 0 .55 3.26 5.175 5.175 0 0 0 1.31 2.03 4.812 4.812 0 0 0 .9.59 4.925 4.925 0 0 0 .93.44 6.518 6.518 0 0 0 1.96.3 5.914 5.914 0 0 0 4.59-2.11l-1.85-1.62a3.78 3.78 0 0 1-2.79 1.27 2.924 2.924 0 0 1-2.16-.83 3.05 3.05 0 0 1-.88-2.37V15.54a3.56 3.56 0 0 1 .8-2.3 2.77 2.77 0 0 1 3.78.01 3.362 3.362 0 0 1 .8 2.31H17.11v2.16z" class="cls-6"/>
        <path id="XMLID_5_" d="M60.98 13.34a3.461 3.461 0 0 0-.72-1.62 3.943 3.943 0 0 0-3.42-1.71c-.04 0-.07.01-.11.01h-.01a4.63 4.63 0 0 0-3.17 1.13V4.9h-2.56l-.01 18.3h2.56v-1.06a4.558 4.558 0 0 0 1.98.99 4.608 4.608 0 0 0 1.31.23 4.452 4.452 0 0 0 2.04-.49 3.948 3.948 0 0 0 1.39-1.2 3.521 3.521 0 0 0 .72-1.67 22.106 22.106 0 0 0 .19-3.31 22.247 22.247 0 0 0-.19-3.35zm-2.41 4.78a5.26 5.26 0 0 1-.33 1.34 2 2 0 0 1-.75.93 2.6 2.6 0 0 1-1.44.35 2.218 2.218 0 0 1-1.36-.38 2.08 2.08 0 0 1-.77-.96 4.819 4.819 0 0 1-.31-1.32 13.58 13.58 0 0 1-.07-1.41c0-.5.03-.98.07-1.45a4.706 4.706 0 0 1 .31-1.28 2.131 2.131 0 0 1 .77-.96 2.238 2.238 0 0 1 1.36-.37 2.794 2.794 0 0 1 1.44.32 1.906 1.906 0 0 1 .75.93 5.228 5.228 0 0 1 .33 1.28 37.417 37.417 0 0 1 0 2.98z" class="cls-6"/>
        <path id="XMLID_23_" d="M17.17 11.13a4.532 4.532 0 0 0-2.99-1.14 5.833 5.833 0 0 0-4.43 1.7 6.319 6.319 0 0 0-1.51-1.24 4.9 4.9 0 0 0-2.21-.47 5.345 5.345 0 0 0-1.21.15l.01-.01a6.017 6.017 0 0 0-3.49 1.99 4.726 4.726 0 0 0-1.07 2.67l-.01 8.4h2.56v-7.76a2.671 2.671 0 0 1 .78-2.08 2.562 2.562 0 0 1 1.9-.73 2.658 2.658 0 0 1 1.91.73 2.775 2.775 0 0 1 .73 2.08v7.77h2.56v-7.77a2.773 2.773 0 0 1 .76-2.09 2.6 2.6 0 0 1 1.91-.73 2.578 2.578 0 0 1 1.9.73 2.745 2.745 0 0 1 .73 2.08v7.76h2.56v-8.66a4.361 4.361 0 0 0-1.39-3.38z" class="cls-6"/>
    </g>
</svg>
