<?xml version="1.0" encoding="utf-8"?>
<!-- Generator: Adobe Illustrator 16.0.0, SVG Export Plug-In . SVG Version: 6.00 Build 0)  -->
<!DOCTYPE svg PUBLIC "-//W3C//DTD SVG 1.1//EN" "http://www.w3.org/Graphics/SVG/1.1/DTD/svg11.dtd">
<svg version="1.1" id="Layer_1" xmlns="http://www.w3.org/2000/svg" xmlns:xlink="http://www.w3.org/1999/xlink" x="0px" y="0px"
	 width="172.321px" height="42px" viewBox="0 0 172.321 42" enable-background="new 0 0 172.321 42" xml:space="preserve">
<g>
	<path fill="#016FBA" d="M39.042,0.513c0,0.482,0,0.908,0,1.279c0,1.595-0.317,2.838-0.952,3.728
		c-0.635,0.89-1.531,1.576-2.688,2.057c-0.896,0.371-2.035,0.668-3.416,0.891c-1.381,0.223-2.707,0.333-3.976,0.333V35.85
		c2.464-0.858,4.517-2.035,6.16-3.528c1.194-1.12,2.445-2.707,3.752-4.76l0.392,0.168c-0.635,3.995-2.399,7.336-5.292,10.024
		c-2.894,2.688-6.375,4.031-10.444,4.031c-5.675,0-10.388-1.598-14.14-4.795s-5.628-7.189-5.628-11.975
		c0-3.365,0.97-6.75,2.912-10.153c2.128-3.739,4.872-6.525,8.232-8.357c-0.709-0.125-1.288-0.201-1.736-0.233
		c-0.448-0.031-1.12-0.047-2.016-0.047c-0.299,0-0.542,0-0.728,0c-1.195,0-2.763,0.551-4.704,1.652
		c-1.941,1.102-3.379,2.361-4.312,3.78H0.123C-0.102,10.575,0.291,9.101,1.3,7.233C3.805,2.604,7.917,0.29,13.638,0.29
		c1.607,0,5.131,0.542,10.571,1.624c5.44,1.083,8.459,1.624,9.058,1.624c1.346,0,2.374-0.186,3.084-0.56
		c0.859-0.485,1.588-1.381,2.187-2.688L39.042,0.513z M16.362,26.553V7.009l-0.84-0.224c-2.24,1.344-3.939,3.379-5.096,6.104
		c-1.008,2.352-1.512,4.816-1.512,7.392c0,3.622,0.84,6.702,2.52,9.24c0.56,0.821,1.4,1.736,2.52,2.744
		c0.261-0.225,0.466-0.41,0.616-0.561c0.448-0.484,0.756-0.951,0.924-1.4c0.168-0.447,0.289-0.82,0.364-1.119
		C16.194,28.141,16.362,27.263,16.362,26.553z M26.442,36.018V8.801l-3.808-0.84v11.984c0,2.016-0.188,3.724-0.56,5.124
		c-0.374,1.4-1.046,2.623-2.016,3.668c-0.784,0.859-1.718,1.735-2.8,2.632c-0.784,0.635-1.549,1.27-2.296,1.904
		c0.821,0.561,1.68,1.045,2.576,1.456s1.848,0.728,2.856,0.952c0.373,0.075,0.905,0.149,1.596,0.224
		c0.69,0.075,1.446,0.112,2.268,0.112c0.485,0,0.915,0,1.288,0C25.919,36.018,26.219,36.018,26.442,36.018z"/>
</g>
<g>
	<path fill="#016FBA" d="M31.728,11.678h-0.974v-0.83l5.46-0.398v3.37c0.726-2.158,1.718-3.237,2.979-3.237h0.229
		c0.865,0,1.501,0.542,1.909,1.627c0.292,0.742,0.439,1.583,0.439,2.523c0,0.775-0.146,1.489-0.439,2.142
		c-0.408,0.863-0.993,1.295-1.756,1.295c-1.451-0.243-2.177-1.505-2.177-3.785l0.153-1.494c-0.051-0.066-0.089-0.11-0.114-0.133
		l-0.077-0.066c-0.28,0-0.541,0.67-0.783,2.009c-0.102,0.554-0.153,1.483-0.153,2.789v8.367h1.355v0.78h-7.025v-0.78h0.974V11.678z"
		/>
	<path fill="#016FBA" d="M43.569,11.695h-0.974v-0.847c0.891,0,1.935-0.055,3.131-0.166l2.539-0.232v15.406h1.05v0.78h-6.72v-0.78
		h0.974V11.695z M43.378,5.685c0-2.014,0.859-3.021,2.577-3.021c1.642,0,2.463,1.09,2.463,3.271c0,0.83-0.159,1.544-0.477,2.142
		c-0.42,0.786-1.057,1.179-1.909,1.179C44.237,9.254,43.34,8.17,43.34,6L43.378,5.685z"/>
	<path fill="#016FBA" d="M55.506,12.824c0.764-1.604,1.648-2.407,2.653-2.407c0.191,0,0.325,0.011,0.401,0.033
		c1.298,0.155,2.265,1.317,2.902,3.486c0.433,1.483,0.649,3.049,0.649,4.698c0,4.051-0.8,6.696-2.4,7.936
		c-0.218,0.177-0.435,0.304-0.653,0.382c-0.281,0.11-0.614,0.166-0.998,0.166c-1.344,0-2.272-1.023-2.784-3.071v3.071
		c-0.84-0.122-2.113-0.271-3.818-0.448c-0.458-0.022-0.948-0.033-1.47-0.033v-0.78H51V4.291h-1.012V3.543
		c1.158,0,2.997-0.183,5.518-0.548V12.824z M57.263,14.899c0-1.627-0.236-2.44-0.707-2.44c-0.7,0-1.05,1.085-1.05,3.254v5.927
		c0,2.335,0.337,3.503,1.012,3.503c0.382,0,0.611-0.548,0.687-1.644c0.039-0.487,0.058-1.129,0.058-1.926V14.899z"/>
	<path fill="#016FBA" d="M63.988,11.695h-0.955v-0.847c1.311,0,3.169-0.133,5.575-0.398V23c0,0.908,0.057,1.439,0.172,1.594
		c0.076,0.177,0.254,0.266,0.534,0.266c0.382,0,0.668-0.348,0.859-1.044c0.178-0.652,0.267-1.448,0.267-2.388v-9.733H69.41v-0.847
		c0.626,0,1.555-0.055,2.788-0.166c1.232-0.11,2.161-0.166,2.787-0.166v15.34h1.069v0.78c-1.031,0-1.999,0.055-2.902,0.166
		l-2.54,0.315V23.98c-0.891,2.092-2.049,3.138-3.475,3.138c-0.216,0-0.375-0.011-0.477-0.033c-0.968-0.088-1.655-0.695-2.062-1.82
		c-0.408-1.125-0.611-2.565-0.611-4.319V11.695z"/>
	<path fill="#016FBA" d="M77.91,25.856V11.695h-0.955v-0.847c0.534,0,1.171-0.033,1.909-0.1c1.705-0.155,2.927-0.232,3.666-0.232
		v3.088c0.789-2.103,1.883-3.154,3.284-3.154c0.292,0,0.516,0.011,0.668,0.033c0.191,0.056,0.414,0.144,0.668,0.266
		c1.171,0.576,1.756,2.457,1.756,5.645v9.463h1.031v0.78h-6.224v-0.78h0.649V14.733c0-1.272-0.216-1.909-0.649-1.909h-0.076
		c-0.344,0-0.605,0.299-0.783,0.896c-0.216,0.742-0.324,1.439-0.324,2.092v10.044h0.706v0.78h-6.281v-0.78H77.91z"/>
	<path fill="#B9201F" d="M91.833,25.856V11.695h-0.955v-0.847c0.534,0,1.171-0.033,1.909-0.1c1.705-0.155,2.927-0.232,3.666-0.232
		v3.088c0.789-2.103,1.883-3.154,3.284-3.154c0.292,0,0.516,0.011,0.668,0.033c0.191,0.056,0.414,0.144,0.668,0.266
		c1.171,0.576,1.756,2.457,1.756,5.645v9.463h1.031v0.78h-6.224v-0.78h0.649V14.733c0-1.272-0.216-1.909-0.649-1.909h-0.076
		c-0.344,0-0.605,0.299-0.783,0.896c-0.216,0.742-0.324,1.439-0.324,2.092v10.044h0.706v0.78h-6.281v-0.78H91.833z"/>
	<path fill="#B9201F" d="M109.555,19.796c0,1.605,0.025,2.646,0.076,3.121c0.152,1.494,0.521,2.44,1.107,2.839l0.859,0.266
		c1.374,0,2.545-1.179,3.513-3.536l0.362,0.448c-0.789,1.627-1.444,2.679-1.966,3.154c-0.803,0.73-1.764,1.096-2.883,1.096
		c-1.909,0-3.36-0.764-4.354-2.291c-0.992-1.527-1.489-3.497-1.489-5.91c0-2.025,0.351-3.807,1.05-5.346
		c0.968-2.125,2.432-3.188,4.392-3.188c1.578,0,2.88,0.855,3.904,2.565s1.537,3.971,1.537,6.782H109.555z M109.555,13.886v5.13
		h1.642V13.82c0-0.952-0.025-1.544-0.076-1.776c-0.128-0.564-0.389-0.847-0.783-0.847C109.815,11.197,109.555,12.093,109.555,13.886
		z"/>
	<path fill="#B9201F" d="M122.904,11.695l-0.636,0.001l2.399,10.572l0.858-3.968l-1.426-6.604l-0.814-0.001v-0.847h6.472v0.847
		h-1.069l2.272,10.242l1.642-7.458c0.127-0.574,0.191-1.166,0.191-1.773c0-0.674-0.204-1.011-0.611-1.011h-0.248v-0.847h2.94v0.847
		c-0.599,0-1.057,0.484-1.375,1.453c-0.076,0.22-0.204,0.749-0.382,1.585l-2.578,11.903h-3.126l-1.568-6.985l-1.57,6.985h-3.28
		l-3.418-14.941h-0.936v-0.847h6.263V11.695z"/>
	<path fill="#B9201F" d="M142.096,11.396l1.489-1.013h0.439l0.114,5.711h-0.439c-0.496-1.749-1.146-3.043-1.947-3.885
		c-0.636-0.675-1.285-1.013-1.947-1.013c-0.688,0-1.03,0.498-1.03,1.494c0,0.609,0.235,1.107,0.706,1.494
		c0.853,0.542,1.699,1.085,2.539,1.627c0.814,0.62,1.432,1.361,1.852,2.225c0.459,0.952,0.688,2.131,0.688,3.536
		c0,1.904-0.35,3.32-1.05,4.25c-0.42,0.564-0.942,0.952-1.565,1.162c-0.114,0.033-0.478,0.1-1.088,0.199
		c-0.446,0-0.904-0.139-1.375-0.415c-0.306-0.166-0.745-0.415-1.317-0.747l-1.565,1.162h-0.554l-0.134-6.159h0.363
		c0.445,1.649,1.139,2.972,2.08,3.968c0.738,0.775,1.438,1.207,2.101,1.295c0.203,0.022,0.324,0.044,0.362,0.066
		c0.776-0.1,1.165-0.575,1.165-1.428c0-0.819-0.356-1.458-1.069-1.917c-0.713-0.459-1.763-1.143-3.15-2.05
		c-1.234-1.162-1.852-2.75-1.852-4.765c0-1.328,0.229-2.518,0.688-3.569c0.636-1.45,1.597-2.175,2.883-2.175
		c0.369,0,0.764,0.066,1.184,0.199C141.071,10.815,141.549,11.064,142.096,11.396z"/>
</g>
<g>
	<path fill="#B9201F" d="M154.296,26.832c-0.449,0-0.861-0.093-1.236-0.277s-0.697-0.465-0.967-0.84s-0.479-0.848-0.627-1.418
		s-0.223-1.241-0.223-2.012c0-0.766,0.077-1.427,0.231-1.984c0.154-0.557,0.36-1.026,0.618-1.406
		c0.258-0.38,0.579-0.673,0.964-0.879c0.385-0.206,0.798-0.309,1.239-0.309c0.359,0,0.706,0.068,1.04,0.203
		c0.334,0.136,0.632,0.292,0.894,0.469v1.648h-0.064c-0.078-0.088-0.179-0.19-0.302-0.305c-0.123-0.114-0.272-0.231-0.448-0.352
		c-0.152-0.104-0.332-0.195-0.539-0.273s-0.406-0.117-0.598-0.117c-0.57,0-1.028,0.288-1.374,0.863
		c-0.346,0.576-0.519,1.39-0.519,2.441c0,1.031,0.167,1.835,0.501,2.41c0.334,0.576,0.798,0.863,1.392,0.863
		c0.359,0,0.701-0.099,1.025-0.297c0.324-0.198,0.611-0.453,0.861-0.766h0.064v1.648c-0.109,0.068-0.246,0.15-0.41,0.246
		c-0.164,0.097-0.313,0.168-0.445,0.215c-0.188,0.073-0.355,0.129-0.504,0.168S154.53,26.832,154.296,26.832z"/>
	<path fill="#B9201F" d="M162.616,22.277c0,1.469-0.266,2.603-0.797,3.402c-0.531,0.8-1.238,1.199-2.121,1.199
		c-0.91,0-1.626-0.413-2.147-1.238c-0.521-0.825-0.782-1.946-0.782-3.363c0-1.458,0.269-2.591,0.806-3.398
		c0.537-0.807,1.245-1.211,2.124-1.211c0.883,0,1.59,0.402,2.121,1.207S162.616,20.813,162.616,22.277z M161.479,22.277
		c0-1.13-0.154-1.97-0.463-2.52c-0.309-0.549-0.748-0.824-1.318-0.824c-0.574,0-1.017,0.275-1.327,0.824
		c-0.311,0.55-0.466,1.39-0.466,2.52c0,1.094,0.155,1.923,0.466,2.488c0.311,0.565,0.753,0.848,1.327,0.848
		c0.566,0,1.005-0.277,1.315-0.832S161.479,23.392,161.479,22.277z"/>
	<path fill="#B9201F" d="M171.177,26.636v-5.047c0-0.401-0.012-0.772-0.035-1.113c-0.023-0.341-0.072-0.608-0.146-0.801
		c-0.078-0.208-0.189-0.362-0.334-0.461c-0.145-0.099-0.34-0.148-0.586-0.148c-0.227,0-0.47,0.093-0.729,0.277
		c-0.26,0.185-0.528,0.452-0.806,0.801c0.004,0.089,0.009,0.194,0.015,0.316c0.006,0.123,0.009,0.267,0.009,0.434v5.742h-1.102
		v-5.047c0-0.401-0.012-0.772-0.035-1.113c-0.023-0.341-0.072-0.608-0.146-0.801c-0.078-0.208-0.189-0.362-0.334-0.461
		c-0.145-0.099-0.34-0.148-0.586-0.148c-0.238,0-0.488,0.099-0.75,0.297c-0.262,0.198-0.516,0.451-0.762,0.758v6.516h-1.102V17.91
		h1.102v0.969c0.289-0.385,0.575-0.684,0.858-0.895s0.595-0.316,0.935-0.316c0.387,0,0.729,0.117,1.028,0.352
		s0.526,0.62,0.683,1.156c0.332-0.495,0.656-0.87,0.973-1.125c0.316-0.255,0.66-0.383,1.031-0.383c0.281,0,0.537,0.059,0.768,0.176
		s0.432,0.306,0.604,0.566c0.176,0.266,0.312,0.597,0.407,0.992c0.096,0.396,0.144,0.894,0.144,1.492v5.742H171.177z"/>
</g>
<g>
	<circle fill="#B9201F" cx="147.847" cy="24.787" r="1.85"/>
</g>
</svg>
