<svg xmlns="http://www.w3.org/2000/svg" xmlns:xlink="http://www.w3.org/1999/xlink" width="92" height="48" viewBox="0 0 92 48">
  <defs>
    <polygon id="disney-logo-a" points="29.835 .395 0 .395 0 24.546 29.835 24.546"/>
  </defs>
  <g fill="none" fill-rule="evenodd" transform="translate(8 9)">
    <g transform="translate(0 .546)">
      <mask id="disney-logo-b" fill="#fff">
        <use xlink:href="#disney-logo-a"/>
      </mask>
      <path fill="#FEFEFE" d="M5.17535128,15.9660235 C5.19432564,15.0022588 8.11637692,14.4733176 11.2177359,14.3707294 C11.1883256,16.0686118 11.0308385,18.2559059 11.0260949,19.8879059 C7.69135128,19.0512 5.17440256,16.6662588 5.17535128,15.9660235 L5.17535128,15.9660235 Z M6.49217179,0.404611765 C2.67453077,0.434729412 1.18409487,1.58296471 1.18409487,1.58296471 C1.18409487,1.58296471 -0.0274179487,2.26437647 9.48717949e-05,3.30437647 C0.00483846154,3.91237647 0.678428205,4.0432 1.1328641,4.04225882 C1.59014615,4.04508235 2.44588974,3.90672941 2.44399231,3.63284706 C2.38137692,3.14343529 1.60437692,3.21872941 1.60627436,2.83472941 C1.49337692,2.67284706 3.82627436,2.41590588 4.99699231,2.41778824 C5.83376154,2.35661176 6.94281282,2.45449412 7.91524872,2.54484706 C10.5839923,2.79237647 13.3827103,3.65072941 16.2364538,4.94767059 C21.9610179,7.54814118 27.0945308,11.7382588 26.9152231,15.5537882 C26.8753769,20.1655529 20.8472231,21.2535529 17.4603,21.1217882 C16.2905308,21.1217882 14.3228897,20.9599059 14.0847615,20.6436706 C13.8466333,20.3264941 13.9415051,14.9787294 13.9196846,14.7349647 C13.8969154,14.4930824 14.197659,14.3895529 14.3238385,14.3735529 C14.4908128,14.3528471 14.7194538,14.3735529 14.8949667,14.3744941 C17.4242487,14.5693176 20.7343256,15.0239059 20.7533,15.6742588 C20.7751205,16.4206118 19.8121718,16.3189647 19.6765051,17.0643765 C19.6774538,17.4210824 20.4848128,17.5406118 21.1251974,17.4446118 C21.7655821,17.3495529 22.8566077,16.8592 22.9277615,15.4577882 C22.9334538,13.8032 21.2086846,11.5453176 14.3048641,11.7288471 C14.2128385,11.7288471 14.1189154,11.7326118 14.0221462,11.7354353 C13.9709154,9.87755294 13.9709154,7.24037647 12.4795308,6.90814118 C11.6256846,6.90531765 11.3220949,10.2596706 11.2386077,12.0375529 C7.11453077,12.4921412 4.48563333,14.0723765 4.48183846,15.5829647 C4.36704359,17.1048471 5.57381282,18.2540235 9.10019744,20.6248471 C9.65235128,20.9975529 10.7481205,21.4709647 10.9985821,21.9669647 C11.2490436,22.4648471 11.1076846,24.4648471 12.5867359,24.5457882 C13.4652487,24.5476706 14.0278385,23.7316706 14.1265051,23.0342588 C15.4955051,23.4022588 16.8256077,23.5039059 18.4052231,23.5076706 C24.9096333,23.5679059 29.8258897,20.1664941 29.8353769,15.5312 C29.7129923,10.6107294 22.8566077,4.5712 15.3655308,2.04790588 C12.2774538,1.00790588 9.6058641,0.3952 6.5927359,0.3952 L6.49217179,0.404611765 Z" mask="url(#disney-logo-b)"/>
    </g>
    <path fill="#FEFEFE" d="M31.7533051 12.4559059C30.7286897 12.4192 30.7457667 16.9039059 30.7049718 18.4756706 30.6101 22.0709647 31.0768692 22.5594353 32.0056641 22.5603765 33.0758179 22.3777882 33.2494333 22.4427294 33.1536128 19.4827294 33.1593051 18.3457882 33.0995359 17.4592 33.0891 16.6573176 33.0388179 12.5283765 32.3870487 12.3975529 31.7533051 12.4559059M32.0535744 5.944C32.2414205 6.06635294 30.5270872 7.85929412 30.2481641 8.00329412 30.0290103 8.11623529 30.0109846 7.85458824 30.0119333 7.74352941 30.0138308 7.02447059 31.4928821 5.752 32.0327026 5.97129412 32.0327026 5.97129412 31.8657282 5.82164706 32.0535744 5.944M32.8476513 9.40470588C32.3154205 9.40188235 32.1323179 9.38588235 32.1114462 9.15717647 32.0753949 8.76 32.8106513 8.06541176 33.3874718 7.52235294 34.2669333 6.69317647 35.3940103 6.05317647 36.1254718 6.056 36.9195487 6.056 37.2715231 6.31858824 37.1149846 6.83905882 37.0552154 7.03858824 37.0153692 7.496 36.1472923 8.22635294 35.2725744 8.96329412 33.8267282 9.38305882 32.8476513 9.40470588M32.5782154 11.2767059C34.8854974 11.2814118 38.4147282 9.18070588 38.5798051 6.46447059 38.5854974 5.45835294 38.1737538 4.88235294 36.8559846 4.712 36.3303949 4.18870588 35.653959 3.592 34.2498564 3.61835294 30.7471897 3.80941176 28.2122154 6.73364706 28.3953179 8.25364706 28.3924718 8.84847059 28.8573436 9.38023529 28.9996513 9.80282353 29.141959 10.2244706 29.2396769 11.7501176 29.9445744 11.7783529 30.399959 11.7802353 30.5916 11.4856471 30.7642667 11.1581176 31.3534205 11.2512941 31.8401128 11.2795294 32.5782154 11.2767059M44.4943026 13.2854588C44.4924051 12.2887529 41.7306872 12.0826353 40.3265846 12.0798118 39.272559 12.0779294 33.9407641 12.5786353 33.8686615 15.5141647 33.8392513 17.2948706 36.9055077 16.8779294 38.9073026 17.2101647 40.5220205 17.3842824 42.4488667 17.6129882 42.4668923 18.5795765 42.4697385 19.9367529 38.1236615 20.1409882 37.2404051 20.1428706 35.424559 20.1372235 35.5203795 19.4849882 35.5213282 19.2111059 35.5232256 18.9409882 35.7120205 18.7386353 36.3932 18.7348706 37.0734308 18.7386353 38.5420462 19.4595765 39.5049949 19.4614588 40.469841 19.4614588 41.4792769 19.1593412 41.4574564 18.6501647 41.4584051 17.8388706 38.3266872 17.4332235 37.0307385 17.5216941 35.9918923 17.5216941 34.5488923 17.9075765 34.5488923 19.5085176 34.5450974 20.3414588 35.4776872 22.3941647 39.5533795 22.4261647 43.6290718 22.4591059 44.5237128 20.2407529 44.4610974 19.0369882 44.5113795 16.6200471 41.6832513 15.8520471 39.5268154 15.6506353 37.9120974 15.5056941 36.1436872 15.6647529 36.1721487 15.3522824 36.0383795 14.9033412 38.5733538 14.4911059 40.8066359 14.3913412 42.8454308 14.3009882 44.5142256 14.0129882 44.5113795 13.2045176L44.4943026 13.2854588zM50.3181974 10.6103529C50.0174538 10.6094118 49.9586333 10.9407059 49.9567359 11.2898824 50.0819667 12.4456471 51.3779154 16.1350588 51.3750692 17.5317647 51.3741205 17.8235294 51.4965051 18.3637647 51.2764026 18.424 50.605659 18.6188235 48.3078641 12.9943529 46.7159154 13.0235294 45.0831718 13.4564706 44.6515051 18.6894118 44.6496077 20.0503529 44.6477103 21.4075294 45.1068897 22.4032941 45.9901462 22.3534118 47.6466077 22.2536471 46.5413513 16.7910588 47.3458641 16.664 48.0735308 16.5491765 49.2603769 21.3614118 51.2887359 21.8122353 52.727941 21.816 53.6643256 19.7962353 53.6681205 18.3976471 53.7648897 14.2536471 51.5743 10.8842353 50.3181974 10.6103529M60.1842949 19.9057882C59.6738846 19.9039059 57.4747564 20.6690824 57.1853974 20.3763765 56.7262179 19.9133176 57.2318846 18.5712 57.4652692 18.4959059 57.8267308 18.3763765 60.1074487 18.3980235 60.4708077 18.3763765 61.4992179 18.3396706 61.3597564 16.8977882 60.7525769 16.6502588 60.5467051 16.5232 60.1264231 16.4799059 59.6568077 16.5448471 58.9187051 16.6464941 58.5240385 16.7020235 58.3523205 16.5693176 58.0288077 16.3208471 58.2678846 15.4926118 58.4974744 15.3956706 58.9566538 15.2027294 61.1254231 15.4182588 62.2268846 15.0239059 62.6073205 14.9288471 62.9336795 14.7537882 63.0029359 14.3312 63.1006538 13.9989647 62.0475769 12.4864941 60.1112436 12.5599059 57.6853718 12.8704941 54.1276795 13.4220235 54.6029872 13.8201412 54.6323974 14.5269647 56.1550897 15.0794353 56.2091667 15.3241412 56.2717821 15.6055529 56.1493974 15.8427294 55.8325256 16.4027294 55.4122436 17.1443765 54.8335256 16.7330824 54.7557308 17.4897882 54.7396026 17.6620235 54.9805769 18.3490824 54.9246026 18.5608471 54.7528846 19.1999059 54.2092692 20.0592 54.2073718 20.6032 54.2054744 21.4464941 54.341141 23.1500235 56.3647564 23.4662588 58.2489103 23.6959059 61.5741667 22.0836706 61.6102179 20.9335529 61.7800385 20.0253176 60.6928077 19.9057882 60.1842949 19.9057882"/>
    <path fill="#FEFEFE" d="M6.72631538,8.60668235 C6.36580256,8.31774118 7.00049487,7.78974118 7.6731359,6.74974118 C8.75277692,5.08385882 9.85044359,3.95162353 10.2545974,3.71632941 C10.7090333,3.7248 10.7744949,4.2048 10.7725974,4.90691765 C10.6236487,6.82221176 9.08862308,8.23021176 7.50331538,8.53703529 C7.26898205,8.58315294 6.97298205,8.68385882 6.72631538,8.60668235 C6.72631538,8.60668235 7.19782821,8.98409412 6.72631538,8.60668235 M10.3589564,1.61562353 C8.57441795,1.32856471 4.5812641,6.82315294 4.14675128,6.84103529 C3.82987949,6.85421176 3.9522641,6.47021176 3.9522641,6.27538824 C4.17236667,5.2928 5.71687949,2.73185882 6.02805897,2.06550588 C6.6637,0.867388235 5.99959744,0.483388235 5.61157179,0.7488 C4.83552051,1.39162353 2.15918718,4.57750588 2.09657179,7.20244706 C2.09277692,7.83303529 2.34608462,8.73185882 2.68762308,9.43021176 C1.81100769,11.6193882 0.659264103,15.0866824 0.692469231,17.5695059 C0.705751282,18.8513882 1.87267436,19.7530353 2.7151359,19.7643294 C3.00734103,19.7031529 3.16103333,17.9375059 3.40675128,16.9069176 C3.65341795,15.8772706 3.7511359,15.0575059 5.24441795,11.4415059 C5.3791359,11.4537412 5.5167,11.4650353 5.66564872,11.4669176 C8.67498205,11.4697412 12.3825718,8.67256471 12.355059,5.40197647 C12.3617,2.56244706 10.8779051,1.58550588 10.3589564,1.61562353" transform="translate(60.718 11.84)"/>
  </g>
</svg>
