<?xml version="1.0" encoding="UTF-8" standalone="no"?>
<svg width="40px" height="552px" viewBox="0 0 40 552" version="1.1" xmlns="http://www.w3.org/2000/svg" xmlns:xlink="http://www.w3.org/1999/xlink">
    <!-- Generator: Sketch 45.1 (43504) - http://www.bohemiancoding.com/sketch -->
    <title>icons-sprite copy1</title>
    <desc>Created with Sketch.</desc>
    <defs></defs>
    <g id="Video-w/-Share-Redlines" stroke="none" stroke-width="1" fill="none" fill-rule="evenodd">
        <g id="icons-sprite-copy">
            <g id="ICON:-Pause" transform="translate(-4.000000, 168.000000)">
                <rect id="Rectangle-408-Copy-5" fill="#FF0000" opacity="0" x="0" y="0" width="48" height="48"></rect>
                <g transform="translate(18.000000, 16.000000)" fill="#FFFFFF">
                    <path d="M4.58333333,0 L0.416666667,0 C0.186666667,0 0,0.149333333 0,0.333333333 L0,15.6666667 C0,15.8506667 0.186666667,16 0.416666667,16 L4.58333333,16 C4.81333333,16 5,15.8506667 5,15.6666667 L5,0.333333333 C5,0.149333333 4.81333333,0 4.58333333,0" id="Fill-1"></path>
                    <path d="M7.41666667,0 C7.18666667,0 7,0.149333333 7,0.333333333 L7,15.6666667 C7,15.8506667 7.18666667,16 7.41666667,16 L11.5833333,16 C11.8133333,16 12,15.8506667 12,15.6666667 L12,0.333333333 C12,0.149333333 11.8133333,0 11.5833333,0 L7.41666667,0 Z" id="Fill-3"></path>
                </g>
            </g>
            <g id="ICON:-Play" transform="translate(-4.000000, 224.000000)">
                <g id="Group-4-Copy" fill="#FF0000" opacity="0">
                    <rect id="Rectangle-408-Copy-5" x="0" y="0" width="48" height="48"></rect>
                </g>
                <path d="M16,16.7997514 C16,16.5229497 16.1440009,16.2653482 16.3792023,16.1197473 C16.6160037,15.9725464 16.9104055,15.9613463 17.158407,16.0845471 L31.5584934,23.2845903 C31.828895,23.4205911 32.000096,23.6973928 32.000096,23.9997946 C32.000096,24.3021964 31.828895,24.5789981 31.5584934,24.7149989 L17.158407,31.9150421 C17.0448063,31.9710424 16.9216055,31.9998426 16.8000048,31.9998426 C16.6544039,31.9998426 16.507203,31.9598423 16.3792023,31.8798419 C16.1440009,31.734241 16,31.4766394 16,31.1998378 L16,16.7997514 Z" id="Page-1" fill="#FFFFFF"></path>
            </g>
            <g id="ICON:-Sound" transform="translate(-4.000000, 56.000000)">
                <rect id="Rectangle-408-Copy-4" fill="#FF0000" opacity="0" x="0" y="0" width="48" height="48"></rect>
                <g id="ICON:-MUTE" transform="translate(15.000000, 15.000000)" fill="#FFFFFF">
                    <g id="Group-4">
                        <path d="M10.7388779,0.0333325423 C10.5806471,-0.0343788749 10.398724,0.00333381316 10.277724,0.12590005 L4.4790317,6.00050833 L1.69264709,6.00050833 C0.759339394,6.00050833 0.00033939394,6.7693329 0.00033939394,7.71472142 L0.00033939394,10.2860411 C0.00033939394,11.2314296 0.759339394,12.0002542 1.69264709,12.0002542 L4.4790317,12.0002542 L10.277724,17.8740053 C10.3589548,17.9562876 10.4664163,18 10.5772625,18 C10.6314163,18 10.6864163,17.9897147 10.7388779,17.96743 C10.8971086,17.9014327 11.0003394,17.7445822 11.0003394,17.5714467 L11.0003394,0.429315767 C11.0003394,0.256180245 10.8971086,0.0993297465 10.7388779,0.0333325423" id="Fill-1"></path>
                        <path d="M14.7126669,3.3924661 C14.3933582,3.15979689 13.9451806,3.23017215 13.7117845,3.55045137 C13.4798204,3.87073059 13.5514143,4.32027048 13.8707229,4.55437592 C15.0419987,5.40893258 16.4395111,6.87388686 16.4395111,8.99950679 C16.4395111,11.1279992 15.0419987,12.5915172 13.8707229,13.4446377 C13.5514143,13.6787431 13.4798204,14.128283 13.7117845,14.4485622 C13.8521085,14.6424532 14.0711858,14.7444255 14.2931268,14.7444255 C14.4377464,14.7444255 14.5852298,14.7013386 14.7126669,14.6079837 C16.7502285,13.1243584 17.8713886,11.1323079 17.8713886,8.99950679 C17.8713886,6.86957817 16.7502285,4.87752759 14.7126669,3.3924661" id="Fill-4"></path>
                    </g>
                </g>
            </g>
            <g id="ICON:-CC" transform="translate(-4.000000, 0.000000)">
                <rect id="Rectangle-408-Copy-4" fill="#FF0000" opacity="0" x="0" y="0" width="48" height="48"></rect>
                <g transform="translate(12.000000, 14.000000)" id="Combined-Shape" fill="#FFFFFF">
                    <path d="M16,0 C20.411,0 24,3.589 24,8 C24,12.411 20.411,16 16,16 L13.207,16 L9.354,19.854 C9.258,19.949 9.13,20 9,20 C8.936,20 8.871,19.988 8.809,19.962 C8.622,19.885 8.5,19.702 8.5,19.5 L8.5,16 L8,16 C3.589,16 0,12.411 0,8 C0,3.589 3.589,0 8,0 L16,0 Z M4,8 C4,8.59893348 4.10573912,9.14260005 4.31722054,9.63101604 C4.52870196,10.119432 4.81772224,10.5401052 5.18429003,10.8930481 C5.55085782,11.2459911 5.98262591,11.5187156 6.47960725,11.7112299 C6.97658859,11.9037443 7.50704653,12 8.07099698,12 C8.69839186,12 9.25880921,11.8983967 9.75226586,11.6951872 C10.2457225,11.4919776 10.6616297,11.219253 11,10.8770053 L9.45619335,9.00534759 C9.33635388,9.16934128 9.17245824,9.31194235 8.96450151,9.43315508 C8.75654478,9.55436781 8.50805784,9.61497326 8.21903323,9.61497326 C8.01460119,9.61497326 7.82074613,9.57754048 7.63746224,9.5026738 C7.45417834,9.42780711 7.29380733,9.3190738 7.15634441,9.17647059 C7.01888149,9.03386738 6.90961773,8.86452861 6.82854985,8.6684492 C6.74748197,8.47236979 6.70694864,8.24955561 6.70694864,8 C6.70694864,7.75044439 6.74571965,7.52406519 6.82326284,7.32085561 C6.90080603,7.11764604 7.00830747,6.94474225 7.14577039,6.80213904 C7.28323332,6.65953583 7.44360432,6.55080251 7.62688822,6.47593583 C7.81017211,6.40106914 8.00755181,6.36363636 8.21903323,6.36363636 C8.47986032,6.36363636 8.71601103,6.41176422 8.92749245,6.50802139 C9.13897387,6.60427856 9.31520574,6.74509711 9.45619335,6.93048128 L11,5.04812834 C10.6545803,4.72727112 10.2245746,4.47237171 9.70996979,4.28342246 C9.195365,4.09447321 8.64904619,4 8.07099698,4 C7.50704653,4 6.97658859,4.09447321 6.47960725,4.28342246 C5.98262591,4.47237171 5.55085782,4.74153123 5.18429003,5.09090909 C4.81772224,5.44028695 4.52870196,5.86096011 4.31722054,6.35294118 C4.10573912,6.84492225 4,7.39393636 4,8 Z M12,8 C12,8.59893348 12.1057391,9.14260005 12.3172205,9.63101604 C12.528702,10.119432 12.8177222,10.5401052 13.18429,10.8930481 C13.5508578,11.2459911 13.9826259,11.5187156 14.4796073,11.7112299 C14.9765886,11.9037443 15.5070465,12 16.070997,12 C16.6983919,12 17.2588092,11.8983967 17.7522659,11.6951872 C18.2457225,11.4919776 18.6616297,11.219253 19,10.8770053 L17.4561934,9.00534759 C17.3363539,9.16934128 17.1724582,9.31194235 16.9645015,9.43315508 C16.7565448,9.55436781 16.5080578,9.61497326 16.2190332,9.61497326 C16.0146012,9.61497326 15.8207461,9.57754048 15.6374622,9.5026738 C15.4541783,9.42780711 15.2938073,9.3190738 15.1563444,9.17647059 C15.0188815,9.03386738 14.9096177,8.86452861 14.8285498,8.6684492 C14.747482,8.47236979 14.7069486,8.24955561 14.7069486,8 C14.7069486,7.75044439 14.7457197,7.52406519 14.8232628,7.32085561 C14.900806,7.11764604 15.0083075,6.94474225 15.1457704,6.80213904 C15.2832333,6.65953583 15.4436043,6.55080251 15.6268882,6.47593583 C15.8101721,6.40106914 16.0075518,6.36363636 16.2190332,6.36363636 C16.4798603,6.36363636 16.716011,6.41176422 16.9274924,6.50802139 C17.1389739,6.60427856 17.3152057,6.74509711 17.4561934,6.93048128 L19,5.04812834 C18.6545803,4.72727112 18.2245746,4.47237171 17.7099698,4.28342246 C17.195365,4.09447321 16.6490462,4 16.070997,4 C15.5070465,4 14.9765886,4.09447321 14.4796073,4.28342246 C13.9826259,4.47237171 13.5508578,4.74153123 13.18429,5.09090909 C12.8177222,5.44028695 12.528702,5.86096011 12.3172205,6.35294118 C12.1057391,6.84492225 12,7.39393636 12,8 Z"></path>
                </g>
            </g>
            <g id="ICON:-Mute" transform="translate(-4.000000, 112.000000)">
                <rect id="Rectangle-408-Copy-7" fill="#FF0000" opacity="0" x="0" y="0" width="48" height="48"></rect>
                <g transform="translate(15.000000, 15.000000)" fill="#FFFFFF">
                    <path d="M16.8032902,5.53992778 C17.502473,6.60130558 17.8713886,7.77772193 17.8713886,8.99950679 C17.8713886,11.1323079 16.7502285,13.1243584 14.7126669,14.6079837 C14.5852298,14.7013386 14.4377464,14.7444255 14.2931268,14.7444255 C14.0711858,14.7444255 13.8521085,14.6424532 13.7117845,14.4485622 C13.4798204,14.128283 13.5514143,13.6787431 13.8707229,13.4446377 C15.0419987,12.5915172 16.4395111,11.1279992 16.4395111,8.99950679 C16.4395111,8.04853602 16.1597942,7.22979978 15.74576,6.53879676 L16.8032902,5.53992778 Z M11,4.14356104 L2.68190181,12.0002542 L1.69230769,12.0002542 C0.759,12.0002542 0,11.2314296 0,10.2860411 L0,7.71472142 C0,6.7693329 0.759,6.00050833 1.69230769,6.00050833 L4.47869231,6.00050833 L10.2773846,0.12590005 C10.3983846,0.00333381316 10.5803077,-0.0343788749 10.7385385,0.0333325423 C10.8967692,0.0993297465 11,0.256180245 11,0.429315767 L11,4.14356104 Z M11,11.0213094 L11,17.5714467 C11,17.7445822 10.8967692,17.9014327 10.7385385,17.96743 C10.6860769,17.9897147 10.6310769,18 10.5769231,18 C10.4660769,18 10.3586154,17.9562876 10.2773846,17.8740053 L7.1252795,14.6810991 L11,11.0213094 Z" id="Combined-Shape"></path>
                    <path d="M18.870088,0.3879961 C18.8355378,0.335608441 18.7966688,0.285676453 18.7482985,0.239837252 C18.7068382,0.200546507 18.6619229,0.166167106 18.6144164,0.135880491 C18.60146,0.128513476 18.5876399,0.122783576 18.5746836,0.116235119 C18.5384059,0.0957711892 18.5021282,0.0753072599 18.4641229,0.0605732308 C18.4477116,0.0540247734 18.4287089,0.0515691019 18.4114338,0.0458392017 C18.3760198,0.0343794013 18.3406059,0.0221010437 18.3043281,0.0155525863 C18.2499115,0.00572990021 18.1946312,0 18.1376233,0 C18.0814792,0 18.0253351,0.00572990021 17.9709185,0.0155525863 C17.937232,0.0221010437 17.9035456,0.0335608441 17.8698591,0.0442020873 C17.8508565,0.0499319875 17.8301264,0.0540247734 17.8111237,0.061391788 C17.778301,0.0736701455 17.7472058,0.0916784033 17.7152469,0.108868104 C17.697108,0.11869079 17.6781054,0.125239247 17.6608303,0.136699048 C17.6288713,0.157162977 17.5986399,0.18253825 17.5692722,0.207913522 C17.5554521,0.219373322 17.5399045,0.227558894 17.5269482,0.239837252 L0.251837945,16.6109807 C-0.0409751735,16.8884716 -0.0781166605,17.3182141 0.138685973,17.6349957 C0.170644927,17.682472 0.208650169,17.7274927 0.251837945,17.7684205 C0.256156723,17.7725133 0.261339256,17.774969 0.265658033,17.7790618 C0.593885128,18.0770166 1.15100743,18.0737424 1.47318824,17.7684205 L18.7482985,1.39727709 C19.0376566,1.123879 19.0765256,0.703140611 18.870088,0.3879961" id="Fill-7"></path>
                </g>
            </g>
            <g id="ICON:-Exit-Full-Screen" transform="translate(0.000000, 336.000000)" fill="#FFFFFF">
                <g id="Group">
                    <g id="Group-2" transform="translate(10.000000, 14.000000)">
                        <path d="M9.9235,10.618 C9.9095,10.584 9.8895,10.553 9.8725,10.52 C9.8585,10.495 9.8475,10.47 9.8315,10.446 C9.7585,10.336 9.6645,10.242 9.5545,10.169 C9.5295,10.152 9.5025,10.14 9.4755,10.126 C9.4445,10.109 9.4155,10.09 9.3825,10.077 C9.3495,10.063 9.3145,10.055 9.2795,10.045 C9.2515,10.037 9.2245,10.026 9.1955,10.02 C9.1315,10.007 9.0655,10 8.9995,10 L3.9995,10 C3.4475,10 2.9995,10.448 2.9995,11 C2.9995,11.553 3.4475,12 3.9995,12 L6.5855,12 L0.2925,18.293 C-0.0975,18.684 -0.0975,19.317 0.2925,19.708 C0.4885,19.903 0.7445,20 0.9995,20 C1.2555,20 1.5115,19.903 1.7075,19.708 L7.9995,13.414 L7.9995,16 C7.9995,16.553 8.4475,17 8.9995,17 C9.5525,17 9.9995,16.553 9.9995,16 L9.9995,11 C9.9995,10.935 9.9935,10.869 9.9805,10.805 C9.9745,10.775 9.9635,10.747 9.9545,10.718 C9.9445,10.684 9.9365,10.651 9.9235,10.618 Z" id="Fill-4"></path>
                        <path d="M19.9235,0.618 C19.9095,0.584 19.8895,0.553 19.8725,0.52 C19.8585,0.495 19.8475,0.47 19.8315,0.446 C19.7585,0.336 19.6645,0.242 19.5545,0.169 C19.5295,0.152 19.5025,0.14 19.4755,0.126 C19.4445,0.109 19.4155,0.09 19.3825,0.077 C19.3495,0.063 19.3145,0.055 19.2795,0.045 C19.2515,0.037 19.2245,0.026 19.1955,0.02 C19.1315,0.007 19.0655,0 18.9995,0 L13.9995,0 C13.4475,0 12.9995,0.448 12.9995,1 C12.9995,1.553 13.4475,2 13.9995,2 L16.5855,2 L10.2925,8.293 C9.9025,8.684 9.9025,9.317 10.2925,9.708 C10.4885,9.903 10.7445,10 10.9995,10 C11.2555,10 11.5115,9.903 11.7075,9.708 L17.9995,3.414 L17.9995,6 C17.9995,6.553 18.4475,7 18.9995,7 C19.5525,7 19.9995,6.553 19.9995,6 L19.9995,1 C19.9995,0.935 19.9935,0.869 19.9805,0.805 C19.9745,0.775 19.9635,0.747 19.9545,0.718 C19.9445,0.684 19.9365,0.651 19.9235,0.618 Z" id="Fill-4-Copy" transform="translate(14.999750, 5.000000) rotate(-180.000000) translate(-14.999750, -5.000000) "></path>
                    </g>
                </g>
            </g>
            <g id="ICON:-Settings" transform="translate(-4.000000, 392.000000)">
                <g id="Group"></g>
            </g>
            <g id="ICON:-Replay" transform="translate(-4.000000, 448.000000)">
                <g id="Group"></g>
            </g>
            <g id="ICON:-Full-Screen" transform="translate(0.000000, 280.000000)" fill="#FFFFFF">
                <path d="M29.9989491,15.0558034 C29.9978983,14.991592 29.992644,14.9273806 29.9800336,14.8642219 C29.9737285,14.8315899 29.962169,14.8021158 29.9527112,14.7715891 C29.9422026,14.7368518 29.9348466,14.7010619 29.9211854,14.6673772 C29.9064733,14.6315873 29.8854561,14.5989553 29.8675914,14.5652706 C29.8528794,14.5389545 29.8413199,14.5115857 29.8245061,14.4852695 C29.7477932,14.3694785 29.6490122,14.2705299 29.5334174,14.1926341 C29.5113493,14.1778971 29.4871795,14.1673706 29.4630097,14.1547389 C29.4272804,14.133686 29.3915511,14.1126331 29.3526692,14.0957907 C29.3242959,14.0842116 29.2938209,14.0778958 29.2654477,14.068422 C29.2286675,14.0568429 29.1939891,14.0431585 29.156158,14.0357899 C29.1120219,14.0273688 29.0668348,14.0252635 29.0216478,14.0221056 C28.9985288,14.0200003 28.9754098,14.014737 28.95124,14.014737 L21.5952081,14 L21.5931063,14 C21.0140815,14 20.5432955,14.4705325 20.5422446,15.0515928 C20.5411938,15.6326531 21.010929,16.1052909 21.5910046,16.1052909 L26.4102564,16.1147647 L12.1059269,30.3886367 L12.1153846,25.5612048 C12.1164355,24.9801445 11.6467003,24.5075067 11.0666246,24.5075067 L11.0645229,24.5075067 C10.4844472,24.5075067 10.0147121,24.9769866 10.0136612,25.5580469 L10,32.9255122 C10,32.9255122 10.0010509,32.934986 10.0010509,32.9391966 C10.0021017,33.003408 10.007356,33.0676194 10.0199664,33.1318307 C10.0262715,33.1634101 10.037831,33.1928842 10.0472888,33.2234109 C10.0567465,33.2592008 10.0651534,33.2939381 10.0788146,33.3286754 C10.0935267,33.3634127 10.1134931,33.3960447 10.1324086,33.4297294 C10.1471206,33.4560455 10.1586801,33.484467 10.1754939,33.5097305 C10.2522068,33.6255215 10.3509878,33.7244701 10.4665826,33.8023659 C10.4907524,33.8192082 10.5180748,33.8297347 10.5432955,33.8444717 C10.5779739,33.8634193 10.6105507,33.8844722 10.6473308,33.8992093 C10.6809584,33.9128937 10.7156368,33.9213148 10.7503153,33.9318413 C10.7807902,33.9402624 10.8112652,33.9528942 10.843842,33.9592101 C10.9016393,33.9707892 10.9594367,33.9749997 11.018285,33.977105 C11.0287936,33.977105 11.0382514,33.980263 11.04876,33.980263 L18.4047919,33.995 L18.4068937,33.995 C18.9859185,33.995 19.4567045,33.5244675 19.4577554,32.9444599 C19.4588062,32.3623469 18.989071,31.8907618 18.4089954,31.8897091 L13.5897436,31.8802353 L27.8940731,17.6074159 L27.8846154,22.4337952 C27.8835645,23.0148555 28.3532997,23.4874933 28.9333754,23.4885459 L28.9344262,23.4885459 C29.5145019,23.4885459 29.9852879,23.0190661 29.9863388,22.4380058 L30,15.0694878 L29.9989491,15.0558034 Z" id="Fill-1"></path>
            </g>
            <g id="ICON:-Settings" transform="translate(0.000000, 392.000000)" fill="#FEFEFE">
                <path d="M20,27.1870879 C18.24011,27.1870879 16.8133242,25.7602575 16.8133242,24.0003125 C16.8133242,22.2403675 18.24011,20.8129121 20,20.8129121 C21.75989,20.8129121 23.1866758,22.2403675 23.1866758,24.0003125 C23.1866758,25.7602575 21.75989,27.1870879 20,27.1870879 L20,27.1870879 Z M29.999375,25.0902784 L29.999375,22.8140996 L29.6781451,22.7091028 L27.2420474,21.9141277 L26.591463,20.3441767 L27.8413849,17.6998844 L26.2314855,16.0905597 L25.9302543,16.2436799 L23.6453971,17.4042686 L22.0761202,16.7542889 L21.0893069,14 L18.8138241,14 L18.7088307,14.3218649 L17.9132554,16.7586638 L16.3446035,17.4086435 L13.6997688,16.1586825 L12.0904943,17.7680072 L12.2436098,18.0692478 L13.4041622,20.3554264 L12.7542029,21.9241274 L10,22.9103466 L10,25.1865254 L10.3218549,25.2908972 L12.7585776,26.0864973 L13.408537,27.6558233 L12.15924,30.3001156 L13.7678895,31.9100653 L14.0691207,31.7563201 L16.3546028,30.5963564 L17.9238797,31.2463361 L18.9100681,34 L21.1855509,34 L21.2911693,33.6781351 L22.0861196,31.2419612 L23.6553965,30.5919815 L26.3002312,31.8419424 L27.9095056,30.2319928 L27.7563902,29.9307522 L26.5958377,27.6458236 L27.2457971,26.0764976 L29.999375,25.0902784 Z"></path>
            </g>
            <g id="ICON:-Replay" transform="translate(0.000000, 448.000000)" fill="#FFFFFF">
                <path d="M28,24 C28,18.4771525 23.5228475,14 18,14 C12.4771525,14 8,18.4771525 8,24 C8,29.5228475 12.4771525,34 18,34 C19.8714063,34 21.6227479,33.4859422 23.1205211,32.5913304 L21.012025,30.3206423 C20.0997161,30.7561722 19.0783326,31 18,31 C14.1340068,31 11,27.8659932 11,24 C11,20.1340068 14.1340068,17 18,17 C21.8659932,17 25,20.1340068 25,24 L21,24 L26.5,30 L32,24 L28,24 Z" id="Combined-Shape"></path>
            </g>
            <g id="ICON:-Share" transform="translate(0.000000, 504.000000)" fill="#FFFFFF">
                <path d="M32,33 C26.8571429,24.9 17,26 17,26 L17,32 L8,23.4 L17,15 L17,21 C17,21 32,18.6 32,33 Z" id="Stroke-975" transform="translate(20.000000, 24.000000) scale(-1, 1) translate(-20.000000, -24.000000) "></path>
            </g>
        </g>
    </g>
</svg>