<svg xmlns="http://www.w3.org/2000/svg" width="46" height="46" viewBox="0 0 46 46">
    <g fill="none" fill-rule="evenodd">
        <rect width="46" height="46" fill="#FFF" rx="2"/>
        <path fill="#4285F4" d="M33.56 23.25c0-.78-.07-1.53-.2-2.25H23v4.255h5.92a5.06 5.06 0 0 1-2.195 3.32v2.76h3.555c2.08-1.915 3.28-4.735 3.28-8.085z"/>
        <path fill="#34A853" d="M23 34c2.97 0 5.46-.985 7.28-2.665l-3.555-2.76c-.985.66-2.245 1.05-3.725 1.05-2.865 0-5.29-1.935-6.155-4.535H13.17v2.85A10.996 10.996 0 0 0 23 34z"/>
        <path fill="#FBBC05" d="M16.845 25.09A6.612 6.612 0 0 1 16.5 23c0-.725.125-1.43.345-2.09v-2.85H13.17A10.996 10.996 0 0 0 12 23c0 1.775.425 3.455 1.17 4.94l3.675-2.85z"/>
        <path fill="#EA4335" d="M23 16.375c1.615 0 3.065.555 4.205 1.645l3.155-3.155C28.455 13.09 25.965 12 23 12c-4.3 0-8.02 2.465-9.83 6.06l3.675 2.85c.865-2.6 3.29-4.535 6.155-4.535z"/>
        <path d="M12 12h22v22H12z"/>
    </g>
</svg>
