<?xml version="1.0" encoding="UTF-8"?>
<svg width="64px" height="24px" viewBox="0 0 64 24" version="1.1" xmlns="http://www.w3.org/2000/svg" xmlns:xlink="http://www.w3.org/1999/xlink">
    <!-- Generator: Sketch 48.2 (47327) - http://www.bohemiancoding.com/sketch -->
    <title>Go Live Button</title>
    <desc>Created with Sketch.</desc>
    <defs></defs>
    <g id="Fullscreen-Portrait-UI-Open-Go-Live-Alternate" stroke="none" stroke-width="1" fill="none" fill-rule="evenodd" transform="translate(-47.000000, -229.000000)">
        <g id="Video-UI-Controls" transform="translate(0.000000, 223.000000)">
            <g id="Go-Live-Button" transform="translate(47.000000, 6.000000)">
                <rect id="Rectangle-3" fill="#CC0000" x="0" y="0" width="64" height="24" rx="4"></rect>
                <path d="M14.46,11.392 L14.46,16 L13.068,16 L12.912,15.148 C12.5759983,15.5160018 12.206002,15.7799992 11.802,15.94 C11.397998,16.1000008 10.9160028,16.18 10.356,16.18 C9.60399624,16.18 8.93000298,16.0100017 8.334,15.67 C7.73799702,15.3299983 7.26600174,14.8240034 6.918,14.152 C6.56999826,13.4799966 6.396,12.6600048 6.396,11.692 C6.396,10.7639954 6.5759982,9.96200338 6.936,9.286 C7.2960018,8.60999662 7.79399682,8.09400178 8.43,7.738 C9.06600318,7.38199822 9.79199592,7.204 10.608,7.204 C11.2640033,7.204 11.8559974,7.30799896 12.384,7.516 C12.9120026,7.72400104 13.3479983,8.0379979 13.692,8.458 C14.0360017,8.8780021 14.2559995,9.39599692 14.352,10.012 L12.384,10.012 C12.2879995,9.64399816 12.0860015,9.35800102 11.778,9.154 C11.4699985,8.94999898 11.0720024,8.848 10.584,8.848 C10.183998,8.848 9.81800166,8.947999 9.486,9.148 C9.15399834,9.348001 8.89000098,9.66199786 8.694,10.09 C8.49799902,10.5180021 8.4,11.0519968 8.4,11.692 C8.4,12.6680049 8.599998,13.3919976 9,13.864 C9.400002,14.3360024 9.97199628,14.572 10.716,14.572 C11.2840028,14.572 11.7419983,14.4280014 12.09,14.14 C12.4380017,13.8519986 12.6399997,13.4400027 12.696,12.904 L10.464,12.904 L10.464,11.392 L14.46,11.392 Z M19.5589333,16.18 C18.7589293,16.18 18.0449365,16.0020018 17.4169333,15.646 C16.7889302,15.2899982 16.2969351,14.7740034 15.9409333,14.098 C15.5849316,13.4219966 15.4069333,12.6200046 15.4069333,11.692 C15.4069333,10.7719954 15.5849316,9.9720034 15.9409333,9.292 C16.2969351,8.6119966 16.7889302,8.09400178 17.4169333,7.738 C18.0449365,7.38199822 18.7589293,7.204 19.5589333,7.204 C20.3589373,7.204 21.0729302,7.38199822 21.7009333,7.738 C22.3289365,8.09400178 22.8209316,8.6119966 23.1769333,9.292 C23.5329351,9.9720034 23.7109333,10.7719954 23.7109333,11.692 C23.7109333,12.6200046 23.5329351,13.4219966 23.1769333,14.098 C22.8209316,14.7740034 22.3289365,15.2899982 21.7009333,15.646 C21.0729302,16.0020018 20.3589373,16.18 19.5589333,16.18 Z M19.5589333,14.536 C19.9829355,14.536 20.3569317,14.4280011 20.6809333,14.212 C21.004935,13.9959989 21.2569324,13.6740021 21.4369333,13.246 C21.6169342,12.8179979 21.7069333,12.300003 21.7069333,11.692 C21.7069333,11.0759969 21.6169342,10.5540021 21.4369333,10.126 C21.2569324,9.69799786 21.004935,9.37600108 20.6809333,9.16 C20.3569317,8.94399892 19.9829355,8.836 19.5589333,8.836 C19.1349312,8.836 18.760935,8.94399892 18.4369333,9.16 C18.1129317,9.37600108 17.8609342,9.69799786 17.6809333,10.126 C17.5009324,10.5540021 17.4109333,11.0759969 17.4109333,11.692 C17.4109333,12.300003 17.5009324,12.8179979 17.6809333,13.246 C17.8609342,13.6740021 18.1129317,13.9959989 18.4369333,14.212 C18.760935,14.4280011 19.1349312,14.536 19.5589333,14.536 Z M28.5928,7.444 L30.6088,7.444 L30.6088,14.38 L34.5928,14.38 L34.5928,16 L28.5928,16 L28.5928,7.444 Z M36.8368,7.444 L38.8528,7.444 L38.8528,16 L36.8368,16 L36.8368,7.444 Z M41.0368,7.444 L43.1368,7.444 L45.0928,13.96 L46.9888,7.444 L49.0408,7.444 L46.2448,16 L43.8568,16 L41.0368,7.444 Z M51.2248,7.444 L57.4048,7.444 L57.4048,9.016 L53.1808,9.016 L53.1808,10.78 L57.0928,10.78 L57.0928,12.352 L53.1808,12.352 L53.1808,14.428 L57.5008,14.428 L57.5008,16 L51.2248,16 L51.2248,7.444 Z" id="GO-LIVE" fill="#FFFFFF"></path>
            </g>
        </g>
    </g>
</svg>