<?xml version="1.0" encoding="UTF-8"?>
<svg width="60px" height="27px" viewBox="0 0 60 27" version="1.1" xmlns="http://www.w3.org/2000/svg" xmlns:xlink="http://www.w3.org/1999/xlink">
    <!-- Generator: Sketch 48.2 (47327) - http://www.bohemiancoding.com/sketch -->
    <title>Live Badge</title>
    <desc>Created with Sketch.</desc>
    <defs>
        <filter x="-28.9%" y="-61.1%" width="162.2%" height="244.4%" filterUnits="objectBoundingBox" id="filter-1">
            <feOffset dx="0" dy="2" in="SourceAlpha" result="shadowOffsetOuter1"></feOffset>
            <feGaussianBlur stdDeviation="4" in="shadowOffsetOuter1" result="shadowBlurOuter1"></feGaussianBlur>
            <feColorMatrix values="0 0 0 0 0   0 0 0 0 0   0 0 0 0 0  0 0 0 0.5 0" type="matrix" in="shadowBlurOuter1" result="shadowMatrixOuter1"></feColorMatrix>
            <feMerge>
                <feMergeNode in="shadowMatrixOuter1"></feMergeNode>
                <feMergeNode in="SourceGraphic"></feMergeNode>
            </feMerge>
        </filter>
        <path d="M13.696,4.444 L15.712,4.444 L15.712,11.38 L19.696,11.38 L19.696,13 L13.696,13 L13.696,4.444 Z M21.94,4.444 L23.956,4.444 L23.956,13 L21.94,13 L21.94,4.444 Z M26.14,4.444 L28.24,4.444 L30.196,10.96 L32.092,4.444 L34.144,4.444 L31.348,13 L28.96,13 L26.14,4.444 Z M36.328,4.444 L42.508,4.444 L42.508,6.016 L38.284,6.016 L38.284,7.78 L42.196,7.78 L42.196,9.352 L38.284,9.352 L38.284,11.428 L42.604,11.428 L42.604,13 L36.328,13 L36.328,4.444 Z" id="path-2"></path>
        <filter x="-22.5%" y="-64.3%" width="145.0%" height="251.9%" filterUnits="objectBoundingBox" id="filter-3">
            <feOffset dx="0" dy="1" in="SourceAlpha" result="shadowOffsetOuter1"></feOffset>
            <feGaussianBlur stdDeviation="2" in="shadowOffsetOuter1" result="shadowBlurOuter1"></feGaussianBlur>
            <feColorMatrix values="0 0 0 0 0   0 0 0 0 0   0 0 0 0 0  0 0 0 0.4 0" type="matrix" in="shadowBlurOuter1"></feColorMatrix>
        </filter>
    </defs>
    <g id="Fullscreen-Portrait-LIVE-alternate-position" stroke="none" stroke-width="1" fill="none" fill-rule="evenodd" transform="translate(-40.000000, -229.000000)">
        <g id="Live-Badge" filter="url(#filter-1)" transform="translate(48.000000, 231.000000)">
            <g id="LIVE">
                <use fill="black" fill-opacity="1" filter="url(#filter-3)" xlink:href="#path-2"></use>
                <use fill="#FEFEFE" fill-rule="evenodd" xlink:href="#path-2"></use>
            </g>
            <path d="M4,13 C6.209139,13 8,11.209139 8,9 C8,6.790861 6.209139,5 4,5 C1.790861,5 0,6.790861 0,9 C0,11.209139 1.790861,13 4,13 Z" id="Oval-4" fill="#CC0000"></path>
        </g>
    </g>
</svg>