<svg xmlns="http://www.w3.org/2000/svg" width="20" height="24" viewBox="0 0 20 24">
    <g fill="none" fill-rule="evenodd">
        <path d="M-2 0h24v24H-2z"/>
        <g fill="#333">
            <path d="M16.999 22h-14c-.551 0-1-.449-1-1v-2.557a3.95 3.95 0 0 0 2 .557 3.993 3.993 0 0 0 3-1.356 3.993 3.993 0 0 0 3 1.356 3.993 3.993 0 0 0 3-1.356 3.993 3.993 0 0 0 3 1.356 3.95 3.95 0 0 0 2-.557V21c0 .551-.45 1-1 1zm1-7c0 1.103-.897 2-2 2s-2-.897-2-2a1 1 0 0 0-2 0c0 1.103-.897 2-2 2s-2-.897-2-2a1 1 0 0 0-2 0c0 1.103-.897 2-2 2s-2-.897-2-2v-2h16v2zm1-4h-18a1 1 0 0 0-1 1v9c0 1.654 1.346 3 3 3h14c1.654 0 3-1.346 3-3v-9a1 1 0 0 0-1-1zM16.999 2.853c.576.97.992 1.841 1 2.147a1.001 1.001 0 0 1-2 0c.008-.304.424-1.175 1-2.147m-1 4.962V10h2V7.815a2.996 2.996 0 0 0 2-2.816c0-1.277-1.523-3.62-2.177-4.567-.373-.542-1.273-.542-1.646 0-.655.948-2.177 3.29-2.177 4.568 0 1.301.838 2.402 2 2.816M2.999 2.853c.576.97.992 1.841 1 2.147a1.001 1.001 0 0 1-2 0c.008-.304.424-1.175 1-2.147m-1 4.962V10h2V7.815a2.996 2.996 0 0 0 2-2.816c0-1.277-1.523-3.62-2.177-4.567-.373-.542-1.273-.542-1.646 0C1.52 1.38-.001 3.721-.001 5c0 1.301.838 2.402 2 2.816M9.999 2.853c.576.97.992 1.841 1 2.147a1.001 1.001 0 0 1-2 0c.008-.304.424-1.175 1-2.147m-1 4.962V10h2V7.815a2.996 2.996 0 0 0 2-2.816c0-1.277-1.523-3.62-2.177-4.567-.373-.542-1.273-.542-1.646 0C8.52 1.38 6.999 3.721 6.999 5c0 1.301.838 2.402 2 2.816"/>
        </g>
    </g>
</svg>
