<svg xmlns="http://www.w3.org/2000/svg" width="24" height="24" viewBox="0 0 24 24">
    <g fill="none" fill-rule="evenodd">
        <path d="M0 0h24v24H0z"/>
        <g fill="#333">
            <path d="M8.618 22l1-2h4.764l1 2H8.618zm4.764-4h-2.764L12 15.236 13.382 18zm-.03-4.534C13.746 13.1 14 12.581 14 12a2 2 0 1 0-4 0c0 .581.252 1.101.65 1.466l-4.545 9.087A1.001 1.001 0 0 0 7 24h10a1 1 0 0 0 .894-1.447l-4.543-9.087z"/>
            <path d="M20.485 3.516A11.921 11.921 0 0 0 12 0a11.922 11.922 0 0 0-8.486 3.516A11.92 11.92 0 0 0 0 12c0 3.205 1.248 6.219 3.514 8.486l1.414-1.414A9.94 9.94 0 0 1 2 12 9.935 9.935 0 0 1 4.928 4.93 9.939 9.939 0 0 1 12 2a9.935 9.935 0 0 1 7.071 2.93 9.932 9.932 0 0 1 2.93 7.07 9.935 9.935 0 0 1-2.93 7.072l1.414 1.414A11.921 11.921 0 0 0 24 12c0-3.205-1.248-6.218-3.515-8.484"/>
            <path d="M12 5c-3.86 0-7 3.14-7 7 0 .891.17 1.766.504 2.6l1.857-.746A4.958 4.958 0 0 1 7 12c0-2.757 2.243-5 5-5s5 2.243 5 5a4.95 4.95 0 0 1-.36 1.854l1.857.746A6.957 6.957 0 0 0 19 12c0-3.86-3.14-7-7-7"/>
        </g>
    </g>
</svg>
