<?xml version="1.0" encoding="UTF-8"?>
<svg width="18px" height="18px" viewBox="0 0 18 18" version="1.1" xmlns="http://www.w3.org/2000/svg" xmlns:xlink="http://www.w3.org/1999/xlink">
    <!-- Generator: Sketch 55.2 (78181) - https://sketchapp.com -->
    <title>zoom-in</title>
    <desc>Created with Sketch.</desc>
    <g id="v0.3" stroke="none" stroke-width="1" fill="none" fill-rule="evenodd">
        <g id="Scrolled--window-(D)" transform="translate(-766.000000, -39.000000)">
            <g id="Header">
                <g id="Search-field" transform="translate(202.000000, 24.000000)">
                    <g id="zoom-in" transform="translate(563.000000, 14.000000)">
                        <g id="Frame_-_24px">
                            <rect id="Rectangle" x="0" y="0" width="20" height="20"></rect>
                        </g>
                        <g id="Line_Icons" transform="translate(0.666667, 0.666667)" fill="#AAAAAA" fill-rule="nonzero">
                            <g id="Group">
                                <path d="M17.187095,15.3016549 C17.707664,15.8225922 17.7073655,16.6663594 17.1867616,17.1865951 C16.6660618,17.7069267 15.8221971,17.7068166 15.3016331,17.1863491 L11.6994872,13.5848711 C10.5143494,14.3983392 9.11999694,14.8333333 7.66666667,14.8333333 C5.75271537,14.8333333 3.9513877,14.0869515 2.59989699,12.7336704 C1.2466803,11.3813493 0.5,9.57986848 0.5,7.66666667 C0.5,5.75346485 1.2466803,3.95198404 2.59954603,2.60001401 C3.9513877,1.24638183 5.75271537,0.5 7.66666667,0.5 C9.58061796,0.5 11.3819456,1.24638183 12.7334363,2.59966293 C14.086653,3.95198404 14.8333333,5.75346485 14.8333333,7.66666667 C14.8333333,9.11925684 14.3980778,10.5136734 13.5847805,11.6993403 L17.187095,15.3016549 Z M7.66666667,12.1666667 C8.86972003,12.1666667 9.99759336,11.6994665 10.8482693,10.8487907 C11.6991758,9.99863456 12.1666667,8.87014054 12.1666667,7.66666667 C12.1666667,6.46392803 11.6991064,5.33546277 10.8479574,4.48506407 C9.99764554,3.63400175 8.86992006,3.16666667 7.66666667,3.16666667 C6.46341327,3.16666667 5.3356878,3.63400175 4.48506407,4.48537598 C3.63422698,5.33546277 3.16666667,6.46392803 3.16666667,7.66666667 C3.16666667,8.87014054 3.63415758,9.99863456 4.48522006,10.8489466 C5.33573997,11.6994665 6.46361331,12.1666667 7.66666667,12.1666667 Z" id="Shape"></path>
                            </g>
                        </g>
                    </g>
                </g>
            </g>
        </g>
    </g>
</svg>