<svg id="Layer_1" xmlns="http://www.w3.org/2000/svg" width="432.2" height="98.4" viewBox="0 0 432.2 98.4" preserveAspectRatio="xMaxYMax slice"><style>.st0{fill:#0062FF;}</style><g id="Wordmarks-w-Icons_1_"><g id="Dropbox_x2F_80-Wordmark"><g id="Glyph_x2F_Dropbox_1_"><path id="Fill-2_1_" class="st0" d="M0 23l24.5 15.6L48.9 23 24.5 7.5z"/><path id="Fill-3_1_" class="st0" d="M48.9 23l24.5 15.6L97.8 23 73.4 7.5z"/><path id="Fill-4_1_" class="st0" d="M0 54l24.5 15.6L48.9 54 24.5 38.4z"/><path id="Fill-5_1_" class="st0" d="M73.4 38.4L48.9 54l24.5 15.6L97.8 54z"/><path id="Fill-6_1_" class="st0" d="M24.6 74.8l24.5 15.5 24.5-15.5-24.5-15.6z"/></g><path id="Path_12_" d="M387.5 76.1l16.1-21.8-14.8-20.2h12.7l8.6 12.6 8.6-12.6h12.7l-15.1 20.1 15.9 21.9h-12.5l-9.8-13.9-9.5 13.9z"/><path id="Path-Copy" d="M366.9 77.4c-13.6 0-21.4-7.5-21.4-21.5v-1.2c0-14.3 9.1-22 21.4-22 12.6 0 22 6.5 22 22v1.2c0 14-9.3 21.5-22 21.5zm-.1-9.7c6.3 0 10.5-4.2 10.5-12v-1c0-8-4.2-12.6-10.4-12.6-6.1 0-9.7 4.6-9.7 12.8v1c0 7.8 3.3 11.8 9.6 11.8z"/><path id="Path_11_" d="M322.7 77.4c-6.9 0-11.5-3.4-13.8-8.8l-.9 7.5h-10V19.2h10.8v22.3c2.3-5.5 7.4-8.5 14.1-8.5 10 .1 17.1 7.1 17.1 21.2v1.2c.1 15.4-6.5 22-17.3 22zm-3.5-9.5c6.4 0 9.8-4.1 9.8-12.5v-1c0-7.8-3.8-12-9.6-12-6.1 0-10.2 4.9-10.2 12.2v.9c-.1 7.8 3.9 12.4 10 12.4z"/><path id="Path_10_" d="M249.4 90.9V34.1h9.3l1.1 7.7c2.3-5.4 5.6-9 13.9-9 10.8 0 17.7 6.4 17.7 22V56c0 15.3-7.7 21.2-17.7 21.2-6.7 0-11.2-3-13.5-7.9v21.8h-10.8zM270 67.6c6.3 0 10.2-4.2 10.2-12v-1c0-8.4-4.2-12.6-10-12.6-6.1 0-10.2 4.7-10.2 12.5v.8c0 7.6 3.9 12.3 10 12.3z"/><path id="Path_9_" d="M220.6 77.4c-13.6 0-21.4-7.5-21.4-21.5v-1.2c0-14.3 9.1-22 21.4-22 12.6 0 22 6.5 22 22v1.2c0 14-9.3 21.5-22 21.5zm-.1-9.7c6.3 0 10.5-4.2 10.5-12v-1c0-8-4.2-12.6-10.4-12.6-6.1 0-9.7 4.6-9.7 12.8v1c0 7.8 3.3 11.8 9.6 11.8z"/><path id="Path_8_" d="M169.4 76.1h11.4V57c0-8.8 4.6-11.4 12.5-11.4h3.3V34.1h-2.8c-8 0-11 3.4-12.7 10l-2.2-10h-9.4v42z"/><path id="Path_7_" d="M118 76.1V21.9h19.8c12.9 0 24.9 8.1 24.9 24.8v4.9c0 16.8-11.5 24.4-24.6 24.4H118zm19.2-43.4h-7.5v32.5h7.9c5.9 0 13.5-3.5 13.5-14v-4.1c-.1-10.4-7.1-14.4-13.9-14.4z"/></g></g></svg>
