<svg xmlns="http://www.w3.org/2000/svg" viewBox="0 0 98 26"><path d="M84.1 20.4l5-6.8-4.7-6.3h4l2.7 4 2.7-4h3.9L93 13.6l5 6.8h-3.9L91 16.1l-2.9 4.3"/><path d="M77.6 20.8c-4.2 0-6.7-2.3-6.7-6.7v-.4c0-4.5 2.8-6.9 6.7-6.9 3.9 0 6.9 2 6.9 6.9v.4c0 4.4-2.9 6.7-6.9 6.7zm0-3c2 0 3.3-1.3 3.3-3.7v-.3c0-2.5-1.3-3.9-3.2-3.9-1.9 0-3 1.4-3 4v.3c-.1 2.4.9 3.6 2.9 3.6zm-13.8 3c-2.2 0-3.6-1.1-4.3-2.7l-.3 2.3h-3.1V2.7h3.4v7c.8-1.8 2.4-2.7 4.4-2.7 3.1 0 5.3 2.2 5.3 6.6v.4c.1 4.8-2 6.8-5.4 6.8zm-1-2.9c2 0 3.1-1.3 3.1-3.9v-.3c0-2.4-1.2-3.8-3-3.8-1.9 0-3.2 1.5-3.2 3.8v.3c-.1 2.4 1.2 3.9 3.1 3.9zM41 25.1V7.3h2.9l.3 2.4c.7-1.7 1.8-2.8 4.4-2.8 3.4 0 5.5 2 5.5 6.9v.4c0 4.8-2.4 6.6-5.5 6.6-2.1 0-3.5-.9-4.2-2.5v6.8H41zm6.4-7.3c2 0 3.2-1.3 3.2-3.7v-.3c0-2.6-1.3-3.9-3.1-3.9-1.9 0-3.2 1.5-3.2 3.9v.2c0 2.3 1.2 3.8 3.1 3.8zm-15.4 3c-4.2 0-6.7-2.3-6.7-6.7v-.4c0-4.5 2.8-6.9 6.7-6.9 3.9 0 6.9 2 6.9 6.9v.4c0 4.4-2.9 6.7-6.9 6.7zm0-3c2 0 3.3-1.3 3.3-3.7v-.3c0-2.5-1.3-3.9-3.2-3.9-1.9 0-3 1.4-3 4v.3c-.1 2.4.9 3.6 2.9 3.6zm-16 2.6h3.5v-5.9c0-2.7 1.4-3.6 3.9-3.6h1V7.3h-.9c-2.5 0-3.4 1.1-4 3.1L19 7.3h-3v13.1zm-16 0V3.5h6.2c4 0 7.8 2.5 7.8 7.7v1.5c0 5.2-3.6 7.6-7.7 7.6H0zM6 6.9H3.6V17h2.5c1.8 0 4.2-1.1 4.2-4.4v-1.3c0-3.1-2.2-4.4-4.3-4.4z"/></svg>