<svg width="24" height="24" xmlns="http://www.w3.org/2000/svg"><g fill="none" fill-rule="evenodd"><circle fill="#FFF" fill-rule="nonzero" cx="12" cy="12" r="11"/><path d="M13.032 19.081C9.7 20.454 5.422 20.447 2.02 16.366c-.022.023-.084.05-.053.127.767 1.852 2.901 4.939 7.12 6.087 1.667.453 3.87.725 6.625-.206.862-.29 1.814-.775 2.566-1.303.962-.677 1.564-1.364 1.756-1.57.374-.408.652-1.288.236-2.142-.522-1.065-1.833-1.65-3.171-.734-1.218.83-2.32 1.76-4.067 2.456" fill="#EB0019"/><path d="M17.531 7.596c2.907 2.204 5.064 5.93 3.14 10.952.033.006.09.047.142-.018 1.184-1.435 2.941-5.017 1.831-9.27-.437-1.677-1.308-3.733-3.53-5.658a10.805 10.805 0 0 0-2.46-1.574c-1.09-.494-2.002-.672-2.289-.707-.558-.069-1.477.055-2.028.85-.688.99-.546 2.428.946 3.128 1.357.64 2.743 1.129 4.248 2.297" fill="#1EAF3C"/><path d="M5.444 9.07c.546-3.524 2.768-7.128 8.031-7.866-.008-.03.001-.099-.081-.112-1.797-.266-5.739-.131-8.91 2.83-1.25 1.17-2.625 2.884-3.253 5.692a10.48 10.48 0 0 0-.21 2.843c.083 1.163.36 2.027.44 2.297.152.527.764 1.22 1.713 1.314 1.182.117 2.364-.683 2.272-2.29-.083-1.459-.31-2.87-.002-4.708" fill="#FEDC00"/><path d="M15.583 11.147c.021-.624.059-3.956-3.442-3.937-3.5-.019-3.45 3.34-3.426 3.964-.649.75-1.087 2.562-.915 2.59.422.066.71-.15.915-.368.111-.12.123-.088.164.018.035.102.373.742.47.89.085.128.059.192-.094.222-.154.028-.368.155-.512.348-.233.315 0 .628.472.78 1.367.436 2.408.013 2.497-.04.022-.013.194-.066.233-.08l.187-.013a.73.73 0 0 1 .222.027c.101.028.158.055.268.095.097.033 1.182.447 2.517-.019.436-.149.629-.429.435-.706a.939.939 0 0 0-.575-.403c-.127-.033-.15-.066-.077-.166.102-.14.42-.769.46-.87.04-.094.08-.215.168-.088.166.237.636.498.933.374.277-.118-.364-1.92-.9-2.618" fill="#17A0E1"/></g></svg>