<svg width="18" height="18" viewBox="0 0 18 18" fill="none" xmlns="http://www.w3.org/2000/svg">
<mask id="path-2-outside-1" maskUnits="userSpaceOnUse" x="-2" y="-3" width="18" height="19" fill="black">
<rect fill="white" x="-2" y="-3" width="18" height="19"/>
<path fill-rule="evenodd" clip-rule="evenodd" d="M1.70711 0.292892C1.31658 -0.0976334 0.683418 -0.0976334 0.292892 0.292892C-0.0976295 0.683418 -0.0976295 1.31658 0.292892 1.70711L5.24264 6.65685L0.292896 11.6066C-0.0976295 11.9971 -0.0976295 12.6303 0.292892 13.0208C0.683418 13.4113 1.31658 13.4113 1.70711 13.0208L6.65685 8.07107L11.6066 13.0208C11.9971 13.4113 12.6303 13.4113 13.0208 13.0208C13.4113 12.6303 13.4113 11.9971 13.0208 11.6066L8.07107 6.65685L13.0208 1.70711C13.4113 1.31658 13.4113 0.683418 13.0208 0.292892C12.6303 -0.0976334 11.9971 -0.0976334 11.6066 0.292892L6.65685 5.24264L1.70711 0.292892Z"/>
</mask>
<path fill-rule="evenodd" clip-rule="evenodd" d="M1.70711 0.292892C1.31658 -0.0976334 0.683418 -0.0976334 0.292892 0.292892C-0.0976295 0.683418 -0.0976295 1.31658 0.292892 1.70711L5.24264 6.65685L0.292896 11.6066C-0.0976295 11.9971 -0.0976295 12.6303 0.292892 13.0208C0.683418 13.4113 1.31658 13.4113 1.70711 13.0208L6.65685 8.07107L11.6066 13.0208C11.9971 13.4113 12.6303 13.4113 13.0208 13.0208C13.4113 12.6303 13.4113 11.9971 13.0208 11.6066L8.07107 6.65685L13.0208 1.70711C13.4113 1.31658 13.4113 0.683418 13.0208 0.292892C12.6303 -0.0976334 11.9971 -0.0976334 11.6066 0.292892L6.65685 5.24264L1.70711 0.292892Z" transform="translate(2.41421 2.41421)" fill="white"/>
<path d="M0.292892 0.292892L-1.12132 -1.12132L-1.12133 -1.12131L0.292892 0.292892ZM1.70711 0.292892L0.292894 1.70711L0.292894 1.70711L1.70711 0.292892ZM0.292892 1.70711L-1.12133 3.12131L-1.12132 3.12132L0.292892 1.70711ZM5.24264 6.65685L6.65685 8.07107L8.07107 6.65685L6.65685 5.24264L5.24264 6.65685ZM0.292896 11.6066L1.70711 13.0208H1.70711L0.292896 11.6066ZM0.292892 13.0208L-1.12133 14.435L-1.12132 14.435L0.292892 13.0208ZM1.70711 13.0208L0.292894 11.6066L0.292894 11.6066L1.70711 13.0208ZM6.65685 8.07107L8.07107 6.65685L6.65685 5.24264L5.24264 6.65685L6.65685 8.07107ZM11.6066 13.0208L13.0208 11.6066L13.0208 11.6066L11.6066 13.0208ZM13.0208 11.6066L14.435 10.1924L14.435 10.1924L13.0208 11.6066ZM8.07107 6.65685L6.65686 5.24264L5.24264 6.65685L6.65686 8.07107L8.07107 6.65685ZM13.0208 0.292892L14.435 -1.12132L14.435 -1.12132L13.0208 0.292892ZM11.6066 0.292892L13.0208 1.70711V1.70711L11.6066 0.292892ZM6.65685 5.24264L5.24264 6.65685L6.65685 8.07106L8.07107 6.65685L6.65685 5.24264ZM1.70711 1.70711C1.31658 2.09763 0.683417 2.09763 0.292894 1.70711L3.12132 -1.12132C1.94975 -2.2929 0.0502533 -2.2929 -1.12132 -1.12132L1.70711 1.70711ZM1.70711 0.292901C2.09763 0.683422 2.09763 1.31658 1.70711 1.7071L-1.12133 -1.12131C-2.29289 0.0502586 -2.29289 1.94974 -1.12133 3.12131L1.70711 0.292901ZM6.65685 5.24264L1.70711 0.292894L-1.12132 3.12132L3.82843 8.07107L6.65685 5.24264ZM3.82843 5.24264L-1.12132 10.1924L1.70711 13.0208L6.65685 8.07107L3.82843 5.24264ZM-1.12132 10.1924C-2.29289 11.364 -2.29289 13.2634 -1.12133 14.435L1.70711 11.6066C2.09763 11.9971 2.09763 12.6303 1.70711 13.0208L-1.12132 10.1924ZM-1.12132 14.435C0.0502533 15.6066 1.94975 15.6066 3.12132 14.435L0.292894 11.6066C0.683417 11.2161 1.31658 11.2161 1.70711 11.6066L-1.12132 14.435ZM3.12132 14.435L8.07107 9.48528L5.24264 6.65685L0.292894 11.6066L3.12132 14.435ZM13.0208 11.6066L8.07107 6.65685L5.24264 9.48528L10.1924 14.435L13.0208 11.6066ZM11.6066 11.6066C11.9971 11.2161 12.6303 11.2161 13.0208 11.6066L10.1924 14.435C11.364 15.6066 13.2635 15.6066 14.435 14.435L11.6066 11.6066ZM11.6066 13.0208C11.2161 12.6303 11.2161 11.9971 11.6066 11.6066L14.435 14.435C15.6066 13.2634 15.6066 11.364 14.435 10.1924L11.6066 13.0208ZM6.65686 8.07107L11.6066 13.0208L14.435 10.1924L9.48528 5.24264L6.65686 8.07107ZM9.48528 8.07107L14.435 3.12132L11.6066 0.292894L6.65686 5.24264L9.48528 8.07107ZM14.435 3.12132C15.6066 1.94975 15.6066 0.0502565 14.435 -1.12132L11.6066 1.7071C11.2161 1.31658 11.2161 0.683416 11.6066 0.292894L14.435 3.12132ZM14.435 -1.12132C13.2635 -2.2929 11.364 -2.2929 10.1924 -1.12132L13.0208 1.70711C12.6303 2.09763 11.9971 2.09763 11.6066 1.70711L14.435 -1.12132ZM10.1924 -1.12132L5.24264 3.82842L8.07107 6.65685L13.0208 1.70711L10.1924 -1.12132ZM0.292894 1.70711L5.24264 6.65685L8.07107 3.82842L3.12132 -1.12132L0.292894 1.70711Z" transform="translate(2.41421 2.41421)" fill="black" fill-opacity="0.2" mask="url(#path-2-outside-1)"/>
</svg>
