<svg width="12" height="12" viewBox="0 0 12 12" fill="none" xmlns="http://www.w3.org/2000/svg">
<path d="M2.32498 4.69895C1.04999 4.69895 0 3.63789 0 2.34947C0 1.06105 1.04999 -4.81856e-08 2.32498 -4.81856e-08C3.59997 -4.81856e-08 4.64996 1.06105 4.64996 2.34947C4.64996 3.63789 3.62497 4.69895 2.32498 4.69895Z" transform="translate(0 3.66318)" fill="white"/>
<path d="M2.04998 4.14316C0.924991 4.14316 -3.81466e-07 3.20842 -3.81466e-07 2.07158C-3.81466e-07 0.934737 0.924991 1.20464e-08 2.04998 1.20464e-08C3.17497 1.20464e-08 4.09996 0.96 4.09996 2.09684C4.09996 3.23368 3.17497 4.14316 2.04998 4.14316Z" transform="translate(7.90015)" fill="white"/>
<path d="M2.04998 4.14316C0.924991 4.14316 -3.81466e-07 3.20842 -3.81466e-07 2.07158C-3.81466e-07 0.934737 0.924991 -1.92743e-07 2.04998 -1.92743e-07C3.17497 -1.92743e-07 4.09996 0.934737 4.09996 2.07158C4.09996 3.20842 3.17497 4.14316 2.04998 4.14316Z" transform="translate(7.8999 7.85684)" fill="white"/>
<path d="M8.20207 5C8.08329 5 7.96451 4.96188 7.84572 4.92375L0.441579 1.45451C0.045635 1.26389 -0.112742 0.80641 0.0852295 0.425175C0.283201 0.0439395 0.758333 -0.108555 1.15428 0.0820632L8.55842 3.55131C8.95437 3.74192 9.11274 4.19941 8.91477 4.58064C8.75639 4.84751 8.47923 5 8.20207 5Z" transform="translate(2 6)" fill="white"/>
<path d="M0.725975 5C0.474127 5 0.22228 4.8542 0.0783664 4.59906C-0.101525 4.23457 0.0423878 3.79718 0.366192 3.61494L6.95022 0.0793914C7.31 -0.102853 7.74174 0.0429426 7.92163 0.370983C8.10153 0.735473 7.95761 1.17286 7.63381 1.3551L1.08576 4.89065C0.941845 4.96355 0.83391 5 0.725975 5Z" transform="translate(3 1)" fill="white"/>
</svg>
