<svg width="32" height="32" viewBox="0 0 32 32" fill="none" xmlns="http://www.w3.org/2000/svg">
<path fill-rule="evenodd" clip-rule="evenodd" d="M14.3911 28.5525H14.3852C11.9967 28.5517 9.6498 27.9524 7.56535 26.8154L0 28.8L2.02461 21.4048C0.775733 19.2405 0.118579 16.7855 0.11965 14.2702C0.12278 6.40169 6.52482 0 14.3909 0C18.2086 0.00164769 21.7918 1.48787 24.4862 4.18541C27.1806 6.88282 28.6637 10.4683 28.6621 14.2815C28.659 22.1483 22.2595 28.5493 14.3911 28.5525V28.5525ZM7.91599 24.2319L8.34912 24.4889C10.1703 25.5696 12.2579 26.1415 14.3864 26.1423H14.3912C20.929 26.1423 26.25 20.8211 26.2526 14.2806C26.2539 11.1112 25.0213 8.13105 22.7818 5.88895C20.5423 3.64686 17.5641 2.4115 14.3959 2.4104C7.85304 2.4104 2.53189 7.73107 2.5293 14.271C2.52838 16.5123 3.15549 18.6951 4.34286 20.5836L4.62489 21.0324L3.4266 25.4095L7.91599 24.2319ZM21.5809 17.6751C21.4918 17.5263 21.2541 17.4371 20.8975 17.2585C20.5409 17.0801 18.7878 16.2175 18.4609 16.0984C18.1341 15.9794 17.8963 15.92 17.6586 16.2769C17.4209 16.6338 16.7375 17.4371 16.5295 17.6751C16.3215 17.913 16.1135 17.9429 15.757 17.7643C15.4004 17.5858 14.2514 17.2093 12.8894 15.9944C11.8293 15.0489 11.1137 13.8812 10.9057 13.5242C10.6976 13.1672 10.8835 12.9743 11.062 12.7965C11.2224 12.6366 11.4186 12.3799 11.5969 12.1717C11.7752 11.9635 11.8346 11.8147 11.9535 11.5769C12.0723 11.3388 12.0129 11.1306 11.9237 10.9521C11.8346 10.7736 11.1215 9.01844 10.8243 8.30444C10.5348 7.60911 10.2409 7.7033 10.022 7.69232C9.81425 7.68188 9.57627 7.67969 9.33858 7.67969C9.10087 7.67969 8.71453 7.76894 8.38768 8.12594C8.06083 8.48294 7.13965 9.34564 7.13965 11.1007C7.13965 12.8559 8.41738 14.5515 8.59569 14.7895C8.77397 15.0276 11.1101 18.6292 14.6872 20.1738C15.538 20.5412 16.2022 20.7606 16.7201 20.925C17.5743 21.1964 18.3517 21.1581 18.966 21.0663C19.6512 20.9639 21.0758 20.2037 21.373 19.3708C21.67 18.5377 21.67 17.8237 21.5809 17.6751V17.6751Z" transform="translate(1.40039 1.80005)" fill="#FDFDFD"/>
</svg>
