<svg xmlns="http://www.w3.org/2000/svg" width="136" height="40" viewBox="0 0 136 40">
  <g fill="none" fill-rule="evenodd">
    <rect width="136" height="40" fill="#333" rx="2"/>
    <g transform="translate(42 5)">
      <path fill="#FFF" d="M6.4184,4.2433 C6.4184,5.0813 6.1704,5.7483 5.6734,6.2463 C5.1084,6.8383 4.3734,7.1343 3.4694,7.1343 C2.6034,7.1343 1.8664,6.8343 1.2614,6.2333 C0.6544,5.6333 0.3524,4.8883 0.3524,4.0003 C0.3524,3.1113 0.6544,2.3673 1.2614,1.7663 C1.8664,1.1663 2.6034,0.8663 3.4694,0.8663 C3.8984,0.8663 4.3104,0.9503 4.7004,1.1173 C5.0914,1.2853 5.4044,1.5083 5.6394,1.7873 L5.1114,2.3153 C4.7144,1.8413 4.1674,1.6033 3.4694,1.6033 C2.8374,1.6033 2.2914,1.8253 1.8304,2.2693 C1.3694,2.7143 1.1394,3.2903 1.1394,4.0003 C1.1394,4.7093 1.3694,5.2863 1.8304,5.7303 C2.2914,6.1753 2.8374,6.3963 3.4694,6.3963 C4.1394,6.3963 4.6974,6.1733 5.1454,5.7263 C5.4354,5.4353 5.6034,5.0313 5.6474,4.5113 L3.4694,4.5113 L3.4694,3.7903 L6.3764,3.7903 C6.4044,3.9473 6.4184,4.0973 6.4184,4.2433"/>
      <path stroke="#FFF" stroke-width=".2" d="M6.4184,4.2433 C6.4184,5.0813 6.1704,5.7483 5.6734,6.2463 C5.1084,6.8383 4.3734,7.1343 3.4694,7.1343 C2.6034,7.1343 1.8664,6.8343 1.2614,6.2333 C0.6544,5.6333 0.3524,4.8883 0.3524,4.0003 C0.3524,3.1113 0.6544,2.3673 1.2614,1.7663 C1.8664,1.1663 2.6034,0.8663 3.4694,0.8663 C3.8984,0.8663 4.3104,0.9503 4.7004,1.1173 C5.0914,1.2853 5.4044,1.5083 5.6394,1.7873 L5.1114,2.3153 C4.7144,1.8413 4.1674,1.6033 3.4694,1.6033 C2.8374,1.6033 2.2914,1.8253 1.8304,2.2693 C1.3694,2.7143 1.1394,3.2903 1.1394,4.0003 C1.1394,4.7093 1.3694,5.2863 1.8304,5.7303 C2.2914,6.1753 2.8374,6.3963 3.4694,6.3963 C4.1394,6.3963 4.6974,6.1733 5.1454,5.7263 C5.4354,5.4353 5.6034,5.0313 5.6474,4.5113 L3.4694,4.5113 L3.4694,3.7903 L6.3764,3.7903 C6.4044,3.9473 6.4184,4.0973 6.4184,4.2433 Z"/>
      <polygon fill="#FFF" points="11.028 1.737 8.296 1.737 8.296 3.639 10.759 3.639 10.759 4.36 8.296 4.36 8.296 6.262 11.028 6.262 11.028 7 7.525 7 7.525 1 11.028 1"/>
      <polygon stroke="#FFF" stroke-width=".2" points="11.028 1.737 8.296 1.737 8.296 3.639 10.759 3.639 10.759 4.36 8.296 4.36 8.296 6.262 11.028 6.262 11.028 7 7.525 7 7.525 1 11.028 1"/>
      <polygon fill="#FFF" points="14.279 7 13.508 7 13.508 1.737 11.832 1.737 11.832 1 15.955 1 15.955 1.737 14.279 1.737"/>
      <polygon stroke="#FFF" stroke-width=".2" points="14.279 7 13.508 7 13.508 1.737 11.832 1.737 11.832 1 15.955 1 15.955 1.737 14.279 1.737"/>
      <polygon fill="#FFF" points="18.938 7 19.709 7 19.709 1 18.938 1"/>
      <polygon stroke="#FFF" stroke-width=".2" points="18.938 7 19.709 7 19.709 1 18.938 1"/>
      <polygon fill="#FFF" points="23.128 7 22.357 7 22.357 1.737 20.681 1.737 20.681 1 24.804 1 24.804 1.737 23.128 1.737"/>
      <polygon stroke="#FFF" stroke-width=".2" points="23.128 7 22.357 7 22.357 1.737 20.681 1.737 20.681 1 24.804 1 24.804 1.737 23.128 1.737"/>
      <path fill="#FFF" d="M28.7792,5.7223 C29.2232,6.1723 29.7662,6.3963 30.4092,6.3963 C31.0512,6.3963 31.5952,6.1723 32.0392,5.7223 C32.4832,5.2723 32.7062,4.6983 32.7062,4.0003 C32.7062,3.3023 32.4832,2.7273 32.0392,2.2783 C31.5952,1.8283 31.0512,1.6033 30.4092,1.6033 C29.7662,1.6033 29.2232,1.8283 28.7792,2.2783 C28.3362,2.7273 28.1132,3.3023 28.1132,4.0003 C28.1132,4.6983 28.3362,5.2723 28.7792,5.7223 M32.6092,6.2243 C32.0192,6.8313 31.2862,7.1343 30.4092,7.1343 C29.5322,7.1343 28.7992,6.8313 28.2102,6.2243 C27.6202,5.6183 27.3262,4.8773 27.3262,4.0003 C27.3262,3.1233 27.6202,2.3813 28.2102,1.7753 C28.7992,1.1693 29.5322,0.8663 30.4092,0.8663 C31.2812,0.8663 32.0122,1.1703 32.6052,1.7793 C33.1972,2.3883 33.4932,3.1283 33.4932,4.0003 C33.4932,4.8773 33.1982,5.6183 32.6092,6.2243"/>
      <path stroke="#FFF" stroke-width=".2" d="M28.7792,5.7223 C29.2232,6.1723 29.7662,6.3963 30.4092,6.3963 C31.0512,6.3963 31.5952,6.1723 32.0392,5.7223 C32.4832,5.2723 32.7062,4.6983 32.7062,4.0003 C32.7062,3.3023 32.4832,2.7273 32.0392,2.2783 C31.5952,1.8283 31.0512,1.6033 30.4092,1.6033 C29.7662,1.6033 29.2232,1.8283 28.7792,2.2783 C28.3362,2.7273 28.1132,3.3023 28.1132,4.0003 C28.1132,4.6983 28.3362,5.2723 28.7792,5.7223 Z M32.6092,6.2243 C32.0192,6.8313 31.2862,7.1343 30.4092,7.1343 C29.5322,7.1343 28.7992,6.8313 28.2102,6.2243 C27.6202,5.6183 27.3262,4.8773 27.3262,4.0003 C27.3262,3.1233 27.6202,2.3813 28.2102,1.7753 C28.7992,1.1693 29.5322,0.8663 30.4092,0.8663 C31.2812,0.8663 32.0122,1.1703 32.6052,1.7793 C33.1972,2.3883 33.4932,3.1283 33.4932,4.0003 C33.4932,4.8773 33.1982,5.6183 32.6092,6.2243 Z"/>
      <polygon fill="#FFF" points="34.575 7 34.575 1 35.513 1 38.429 5.667 38.463 5.667 38.429 4.511 38.429 1 39.201 1 39.201 7 38.396 7 35.346 2.106 35.312 2.106 35.346 3.263 35.346 7"/>
      <polygon stroke="#FFF" stroke-width=".2" points="34.575 7 34.575 1 35.513 1 38.429 5.667 38.463 5.667 38.429 4.511 38.429 1 39.201 1 39.201 7 38.396 7 35.346 2.106 35.312 2.106 35.346 3.263 35.346 7"/>
      <path fill="#FFF" d="M65.936,24 L67.801,24 L67.801,11.499 L65.936,11.499 L65.936,24 Z M82.743,16.002 L80.604,21.422 L80.54,21.422 L78.32,16.002 L76.31,16.002 L79.64,23.577 L77.741,27.791 L79.687,27.791 L84.818,16.002 L82.743,16.002 Z M72.16,22.58 C71.55,22.58 70.697,22.275 70.697,21.519 C70.697,20.554 71.759,20.184 72.676,20.184 C73.495,20.184 73.882,20.361 74.38,20.602 C74.235,21.76 73.238,22.58 72.16,22.58 Z M72.386,15.729 C71.035,15.729 69.636,16.324 69.057,17.643 L70.713,18.334 C71.067,17.643 71.726,17.418 72.418,17.418 C73.383,17.418 74.364,17.996 74.38,19.025 L74.38,19.154 C74.042,18.962 73.318,18.672 72.434,18.672 C70.648,18.672 68.831,19.653 68.831,21.486 C68.831,23.159 70.295,24.237 71.935,24.237 C73.189,24.237 73.882,23.674 74.315,23.014 L74.38,23.014 L74.38,23.98 L76.182,23.98 L76.182,19.187 C76.182,16.967 74.524,15.729 72.386,15.729 Z M60.854,17.524 L58.2,17.524 L58.2,13.239 L60.854,13.239 C62.249,13.239 63.041,14.394 63.041,15.381 C63.041,16.35 62.249,17.524 60.854,17.524 Z M60.806,11.499 L56.335,11.499 L56.335,24 L58.2,24 L58.2,19.264 L60.806,19.264 C62.874,19.264 64.907,17.767 64.907,15.381 C64.907,12.996 62.874,11.499 60.806,11.499 Z M36.425,22.583 C35.136,22.583 34.057,21.503 34.057,20.021 C34.057,18.523 35.136,17.427 36.425,17.427 C37.697,17.427 38.696,18.523 38.696,20.021 C38.696,21.503 37.697,22.583 36.425,22.583 Z M38.567,16.702 L38.503,16.702 C38.084,16.203 37.278,15.752 36.264,15.752 C34.137,15.752 32.187,17.621 32.187,20.021 C32.187,22.405 34.137,24.258 36.264,24.258 C37.278,24.258 38.084,23.807 38.503,23.292 L38.567,23.292 L38.567,23.903 C38.567,25.531 37.697,26.4 36.296,26.4 C35.152,26.4 34.443,25.579 34.153,24.886 L32.526,25.563 C32.993,26.691 34.233,28.076 36.296,28.076 C38.487,28.076 40.34,26.787 40.34,23.646 L40.34,16.009 L38.567,16.009 L38.567,16.702 Z M41.629,24 L43.497,24 L43.497,11.499 L41.629,11.499 L41.629,24 Z M46.252,19.876 C46.204,18.233 47.525,17.395 48.475,17.395 C49.217,17.395 49.845,17.766 50.055,18.297 L46.252,19.876 Z M52.052,18.458 C51.697,17.508 50.618,15.752 48.411,15.752 C46.22,15.752 44.399,17.476 44.399,20.005 C44.399,22.389 46.204,24.258 48.62,24.258 C50.569,24.258 51.697,23.066 52.165,22.373 L50.715,21.406 C50.231,22.115 49.571,22.583 48.62,22.583 C47.67,22.583 46.993,22.148 46.559,21.294 L52.245,18.942 L52.052,18.458 Z M6.744,17.057 L6.744,18.861 L11.061,18.861 C10.933,19.876 10.594,20.617 10.079,21.132 C9.45,21.761 8.467,22.454 6.744,22.454 C4.085,22.454 2.007,20.311 2.007,17.653 C2.007,14.995 4.085,12.852 6.744,12.852 C8.178,12.852 9.225,13.416 9.998,14.141 L11.271,12.868 C10.191,11.837 8.758,11.047 6.744,11.047 C3.102,11.047 0.041,14.012 0.041,17.653 C0.041,21.294 3.102,24.258 6.744,24.258 C8.709,24.258 10.191,23.613 11.351,22.405 C12.543,21.213 12.914,19.538 12.914,18.184 C12.914,17.766 12.882,17.379 12.817,17.057 L6.744,17.057 Z M17.822,22.583 C16.534,22.583 15.422,21.519 15.422,20.005 C15.422,18.474 16.534,17.427 17.822,17.427 C19.111,17.427 20.223,18.474 20.223,20.005 C20.223,21.519 19.111,22.583 17.822,22.583 Z M17.822,15.752 C15.47,15.752 13.553,17.54 13.553,20.005 C13.553,22.454 15.47,24.258 17.822,24.258 C20.175,24.258 22.092,22.454 22.092,20.005 C22.092,17.54 20.175,15.752 17.822,15.752 Z M27.136,22.583 C25.847,22.583 24.735,21.519 24.735,20.005 C24.735,18.474 25.847,17.427 27.136,17.427 C28.425,17.427 29.536,18.474 29.536,20.005 C29.536,21.519 28.425,22.583 27.136,22.583 Z M27.136,15.752 C24.784,15.752 22.867,17.54 22.867,20.005 C22.867,22.454 24.784,24.258 27.136,24.258 C29.488,24.258 31.405,22.454 31.405,20.005 C31.405,17.54 29.488,15.752 27.136,15.752 Z"/>
    </g>
    <g transform="translate(10 7)">
      <path fill="#00D5FF" d="M1.436,0.538 C1.145,0.846 0.973,1.324 0.973,1.943 L0.973,24.059 C0.973,24.679 1.145,25.156 1.436,25.464 L1.509,25.536 L13.899,13.147 L13.899,13.001 L13.899,12.855 L1.509,0.465 L1.436,0.538 Z"/>
      <path fill="#FFD902" d="M13.899,12.855 L13.899,13.001 L13.899,13.147 L18.028,17.279 L18.122,17.226 L23.015,14.446 C24.412,13.651 24.412,12.351 23.015,11.557 L18.122,8.777 L18.029,8.724 L13.899,12.855 Z"/>
      <path fill="#F93647" d="M1.436,25.464 C1.896,25.952 2.657,26.012 3.514,25.525 L18.122,17.225 L13.899,13.001 L1.436,25.464 Z"/>
      <path fill="#00F076" d="M1.436,0.538 L13.899,13.001 L18.122,8.777 L3.514,0.477 C3.112,0.248 2.731,0.14 2.393,0.14 C2.009,0.14 1.68,0.279 1.436,0.538"/>
    </g>
  </g>
</svg>