<svg xmlns="http://www.w3.org/2000/svg" width="136" height="40" viewBox="0 0 136 40">
  <g fill="none" fill-rule="evenodd">
    <rect width="136" height="40" fill="#333" rx="2"/>
    <g fill="#FFF" fill-rule="nonzero" transform="translate(43 7)">
      <path d="M8.30227 19.13965L3.56887 19.13965 2.43215 22.4961.42727 22.4961 4.91067 10.0781 6.99367 10.0781 11.47707 22.4961 9.438 22.4961 8.30227 19.13965zM4.0591 17.59082L7.8111 17.59082 5.96149 12.14355 5.90973 12.14355 4.0591 17.59082zM21.15969 17.96973C21.15969 20.78321 19.65383 22.59082 17.38137 22.59082 16.2067553 22.6522646 15.1003324 22.0370307 14.53274 21.00682L14.48974 21.00682 14.48974 25.4912 12.63134 25.4912 12.63134 13.44238 14.4302 13.44238 14.4302 14.94824 14.46438 14.94824C15.0571883 13.9244879 16.1648043 13.3095188 17.34719 13.34765 19.645 13.34766 21.15969 15.16406 21.15969 17.96973zM19.24953 17.96973C19.24953 16.13673 18.30226 14.93164 16.85695 14.93164 15.43703 14.93164 14.48195 16.16211 14.48195 17.96973 14.48195 19.79395 15.43703 21.01563 16.85695 21.01563 18.30227 21.01563 19.24953 19.81934 19.24953 17.96973zM31.12453 17.96973C31.12453 20.78321 29.61867 22.59082 27.34621 22.59082 26.1715953 22.6522646 25.0651724 22.0370307 24.49758 21.00682L24.45458 21.00682 24.45458 25.4912 22.59618 25.4912 22.59618 13.44238 24.395 13.44238 24.395 14.94824 24.42918 14.94824C25.0219926 13.9244885 26.1296128 13.3095231 27.312 13.34766 29.60988 13.34766 31.12453 15.16406 31.12453 17.96973zM29.21437 17.96973C29.21437 16.13673 28.2671 14.93164 26.82179 14.93164 25.40187 14.93164 24.44679 16.16211 24.44679 17.96973 24.44679 19.79395 25.40187 21.01563 26.82179 21.01563 28.26711 21.01563 29.21438 19.81934 29.21438 17.96973L29.21437 17.96973zM37.71047 19.03613C37.84817 20.26758 39.04447 21.07613 40.67922 21.07613 42.24563 21.07613 43.37258 20.26754 43.37258 19.15718 43.37258 18.19331 42.69289 17.61618 41.08352 17.22066L39.47415 16.83296C37.19388 16.28218 36.13528 15.21577 36.13528 13.4853 36.13528 11.34272 38.00247 9.87104 40.65383 9.87104 43.27783 9.87104 45.07668 11.34272 45.13723 13.4853L43.26123 13.4853C43.14893 12.24604 42.12451 11.498 40.62744 11.498 39.13037 11.498 38.10596 12.25484 38.10596 13.3564 38.10596 14.23433 38.76026 14.75093 40.36084 15.1464L41.729 15.48234C44.27685 16.08488 45.33545 17.10834 45.33545 18.92472 45.33545 21.24796 43.48486 22.70304 40.5415 22.70304 37.78759 22.70304 35.92822 21.28214 35.8081 19.03604L37.71047 19.03613zM49.34621 11.2998L49.34621 13.44238 51.06789 13.44238 51.06789 14.91406 49.34621 14.91406 49.34621 19.90527C49.34621 20.68066 49.69094 21.04199 50.44777 21.04199 50.6521614 21.0384259 50.8562221 21.0240726 51.0591 20.99899L51.0591 22.46188C50.7188283 22.5254596 50.3729708 22.5542545 50.02687 22.54782 48.19387 22.54782 47.47902 21.85934 47.47902 20.10348L47.47902 14.91406 46.16262 14.91406 46.16262 13.44238 47.479 13.44238 47.479 11.2998 49.34621 11.2998zM52.065 17.96973C52.065 15.1211 53.74273 13.33106 56.35895 13.33106 58.98395 13.33106 60.65387 15.12106 60.65387 17.96973 60.65387 20.82618 58.99274 22.6084 56.35895 22.6084 53.72609 22.6084 52.065 20.82617 52.065 17.96973zM58.76031 17.96973C58.76031 16.01563 57.8648 14.86231 56.35894 14.86231 54.85308 14.86231 53.95855 16.02442 53.95855 17.96973 53.95855 19.93164 54.85308 21.07618 56.35894 21.07618 57.8648 21.07618 58.76027 19.93164 58.76027 17.96973L58.76031 17.96973zM62.18606 13.44238L63.95852 13.44238 63.95852 14.98338 64.00152 14.98338C64.248696 13.9913684 65.1576526 13.3086316 66.17925 13.34764 66.393414 13.3468922 66.6069872 13.3701507 66.81597 13.41698L66.81597 15.15526C66.545601 15.0726433 66.2635596 15.0347113 65.98097 15.04296 65.4346182 15.0207954 64.9058709 15.2385347 64.5335615 15.639006 64.161252 16.0394772 63.9825766 16.5826707 64.04445 17.12596L64.04445 22.49608 62.18605 22.49608 62.18606 13.44238zM75.3843 19.83691C75.1343 21.48046 73.53371 22.60839 71.48586 22.60839 68.85207 22.60839 67.21731 20.84374 67.21731 18.01269 67.21731 15.17285 68.86086 13.33105 71.40774 13.33105 73.91262 13.33105 75.48782 15.05175 75.48782 17.79687L75.48782 18.43359 69.09329 18.43359 69.09329 18.54589C69.0335874 19.2199216 69.2663316 19.8871194 69.7323199 20.3777699 70.1983083 20.8684204 70.8526275 21.1352333 71.52884 21.11034 72.4306823 21.1948396 73.2809431 20.6769777 73.61966 19.8369L75.3843 19.83691zM69.1020624 17.13477L73.62844 17.13476C73.6621655 16.5290975 73.4416965 15.9368231 73.0201501 15.5006315 72.5986036 15.06444 72.0142008 14.8238804 71.40774 14.83691 70.7964818 14.8332622 70.2090907 15.0739346 69.7761255 15.5054332 69.3431603 15.9369319 69.1004963 16.5235029 69.1020624 17.13477zM3.82619.731C4.61513656.674384181 5.38789226.974547428 5.93176129 1.54887182 6.47563032 2.12319621 6.73328587 2.91114479 6.63381 3.69584 6.63381 5.60209 5.60354 6.69784 3.82619 6.69784L1.67092 6.69784 1.67092.731 3.82619.731zM2.59767 5.854L3.72267 5.854C4.28649194 5.88770201 4.83548652 5.66555901 5.21721851 5.24925179 5.5989505 4.83294457 5.77277961 4.26679442 5.69044 3.708 5.76678901 3.15152453 5.59045658 2.59004622 5.20967108 2.17713398 4.82888557 1.76422175 4.28349567 1.5430863 3.72267 1.57421L2.59767 1.57421 2.59767 5.854zM7.68068 4.44434C7.60346713 3.63722505 7.99048366 2.85611193 8.67941593 2.42859737 9.36834819 2.0010828 10.2400818 2.0010828 10.9290141 2.42859737 11.6179463 2.85611193 12.0049629 3.63722505 11.92775 4.44434 12.0064319 5.25232226 11.6197687 6.03495038 10.9302255 6.4633853 10.2406824 6.89182022 9.36774757 6.89182022 8.67820446 6.4633853 7.98866134 6.03495038 7.60199806 5.25232226 7.68068 4.44434zM11.01368 4.44434C11.01368 3.46827 10.5752 2.89747 9.80568 2.89747 9.03322 2.89747 8.59868 3.46827 8.59868 4.44435 8.59868 5.42824 9.03325 5.99464 9.80568 5.99464 10.57522 5.99463 11.01369 5.42432 11.01369 4.44434L11.01368 4.44434z"/>
      <polygon points="17.573 6.698 16.651 6.698 15.721 3.381 15.65 3.381 14.724 6.698 13.811 6.698 12.569 2.195 13.471 2.195 14.277 5.631 14.344 5.631 15.27 2.195 16.122 2.195 17.048 5.631 17.118 5.631 17.921 2.195 18.81 2.195"/>
      <path d="M19.85354,2.19482 L20.709,2.19482 L20.709,2.91015 L20.77541,2.91015 C21.0063449,2.38347794 21.5459729,2.06130747 22.11916,2.1079 C22.5629768,2.07453177 22.9978859,2.2447899 23.3010908,2.57060207 C23.6042957,2.89641424 23.7428931,3.34242376 23.67775,3.7827 L23.67775,6.6977 L22.78908,6.6977 L22.78908,4.00586 C22.78908,3.28223 22.47463,2.92236 21.8174,2.92236 C21.5163658,2.90833912 21.2242202,3.02648257 21.0175546,3.24581678 C20.810889,3.465151 20.710315,3.76380101 20.7422,4.06347 L20.7422,6.69775 L19.85353,6.69775 L19.85354,2.19482 Z"/>
      <polygon points="25.094 .437 25.982 .437 25.982 6.698 25.094 6.698"/>
      <path d="M27.21779 4.44434C27.1406364 3.63717225 27.527714 2.85603936 28.2166974 2.4285182 28.9056808 2.00099704 29.7774592 2.00099704 30.4664426 2.4285182 31.155426 2.85603936 31.5425036 3.63717225 31.46535 4.44434 31.543932 5.25235119 31.1571979 6.03495719 30.4676205 6.46337324 29.7780432 6.89178929 28.9050968 6.89178929 28.2155195 6.46337324 27.5259421 6.03495719 27.139208 5.25235119 27.21779 4.44434zM30.55079 4.44434C30.55079 3.46827 30.11231 2.89747 29.34279 2.89747 28.57033 2.89747 28.13579 3.46827 28.13579 4.44435 28.13579 5.42824 28.57036 5.99464 29.34279 5.99464 30.11232 5.99463 30.5508 5.42432 30.5508 4.44434L30.55079 4.44434zM32.4009 5.42432C32.4009 4.61377 33.00442 4.14649 34.0757 4.08008L35.29543 4.00977 35.29543 3.6211C35.29543 3.14551 34.98098 2.87696 34.37356 2.87696 33.87747 2.87696 33.53372 3.05909 33.43508 3.37745L32.57473 3.37745C32.66555 2.60401 33.39309 2.10792 34.41457 2.10792 35.54348 2.10792 36.1802 2.66992 36.1802 3.6211L36.1802 6.69776 35.32473 6.69776 35.32473 6.06495 35.25442 6.06495C34.9638686 6.52707633 34.4471736 6.79716323 33.90188 6.77195 33.5196161 6.81171181 33.1383711 6.68791066 32.8523958 6.43115244 32.5664205 6.17439423 32.4024061 5.80864331 32.4009 5.42432zM35.29543 5.03955L35.29543 4.66309 34.19582 4.7334C33.5757 4.7749 33.29445 4.98584 33.29445 5.38281 33.29445 5.78808 33.64601 6.02392 34.12945 6.02392 34.4156361 6.05288986 34.7013264 5.96447505 34.9211204 5.77891559 35.1409144 5.59335613 35.2759916 5.32654106 35.29543 5.03955zM37.34816 4.44434C37.34816 3.02149 38.07961 2.12012 39.2173 2.12012 39.7917768 2.09365013 40.3298275 2.40147287 40.59816 2.91012L40.66457 2.91012 40.66457.437 41.55324.437 41.55324 6.69774 40.70168 6.69774 40.70168 5.98631 40.63137 5.98631C40.3427542 6.49073698 39.7980745 6.79335648 39.21731 6.77195 38.0718 6.772 37.34816 5.87061 37.34816 4.44434zM38.26616 4.44434C38.26616 5.39942 38.71636 5.97413 39.46929 5.97413 40.21829 5.97413 40.6812 5.39113 40.6812 4.44825 40.6812 3.50977 40.21343 2.91846 39.46929 2.91846 38.72121 2.91846 38.26613 3.49707 38.26613 4.44434L38.26616 4.44434zM45.23 4.44434C45.1527871 3.63722505 45.5398037 2.85611193 46.2287359 2.42859737 46.9176682 2.0010828 47.7894018 2.0010828 48.4783341 2.42859737 49.1672663 2.85611193 49.5542829 3.63722505 49.47707 4.44434 49.5557519 5.25232226 49.1690887 6.03495038 48.4795455 6.4633853 47.7900024 6.89182022 46.9170676 6.89182022 46.2275245 6.4633853 45.5379813 6.03495038 45.1513181 5.25232226 45.23 4.44434zM48.563 4.44434C48.563 3.46827 48.12452 2.89747 47.355 2.89747 46.58254 2.89747 46.148 3.46827 46.148 4.44435 46.148 5.42824 46.58257 5.99464 47.355 5.99464 48.12453 5.99463 48.563 5.42432 48.563 4.44434zM50.66945 2.19482L51.52492 2.19482 51.52492 2.91015 51.59133 2.91015C51.8222649 2.38347794 52.3618929 2.06130747 52.93508 2.1079 53.3788968 2.07453177 53.8138059 2.2447899 54.1170108 2.57060207 54.4202157 2.89641424 54.5588131 3.34242376 54.49367 3.7827L54.49367 6.6977 53.605 6.6977 53.605 4.00586C53.605 3.28223 53.29055 2.92236 52.63332 2.92236 52.3322858 2.90833912 52.0401402 3.02648257 51.8334746 3.24581678 51.626809 3.465151 51.526235 3.76380101 51.55812 4.06347L51.55812 6.69775 50.66945 6.69775 50.66945 2.19482zM59.51516 1.07373L59.51516 2.21533 60.49075 2.21533 60.49075 2.96387 59.51516 2.96387 59.51516 5.2793C59.51516 5.75098 59.7095 5.95752 60.15188 5.95752 60.2651356 5.95715754 60.3782775 5.95030966 60.49075 5.93701L60.49075 6.67724C60.3311595 6.70579072 60.1694656 6.72098004 60.00735 6.72265 59.01907 6.72265 58.62551 6.37499 58.62551 5.50683L58.62551 2.96383 57.91067 2.96383 57.91067 2.21529 58.62551 2.21529 58.62551 1.07373 59.51516 1.07373zM61.70461.437L62.58547.437 62.58547 2.91845 62.65578 2.91845C62.8978078 2.38716856 63.4468801 2.06458754 64.02878 2.11181 64.4700766 2.08779728 64.8990983 2.26180371 65.1989893 2.58643385 65.4988802 2.91106399 65.6384049 3.35250564 65.57956 3.79052L65.57956 6.69775 64.69 6.69775 64.69 4.00975C64.69 3.29051 64.355 2.92625 63.72711 2.92625 63.417939 2.90089367 63.1133391 3.01329096 62.8947423 3.2333935 62.6761456 3.45349605 62.5658419 3.75886031 62.59332 4.06785L62.59332 6.69773 61.70465 6.69773 61.70461.437zM70.76125 5.48193C70.512057 6.33130948 69.6900989 6.88010304 68.81008 6.78466 68.2096439 6.8005102 67.6325914 6.5516307 67.2320282 6.10405516 66.8314651 5.65647963 66.6478864 5.05545594 66.73 4.46045 66.6500674 3.86379048 66.8329582 3.26180373 67.2312908 2.81044696 67.6296234 2.35909018 68.204202 2.10277675 68.80617 2.10791 70.0591 2.10791 70.81496 2.96391 70.81496 4.37791L70.81496 4.688 67.63527 4.688 67.63527 4.7378C67.607132 5.07194014 67.7212507 5.40244775 67.9495608 5.6480407 68.1778709 5.89363365 68.4991879 6.03152392 68.83449 6.0278 69.2692619 6.07999468 69.6924825 5.86433304 69.90578 5.4819L70.76125 5.48193zM67.63525 4.03076L69.90966 4.03076C69.9323129 3.72516044 69.8248585 3.42420507 69.6137769 3.20205909 69.4026954 2.97991311 69.1076175 2.85723623 68.80126 2.86426 68.490752 2.86035891 68.191828 2.98202124 67.9722963 3.20164888 67.7527647 3.42127653 67.6312331 3.72025374 67.63527 4.03076L67.63525 4.03076z"/>
    </g>
    <g fill="#FFF" fill-rule="nonzero" transform="translate(18 7)">
      <path d="M15.76888 12.30068C15.790737 10.6042091 16.6801229 9.03718611 18.12544 8.14862 17.2095126 6.84051277 15.730392 6.04087835 14.13428 5.99094 12.45504 5.81468 10.82709 6.99577 9.97138 6.99577 9.09911 6.99577 7.78161 6.00844 6.36288 6.03763 4.49620126 6.09793842 2.79813717 7.13352548 1.88996 8.7655-.04404 12.11392 1.39855 17.03497 3.25116 19.74158 4.17806 21.06693 5.26134 22.54738 6.67879 22.49488 8.06585 22.43735 8.58389 21.6104 10.25819 21.6104 11.91695 21.6104 12.40298 22.49488 13.84919 22.4615 15.33757 22.43734 16.27532 21.13026 17.1697 19.79236 17.8356761 18.8479997 18.3481437 17.8042759 18.68812 16.69985 16.9203766 15.9521813 15.7709432 14.2200343 15.76888 12.30068zM13.03725 4.21089C13.8487766 3.23668191 14.248585 1.98450245 14.15177.72027 12.9119378.850490487 11.7666802 1.44304968 10.94419 2.37988 10.1320187 3.30418903 9.72057463 4.51343268 9.80048 5.74127 11.0569368 5.75420677 12.2499161 5.19015322 13.03725 4.21089z"/>
    </g>
  </g>
</svg>