<?xml version="1.0" encoding="UTF-8"?>
<svg width="40px" height="40px" viewBox="0 0 40 40" version="1.1" xmlns="http://www.w3.org/2000/svg" xmlns:xlink="http://www.w3.org/1999/xlink">
    <!-- Generator: Sketch 56.2 (81672) - https://sketch.com -->
    <title>icon_person</title>
    <desc>Created with Sketch.</desc>
    <g id="icon_person" stroke="none" stroke-width="1" fill="none" fill-rule="evenodd">
        <g id="user">
            <g id="Frame_-_24px">
                <rect id="Rectangle" x="0" y="0" width="40" height="40"></rect>
            </g>
            <g id="Line_Icons" transform="translate(6.666667, 6.666667)" fill="#333333" fill-rule="nonzero">
                <g id="Group">
                    <path d="M13.3366667,13.3433333 C9.66,13.3433333 6.67,10.3533333 6.67,6.67666667 C6.67,3.00166667 9.66,0.01 13.3366667,0.01 C17.0133333,0.01 20.0033333,3.00166667 20.0033333,6.67666667 C20.0033333,10.3533333 17.0133333,13.3433333 13.3366667,13.3433333 Z M13.3366667,3.34333333 C11.4983333,3.34333333 10.0033333,4.83666667 10.0033333,6.67666667 C10.0033333,8.515 11.4983333,10.01 13.3366667,10.01 C15.175,10.01 16.67,8.515 16.67,6.67666667 C16.67,4.83666667 15.175,3.34333333 13.3366667,3.34333333 Z" id="Shape"></path>
                    <path d="M26.67,26.6766667 L0.00333333333,26.6766667 L0.00333333333,25.01 C0.00333333333,19.1216667 5.48666667,15.01 13.3366667,15.01 C21.1866667,15.01 26.67,19.1216667 26.67,25.01 L26.67,26.6766667 Z M3.60166667,23.3433333 L23.0733333,23.3433333 C22.0766667,20.33 18.3516667,18.3433333 13.3383333,18.3433333 C8.325,18.3433333 4.59833333,20.33 3.60166667,23.3433333 Z" id="Shape"></path>
                </g>
            </g>
        </g>
    </g>
</svg>