<?xml version="1.0" encoding="UTF-8"?>
<svg width="40px" height="40px" viewBox="0 0 40 40" version="1.1" xmlns="http://www.w3.org/2000/svg" xmlns:xlink="http://www.w3.org/1999/xlink">
    <!-- Generator: Sketch 56.2 (81672) - https://sketch.com -->
    <title>icon_phone</title>
    <desc>Created with Sketch.</desc>
    <g id="icon_phone" stroke="none" stroke-width="1" fill="none" fill-rule="evenodd">
        <g id="phone-check">
            <g id="Frame_-_24px">
                <rect id="Rectangle" x="0" y="0" width="40" height="40"></rect>
            </g>
            <g id="Line_Icons" transform="translate(5.000000, 3.333333)" fill="#333333" fill-rule="nonzero">
                <g id="Group">
                    <path d="M28.3333333,31.6666667 L20,31.6666667 C8.97166667,31.6666667 0,22.695 0,11.6666667 L0,3.33333333 C0,1.49333333 1.49333333,0 3.33333333,0 L10,0 C11.84,0 13.3333333,1.49333333 13.3333333,3.33333333 L13.3333333,10 C13.3333333,11.7866667 11.92,13.2483333 10.1533333,13.33 C10.8833333,17.6366667 14.0983333,20.8633333 18.3366667,21.5366667 C18.405,19.7583333 19.8733333,18.3333333 21.6666667,18.3333333 L28.3333333,18.3333333 C30.1733333,18.3333333 31.6666667,19.8266667 31.6666667,21.6666667 L31.6666667,28.3333333 C31.6666667,30.1733333 30.1733333,31.6666667 28.3333333,31.6666667 Z M3.33333333,3.33333333 L3.33333333,11.6666667 C3.33333333,20.8566667 10.81,28.3333333 20,28.3333333 L28.3366667,28.3333333 L28.3333333,21.6666667 L21.6666667,21.6666667 L21.6666667,23.3333333 C21.6666667,24.255 20.9216667,25 20,25 C12.52,25 6.78666667,19.2783333 6.66666667,11.6933333 C6.66,11.2466667 6.83333333,10.8183333 7.145,10.4983333 C7.45666667,10.1783333 7.88833333,10 8.33333333,10 L10,10 L10,3.33333333 L3.33333333,3.33333333 Z" id="Shape"></path>
                </g>
            </g>
        </g>
    </g>
</svg>