<svg xmlns="http://www.w3.org/2000/svg" width="24" height="24" viewBox="0 0 24 24">
  <g fill="none" fill-rule="evenodd">
    <rect width="24" height="24"/>
    <g fill="#333" transform="translate(3 3)">
      <path d="M8 12L7 12C6.448 12 6 12.448 6 13L6 16 4 16 4 13C4 12.448 3.552 12 3 12L2 12 2 11C2 9.346 3.346 8 5 8 6.654 8 8 9.346 8 11L8 12zM5 2.5C5.551 2.5 6 2.949 6 3.5 6 4.051 5.551 4.5 5 4.5 4.449 4.5 4 4.051 4 3.5 4 2.949 4.449 2.5 5 2.5L5 2.5zM10 11C10 8.695 8.423 6.769 6.298 6.192 7.301 5.707 8 4.688 8 3.5 8 1.846 6.654.5 5 .5 3.346.5 2 1.846 2 3.5 2 4.688 2.699 5.707 3.702 6.192 1.577 6.769 0 8.695 0 11L0 13C0 13.552.448 14 1 14L2 14 2 17C2 17.552 2.448 18 3 18L7 18C7.552 18 8 17.552 8 17L8 14 9 14C9.552 14 10 13.552 10 13L10 11zM12 16C12 14.896 12.897 14 14 14 15.103 14 16 14.896 16 16L12 16zM14 9C14.551 9 15 9.449 15 10 15 10.551 14.551 11 14 11 13.449 11 13 10.551 13 10 13 9.449 13.449 9 14 9L14 9zM15.754 12.423C16.505 11.877 17 10.998 17 10 17 8.346 15.654 7 14 7 12.346 7 11 8.346 11 10 11 10.998 11.495 11.877 12.246 12.423 10.921 13.075 10 14.427 10 16L10 17C10 17.552 10.448 18 11 18L17 18C17.552 18 18 17.552 18 17L18 16C18 14.427 17.079 13.075 15.754 12.423L15.754 12.423z"/>
    </g>
  </g>
</svg>
