<svg width="12" height="12" xmlns="http://www.w3.org/2000/svg" xmlns:xlink="http://www.w3.org/1999/xlink"><defs><path d="M5.03 4.5l3.872 3.871a.15.15 0 0 1 0 .213l-.318.318a.15.15 0 0 1-.213 0L4.5 5.03.629 8.902a.15.15 0 0 1-.213 0l-.318-.318a.15.15 0 0 1 0-.213L3.97 4.5.098.629a.15.15 0 0 1 0-.213L.416.098a.15.15 0 0 1 .213 0L4.5 3.97 8.371.098a.15.15 0 0 1 .213 0l.318.318a.15.15 0 0 1 0 .213L5.03 4.5z" id="a"/></defs><g transform="translate(1.5 1.5)" fill="none" fill-rule="evenodd"><mask id="b" fill="#fff"><use xlink:href="#a"/></mask><use fill="#D8D8D8" xlink:href="#a"/><g mask="url(#b)" fill="#D8DDE9" fill-rule="nonzero"><path d="M-4.5-4.5h18v18h-18z"/></g></g></svg>