<svg id="Layer_1" xmlns="http://www.w3.org/2000/svg" viewBox="0 0 216 26"><style>.st0{fill:#000000}</style><path id="Path_29_" class="st0" d="M210 20.6c4.1 0 6-2 6-4.6 0-3-3-3.6-5.5-3.9-2.2-.3-4.1-.6-4.1-2.2 0-1.2.9-2.3 3.2-2.3 2.2 0 3.5 1 3.7 2.5h2.5c-.4-2.5-2.3-4.3-6.1-4.3s-5.6 2-5.6 4.3c0 3 2.8 3.5 5.4 3.9 2.2.3 4.3.7 4.3 2.3 0 1.3-1 2.4-3.6 2.4-2.2 0-3.9-.9-4.1-2.9h-2.6c.3 3.1 2.6 4.8 6.5 4.8z"/><path id="Path_28_" class="st0" d="M195.9 20.6c4.1 0 6-2 6-4.6 0-3-3-3.6-5.5-3.9-2.2-.3-4.1-.6-4.1-2.2 0-1.2.9-2.3 3.2-2.3 2.2 0 3.5 1 3.7 2.5h2.5c-.4-2.5-2.3-4.3-6.1-4.3s-5.6 2-5.6 4.3c0 3 2.8 3.5 5.4 3.9 2.2.3 4.3.7 4.3 2.3 0 1.3-1 2.4-3.6 2.4-2.2 0-3.9-.9-4.1-2.9h-2.6c.2 3.1 2.5 4.8 6.5 4.8z"/><path id="Path_27_" class="st0" d="M180.8 20.6c-4.7 0-7-2.8-7-7.2v-.3c0-4.4 2.7-7.4 7.1-7.4 4.7 0 6.8 3.3 6.8 7.1V14H176c.2 2.9 2 4.6 4.9 4.6 2 0 3.4-.9 4-2.6h2.6c-.8 2.9-3.2 4.6-6.7 4.6zm.1-12.9c-2.7 0-4.6 1.6-4.9 4.3h9.5c-.2-2.7-1.9-4.3-4.6-4.3z"/><path id="Path_26_" class="st0" d="M158.5 20.2h2.3v-7.4c0-3 1.5-5 4.3-5 2.7 0 3.9 1.7 3.9 4.4v8.1h2.2v-8.6c0-3.5-1.8-5.9-5.5-5.9-2.7 0-4.4 1.5-5.2 3.6l-.2-3.2h-1.9v14z"/><path id="Path_25_" class="st0" d="M153.1 20.2V6.1h2.3v14.1h-2.3zm1.2-15.8c-1.2 0-1.7-.6-1.7-1.7s.6-1.7 1.7-1.7 1.7.5 1.7 1.7c-.1 1.2-.6 1.7-1.7 1.7z"/><path id="Path_24_" class="st0" d="M145 20.6c4.1 0 6-2 6-4.6 0-3-3-3.6-5.5-3.9-2.2-.3-4.1-.6-4.1-2.2 0-1.2.9-2.3 3.2-2.3 2.2 0 3.5 1 3.7 2.5h2.5c-.4-2.5-2.3-4.3-6.1-4.3s-5.6 2-5.6 4.3c0 3 2.8 3.5 5.4 3.9 2.2.3 4.3.7 4.3 2.3 0 1.3-1 2.4-3.6 2.4-2.2 0-3.9-.9-4.1-2.9h-2.6c.3 3.1 2.6 4.8 6.5 4.8z"/><path id="Path_23_" class="st0" d="M129.5 20.5c2.5 0 4.1-1.3 4.9-3.3l.2 3h1.9V6.1h-2.3v7.6c0 2.9-1.5 4.7-4 4.7-2.6 0-3.6-1.8-3.6-4.3v-8h-2.3v8.6c0 3.5 1.7 5.8 5.2 5.8z"/><path id="Path_22_" class="st0" d="M108.8 20.2V2.7h6.6c4.5 0 6.4 1.6 6.4 4.5 0 2.2-1 3.4-2.9 4 2 .5 3.2 1.9 3.2 4.1 0 3.1-2.1 4.9-6.6 4.9h-6.7zm6.5-7.9h-4.2v5.9h4.2c3.2 0 4.4-1.1 4.4-3 0-2.1-1.5-2.9-4.4-2.9zm.2-7.6h-4.4v5.7h4.4c2.6 0 4-.9 4-2.9 0-1.9-1.2-2.8-4-2.8z"/><path id="Path_21_" d="M88 20.2l5.4-7.3-5-6.8h4.3l2.8 4.3 2.9-4.3h4.3l-5.1 6.8 5.3 7.3h-4.1l-3.3-4.6-3.2 4.6z"/><path id="Path_20_" d="M81.4 20.6c-4.6 0-7.2-2.5-7.2-7.2V13c0-4.8 3-7.3 7.2-7.3s7.2 2.6 7.2 7.3v.4c0 4.7-3 7.2-7.2 7.2zm0-3.2c2.1 0 3.4-1.4 3.4-4V13c0-2.7-1.3-4.2-3.4-4.2-2.1 0-3.4 1.5-3.4 4.2v.3c0 2.6 1.3 4.1 3.4 4.1z"/><path id="Path_19_" d="M66.6 20.6c-2.3 0-3.9-1.1-4.6-2.9l-.3 2.6h-3.2v-19h3.6v7.3c.8-1.8 2.4-2.9 4.6-2.9 3.4 0 5.9 2.4 5.9 7.1v.4c0 4.7-2.4 7.4-6 7.4zm-1.2-3.2c2.1 0 3.4-1.4 3.4-4.2v-.3c0-2.6-1.4-4-3.4-4S62 10.5 62 13v.3c.1 2.6 1.4 4.1 3.4 4.1z"/><path id="Path_18_" d="M42.4 25V6.1h3.1l.4 2.6c.8-1.8 2.3-3 4.7-3 3.6 0 6 2.6 6 7.4v.4c0 4.7-2.6 7.1-6 7.1-2.3 0-3.8-1-4.5-2.7V25h-3.7zm6.9-7.6c2.1 0 3.5-1.4 3.5-4v-.3c0-2.8-1.5-4.2-3.4-4.2-2.1 0-3.4 1.6-3.4 4.2v.3c0 2.4 1.3 4 3.3 4z"/><path id="Path_17_" d="M33.3 20.6c-4.6 0-7.2-2.5-7.2-7.2V13c0-4.8 3-7.3 7.2-7.3s7.2 2.6 7.2 7.3v.4c0 4.7-2.9 7.2-7.2 7.2zm0-3.2c2.1 0 3.4-1.4 3.4-4V13c0-2.7-1.3-4.2-3.4-4.2-2.1 0-3.4 1.5-3.4 4.2v.3c0 2.6 1.3 4.1 3.4 4.1z"/><path id="Path_16_" d="M16.4 20.2h3.7v-6.5c0-3 .7-4.1 3.8-4.1h1.5V5.9h-.9c-2.6 0-4.1 1.2-4.6 3.4l-.5-3.2h-3v14.1z"/><path id="Path_15_" d="M0 20.2V2.7h6.6c4.3 0 7.8 2.5 7.8 8.1V12c0 5.7-3.3 8.2-7.7 8.2H0zM6.4 5.9H3.7V17h2.9c2.4 0 4.1-1.6 4.1-5.1V11c-.1-3.5-1.8-5.1-4.3-5.1z"/></svg>
