<svg xmlns="http://www.w3.org/2000/svg" width="20" height="18" viewBox="0 0 20 18">
    <g fill="none" fill-rule="evenodd">
        <path d="M-2-3h24v24H-2z"/>
        <g fill="#333">
            <path d="M3 14c0-1.84 1.159-3 3-3s3 1.16 3 3H3zM8 8A2 2 0 1 1 3.999 8 2 2 0 0 1 8 8.001M17 10h-6V8h6zM17 14h-6v-2h6z"/>
            <path d="M2 16V4h5.185A2.993 2.993 0 0 0 10 6a2.993 2.993 0 0 0 2.815-2H18l.001 12H2zm8-14c.551 0 1 .45 1 1 0 .551-.449 1-1 1-.551 0-1-.449-1-1 0-.55.449-1 1-1zm8 0h-5.185A2.993 2.993 0 0 0 10 0a2.993 2.993 0 0 0-2.815 2H2C.897 2 0 2.897 0 4v12c0 1.104.897 2 2 2h16c1.103 0 2-.896 2-2V4c0-1.103-.897-2-2-2z"/>
        </g>
    </g>
</svg>
