<svg xmlns="http://www.w3.org/2000/svg" width="164" height="16" viewBox="0 0 164 16">
  <g fill="none" fill-rule="evenodd">
    <path fill="#8BE" d="M5.74,15.4 C3.84,15.4 2.04,14.8 0.48,13.64 C0.2,13.44 0,13.1 0,12.7 C0,12.06 0.52,11.56 1.16,11.56 C1.5,11.56 1.72,11.66 1.88,11.78 C3.04,12.7 4.28,13.22 5.8,13.22 C7.32,13.22 8.28,12.5 8.28,11.46 L8.28,11.42 C8.28,10.42 7.72,9.88 5.12,9.28 C2.14,8.56 0.46,7.68 0.46,5.1 L0.46,5.06 C0.46,2.66 2.46,1 5.24,1 C7,1 8.42,1.46 9.68,2.3 C9.96,2.46 10.22,2.8 10.22,3.28 C10.22,3.92 9.7,4.42 9.06,4.42 C8.82,4.42 8.62,4.36 8.42,4.24 C7.34,3.54 6.3,3.18 5.2,3.18 C3.76,3.18 2.92,3.92 2.92,4.84 L2.92,4.88 C2.92,5.96 3.56,6.44 6.26,7.08 C9.22,7.8 10.74,8.86 10.74,11.18 L10.74,11.22 C10.74,13.84 8.68,15.4 5.74,15.4 Z M13.64,14.1 L13.64,2.36 C13.64,1.68 14.18,1.12 14.88,1.12 L15.14,1.12 C15.68,1.12 16.04,1.4 16.28,1.78 L20.52,8.42 L24.78,1.76 C25.04,1.34 25.4,1.12 25.9,1.12 L26.16,1.12 C26.86,1.12 27.4,1.68 27.4,2.36 L27.4,14.08 C27.4,14.76 26.86,15.3 26.16,15.3 C25.5,15.3 24.94,14.74 24.94,14.08 L24.94,5.68 L21.52,10.82 C21.26,11.22 20.94,11.46 20.48,11.46 C20.04,11.46 19.72,11.22 19.46,10.82 L16.06,5.72 L16.06,14.1 C16.06,14.78 15.52,15.3 14.84,15.3 C14.16,15.3 13.64,14.78 13.64,14.1 Z M30.04,14.16 C30.04,13.98 30.1,13.8 30.2,13.6 L35.4,2 C35.68,1.38 36.18,1 36.88,1 L37,1 C37.7,1 38.18,1.38 38.46,2 L43.66,13.6 C43.76,13.78 43.8,13.96 43.8,14.12 C43.8,14.78 43.3,15.3 42.64,15.3 C42.06,15.3 41.66,14.96 41.44,14.44 L40.3,11.82 L33.5,11.82 L32.32,14.52 C32.12,15.02 31.7,15.3 31.18,15.3 C30.54,15.3 30.04,14.8 30.04,14.16 Z M34.44,9.64 L39.36,9.64 L36.9,3.98 L34.44,9.64 Z M46.46,14.08 L46.46,2.44 C46.46,1.74 47,1.2 47.7,1.2 L52.7,1.2 C54.46,1.2 55.84,1.72 56.74,2.6 C57.48,3.36 57.9,4.4 57.9,5.62 L57.9,5.66 C57.9,7.9 56.6,9.26 54.72,9.84 L57.4,13.22 C57.64,13.52 57.8,13.78 57.8,14.16 C57.8,14.84 57.22,15.3 56.62,15.3 C56.06,15.3 55.7,15.04 55.42,14.66 L52.02,10.32 L48.92,10.32 L48.92,14.08 C48.92,14.76 48.38,15.3 47.7,15.3 C47,15.3 46.46,14.76 46.46,14.08 Z M48.92,8.14 L52.52,8.14 C54.28,8.14 55.4,7.22 55.4,5.8 L55.4,5.76 C55.4,4.26 54.32,3.44 52.5,3.44 L48.92,3.44 L48.92,8.14 Z M64.36,14.08 L64.36,3.48 L60.96,3.48 C60.32,3.48 59.82,2.96 59.82,2.34 C59.82,1.72 60.32,1.2 60.96,1.2 L70.26,1.2 C70.88,1.2 71.38,1.72 71.38,2.34 C71.38,2.96 70.88,3.48 70.26,3.48 L66.84,3.48 L66.84,14.08 C66.84,14.76 66.28,15.3 65.6,15.3 C64.92,15.3 64.36,14.76 64.36,14.08 Z"/>
    <polygon fill="#4B9" points="88 1 79.414 9.586 74.828 5 72 7.828 79.414 15.242 90.828 3.828"/>
    <path fill="#8BE" d="M100.12,15.48 C96.04,15.48 93,12.3 93,8.28 L93,8.24 C93,4.26 95.98,1 100.22,1 C102.38,1 103.8,1.64 105.02,2.58 C105.28,2.78 105.5,3.12 105.5,3.56 C105.5,4.24 104.96,4.76 104.28,4.76 C103.94,4.76 103.7,4.64 103.54,4.52 C102.58,3.74 101.54,3.26 100.2,3.26 C97.54,3.26 95.58,5.46 95.58,8.2 L95.58,8.24 C95.58,10.98 97.52,13.2 100.2,13.2 C101.68,13.2 102.68,12.72 103.7,11.86 C103.88,11.7 104.14,11.58 104.44,11.58 C105.06,11.58 105.6,12.1 105.6,12.72 C105.6,13.1 105.42,13.4 105.2,13.6 C103.88,14.76 102.38,15.48 100.12,15.48 Z M108.38,14.12 L108.38,2.36 C108.38,1.68 108.92,1.14 109.62,1.14 C110.3,1.14 110.84,1.68 110.84,2.36 L110.84,7.06 L117.52,7.06 L117.52,2.36 C117.52,1.68 118.06,1.14 118.74,1.14 C119.44,1.14 119.98,1.68 119.98,2.36 L119.98,14.12 C119.98,14.8 119.44,15.34 118.74,15.34 C118.06,15.34 117.52,14.8 117.52,14.12 L117.52,9.34 L110.84,9.34 L110.84,14.12 C110.84,14.8 110.3,15.34 109.62,15.34 C108.92,15.34 108.38,14.8 108.38,14.12 Z M124.82,15.24 C124.12,15.24 123.58,14.7 123.58,14 L123.58,2.48 C123.58,1.78 124.12,1.24 124.82,1.24 L132.96,1.24 C133.56,1.24 134.06,1.74 134.06,2.34 C134.06,2.96 133.56,3.44 132.96,3.44 L126.04,3.44 L126.04,7.08 L132.06,7.08 C132.66,7.08 133.16,7.58 133.16,8.2 C133.16,8.8 132.66,9.28 132.06,9.28 L126.04,9.28 L126.04,13.04 L133.06,13.04 C133.66,13.04 134.16,13.54 134.16,14.14 C134.16,14.76 133.66,15.24 133.06,15.24 L124.82,15.24 Z M143.48,15.48 C139.4,15.48 136.36,12.3 136.36,8.28 L136.36,8.24 C136.36,4.26 139.34,1 143.58,1 C145.74,1 147.16,1.64 148.38,2.58 C148.64,2.78 148.86,3.12 148.86,3.56 C148.86,4.24 148.32,4.76 147.64,4.76 C147.3,4.76 147.06,4.64 146.9,4.52 C145.94,3.74 144.9,3.26 143.56,3.26 C140.9,3.26 138.94,5.46 138.94,8.2 L138.94,8.24 C138.94,10.98 140.88,13.2 143.56,13.2 C145.04,13.2 146.04,12.72 147.06,11.86 C147.24,11.7 147.5,11.58 147.8,11.58 C148.42,11.58 148.96,12.1 148.96,12.72 C148.96,13.1 148.78,13.4 148.56,13.6 C147.24,14.76 145.74,15.48 143.48,15.48 Z M151.74,14.12 L151.74,2.36 C151.74,1.68 152.28,1.14 152.98,1.14 C153.66,1.14 154.2,1.68 154.2,2.36 L154.2,8.28 L160.84,1.6 C161.12,1.3 161.42,1.14 161.86,1.14 C162.54,1.14 163,1.68 163,2.28 C163,2.66 162.84,2.94 162.56,3.2 L158.2,7.4 L162.92,13.26 C163.12,13.52 163.26,13.76 163.26,14.14 C163.26,14.82 162.72,15.34 162.02,15.34 C161.54,15.34 161.24,15.1 160.98,14.76 L156.48,9.02 L154.2,11.22 L154.2,14.12 C154.2,14.8 153.66,15.34 152.98,15.34 C152.28,15.34 151.74,14.8 151.74,14.12 Z"/>
  </g>
</svg>
