<svg xmlns="http://www.w3.org/2000/svg" width="22" height="24" viewBox="0 0 22 24">
    <g fill="none" fill-rule="evenodd">
        <path d="M-1 0h24v24H-1z"/>
        <g fill="#333">
            <path d="M17.553 1.832L16.444.168l-3 2 1.11 1.664zM14.999 7h4V5h-4zM8.553 2.168l-3-2-1.109 1.664 3 2zM6.999 5h-4v2h4zM18.999 17h-3.146a3.002 3.002 0 0 0-2.683 1.658l-.171.342h6v-2zM8.828 18.658A3 3 0 0 0 6.144 17H2.999v2h6l-.171-.342z"/>
            <path d="M19.999 20h-18v-4h18v4zM5.719 10h10.559l1.333 4H4.386l1.333-4zm14.28 4h-.28l-1.772-5.316A.999.999 0 0 0 16.999 8h-12a1 1 0 0 0-.949.684L2.278 14h-.279c-1.103 0-2 .897-2 2v5a1 1 0 0 0 1 1h1a2 2 0 0 0 4 0h10a2 2 0 0 0 4 0h1a1 1 0 0 0 1-1v-5c0-1.103-.897-2-2-2zM12.999 6c0-1.103-.897-2-2-2s-2 .897-2 2v1h4V6z"/>
        </g>
    </g>
</svg>
