<?xml version="1.0" encoding="utf-8"?>
<!-- Generator: Adobe Illustrator 19.2.1, SVG Export Plug-In . SVG Version: 6.00 Build 0)  -->
<svg version="1.1" id="artwork" xmlns="http://www.w3.org/2000/svg" xmlns:xlink="http://www.w3.org/1999/xlink" x="0px" y="0px"
	 viewBox="0 0 137 42" style="enable-background:new 0 0 137 42;" xml:space="preserve">
<style type="text/css">
	.st0{fill:#FFFFFF;fill-opacity:0;}
	.st1{fill:#A6A6A6;}
	.st2{fill:#FFFFFF;stroke:#FFFFFF;stroke-width:0.2;stroke-miterlimit:10;}
	.st3{fill:#FFFFFF;}
	.st4{fill:url(#SVGID_1_);}
	.st5{fill:url(#SVGID_2_);}
	.st6{fill:url(#SVGID_3_);}
	.st7{fill:url(#SVGID_4_);}
	.st8{opacity:0.2;enable-background:new    ;}
	.st9{opacity:0.12;enable-background:new    ;}
	.st10{opacity:0.25;fill:#FFFFFF;enable-background:new    ;}
</style>
<g>
	<rect x="-9" y="-9" class="st0" width="155" height="60"/>
	<g>
		<path d="M131,41H6c-2.8,0-5-2.2-5-5V6c0-2.7,2.2-5,5-5h125c2.8,0,5,2.2,5,5v30C136,38.7,133.8,41,131,41z"/>
	</g>
	<g>
		<g>
			<path class="st1" d="M131,1.8c2.3,0,4.2,1.9,4.2,4.2v30c0,2.3-1.9,4.2-4.2,4.2H6c-2.3,0-4.2-1.9-4.2-4.2V6c0-2.3,1.9-4.2,4.2-4.2
				H131 M131,1H6C3.3,1,1,3.3,1,6v30c0,2.8,2.2,5,5,5h125c2.8,0,5-2.2,5-5V6C136,3.3,133.8,1,131,1L131,1z"/>
		</g>
	</g>
	<g>
		<path class="st2" d="M48.4,11.2c0,0.8-0.2,1.5-0.7,2c-0.6,0.6-1.3,0.9-2.2,0.9c-0.9,0-1.6-0.3-2.2-0.9c-0.6-0.6-0.9-1.3-0.9-2.2
			c0-0.9,0.3-1.6,0.9-2.2c0.6-0.6,1.3-0.9,2.2-0.9c0.4,0,0.8,0.1,1.2,0.3c0.4,0.2,0.7,0.4,0.9,0.7l-0.5,0.5
			c-0.4-0.5-0.9-0.7-1.6-0.7c-0.6,0-1.2,0.2-1.6,0.7c-0.5,0.4-0.7,1-0.7,1.7s0.2,1.3,0.7,1.7c0.5,0.4,1,0.7,1.6,0.7
			c0.7,0,1.2-0.2,1.7-0.7c0.3-0.3,0.5-0.7,0.5-1.2h-2.2v-0.7h2.9C48.4,10.9,48.4,11.1,48.4,11.2z"/>
		<path class="st2" d="M53,8.7h-2.7v1.9h2.5v0.7h-2.5v1.9H53V14h-3.5V8H53V8.7z"/>
		<path class="st2" d="M56.3,14h-0.8V8.7h-1.7V8H58v0.7h-1.7V14z"/>
		<path class="st2" d="M60.9,14V8h0.8v6H60.9z"/>
		<path class="st2" d="M65.1,14h-0.8V8.7h-1.7V8h4.1v0.7h-1.7V14z"/>
		<path class="st2" d="M74.6,13.2c-0.6,0.6-1.3,0.9-2.2,0.9c-0.9,0-1.6-0.3-2.2-0.9c-0.6-0.6-0.9-1.3-0.9-2.2s0.3-1.6,0.9-2.2
			c0.6-0.6,1.3-0.9,2.2-0.9c0.9,0,1.6,0.3,2.2,0.9c0.6,0.6,0.9,1.3,0.9,2.2C75.5,11.9,75.2,12.6,74.6,13.2z M70.8,12.7
			c0.4,0.4,1,0.7,1.6,0.7s1.2-0.2,1.6-0.7c0.4-0.4,0.7-1,0.7-1.7S74.5,9.7,74,9.3c-0.4-0.4-1-0.7-1.6-0.7s-1.2,0.2-1.6,0.7
			c-0.4,0.4-0.7,1-0.7,1.7S70.3,12.3,70.8,12.7z"/>
		<path class="st2" d="M76.6,14V8h0.9l2.9,4.7h0l0-1.2V8h0.8v6h-0.8l-3.1-4.9h0l0,1.2V14H76.6z"/>
	</g>
	<path class="st3" d="M69.1,22.8c-2.4,0-4.3,1.8-4.3,4.3c0,2.4,1.9,4.3,4.3,4.3c2.4,0,4.3-1.8,4.3-4.3
		C73.4,24.5,71.5,22.8,69.1,22.8z M69.1,29.6c-1.3,0-2.4-1.1-2.4-2.6c0-1.5,1.1-2.6,2.4-2.6c1.3,0,2.4,1,2.4,2.6
		C71.5,28.5,70.4,29.6,69.1,29.6z M59.8,22.8c-2.4,0-4.3,1.8-4.3,4.3c0,2.4,1.9,4.3,4.3,4.3c2.4,0,4.3-1.8,4.3-4.3
		C64.1,24.5,62.2,22.8,59.8,22.8z M59.8,29.6c-1.3,0-2.4-1.1-2.4-2.6c0-1.5,1.1-2.6,2.4-2.6c1.3,0,2.4,1,2.4,2.6
		C62.2,28.5,61.1,29.6,59.8,29.6z M48.7,24.1v1.8h4.3c-0.1,1-0.5,1.8-1,2.3c-0.6,0.6-1.6,1.3-3.3,1.3c-2.7,0-4.7-2.1-4.7-4.8
		s2.1-4.8,4.7-4.8c1.4,0,2.5,0.6,3.3,1.3l1.3-1.3c-1.1-1-2.5-1.8-4.5-1.8c-3.6,0-6.7,3-6.7,6.6c0,3.6,3.1,6.6,6.7,6.6
		c2,0,3.4-0.6,4.6-1.9c1.2-1.2,1.6-2.9,1.6-4.2c0-0.4,0-0.8-0.1-1.1H48.7z M94.1,25.5c-0.4-1-1.4-2.7-3.6-2.7c-2.2,0-4,1.7-4,4.3
		c0,2.4,1.8,4.3,4.2,4.3c1.9,0,3.1-1.2,3.5-1.9l-1.4-1c-0.5,0.7-1.1,1.2-2.1,1.2c-1,0-1.6-0.4-2.1-1.3l5.7-2.4L94.1,25.5z
		 M88.3,26.9c0-1.6,1.3-2.5,2.2-2.5c0.7,0,1.4,0.4,1.6,0.9L88.3,26.9z M83.6,31h1.9V18.5h-1.9V31z M80.6,23.7L80.6,23.7
		c-0.5-0.5-1.3-1-2.3-1c-2.1,0-4.1,1.9-4.1,4.3c0,2.4,1.9,4.2,4.1,4.2c1,0,1.8-0.5,2.2-1h0.1v0.6c0,1.6-0.9,2.5-2.3,2.5
		c-1.1,0-1.9-0.8-2.1-1.5l-1.6,0.7c0.5,1.1,1.7,2.5,3.8,2.5c2.2,0,4-1.3,4-4.4V23h-1.8V23.7z M78.4,29.6c-1.3,0-2.4-1.1-2.4-2.6
		c0-1.5,1.1-2.6,2.4-2.6c1.3,0,2.3,1.1,2.3,2.6C80.7,28.5,79.7,29.6,78.4,29.6z M102.8,18.5h-4.5V31h1.9v-4.7h2.6
		c2.1,0,4.1-1.5,4.1-3.9S104.9,18.5,102.8,18.5z M102.9,24.5h-2.7v-4.3h2.7c1.4,0,2.2,1.2,2.2,2.1C105,23.4,104.2,24.5,102.9,24.5z
		 M114.4,22.7c-1.4,0-2.8,0.6-3.3,1.9l1.7,0.7c0.4-0.7,1-0.9,1.7-0.9c1,0,1.9,0.6,2,1.6v0.1c-0.3-0.2-1.1-0.5-1.9-0.5
		c-1.8,0-3.6,1-3.6,2.8c0,1.7,1.5,2.8,3.1,2.8c1.3,0,1.9-0.6,2.4-1.2h0.1v1h1.8v-4.8C118.2,24,116.5,22.7,114.4,22.7z M114.2,29.6
		c-0.6,0-1.5-0.3-1.5-1.1c0-1,1.1-1.3,2-1.3c0.8,0,1.2,0.2,1.7,0.4C116.2,28.8,115.2,29.6,114.2,29.6z M124.7,23l-2.1,5.4h-0.1
		l-2.2-5.4h-2l3.3,7.6l-1.9,4.2h1.9l5.1-11.8H124.7z M107.9,31h1.9V18.5h-1.9V31z"/>
	<g>
		
			<linearGradient id="SVGID_1_" gradientUnits="userSpaceOnUse" x1="22.7997" y1="174.2903" x2="6.0173" y2="157.5079" gradientTransform="matrix(1 0 0 -1 0 184)">
			<stop  offset="0" style="stop-color:#00A0FF"/>
			<stop  offset="6.574450e-03" style="stop-color:#00A1FF"/>
			<stop  offset="0.2601" style="stop-color:#00BEFF"/>
			<stop  offset="0.5122" style="stop-color:#00D2FF"/>
			<stop  offset="0.7604" style="stop-color:#00DFFF"/>
			<stop  offset="1" style="stop-color:#00E3FF"/>
		</linearGradient>
		<path class="st4" d="M11.4,8.5C11.1,8.8,11,9.3,11,9.9v22.1c0,0.6,0.2,1.1,0.5,1.4l0.1,0.1l12.4-12.4V21v-0.1L11.4,8.5L11.4,8.5z"
			/>
		
			<linearGradient id="SVGID_2_" gradientUnits="userSpaceOnUse" x1="34.8344" y1="162.9986" x2="10.6375" y2="162.9986" gradientTransform="matrix(1 0 0 -1 0 184)">
			<stop  offset="0" style="stop-color:#FFE000"/>
			<stop  offset="0.4087" style="stop-color:#FFBD00"/>
			<stop  offset="0.7754" style="stop-color:#FFA500"/>
			<stop  offset="1" style="stop-color:#FF9C00"/>
		</linearGradient>
		<path class="st5" d="M28,25.3l-4.1-4.1V21v-0.1l4.1-4.1l0.1,0.1l4.9,2.8c1.4,0.8,1.4,2.1,0,2.9L28,25.3L28,25.3z"/>
		
			<linearGradient id="SVGID_3_" gradientUnits="userSpaceOnUse" x1="25.827" y1="160.7039" x2="3.0687" y2="137.9456" gradientTransform="matrix(1 0 0 -1 0 184)">
			<stop  offset="0" style="stop-color:#FF3A44"/>
			<stop  offset="1" style="stop-color:#C31162"/>
		</linearGradient>
		<path class="st6" d="M28.1,25.2L23.9,21L11.4,33.5c0.5,0.5,1.2,0.5,2.1,0.1L28.1,25.2"/>
		
			<linearGradient id="SVGID_4_" gradientUnits="userSpaceOnUse" x1="8.2973" y1="182.8238" x2="18.4599" y2="172.6613" gradientTransform="matrix(1 0 0 -1 0 184)">
			<stop  offset="0" style="stop-color:#32A071"/>
			<stop  offset="6.850000e-02" style="stop-color:#2DA771"/>
			<stop  offset="0.4762" style="stop-color:#15CF74"/>
			<stop  offset="0.8009" style="stop-color:#06E775"/>
			<stop  offset="1" style="stop-color:#00F076"/>
		</linearGradient>
		<path class="st7" d="M28.1,16.8L13.5,8.5c-0.9-0.5-1.6-0.4-2.1,0.1L23.9,21L28.1,16.8z"/>
		<g>
			<path class="st8" d="M28,25.1l-14.5,8.2c-0.8,0.5-1.5,0.4-2,0l0,0l-0.1,0.1l0,0l0.1,0.1l0,0c0.5,0.4,1.2,0.5,2,0L28,25.1L28,25.1
				z"/>
			<path class="st9" d="M11.4,33.3C11.1,33,11,32.5,11,31.9v0.1c0,0.6,0.2,1.1,0.5,1.4V33.3L11.4,33.3z"/>
		</g>
		<path class="st9" d="M33,22.3l-5,2.8l0.1,0.1l4.9-2.8c0.7-0.4,1-0.9,1-1.4l0,0C34,21.5,33.6,21.9,33,22.3z"/>
		<path class="st10" d="M13.5,8.6L33,19.7c0.6,0.4,1,0.8,1,1.3l0,0c0-0.5-0.3-1-1-1.4L13.5,8.5C12.1,7.7,11,8.3,11,9.9v0.1
			C11,8.5,12.1,7.8,13.5,8.6z"/>
	</g>
</g>
</svg>
