<?xml version="1.0" encoding="UTF-8"?>
<svg width="13px" height="18px" viewBox="0 0 13 18" version="1.1" xmlns="http://www.w3.org/2000/svg" xmlns:xlink="http://www.w3.org/1999/xlink">
    <!-- Generator: Sketch 54 (76480) - https://sketchapp.com -->
    <title>Inflowhelp_Question_Blue_Icon</title>
    <desc>Created with Sketch.</desc>
    <g id="Icons" stroke="none" stroke-width="1" fill="none" fill-rule="evenodd">
        <g id="iPhone-8" transform="translate(-30.000000, -51.000000)" fill="#0654BA" fill-rule="nonzero">
            <path d="M37.8392978,64.4058069 L34.7400405,64.4058069 C34.7319378,63.9601598 34.7278866,63.6887243 34.7278866,63.5914922 C34.7278866,62.5867607 34.8939889,61.7603003 35.2261985,61.1120864 C35.5584081,60.4638725 36.2228174,59.7346428 37.2194463,58.9243754 C38.2160752,58.114108 38.8116128,57.5833909 39.006077,57.332208 C39.3058759,56.9351769 39.4557731,56.4976391 39.4557731,56.0195814 C39.4557731,55.3551621 39.1904145,54.7859578 38.6596894,54.3119514 C38.1289643,53.837945 37.413914,53.6009453 36.5145172,53.6009453 C35.6475311,53.6009453 34.9223527,53.8480732 34.3389602,54.3423363 C33.7555676,54.8365994 33.3544913,55.5901367 33.1357191,56.602971 L30,56.2140446 C30.0891294,54.7636659 30.706949,53.532078 31.8534774,52.5192438 C33.0000057,51.5064095 34.5050548,51 36.3686698,51 C38.3295169,51 39.8892582,51.5124864 41.0479406,52.5374747 C42.2066229,53.5624629 42.7859554,54.7555638 42.7859554,56.116813 C42.7859554,56.8703616 42.5732634,57.5833862 42.1478731,58.2559082 C41.7224827,58.9284301 40.8129712,59.8440185 39.4193113,61.0027009 C38.6981733,61.6022987 38.2505073,62.0844006 38.0762998,62.4490209 C37.9020923,62.8136413 37.8230924,63.4658967 37.8392978,64.4058069 Z M34.7400405,69 L34.7400405,65.58474 L38.1553005,65.58474 L38.1553005,69 L34.7400405,69 Z" id="Inflowhelp_Question_Blue_Icon"></path>
        </g>
    </g>
</svg>