<svg xmlns="http://www.w3.org/2000/svg" width="145" height="19" viewBox="0 0 145 19">
    <defs>
        <linearGradient id="a" x1="-37.123%" x2="-612.16%" y1="50.022%" y2="50.022%">
            <stop offset="0%"/>
            <stop offset="12.47%" stop-color="#56328E"/>
            <stop offset="31.97%" stop-color="#4F4899"/>
            <stop offset="56.08%" stop-color="#456DAB"/>
            <stop offset="83.57%" stop-color="#379FC4"/>
            <stop offset="100%" stop-color="#2DC0D4"/>
        </linearGradient>
    </defs>
    <g fill="none" fill-rule="nonzero">
        <g fill="#000">
            <path d="M15.725 2.714c-.8-.814-1.76-1.465-2.879-1.954-1.12-.489-2.292-.706-3.518-.706-.853 0-1.652.109-2.452.326-.8.217-1.492.543-2.185.923-.64.38-1.226.868-1.76 1.411A9.234 9.234 0 0 0 1.547 4.56 9.22 9.22 0 0 0 .64 6.786a9.714 9.714 0 0 0-.32 2.497c0 .868.106 1.683.32 2.497.213.814.533 1.52.906 2.226.373.705.853 1.303 1.386 1.845a9.103 9.103 0 0 0 1.812 1.412c.693.38 1.386.706 2.186.923.8.217 1.599.325 2.451.325.853 0 1.653-.108 2.4-.325a9.416 9.416 0 0 0 2.131-.923c.693-.38 1.28-.869 1.813-1.412a9.234 9.234 0 0 0 1.386-1.845c.373-.706.693-1.412.906-2.226.213-.814.32-1.629.32-2.497 0-1.303-.214-2.497-.693-3.637-.48-1.14-1.12-2.117-1.92-2.932zM12.9 11.02c-.16.543-.427.977-.747 1.411a3.51 3.51 0 0 1-1.226.923 3.834 3.834 0 0 1-1.599.326c-.64 0-1.172-.109-1.652-.326a3.51 3.51 0 0 1-1.226-.923c-.32-.38-.587-.868-.8-1.411-.213-.543-.266-1.14-.266-1.737 0-.597.106-1.194.266-1.683.213-.543.48-1.031.8-1.411a3.09 3.09 0 0 1 1.226-.978c.48-.217 1.066-.38 1.652-.38.587 0 1.12.109 1.6.38.479.218.905.543 1.225.978.32.434.587.868.747 1.411.16.543.266 1.086.266 1.683s-.107 1.194-.266 1.737zM36.46 16.883l-7.09-8.306 5.864-7.383c.107-.108.16-.217.213-.271C35.5.869 35.5.76 35.5.65c0-.38-.266-.597-.746-.597h-4.21c-.32 0-.64.109-.854.38L24.52 7.33V.977c0-.108 0-.217-.053-.326 0-.108-.054-.217-.16-.325-.054-.109-.16-.163-.267-.217A.99.99 0 0 0 23.614 0h-3.305c-.267 0-.48 0-.64.054-.16.055-.266.109-.32.217-.053.109-.106.218-.106.326V17.154s0 .055.053.163l.16.326c.053.108.16.217.266.326.107.108.267.108.427.108h3.465c.213 0 .373-.054.48-.108.106-.109.213-.163.266-.326.053-.109.107-.217.16-.38 0-.109.053-.217.053-.272v-3.528l1.546-1.629 4.477 5.483c.16.217.32.434.48.543.16.109.267.163.427.163h4.637c.213 0 .427-.054.533-.109.107-.054.16-.217.16-.434 0-.109 0-.217-.053-.326-.16-.054-.213-.163-.32-.271z"/>
            <path d="M51.758 4.289c-.373-.598-.8-1.195-1.332-1.738-.533-.542-1.12-.977-1.706-1.357a8.481 8.481 0 0 0-2.026-.868A7.449 7.449 0 0 0 44.456 0c-.853 0-1.653.109-2.4.326a9.012 9.012 0 0 0-2.078.923c-.64.38-1.226.868-1.76 1.465-.532.543-.959 1.195-1.332 1.846-.373.651-.64 1.411-.853 2.171a8.899 8.899 0 0 0-.32 2.389c0 1.303.267 2.551.747 3.637a8.69 8.69 0 0 0 2.025 2.932 9.957 9.957 0 0 0 2.932 1.954c1.12.488 2.292.706 3.572.706a8.03 8.03 0 0 0 3.198-.652 9.149 9.149 0 0 0 2.718-1.791c.16-.109.267-.217.373-.38.107-.109.16-.272.16-.489 0-.108 0-.217-.053-.326a1.138 1.138 0 0 0-.213-.325l-1.44-1.683c-.16-.163-.32-.272-.426-.38-.106-.109-.266-.109-.373-.109-.107 0-.213.055-.32.109-.106.054-.213.163-.373.271-.16.163-.373.326-.64.489-.266.163-.586.271-.906.38-.32.108-.64.217-1.013.271-.373.055-.692.109-1.012.109-.373 0-.747-.054-1.173-.163a4.479 4.479 0 0 1-1.173-.489c-.373-.217-.693-.542-.96-.977a3.206 3.206 0 0 1-.532-1.52h9.914c.587 0 1.013-.054 1.333-.108.32-.055.533-.217.64-.38.106-.163.213-.435.213-.76V8.25c0-.76-.107-1.465-.32-2.171-.213-.489-.48-1.14-.853-1.791zM40.991 6.894c.16-.325.32-.651.586-.923.213-.325.48-.597.8-.814.32-.217.586-.434.96-.597.319-.163.692-.217 1.012-.217.48 0 .906.054 1.28.217.372.109.692.326 1.012.543.266.217.533.488.746.814.213.326.427.652.64 1.032H40.99v-.055zM66.417 13.626h-6.77l7.57-9.175c.106-.108.106-.217.16-.325V1.41c0-.38-.107-.651-.32-.814a1.294 1.294 0 0 0-.8-.271H54.69c-.32 0-.586.108-.8.325-.213.218-.32.489-.32.815v2.28c0 .38.107.705.32.868.214.163.48.272.8.272h6.716c-.64.705-1.28 1.465-1.919 2.28a81.81 81.81 0 0 0-2.025 2.443 81.81 81.81 0 0 0-2.026 2.442c-.693.815-1.332 1.575-1.919 2.226-.106.109-.16.272-.213.38 0 .109-.053.272-.053.38v1.954c0 .163.053.272.106.435.054.163.16.271.267.38.106.108.213.217.373.271a.99.99 0 0 0 .426.109h12.154a.99.99 0 0 0 .426-.109c.107-.054.267-.163.32-.271.107-.109.16-.272.213-.38.053-.163.053-.272.053-.435v-2.225c0-.38-.106-.706-.32-.869-.266-.217-.532-.271-.852-.271zM100.691 2.389c-.586-.706-1.332-1.249-2.185-1.683C97.653.27 96.693.109 95.68.109c-.747 0-1.386.108-1.92.325a6.226 6.226 0 0 0-1.439.815A4.6 4.6 0 0 0 91.31 2.28c-.267.38-.48.706-.587.977l-.426-1.791a2.672 2.672 0 0 0-.16-.38c-.053-.109-.107-.272-.213-.326-.107-.109-.16-.163-.32-.271a.99.99 0 0 0-.426-.109h-2.08c-.106 0-.266 0-.372.054-.107.055-.267.109-.374.217l.107-.054c-.16.109-.266.217-.32.326-.053.163-.106.326-.106.488V17.1c0 .326.106.597.266.76.16.217.48.271.853.271h3.092c.16 0 .266 0 .373-.054.106-.054.213-.054.32-.163.106-.108.213-.217.266-.38.053-.163.107-.325.107-.488V7.98c.053-.434.16-.814.32-1.194.213-.38.426-.652.746-.923.266-.272.586-.489.96-.597.32-.163.692-.217 1.012-.217.373 0 .746.054 1.12.217.373.163.692.38 1.012.651.32.272.533.597.693.977.16.38.267.76.267 1.14v9.12c0 .38.053.652.213.815.16.108.426.217.8.217h3.198c.32 0 .586-.109.746-.272.16-.163.213-.434.213-.814V7.871c0-1.085-.16-2.062-.48-3.04a9.168 9.168 0 0 0-1.439-2.442zM120.307 6.297a9.456 9.456 0 0 0-.853-2.008c-.373-.598-.8-1.195-1.332-1.738-.533-.542-1.12-.977-1.706-1.357a8.481 8.481 0 0 0-2.026-.868A7.449 7.449 0 0 0 112.152 0c-.853 0-1.653.109-2.4.326a9.012 9.012 0 0 0-2.078.923c-.64.38-1.226.868-1.759 1.465-.533.543-.96 1.195-1.333 1.846s-.64 1.411-.852 2.171a8.899 8.899 0 0 0-.32 2.389c0 1.303.266 2.551.746 3.637a8.69 8.69 0 0 0 2.025 2.932 9.957 9.957 0 0 0 2.932 1.954c1.12.488 2.292.706 3.572.706a8.03 8.03 0 0 0 3.198-.652 9.149 9.149 0 0 0 2.718-1.791c.16-.109.267-.217.373-.38.107-.109.16-.272.16-.489 0-.108 0-.217-.053-.326a1.138 1.138 0 0 0-.213-.325l-1.44-1.683c-.16-.163-.32-.272-.426-.38-.106-.109-.266-.109-.373-.109-.107 0-.213.055-.32.109-.106.054-.213.163-.373.271-.16.163-.373.326-.64.489-.266.163-.586.271-.906.38-.32.108-.64.217-1.012.271-.374.055-.693.109-1.013.109-.373 0-.746-.054-1.173-.163a4.479 4.479 0 0 1-1.173-.489c-.373-.217-.693-.542-.96-.977a3.206 3.206 0 0 1-.532-1.52h9.914c.587 0 1.013-.054 1.333-.108.32-.055.533-.217.64-.38.106-.163.213-.435.213-.76V8.25a16.506 16.506 0 0 0-.32-1.954zm-11.62.597c.16-.325.32-.651.586-.923.213-.325.48-.597.8-.814.32-.217.586-.434.96-.597.319-.163.692-.217 1.012-.217.48 0 .906.054 1.28.217.372.109.692.326 1.012.543.267.217.533.488.746.814.213.326.427.652.64 1.032h-7.036v-.055z"/>
            <path d="M83.26 3.637C85.074 2.171 85.02.11 85.02.11H76.17c-.852 0-1.652.108-2.452.325-.8.217-1.492.543-2.185.923-.693.38-1.28.869-1.812 1.412a9.234 9.234 0 0 0-1.386 1.845 9.22 9.22 0 0 0-.906 2.226 9.714 9.714 0 0 0-.32 2.497c0 .869.106 1.683.32 2.497.213.815.533 1.52.906 2.226s.853 1.303 1.386 1.846a9.103 9.103 0 0 0 1.812 1.411c.693.38 1.386.706 2.185.923.8.217 1.6.326 2.452.326.853 0 1.653-.109 2.399-.326a9.416 9.416 0 0 0 2.132-.923c.693-.38 1.28-.868 1.813-1.411A9.234 9.234 0 0 0 83.9 14.06c.374-.706.693-1.411.907-2.226.213-.814.32-1.628.32-2.497 0-1.303-.214-2.497-.694-3.637-.32-.814-.746-1.466-1.172-2.063zm-3.57 7.383c-.16.543-.427.977-.747 1.411a3.51 3.51 0 0 1-1.226.923 3.834 3.834 0 0 1-1.599.326c-.64 0-1.173-.109-1.652-.326a3.51 3.51 0 0 1-1.226-.923c-.32-.38-.587-.868-.8-1.411-.213-.543-.266-1.14-.266-1.737 0-.597.106-1.194.266-1.683.213-.543.48-1.031.8-1.411a3.09 3.09 0 0 1 1.226-.978c.48-.217 1.066-.38 1.652-.38.586 0 1.12.109 1.6.38.479.218.905.543 1.225.978.32.434.587.868.746 1.411.16.543.267 1.086.267 1.683s-.107 1.194-.267 1.737z"/>
        </g>
        <path fill="url(#a)" d="M19.674.847C18.955.317 18.237 0 17.408 0H3.537c-1.05 0-1.88.265-2.376.847-.553.53-.774 1.27-.774 2.224v11.753C.387 16.94 1.437 18 3.592 18h13.871c1.105 0 1.934-.318 2.487-.953a3.283 3.283 0 0 0 .829-2.223V3.07c-.055-.9-.442-1.642-1.105-2.224zm-12.656 9.9c-.055.053-.055.053-.11.053a2.628 2.628 0 0 1-.553.265c-.22.053-.442.106-.663.106-.166 0-.387 0-.553-.053-.165-.053-.331-.106-.497-.212-.166-.106-.276-.212-.442-.318-.11-.106-.221-.264-.332-.423-.11-.16-.165-.318-.22-.477-.056-.159-.056-.37-.056-.53 0-.158 0-.37.055-.529.056-.158.11-.317.221-.476.11-.159.221-.265.332-.424.11-.105.276-.211.442-.317.166-.106.332-.16.497-.212.166-.053.387-.053.553-.053.221 0 .442.053.663.106.221.053.387.159.553.265.055 0 .11.053.11.106 0 .052.056.105.056.105 0 .053 0 .053-.056.106l-.276.477c-.055.106-.11.159-.22.159h-.056s-.055 0-.11-.053c-.111-.053-.167-.106-.277-.16-.11-.052-.221-.052-.332-.052-.11 0-.276 0-.386.053-.111.053-.222.106-.277.212-.055.105-.166.211-.166.317-.055.106-.055.265-.055.37 0 .16 0 .266.055.371l.166.318c.055.106.166.159.277.212.11.053.22.053.386.053.11 0 .221 0 .332-.053a1.22 1.22 0 0 0 .276-.159c.056 0 .056-.053.11-.053h.166c.056 0 .056.053.111.106l.332.53s0 .052.055.052v.053c-.055.106-.055.16-.11.16zm4.145-1.006c-.055.159-.11.318-.22.477-.111.158-.222.264-.332.423-.111.106-.277.212-.443.318a2.007 2.007 0 0 1-.497.212c-.166.053-.387.053-.553.053-.22 0-.386 0-.552-.053a2.007 2.007 0 0 1-.498-.212c-.165-.106-.276-.212-.442-.318-.11-.106-.22-.265-.331-.423a1.842 1.842 0 0 1-.221-.477c-.056-.159-.056-.37-.056-.53 0-.158 0-.37.056-.529.055-.158.11-.317.22-.476.111-.159.222-.265.332-.424.11-.106.277-.211.442-.317.166-.106.332-.16.498-.212.166-.053.387-.053.552-.053.277 0 .553.053.83.159a1.995 1.995 0 0 1 1.105 1.059c.11.264.165.53.165.794.056.212 0 .37-.055.53zm6.41 1.165c0 .053 0 .159-.055.159-.055.053-.11.053-.165.053h-.719c-.11 0-.166 0-.166-.053-.055-.053-.055-.106-.055-.16v-2.01c0-.107 0-.16-.055-.266-.055-.053-.055-.158-.11-.211-.056-.053-.111-.106-.166-.106-.056-.053-.166-.053-.221-.053-.056 0-.166 0-.222.053-.055.053-.11.053-.165.106-.056.053-.11.106-.11.211-.056.053-.056.16-.056.265v2.012c0 .053 0 .159-.055.159-.056.053-.11.053-.166.053h-.719c-.11 0-.165 0-.165-.053-.056-.053-.056-.106-.056-.16v-2.01c0-.107 0-.16-.055-.266a.395.395 0 0 0-.11-.211c-.056-.053-.11-.106-.166-.106-.055-.053-.166-.053-.221-.053-.056 0-.166 0-.221.053-.056.053-.166.053-.221.106a.735.735 0 0 0-.166.211c-.055.053-.055.16-.055.265v2.118c0 .053-.056.053-.056.053l-.055.053h-.829c-.11 0-.166 0-.22-.053-.056-.053-.056-.106-.056-.16V7.519v-.106c0-.053.055-.053.055-.053s.055-.053.11-.053h.719l.055.053.056.053c0 .053 0 .053.055.106l.11.37c.056-.053.056-.159.11-.212a.735.735 0 0 1 .167-.211c.055-.053.165-.106.276-.16.11-.052.276-.052.442-.052.276 0 .497.053.718.159.222.106.387.264.498.423a.735.735 0 0 0 .166-.211c.055-.053.165-.16.276-.212l.332-.16c.11-.052.276-.052.442-.052.22 0 .442.053.663.159.166.106.331.212.497.37.11.16.221.318.276.53.056.212.111.423.111.635v2.012h-.276zM9.838 8.524c-.055-.106-.166-.16-.276-.212-.111-.053-.222-.053-.387-.053-.166 0-.277 0-.387.053-.11.053-.221.106-.276.212-.056.105-.166.211-.166.317-.056.106-.056.265-.056.37 0 .16 0 .265.056.371l.166.318c.055.106.165.159.276.212.11.053.22.053.387.053.11 0 .276 0 .387-.053.11-.053.22-.106.276-.212l.166-.318c.055-.106.055-.264.055-.37 0-.106 0-.265-.055-.37-.056-.107-.11-.213-.166-.318z" transform="translate(124)"/>
    </g>
</svg>
