<svg width="23" height="20" viewBox="0 0 23 20" xmlns="http://www.w3.org/2000/svg"><title>HT_web_artwork</title><defs><linearGradient x1="0%" y1="0%" y2="100%" id="a"><stop stop-color="#7D20A1" offset="0%"/><stop stop-color="#F50" offset="100%"/></linearGradient></defs><g fill="none" fill-rule="evenodd"><path fill="url(#a)" opacity=".8" d="M0 0h23v15H0z"/><path fill="#C40" opacity=".798" d="M18 15h5l-5 5z"/><path d="M7.901 8.26c0 .45-.066.851-.198 1.204a2.575 2.575 0 0 1-.549.896 2.34 2.34 0 0 1-.84.56 2.9 2.9 0 0 1-1.074.192c-.452 0-.861-.088-1.226-.266a2.705 2.705 0 0 1-.932-.744 3.428 3.428 0 0 1-.593-1.143 4.876 4.876 0 0 1-.208-1.46c0-.53.07-1.016.208-1.457.138-.442.336-.822.593-1.14.257-.32.568-.568.932-.745A2.764 2.764 0 0 1 5.24 3.89c.57 0 1.048.112 1.436.337.387.224.701.548.942.971l-.918.572a2.628 2.628 0 0 0-.28-.372 1.31 1.31 0 0 0-.698-.41 2.155 2.155 0 0 0-.482-.049c-.306 0-.576.06-.81.179a1.62 1.62 0 0 0-.591.512c-.16.223-.281.493-.364.808A4.17 4.17 0 0 0 3.35 7.5c0 .394.042.749.125 1.064.083.316.204.585.364.806.16.221.356.392.59.51.235.12.505.179.811.179.501 0 .892-.141 1.172-.423.28-.281.42-.663.42-1.145v-.03H5.689V7.45h2.212v.81zm7.12-.77a4.78 4.78 0 0 1-.218 1.486 3.43 3.43 0 0 1-.613 1.143 2.72 2.72 0 0 1-.947.735 2.839 2.839 0 0 1-1.22.258c-.443 0-.847-.085-1.212-.256a2.685 2.685 0 0 1-.937-.728 3.393 3.393 0 0 1-.606-1.135 4.807 4.807 0 0 1-.214-1.484c0-.544.072-1.039.217-1.485.145-.446.349-.826.613-1.142a2.74 2.74 0 0 1 .944-.733c.367-.172.771-.258 1.214-.258.446 0 .852.085 1.218.256.366.17.68.413.94.728.26.314.462.692.605 1.135.144.442.215.936.215 1.48zm-1.07.019a3.64 3.64 0 0 0-.147-1.072 2.523 2.523 0 0 0-.405-.81 1.812 1.812 0 0 0-.613-.516 1.678 1.678 0 0 0-.774-.18c-.276 0-.53.058-.761.175-.231.118-.43.287-.598.508-.168.222-.298.49-.391.806-.093.316-.14.672-.14 1.07 0 .396.049.754.145 1.073.096.32.23.59.4.813.171.223.375.395.61.516.237.12.495.18.775.18.276 0 .531-.058.764-.176.232-.117.433-.286.6-.507a2.51 2.51 0 0 0 .393-.808c.095-.318.142-.675.142-1.072zm5.122.552v1.948h-1.03V8.06h-1.9V7.06h1.9V5.11h1.03V7.06h1.9v1h-1.9z" fill="#FFF"/></g></svg>