<?xml version="1.0" encoding="UTF-8"?>
<svg width="27px" height="28px" viewBox="0 0 27 28" version="1.1" xmlns="http://www.w3.org/2000/svg" xmlns:xlink="http://www.w3.org/1999/xlink">
    <!-- Generator: Sketch 55.2 (78181) - https://sketchapp.com -->
    <title>AWS-IQ_Icon_32_White</title>
    <desc>Created with Sketch.</desc>
    <g id="Page-1" stroke="none" stroke-width="1" fill="none" fill-rule="evenodd">
        <g id="AWS-Product-Icons_White" transform="translate(-81.000000, -2382.000000)" fill="#FFFFFF">
            <path d="M106.9898,2404.8046 C106.8308,2401.9976 105.3438,2399.4626 102.9438,2397.9496 C101.6828,2397.1556 100.2368,2396.7356 98.7608,2396.7356 C96.9208,2396.7356 95.1458,2397.3956 93.7098,2398.5916 L94.0548,2398.7916 L94.0548,2404.8046 L106.9898,2404.8046 Z M93.0548,2399.3686 L88.0138,2396.4586 L82.9728,2399.3686 L82.9728,2405.1896 L88.0138,2408.1006 L93.0548,2405.1896 L93.0548,2399.3686 Z M98.7758,2395.7356 C101.2768,2395.7356 103.3118,2393.7006 103.3118,2391.1986 C103.3118,2388.6976 101.2768,2386.6616 98.7758,2386.6616 C96.2738,2386.6616 94.2388,2388.6976 94.2388,2391.1986 C94.2388,2393.7006 96.2738,2395.7356 98.7758,2395.7356 L98.7758,2395.7356 Z M108.0038,2405.8046 L93.9898,2405.8046 L88.0138,2409.2546 L81.9728,2405.7666 L81.9728,2398.7916 L88.0138,2395.3046 L92.7908,2398.0616 C93.8008,2397.1526 94.9718,2396.4896 96.2308,2396.1106 C94.4568,2395.1866 93.2388,2393.3336 93.2388,2391.1986 C93.2388,2388.1456 95.7228,2385.6616 98.7758,2385.6616 C101.8288,2385.6616 104.3118,2388.1456 104.3118,2391.1986 C104.3118,2393.3406 103.0878,2395.1976 101.3038,2396.1176 C102.0628,2396.3476 102.7958,2396.6746 103.4768,2397.1036 C106.3108,2398.8896 108.0038,2401.9556 108.0038,2405.3046 L108.0038,2405.8046 Z M88.1988,2389.9466 C89.9708,2389.9466 91.4128,2388.5046 91.4128,2386.7326 C91.4128,2384.9606 89.9708,2383.5196 88.1988,2383.5196 C86.4268,2383.5196 84.9848,2384.9606 84.9848,2386.7326 C84.9848,2388.5046 86.4268,2389.9466 88.1988,2389.9466 L88.1988,2389.9466 Z M82.9338,2395.9056 L81.9338,2395.9056 C81.9338,2393.4376 83.7038,2391.2116 86.0548,2390.3406 C84.8218,2389.6046 83.9848,2388.2706 83.9848,2386.7326 C83.9848,2384.4096 85.8758,2382.5196 88.1988,2382.5196 C90.5218,2382.5196 92.4128,2384.4096 92.4128,2386.7326 C92.4128,2388.2626 91.5848,2389.5926 90.3608,2390.3306 C90.8378,2390.4966 91.3018,2390.7026 91.7358,2390.9756 C91.8208,2391.0296 91.9048,2391.0856 91.9888,2391.1426 L91.4228,2391.9676 C91.3498,2391.9176 91.2778,2391.8686 91.2038,2391.8226 C90.2938,2391.2496 89.2518,2390.9466 88.1878,2390.9466 C85.3888,2390.9466 82.9338,2393.2636 82.9338,2395.9056 L82.9338,2395.9056 Z M87.7188,2403.3856 L91.5608,2400.1536 L92.2058,2400.9196 L87.7578,2404.6596 L84.8758,2402.5196 L85.4708,2401.7166 L87.7188,2403.3856 Z" id="AWS-IQ_Icon_32_White"></path>
        </g>
    </g>
</svg>