<?xml version="1.0" encoding="UTF-8"?>
<svg width="28px" height="26px" viewBox="0 0 28 26" version="1.1" xmlns="http://www.w3.org/2000/svg" xmlns:xlink="http://www.w3.org/1999/xlink">
    <!-- Generator: Sketch 56.2 (81672) - https://sketch.com -->
    <title>AWS-Managed-Services_Icon_32_White</title>
    <desc>Created with Sketch.</desc>
    <g id="Page-1" stroke="none" stroke-width="1" fill="none" fill-rule="evenodd">
        <g id="AWS-Management-&amp;-Governance-Product-Icons_White" transform="translate(-84.000000, -1133.000000)" fill="#FFFFFF">
            <path d="M100.336,1155.772 L100.598,1156.737 C99.614,1157.005 98.584,1157.141 97.538,1157.141 C92.978,1157.141 89.39,1155.035 87.435,1151.212 L88.325,1150.757 C90.101,1154.229 93.372,1156.141 97.538,1156.141 C98.496,1156.141 99.437,1156.017 100.336,1155.772 L100.336,1155.772 Z M111.709,1147.075 L111,1147.78 L109.782,1146.554 C109.64,1147.631 109.31,1148.735 108.834,1149.66 L107.945,1149.203 C108.352,1148.412 108.634,1147.473 108.77,1146.55 L107.206,1147.816 L106.577,1147.039 L109.05,1145.035 C109.247,1144.874 109.538,1144.889 109.719,1145.071 L111.709,1147.075 Z M88.74,1143.855 L86.74,1145.866 C86.643,1145.964 86.515,1146.014 86.386,1146.014 C86.259,1146.014 86.133,1145.966 86.035,1145.87 L84,1143.87 L84.701,1143.157 L85.941,1144.376 C86.496,1138.103 91.565,1133 97.51,1133 C101.913,1133 106.259,1135.715 108.325,1139.757 L107.435,1140.212 C105.565,1136.555 101.483,1134 97.51,1134 C92.152,1134 87.573,1138.565 86.961,1144.227 L88.031,1143.149 L88.74,1143.855 Z M97.345,1147.288 C96.149,1147.288 95.176,1146.315 95.176,1145.119 C95.176,1143.923 96.149,1142.95 97.345,1142.95 C98.541,1142.95 99.515,1143.923 99.515,1145.119 C99.515,1146.315 98.541,1147.288 97.345,1147.288 L97.345,1147.288 Z M97.345,1141.95 C95.598,1141.95 94.176,1143.372 94.176,1145.119 C94.176,1146.867 95.598,1148.288 97.345,1148.288 C99.093,1148.288 100.515,1146.867 100.515,1145.119 C100.515,1143.372 99.093,1141.95 97.345,1141.95 L97.345,1141.95 Z M100.763,1149.617 C100.601,1149.435 100.328,1149.396 100.123,1149.527 C99.621,1149.843 99.075,1150.07 98.498,1150.2 C98.26,1150.254 98.096,1150.472 98.109,1150.716 L98.142,1151.292 L96.548,1151.292 L96.581,1150.716 C96.596,1150.472 96.431,1150.253 96.192,1150.199 C95.617,1150.07 95.071,1149.843 94.568,1149.526 C94.362,1149.396 94.092,1149.435 93.929,1149.616 L93.544,1150.047 L92.417,1148.92 L92.849,1148.536 C93.031,1148.373 93.069,1148.102 92.939,1147.895 C92.622,1147.396 92.397,1146.85 92.267,1146.272 C92.213,1146.034 91.99,1145.869 91.75,1145.883 L91.172,1145.916 L91.172,1144.322 L91.752,1144.355 C92.015,1144.368 92.214,1144.204 92.268,1143.967 C92.399,1143.39 92.626,1142.845 92.941,1142.346 C93.072,1142.139 93.034,1141.869 92.852,1141.706 L92.417,1141.318 L93.544,1140.19 L93.932,1140.625 C94.094,1140.807 94.365,1140.844 94.571,1140.715 C95.071,1140.399 95.617,1140.174 96.192,1140.044 C96.431,1139.99 96.595,1139.772 96.581,1139.528 L96.548,1138.946 L98.142,1138.946 L98.109,1139.528 C98.096,1139.772 98.26,1139.99 98.498,1140.044 C99.073,1140.175 99.618,1140.401 100.118,1140.716 C100.324,1140.847 100.597,1140.809 100.758,1140.626 L101.147,1140.191 L102.273,1141.318 L101.84,1141.705 C101.657,1141.867 101.619,1142.138 101.75,1142.345 C102.065,1142.844 102.292,1143.39 102.423,1143.967 C102.477,1144.204 102.678,1144.378 102.939,1144.355 L103.518,1144.322 L103.518,1145.916 L102.94,1145.883 C102.695,1145.869 102.477,1146.034 102.424,1146.272 C102.293,1146.848 102.067,1147.394 101.751,1147.895 C101.62,1148.101 101.658,1148.372 101.841,1148.535 L102.273,1148.92 L101.147,1150.047 L100.763,1149.617 Z M103.355,1149.253 C103.452,1149.156 103.505,1149.023 103.501,1148.886 C103.497,1148.748 103.437,1148.619 103.334,1148.527 L102.812,1148.061 C103.011,1147.692 103.171,1147.305 103.291,1146.904 L103.989,1146.944 C104.117,1146.957 104.261,1146.904 104.361,1146.809 C104.461,1146.714 104.518,1146.583 104.518,1146.445 L104.518,1143.793 C104.518,1143.655 104.461,1143.524 104.361,1143.43 C104.261,1143.335 104.131,1143.293 103.989,1143.294 L103.289,1143.334 C103.169,1142.933 103.009,1142.546 102.811,1142.179 L103.334,1141.711 C103.437,1141.62 103.497,1141.49 103.501,1141.353 C103.505,1141.215 103.452,1141.082 103.355,1140.985 L101.48,1139.109 C101.382,1139.012 101.217,1138.963 101.112,1138.963 C100.975,1138.967 100.845,1139.027 100.753,1139.13 L100.284,1139.656 C99.916,1139.458 99.53,1139.297 99.131,1139.177 L99.17,1138.475 C99.178,1138.337 99.129,1138.203 99.034,1138.103 C98.94,1138.003 98.809,1137.946 98.671,1137.946 L96.019,1137.946 C95.881,1137.946 95.749,1138.003 95.655,1138.103 C95.561,1138.203 95.512,1138.337 95.52,1138.475 L95.56,1139.177 C95.159,1139.296 94.774,1139.456 94.405,1139.654 L93.938,1139.13 C93.846,1139.027 93.716,1138.967 93.578,1138.963 C93.482,1138.967 93.309,1139.013 93.211,1139.109 L91.336,1140.985 C91.238,1141.082 91.186,1141.215 91.19,1141.353 C91.193,1141.49 91.254,1141.62 91.357,1141.711 L91.881,1142.179 C91.682,1142.547 91.522,1142.933 91.401,1143.334 L90.7,1143.294 C90.568,1143.293 90.43,1143.335 90.328,1143.43 C90.229,1143.524 90.172,1143.655 90.172,1143.793 L90.172,1146.445 C90.172,1146.583 90.229,1146.714 90.328,1146.809 C90.43,1146.904 90.582,1146.957 90.7,1146.944 L91.398,1146.904 C91.519,1147.306 91.679,1147.693 91.878,1148.062 L91.357,1148.527 C91.254,1148.619 91.193,1148.748 91.19,1148.886 C91.186,1149.023 91.238,1149.156 91.336,1149.253 L93.211,1151.128 C93.309,1151.226 93.451,1151.273 93.579,1151.275 C93.716,1151.271 93.846,1151.21 93.938,1151.108 L94.402,1150.586 C94.773,1150.786 95.159,1150.946 95.56,1151.066 L95.52,1151.763 C95.512,1151.9 95.561,1152.035 95.655,1152.135 C95.749,1152.235 95.881,1152.292 96.019,1152.292 L98.671,1152.292 C98.809,1152.292 98.94,1152.235 99.034,1152.135 C99.129,1152.035 99.178,1151.9 99.17,1151.763 L99.131,1151.067 C99.532,1150.947 99.919,1150.787 100.289,1150.587 L100.753,1151.108 C100.845,1151.21 100.975,1151.271 101.111,1151.275 C101.248,1151.277 101.383,1151.226 101.48,1151.128 L103.355,1149.253 Z M106.484,1154.91 C106.19,1155.217 105.699,1155.227 105.392,1154.932 C105.242,1154.789 105.158,1154.597 105.154,1154.39 C105.15,1154.184 105.227,1153.988 105.37,1153.839 C105.514,1153.69 105.706,1153.606 105.912,1153.602 L105.928,1153.602 C106.128,1153.602 106.317,1153.678 106.463,1153.818 C106.612,1153.961 106.696,1154.153 106.7,1154.359 C106.704,1154.566 106.628,1154.762 106.484,1154.91 L106.484,1154.91 Z M104.649,1153.146 C103.972,1153.851 103.994,1154.976 104.698,1155.653 C105.031,1155.973 105.466,1156.148 105.926,1156.148 C105.938,1156.148 105.95,1156.147 105.962,1156.147 C106.436,1156.138 106.877,1155.945 107.205,1155.604 C107.533,1155.262 107.709,1154.814 107.7,1154.34 C107.69,1153.867 107.497,1153.425 107.156,1153.097 C106.45,1152.42 105.327,1152.441 104.649,1153.146 L104.649,1153.146 Z M109.012,1156.214 L107.949,1156.001 C107.811,1155.974 107.669,1156.004 107.555,1156.087 L107.024,1156.476 C106.913,1156.558 106.84,1156.683 106.824,1156.821 L106.698,1157.892 L105.111,1157.89 L104.988,1156.829 C104.972,1156.691 104.899,1156.567 104.789,1156.484 L104.252,1156.086 C104.139,1156.003 103.996,1155.971 103.857,1155.998 L102.802,1156.209 L102.313,1154.699 L103.3,1154.247 C103.427,1154.188 103.524,1154.08 103.567,1153.947 L103.769,1153.328 C103.812,1153.195 103.797,1153.05 103.729,1152.929 L103.198,1151.983 L104.482,1151.052 L105.211,1151.843 C105.307,1151.946 105.458,1152.008 105.582,1152.004 L106.251,1152 C106.39,1151.999 106.522,1151.941 106.615,1151.839 L107.339,1151.054 L108.622,1151.987 L108.094,1152.928 C108.025,1153.049 108.011,1153.193 108.053,1153.325 L108.252,1153.951 C108.295,1154.085 108.392,1154.194 108.52,1154.253 L109.503,1154.705 L109.012,1156.214 Z M110.325,1153.981 L109.138,1153.437 L109.071,1153.229 L109.712,1152.09 C109.837,1151.869 109.775,1151.589 109.57,1151.44 L107.567,1149.983 C107.364,1149.834 107.078,1149.862 106.906,1150.049 L106.027,1151.001 L105.797,1151.002 L104.917,1150.047 C104.745,1149.86 104.462,1149.833 104.255,1149.981 L102.25,1151.435 C102.045,1151.584 101.983,1151.863 102.108,1152.084 L102.75,1153.227 L102.685,1153.429 L101.492,1153.976 C101.262,1154.082 101.147,1154.343 101.225,1154.584 L101.987,1156.94 C102.065,1157.181 102.315,1157.328 102.561,1157.277 L103.835,1157.022 L104.02,1157.159 L104.169,1158.447 C104.198,1158.699 104.412,1158.889 104.665,1158.89 L107.142,1158.892 L107.143,1158.892 C107.397,1158.892 107.609,1158.702 107.64,1158.45 L107.791,1157.154 L107.969,1157.024 L109.251,1157.282 C109.502,1157.333 109.746,1157.187 109.825,1156.946 L110.592,1154.591 C110.67,1154.35 110.556,1154.087 110.325,1153.981 L110.325,1153.981 Z" id="AWS-Managed-Services_Icon_32_White"></path>
        </g>
    </g>
</svg>