<?xml version="1.0" encoding="UTF-8"?>
<svg width="31px" height="28px" viewBox="0 0 31 28" version="1.1" xmlns="http://www.w3.org/2000/svg" xmlns:xlink="http://www.w3.org/1999/xlink">
    <!-- Generator: Sketch 54.1 (76490) - https://sketchapp.com -->
    <title>AWS-Professional-Services_Icon_32_White</title>
    <desc>Created with Sketch.</desc>
    <g id="Page-1" stroke="none" stroke-width="1" fill="none" fill-rule="evenodd">
        <path d="M26.151,22.2188 C26.033,22.3338 25.979,22.4988 26.006,22.6608 L26.662,26.4798 L23.232,24.6768 C23.16,24.6388 23.08,24.6198 23,24.6198 C22.92,24.6198 22.839,24.6388 22.767,24.6768 L19.338,26.4798 L19.993,22.6608 C20.02,22.4988 19.966,22.3338 19.848,22.2188 L17.074,19.5138 L20.909,18.9568 C21.071,18.9338 21.213,18.8308 21.285,18.6838 L23,15.2098 L24.714,18.6838 C24.787,18.8308 24.928,18.9338 25.09,18.9568 L28.925,19.5138 L26.151,22.2188 Z M30.475,19.0108 C30.417,18.8298 30.259,18.6978 30.072,18.6708 L25.495,18.0058 L23.448,13.8588 C23.28,13.5168 22.719,13.5168 22.551,13.8588 L20.505,18.0058 L15.927,18.6708 C15.74,18.6978 15.583,18.8298 15.524,19.0108 C15.465,19.1918 15.514,19.3898 15.651,19.5228 L18.963,22.7508 L18.18,27.3098 C18.148,27.4968 18.225,27.6868 18.38,27.7988 C18.534,27.9108 18.738,27.9248 18.906,27.8368 L23,25.6848 L27.093,27.8368 C27.167,27.8748 27.246,27.8938 27.326,27.8938 C27.429,27.8938 27.533,27.8618 27.62,27.7988 C27.774,27.6868 27.851,27.4968 27.819,27.3098 L27.037,22.7508 L30.348,19.5228 C30.485,19.3898 30.534,19.1918 30.475,19.0108 L30.475,19.0108 Z M7.46,7.0398 C7.46,4.0068 9.927,1.5398 12.961,1.5398 C15.993,1.5398 18.46,4.0068 18.46,7.0398 C18.46,10.0728 15.993,12.5398 12.961,12.5398 C9.927,12.5398 7.46,10.0728 7.46,7.0398 L7.46,7.0398 Z M12.667,13.7798 C14.681,13.7798 16.656,14.3528 18.377,15.4368 C18.713,15.6488 19.043,15.8818 19.356,16.1308 L19.977,15.3458 C19.635,15.0758 19.276,14.8218 18.91,14.5908 C17.794,13.8878 16.579,13.3868 15.316,13.0908 C17.738,12.1448 19.46,9.7918 19.46,7.0398 C19.46,3.4558 16.545,0.5398 12.961,0.5398 C9.376,0.5398 6.46,3.4558 6.46,7.0398 C6.46,9.7138 8.084,12.0138 10.397,13.0108 C4.77,14.1338 0.5,19.3388 0.5,25.5798 L0.5,26.0798 L16,26.0798 L16,25.0798 L1.509,25.0798 C1.758,18.8038 6.668,13.7798 12.667,13.7798 L12.667,13.7798 Z" id="AWS-Professional-Services_Icon_32_White" fill="#FFFFFF"></path>
    </g>
</svg>