<?xml version="1.0" encoding="UTF-8"?>
<svg width="32px" height="28px" viewBox="0 0 32 28" version="1.1" xmlns="http://www.w3.org/2000/svg" xmlns:xlink="http://www.w3.org/1999/xlink">
    <!-- Generator: Sketch 54.1 (76490) - https://sketchapp.com -->
    <title>Fill 1</title>
    <desc>Created with Sketch.</desc>
    <g id="Page-1" stroke="none" stroke-width="1" fill="none" fill-rule="evenodd">
        <g id="AWS-Product-Icons_White" transform="translate(-162.000000, -1249.000000)" fill="#FFFFFF">
            <path d="M167.024,1259 L171.024,1259 L171.024,1258.012 L167.024,1258.012 L167.024,1259 Z M168.024,1262 L171.024,1262 L171.024,1261 L168.024,1261 L168.024,1262 Z M163.024,1259 L166.024,1259 L166.024,1258 L163.024,1258 L163.024,1259 Z M162.024,1262 L167.024,1262 L167.024,1261 L162.024,1261 L162.024,1262 Z M165.024,1255.909 L164.024,1255.909 L164.024,1250.233 C164.021,1249.559 164.54,1249.004 165.182,1249 L190.864,1249 C191.509,1249.004 192.027,1249.559 192.024,1250.235 L192.024013,1261 L191.024,1261 L191.024,1250.233 C191.025,1250.095 190.938,1250 190.861,1250 L165.185,1250 C165.11,1250 165.023,1250.095 165.024,1250.23 L165.024,1255.909 Z M164.853,1272 L179.024,1272 L179.024,1273 L164.855,1273 L164.828,1273 C163.002,1273 162.139,1271.894 162.103,1271.846 C162.036,1271.759 162,1271.652 162,1271.543 L162,1269.5 C162,1269.224 162.224,1269 162.5,1269 L164.024,1269 L164.024,1264 L165.024,1264 L165.024,1269 L181.024,1269 L181.024,1270 L165.024,1270 L164.024,1270 L163,1270 L163,1271.348 C163.222,1271.558 163.811,1272 164.831,1272 L164.853,1272 Z M181.044,1276 C181.289,1272.794 183.879,1270.264 187.026,1270.264 C188.11,1270.265 189.17,1270.566 190.087,1271.136 C191.797,1272.214 192.864,1274.007 193.008,1276 L181.044,1276 Z M184.026,1265.696 C184.026,1264.042 185.372,1262.697 187.026,1262.697 C188.681,1262.697 190.026,1264.042 190.026,1265.696 C190.026,1267.351 188.681,1268.696 187.026,1268.696 C185.372,1268.696 184.026,1267.351 184.026,1265.696 L184.026,1265.696 Z M190.617,1270.288 C189.943,1269.87 189.202,1269.591 188.434,1269.428 C189.944,1268.855 191.026,1267.405 191.026,1265.696 C191.026,1263.491 189.232,1261.697 187.026,1261.697 C184.82,1261.697 183.026,1263.491 183.026,1265.696 C183.026,1267.395 184.094,1268.839 185.589,1269.418 C182.415,1270.105 180.024,1273.019 180.024,1276.5 C180.024,1276.776 180.248,1277 180.524,1277 L193.524,1277 C193.8,1277 194.022,1276.777 194.024,1276.503 C194.038,1273.965 192.766,1271.643 190.617,1270.288 L190.617,1270.288 Z M177.524,1260.329 C176.422,1260.329 175.524,1259.432 175.524,1258.329 C175.524,1257.226 176.422,1256.329 177.524,1256.329 C178.627,1256.329 179.524,1257.226 179.524,1258.329 C179.524,1259.432 178.627,1260.329 177.524,1260.329 L177.524,1260.329 Z M177.524,1255.329 C175.87,1255.329 174.524,1256.675 174.524,1258.329 C174.524,1259.983 175.87,1261.329 177.524,1261.329 C179.179,1261.329 180.524,1259.983 180.524,1258.329 C180.524,1256.675 179.179,1255.329 177.524,1255.329 L177.524,1255.329 Z M182.187,1258.711 C182.028,1258.921 181.982,1259.197 182.071,1259.468 L182.225,1259.879 L181.853,1260.125 C181.627,1260.278 181.497,1260.532 181.505,1260.79 L181.505,1261.251 L181.074,1261.372 C180.812,1261.446 180.608,1261.647 180.529,1261.918 L180.411,1262.342 L179.964,1262.323 C179.688,1262.324 179.443,1262.444 179.284,1262.675 L179.042,1263.042 L178.634,1262.893 C178.38,1262.793 178.084,1262.837 177.867,1263.007 L177.521,1263.28 L177.177,1263.007 C177.036,1262.896 176.862,1262.839 176.69,1262.839 C176.599,1262.839 176.506,1262.856 176.42,1262.89 L176.002,1263.042 L175.754,1262.667 C175.602,1262.445 175.35,1262.313 175.072,1262.323 L174.635,1262.341 L174.518,1261.9 C174.44,1261.637 174.237,1261.436 173.974,1261.361 L173.544,1261.241 L173.544,1260.794 C173.552,1260.522 173.422,1260.268 173.192,1260.112 L172.823,1259.869 L172.983,1259.439 C173.066,1259.188 173.021,1258.911 172.854,1258.692 L172.582,1258.348 L172.859,1257.995 C173.021,1257.785 173.067,1257.508 172.978,1257.239 L172.824,1256.829 L173.199,1256.58 C173.425,1256.424 173.554,1256.167 173.544,1255.912 L173.544,1255.457 L173.985,1255.333 C174.239,1255.255 174.438,1255.057 174.52,1254.79 L174.64,1254.359 L175.086,1254.359 C175.33,1254.364 175.62,1254.228 175.765,1254.001 L176.007,1253.634 L176.413,1253.783 C176.679,1253.888 176.979,1253.838 177.179,1253.667 L177.521,1253.4 L177.855,1253.661 C178.072,1253.847 178.371,1253.9 178.631,1253.797 L179.042,1253.645 L179.28,1254.007 C179.431,1254.239 179.683,1254.362 179.951,1254.369 L180.409,1254.369 L180.533,1254.813 C180.611,1255.067 180.81,1255.266 181.075,1255.347 L181.505,1255.467 L181.505,1255.903 C181.495,1256.178 181.624,1256.435 181.856,1256.594 L182.226,1256.839 L182.065,1257.266 C181.981,1257.52 182.028,1257.796 182.192,1258.008 L182.467,1258.358 L182.187,1258.711 Z M180.091,1265.93 C179.78,1265.781 179.42,1265.836 179.133,1266.106 L178.969,1266.3 L178.218,1264.004 L178.39,1263.869 L178.853,1264.038 C179.107,1264.133 179.387,1264.084 179.601,1263.923 L180.241,1266.004 L180.091,1265.93 Z M176.261,1266.296 L176.061,1266.07 C175.809,1265.836 175.446,1265.781 175.134,1265.932 L175,1265.997 L175.639,1264.028 C175.813,1264.095 176.008,1264.106 176.192,1264.038 L176.654,1263.869 L176.972,1264.12 L176.261,1266.296 Z M183.356,1257.872 L183.052,1257.483 L183.224,1257.024 C183.351,1256.678 183.223,1256.296 182.918,1256.099 L182.505,1255.825 L182.505,1255.333 C182.518,1254.968 182.281,1254.645 181.931,1254.547 L181.46,1254.416 L181.326,1253.932 C181.222,1253.591 180.903,1253.371 180.558,1253.369 L180.058,1253.369 L179.773,1252.938 C179.568,1252.646 179.192,1252.526 178.85,1252.65 L178.398,1252.817 L178.021,1252.523 C177.739,1252.282 177.329,1252.272 177.045,1252.504 L176.655,1252.807 L176.196,1252.639 C175.859,1252.515 175.48,1252.635 175.268,1252.94 L174.991,1253.359 L174.512,1253.359 C174.18,1253.343 173.822,1253.578 173.72,1253.935 L173.589,1254.406 L173.119,1254.537 C172.768,1254.634 172.531,1254.958 172.544,1255.305 L172.544,1255.814 L172.134,1256.086 C171.825,1256.288 171.699,1256.669 171.826,1257.017 L171.997,1257.473 L171.692,1257.862 C171.468,1258.148 171.468,1258.549 171.694,1258.838 L171.998,1259.221 L171.826,1259.683 C171.698,1260.027 171.825,1260.409 172.131,1260.609 L172.544,1260.883 L172.544,1261.374 C172.531,1261.738 172.767,1262.062 173.118,1262.16 L173.587,1262.291 L173.716,1262.777 C173.817,1263.128 174.145,1263.366 174.507,1263.348 L174.812,1263.335 L173.821,1266.393 C173.757,1266.646 173.843,1266.905 174.046,1267.069 C174.281,1267.26 174.633,1267.289 174.92,1267.149 L175.452,1266.89 L175.771,1267.252 L175.94,1267.388 C176.066,1267.462 176.206,1267.5 176.348,1267.5 C176.413,1267.5 176.479,1267.492 176.544,1267.476 C176.75,1267.424 176.924,1267.295 177.033,1267.112 L177.611,1265.368 L178.148,1267.011 L178.194,1267.112 C178.304,1267.295 178.478,1267.424 178.684,1267.476 C178.749,1267.492 178.815,1267.5 178.881,1267.5 C179.021,1267.5 179.16,1267.463 179.282,1267.39 L179.773,1266.889 L180.309,1267.149 C180.6,1267.29 180.95,1267.258 181.184,1267.068 C181.386,1266.903 181.471,1266.646 181.399,1266.369 L180.468,1263.345 L180.543,1263.348 C180.904,1263.342 181.222,1263.127 181.329,1262.772 L181.46,1262.302 L181.931,1262.17 C182.282,1262.072 182.518,1261.749 182.505,1261.403 L182.505,1260.893 L182.915,1260.621 C183.224,1260.419 183.351,1260.038 183.223,1259.691 L183.051,1259.232 L183.356,1258.845 C183.581,1258.559 183.581,1258.159 183.356,1257.872 L183.356,1257.872 Z" id="Fill-1"></path>
        </g>
    </g>
</svg>