<?xml version="1.0" encoding="UTF-8"?>
<svg width="28px" height="28px" viewBox="0 0 28 28" version="1.1" xmlns="http://www.w3.org/2000/svg" xmlns:xlink="http://www.w3.org/1999/xlink">
    <!-- Generator: Sketch 54.1 (76490) - https://sketchapp.com -->
    <title>AWS-Support_32_White 2</title>
    <desc>Created with Sketch.</desc>
    <g id="Page-1" stroke="none" stroke-width="1" fill="none" fill-rule="evenodd">
        <g id="AWS-Blockchain-Product-Icons_White" transform="translate(-73.000000, -344.000000)" fill="#FFFFFF">
            <g id="AWS-Support_32_White-2" transform="translate(73.000000, 344.000000)">
                <path d="M22,22.848 C21.173,22.848 20.5,22.175 20.5,21.348 C20.5,20.521 21.173,19.848 22,19.848 C22.827,19.848 23.5,20.521 23.5,21.348 C23.5,22.175 22.827,22.848 22,22.848 L22,22.848 Z M22,18.848 C20.621,18.848 19.5,19.97 19.5,21.348 C19.5,22.726 20.621,23.848 22,23.848 C23.379,23.848 24.5,22.726 24.5,21.348 C24.5,19.97 23.379,18.848 22,18.848 L22,18.848 Z M27,21.912 L26.616,21.89 C26.371,21.884 26.154,22.04 26.101,22.279 C25.995,22.744 25.813,23.184 25.558,23.589 C25.428,23.796 25.465,24.066 25.647,24.229 L25.935,24.485 L25.137,25.282 L24.883,24.997 C24.721,24.814 24.448,24.776 24.243,24.907 C23.838,25.162 23.396,25.345 22.931,25.451 C22.692,25.505 22.528,25.723 22.542,25.967 L22.563,26.348 L21.437,26.348 L21.458,25.966 C21.472,25.722 21.308,25.503 21.069,25.45 C20.605,25.345 20.164,25.162 19.758,24.906 C19.552,24.776 19.281,24.815 19.118,24.996 L18.863,25.282 L18.065,24.485 L18.352,24.23 C18.533,24.067 18.571,23.797 18.441,23.591 C18.187,23.185 18.005,22.744 17.899,22.279 C17.847,22.04 17.628,21.884 17.384,21.89 L17,21.912 L17,20.784 L17.385,20.806 C17.628,20.819 17.847,20.657 17.9,20.418 C18.007,19.953 18.189,19.513 18.444,19.109 C18.574,18.903 18.537,18.632 18.354,18.469 L18.065,18.211 L18.863,17.413 L19.121,17.702 C19.283,17.884 19.555,17.922 19.761,17.792 C20.164,17.538 20.604,17.355 21.069,17.251 C21.308,17.197 21.472,16.979 21.458,16.735 L21.437,16.348 L22.563,16.348 L22.542,16.735 C22.528,16.979 22.692,17.197 22.931,17.251 C23.396,17.356 23.836,17.539 24.239,17.793 C24.445,17.923 24.717,17.886 24.879,17.703 L25.137,17.414 L25.935,18.211 L25.646,18.468 C25.464,18.631 25.426,18.902 25.557,19.108 C25.812,19.512 25.994,19.952 26.1,20.417 C26.152,20.656 26.371,20.819 26.615,20.806 L27,20.784 L27,21.912 Z M27.844,19.891 C27.743,19.797 27.606,19.753 27.472,19.756 L26.964,19.785 C26.872,19.494 26.756,19.214 26.615,18.944 L26.995,18.605 C27.098,18.513 27.158,18.384 27.162,18.246 C27.166,18.108 27.113,17.975 27.016,17.878 L25.47,16.332 C25.373,16.235 25.24,16.191 25.102,16.186 C24.965,16.19 24.835,16.25 24.743,16.353 L24.402,16.735 C24.134,16.594 23.853,16.478 23.563,16.387 L23.592,15.876 C23.6,15.739 23.551,15.604 23.456,15.505 C23.361,15.405 23.23,15.348 23.093,15.348 L20.907,15.348 C20.77,15.348 20.639,15.405 20.544,15.505 C20.449,15.604 20.4,15.739 20.408,15.876 L20.437,16.386 C20.147,16.477 19.866,16.594 19.597,16.734 L19.257,16.353 C19.165,16.25 19.035,16.19 18.897,16.186 C18.8,16.195 18.628,16.235 18.53,16.332 L16.984,17.878 C16.887,17.975 16.834,18.108 16.838,18.246 C16.842,18.383 16.902,18.513 17.005,18.605 L17.386,18.945 C17.245,19.214 17.129,19.495 17.037,19.785 L16.528,19.756 C16.396,19.753 16.257,19.797 16.156,19.891 C16.057,19.986 16,20.117 16,20.255 L16,22.441 C16,22.579 16.057,22.71 16.156,22.805 C16.257,22.9 16.396,22.952 16.528,22.94 L17.035,22.911 C17.126,23.202 17.242,23.483 17.384,23.753 L17.005,24.091 C16.902,24.183 16.842,24.312 16.838,24.45 C16.834,24.587 16.887,24.721 16.984,24.818 L18.53,26.364 C18.628,26.461 18.769,26.518 18.898,26.51 C19.035,26.506 19.165,26.446 19.257,26.343 L19.595,25.965 C19.865,26.106 20.146,26.223 20.437,26.314 L20.408,26.82 C20.4,26.957 20.449,27.091 20.544,27.191 C20.639,27.291 20.77,27.348 20.907,27.348 L23.093,27.348 C23.23,27.348 23.361,27.291 23.456,27.191 C23.551,27.091 23.6,26.957 23.592,26.82 L23.563,26.315 C23.854,26.223 24.136,26.107 24.406,25.965 L24.743,26.343 C24.834,26.446 24.964,26.506 25.102,26.51 C25.244,26.522 25.373,26.461 25.47,26.364 L27.016,24.818 C27.113,24.721 27.166,24.588 27.162,24.45 C27.158,24.312 27.098,24.183 26.995,24.091 L26.616,23.753 C26.757,23.483 26.873,23.202 26.965,22.911 L27.472,22.94 C27.606,22.952 27.743,22.9 27.844,22.805 C27.943,22.71 28,22.579 28,22.441 L28,20.255 C28,20.117 27.943,19.986 27.844,19.891 L27.844,19.891 Z M9,9.848 C9,7.918 10.57,6.348 12.5,6.348 C14.43,6.348 16,7.918 16,9.848 C16,11.778 14.43,13.348 12.5,13.348 C10.57,13.348 9,11.778 9,9.848 L9,9.848 Z M12.003,14.646 C13.053,14.646 14.461,15.287 15.677,16.32 L16.323,15.557 C15.564,14.913 14.748,14.415 13.952,14.087 C15.719,13.479 17,11.819 17,9.848 C17,7.367 14.981,5.348 12.5,5.348 C10.019,5.348 8,7.367 8,9.848 C8,11.608 9.025,13.119 10.501,13.858 C7.574,14.678 5.371,17.847 5.087,21.831 L1,19.625 L1,6.945 L12,1.131 L23,6.945 L23,13.348 L24,13.348 L24,6.343 L12,-2.13162821e-14 L0,6.343 L0,20.222 L11.986,26.692 L15.216,25.142 L14.784,24.241 L12.014,25.57 L6.061,22.356 C6.193,18.018 8.772,14.646 12.003,14.646 L12.003,14.646 Z" id="AWS-Support_32_White"></path>
            </g>
        </g>
    </g>
</svg>