<svg xmlns="http://www.w3.org/2000/svg" width="25" height="24" class="mdl-js"><defs><radialGradient cx="50%" cy="50%" fx="50%" fy="50%" r="38.34%" gradientTransform="matrix(.23395 .91891 -1.39566 1.01015 1.08 -.46)" id="a"><stop stop-color="#64ACFF" offset="0%"/><stop stop-color="#07F" offset="100%"/></radialGradient><linearGradient x1="30.06%" y1="22.84%" x2="59.48%" y2="69.63%" id="b"><stop stop-color="#FFF" offset="0%"/><stop stop-color="#FFF" stop-opacity="0" offset="100%"/></linearGradient></defs><g fill="none" fill-rule="evenodd"><path d="M16.57 5.75c-.93-.01-1.55-.28-2.3-.52a7.65 7.65 0 0 0-9.09 3.75c-.5.97-.93 2.1-1.56 2.78l-.1.1c-2.08 2.18-3 4.41-2.32 5.83 1.5 3.14 23.25-7.05 21.74-10.18-.6-1.22-3.13-1.98-6.37-1.76z" fill="#000" fill-rule="nonzero"/><path d="M14.67 18c6.02-2.83 9.62-7.8 8.64-9.83-.97-2.03-6.85-1.66-12.88 1.16C4.4 12.15.51 16.37 1.48 18.4c.98 2.03 7.16 2.42 13.19-.4z" fill="url(#a)" fill-rule="nonzero" transform="translate(-.13 -.4)"/><path d="M14.39 16.69c2.85-1.34 4.78-3.2 4.32-4.16-.46-.96-3.15-.66-6 .68-2.85 1.33-4.79 3.2-4.32 4.16.46.96 3.15.65 6-.68z" fill="#FFF"/><path d="M8.56 17.79l.04 2.54c0 .67.45 1.25 1.1 1.43a9.1 9.1 0 0 0 6.84-.83 11.66 11.66 0 0 0 4.7-4.07 1.5 1.5 0 0 0-.25-1.87l-2.27-2.17L8.56 17.8z" fill="url(#b)" fill-rule="nonzero" opacity=".4" transform="translate(-.13 -.4)"/></g></svg>