<?xml version="1.0" encoding="UTF-8"?>
<svg width="88px" height="18px" viewBox="0 0 88 18" version="1.1" xmlns="http://www.w3.org/2000/svg" xmlns:xlink="http://www.w3.org/1999/xlink">
    <!-- Generator: Sketch 48.2 (47327) - http://www.bohemiancoding.com/sketch -->
    <title>Artboard</title>
    <desc>Created with Sketch.</desc>
    <defs>
        <linearGradient x1="91.4973431%" y1="4.9654308%" x2="-38.3351046%" y2="71.9100501%" id="linearGradient-1">
            <stop stop-color="#00A0FF" offset="0%"></stop>
            <stop stop-color="#00A1FF" offset="0.6574452%"></stop>
            <stop stop-color="#00BEFF" offset="26.01%"></stop>
            <stop stop-color="#00D2FF" offset="51.22%"></stop>
            <stop stop-color="#00DFFF" offset="76.04%"></stop>
            <stop stop-color="#00E3FF" offset="100%"></stop>
        </linearGradient>
        <linearGradient x1="107.588641%" y1="49.995387%" x2="-130.472897%" y2="49.995387%" id="linearGradient-2">
            <stop stop-color="#FFE000" offset="0%"></stop>
            <stop stop-color="#FFBD00" offset="40.87%"></stop>
            <stop stop-color="#FFA500" offset="77.54%"></stop>
            <stop stop-color="#FF9C00" offset="100%"></stop>
        </linearGradient>
        <linearGradient x1="86.243738%" y1="17.8461794%" x2="-50.1441583%" y2="194.807648%" id="linearGradient-3">
            <stop stop-color="#FF3A44" offset="0%"></stop>
            <stop stop-color="#C31162" offset="100%"></stop>
        </linearGradient>
        <linearGradient x1="-18.8092486%" y1="-54.1510221%" x2="42.0933614%" y2="24.8694121%" id="linearGradient-4">
            <stop stop-color="#32A071" offset="0%"></stop>
            <stop stop-color="#2DA771" offset="6.85%"></stop>
            <stop stop-color="#15CF74" offset="47.62%"></stop>
            <stop stop-color="#06E775" offset="80.09%"></stop>
            <stop stop-color="#00F076" offset="100%"></stop>
        </linearGradient>
    </defs>
    <g id="Page-1" stroke="none" stroke-width="1" fill="none" fill-rule="evenodd">
        <g id="Artboard">
            <g id="Group-12">
                <g id="Group-11">
                    <g id="logo_play_prism_48dp-(1)-copy" fill-rule="nonzero">
                        <rect id="Rectangle-path" fill="#FFFFFF" opacity="0" x="0" y="0" width="15.4660529" height="17.0126582"></rect>
                        <g id="Group" transform="translate(1.406005, 0.773303)">
                            <path d="M0.253881755,0.325049248 C0.0945048804,0.50941858 0,0.794273566 0,1.16475981 L0,14.3877982 C0,14.7582844 0.0945048804,15.0440132 0.253881755,15.2275087 L0.294727085,15.2703244 L7.08386159,7.86409471 L7.08386159,7.77671588 L7.08386159,7.68933705 L0.293926196,0.281359833 L0.253881755,0.325049248 Z" id="Shape" fill="url(#linearGradient-1)"></path>
                            <path d="M9.3463725,10.3342942 L7.08386159,7.86409471 L7.08386159,7.77671588 L7.08386159,7.68933705 L9.34717338,5.22001131 L9.39843027,5.25146769 L12.079806,6.91341304 C12.8454557,7.38788009 12.8454557,8.16467789 12.079806,8.64001872 L9.39843027,10.3019641 L9.3463725,10.3342942 Z" id="Shape" fill="url(#linearGradient-2)"></path>
                            <path d="M9.39843027,10.3019641 L7.08386159,7.77671588 L0.253881755,15.2283825 C0.506161732,15.5202278 0.923424806,15.5560531 1.39274565,15.2650816 L9.39843027,10.3019641" id="Shape" fill="url(#linearGradient-3)"></path>
                            <path d="M9.39843027,5.25146769 L1.39274565,0.288350139 C0.923424806,-0.0026213649 0.506161732,0.0332039555 0.253881755,0.325049248 L7.08386159,7.77671588 L9.39843027,5.25146769 Z" id="Shape" fill="url(#linearGradient-4)"></path>
                            <g transform="translate(0.000000, 10.223323)" fill="#000000" id="Shape">
                                <path d="M9.34717338,0.0235922841 L1.39274565,4.95437967 C0.947451471,5.23049677 0.550210617,5.21214722 0.294727085,4.96049619 L0.253881755,5.00505939 C0.253881755,5.00505939 0.253881755,5.00505939 0.253881755,5.00505939 L0.294727085,5.04787502 C0.550210617,5.29865226 0.947451471,5.3178756 1.39274565,5.0417585 L9.39843027,0.0786409471 L9.34717338,0.0235922841 Z" opacity="0.2"></path>
                                <path d="M0.302787721,4.91768056 C0.112709625,4.73331123 0,4.44758245 0,4.07797 L0,4.16534883 C0,4.53583507 0.112709625,4.82156385 0.302787721,5.00505939 L0.351501203,4.96049619 L0.302787721,4.91768056 Z" opacity="0.12"></path>
                            </g>
                            <path d="M12.079806,8.55263989 L9.34717338,10.2469154 L9.39843027,10.3028379 L12.079806,8.64089251 C12.4626309,8.40322209 12.6540433,8.09040588 12.6540433,7.77758967 C12.6540433,7.77758967 12.6540433,7.77758967 12.6540433,7.77758967 C12.6220078,8.05982329 12.4265909,8.33768797 12.079806,8.55263989 Z" id="Shape" fill="#000000" opacity="0.12"></path>
                            <path d="M1.39274565,0.37572897 L12.079806,7.00079187 C12.4273918,7.21574379 12.6220078,7.49360847 12.6540433,7.77671588 C12.6540433,7.46389967 12.4626309,7.15108346 12.079806,6.91341304 L1.39274565,0.288350139 C0.626295055,-0.186116908 0,0.207961616 0,1.16563359 L0,1.25301242 C0,0.295340446 0.626295055,-0.0987380781 1.39274565,0.37572897 Z" id="Shape" fill="#FFFFFF" opacity="0.25"></path>
                        </g>
                    </g>
                    <path d="M83.0889446,6.90134143 L81.4060464,11.1652145 L81.3548253,11.1652145 L79.6081854,6.90134143 L78.0260221,6.90134143 L80.6456975,12.8629098 L79.1517484,16.1797615 L80.6855361,16.1797615 L84.7217598,6.90134143 L83.0889446,6.90134143 Z M74.762099,12.0792268 C74.2806205,12.0792268 73.6084857,11.8367802 73.6084857,11.2420462 C73.6084857,10.4816972 74.4450972,10.190306 75.1644693,10.190306 C75.8104244,10.190306 76.1160437,10.3291721 76.5081698,10.5215359 C76.3920686,11.4321334 75.6078165,12.0792268 74.762099,12.0792268 Z M74.9356816,6.68564363 C73.8754046,6.68564363 72.7735816,7.15232488 72.3171445,8.19097522 L73.6204373,8.73676464 C73.8987387,8.19097522 74.4183484,8.01511607 74.9624304,8.01511607 C75.721072,8.01511607 76.4945108,8.46870748 76.5081698,9.2814158 L76.5081698,9.38101241 C76.2389744,9.22905644 75.6726965,9.00026881 74.9755203,9.00026881 C73.5714927,9.00026881 72.139578,9.77256936 72.139578,11.2164356 C72.139578,12.53168 73.2914839,13.3819504 74.5845325,13.3819504 C75.5702543,13.3819504 76.1160437,12.9368959 76.4563796,12.4178553 L76.5081698,12.4178553 L76.5081698,13.1782042 L77.9252873,13.1782042 L77.9252873,9.40548472 C77.9252873,7.66055214 76.6219945,6.68564363 74.9356816,6.68564363 Z M69.8630841,13.1941397 L71.3314227,13.1941397 L71.3314227,3.35570217 L69.8630841,3.35570217 L69.8630841,13.1941397 Z M65.8615769,8.09934634 L63.774032,8.09934634 L63.774032,4.72501326 L65.8615769,4.72501326 C66.9594161,4.72501326 67.5826063,5.63504169 67.5826063,6.41018787 C67.5826063,7.17281332 66.9594161,8.09934634 65.8615769,8.09934634 Z M65.8234457,3.35570217 L62.3045552,3.35570217 L62.3045552,13.1941397 L63.774032,13.1941397 L63.774032,9.4680883 L65.8234457,9.4680883 C67.4511388,9.4680883 69.0520832,8.28943358 69.0520832,6.41018787 C69.0520832,4.53378777 67.4511388,3.35570217 65.8234457,3.35570217 Z M50.7319985,13.1941397 L52.2031826,13.1941397 L52.2031826,3.35570217 L50.7319985,3.35570217 L50.7319985,13.1941397 Z M54.3704048,9.94842852 C54.3334118,8.65765647 55.3703548,7.99519675 56.1187522,7.99519675 C56.7043802,7.99519675 57.1961029,8.28943358 57.3605796,8.70546284 L54.3704048,9.94842852 Z M58.9359134,8.83351563 C58.6541972,8.0862565 57.8067724,6.70100996 56.0686693,6.70100996 C54.343656,6.70100996 52.9111723,8.0595077 52.9111723,10.0514399 C52.9111723,11.9255635 54.3334118,13.3961785 56.2342842,13.3961785 C57.7692102,13.3961785 58.6541972,12.4594013 59.0212819,11.9147501 L57.8818967,11.1532629 C57.5017222,11.7110039 56.9821125,12.0792268 56.2342842,12.0792268 C55.486456,12.0792268 54.9526182,11.7377527 54.6111441,11.0639105 L59.0878693,9.21312099 L58.9359134,8.83351563 Z M23.2752055,7.73169258 L23.2752055,9.14994828 L26.6734418,9.14994828 C26.5721378,9.94842852 26.3063571,10.5306418 25.900003,10.9398416 C25.4054347,11.4321334 24.6314267,11.9767846 23.2752055,11.9767846 C21.184815,11.9767846 19.5474467,10.29161 19.5474467,8.19837383 C19.5474467,6.10570681 21.184815,4.4205322 23.2752055,4.4205322 C24.4032082,4.4205322 25.2290064,4.86615588 25.8373994,5.43527935 L26.8373493,4.43476028 C25.9899245,3.62205196 24.8602144,3 23.2752055,3 C20.4096688,3 18,5.33169888 18,8.19837383 C18,11.0639105 20.4096688,13.3961785 23.2752055,13.3961785 C24.8220831,13.3961785 25.9899245,12.8902278 26.9022294,11.9392224 C27.8395758,11.0007378 28.1321052,9.6837861 28.1321052,8.61667958 C28.1321052,8.28943358 28.1064947,7.98381428 28.0575501,7.73169258 L23.2752055,7.73169258 Z M31.9953154,12.0792268 C30.9805682,12.0792268 30.1058255,11.2420462 30.1058255,10.0514399 C30.1058255,8.84660547 30.9805682,8.0208073 31.9953154,8.0208073 C33.0083552,8.0208073 33.8859436,8.84660547 33.8859436,10.0514399 C33.8859436,11.2420462 33.0083552,12.0792268 31.9953154,12.0792268 Z M31.9953154,6.70100996 C30.1416802,6.70100996 28.6352104,8.11072881 28.6352104,10.0514399 C28.6352104,11.9767846 30.1416802,13.3961785 31.9953154,13.3961785 C33.8455358,13.3961785 35.353713,11.9767846 35.353713,10.0514399 C35.353713,8.11072881 33.8455358,6.70100996 31.9953154,6.70100996 Z M46.6343094,12.0792268 C45.6224079,12.0792268 44.7721374,11.2289563 44.7721374,10.0650988 C44.7721374,8.88530586 45.6224079,8.0208073 46.6343094,8.0208073 C47.6365359,8.0208073 48.4236336,8.88530586 48.4236336,10.0650988 C48.4236336,11.2289563 47.6365359,12.0792268 46.6343094,12.0792268 Z M48.3223297,7.45168383 L48.2711086,7.45168383 C47.9398787,7.05785038 47.3064443,6.70100996 46.5085332,6.70100996 C44.8341719,6.70100996 43.3003841,8.17276327 43.3003841,10.0650988 C43.3003841,11.9392224 44.8341719,13.3961785 46.5085332,13.3961785 C47.3064443,13.3961785 47.9398787,13.0438911 48.2711086,12.6358296 L48.3223297,12.6358296 L48.3223297,13.1195845 C48.3223297,14.3989741 47.6365359,15.0836296 46.5347128,15.0836296 C45.6326521,15.0836296 45.0766185,14.4376745 44.8478308,13.8918851 L43.5661648,14.4234464 C43.9326803,15.3124173 44.91328,16.4017196 46.5347128,16.4017196 C48.2574496,16.4017196 49.7166822,15.3881107 49.7166822,12.9158383 L49.7166822,6.90589441 L48.3223297,6.90589441 L48.3223297,7.45168383 Z M39.3233493,12.0792268 C38.3114477,12.0792268 37.4355667,11.2420462 37.4355667,10.0514399 C37.4355667,8.84660547 38.3114477,8.0208073 39.3233493,8.0208073 C40.3380964,8.0208073 41.2139775,8.84660547 41.2139775,10.0514399 C41.2139775,11.2420462 40.3380964,12.0792268 39.3233493,12.0792268 Z M39.3233493,6.70100996 C37.4748362,6.70100996 35.9649516,8.11072881 35.9649516,10.0514399 C35.9649516,11.9767846 37.4748362,13.3961785 39.3233493,13.3961785 C41.1775536,13.3961785 42.6845925,11.9767846 42.6845925,10.0514399 C42.6845925,8.11072881 41.1775536,6.70100996 39.3233493,6.70100996 Z" id="Fill-4" fill-opacity="0.54" fill="#000000"></path>
                </g>
            </g>
        </g>
    </g>
</svg>