<?xml version="1.0" encoding="utf-8"?>
<!-- Generator: Adobe Illustrator 20.0.0, SVG Export Plug-In . SVG Version: 6.00 Build 0)  -->
<svg version="1.1" id="Layer_1" xmlns="http://www.w3.org/2000/svg" xmlns:xlink="http://www.w3.org/1999/xlink" x="0px" y="0px"
	 viewBox="0 0 64 16" style="enable-background:new 0 0 64 16;" xml:space="preserve">
<style type="text/css">
	.st0{fill:#1D1D1B;}
	.st1{fill:#F9B300;}
</style>
<g>
	<g>
		<path class="st0" d="M35.2,2h-8.6h-9.1c-1.8,0-3,1-3.2,2.4c-0.1,0.5-0.1,1-0.1,1h23.5c0,0,0-0.3,0.1-0.6C38.1,3.3,37.5,2,35.2,2"
			/>
		<path class="st0" d="M37.7,6.7c0,0-0.1,0.5-0.1,1c-0.1,1-0.9,1.8-2.3,1.8h-5L29.6,14l-4,0l0.9-7.3H37.7z"/>
		<polygon class="st0" points="3.2,2 13.9,2 13.5,5.4 2.8,5.4 		"/>
		<polygon class="st0" points="2.6,6.7 1.7,14 12.4,14 12.8,10.8 6.1,10.8 6.3,9.4 13,9.4 13.3,6.7 		"/>
		<path class="st0" d="M39,2h8.7c1.4,0,2.8,0.6,2.5,2.8c-0.1,0.4-0.1,0.5-0.1,0.5H38.6L39,2z"/>
		<polygon class="st0" points="37.6,14 41.6,14 42.5,6.7 38.5,6.6 		"/>
		<polygon class="st0" points="45.1,14 49.1,14 50.1,6.7 46.1,6.6 		"/>
		<path class="st0" d="M22.9,6.7c-0.7,0-7.4,0-8.8,0c-0.3,1.9,0.7,2.8,2,2.8c0.7,0,5.4,0,5.4,0l-0.2,1.4h-7.8L13.2,14
			c0,0,8.5,0,8.8,0c0.3,0,2.3-0.1,2.9-1.7c0.2-0.5,0.4-2.4,0.5-2.8C25.7,7.2,24.1,6.7,22.9,6.7"/>
	</g>
	<polygon class="st1" points="59.3,6.5 59.7,3.5 56.5,3.5 56.1,6.5 53.1,6.5 52.8,9.5 55.8,9.5 55.4,12.5 58.5,12.5 58.9,9.5 
		61.9,9.5 62.3,6.5 	"/>
</g>
<g>
	<g>
		<path class="st0" d="M38.5-140H21.3H3.1c-3.6,0-6,1.9-6.4,4.8c-0.1,1-0.2,2-0.2,2h47.1c0,0,0.1-0.7,0.2-1.3
			C44.1-137.4,42.9-140,38.5-140"/>
		<path class="st0" d="M43.3-130.7c0,0-0.1,0.9-0.2,2c-0.3,2.1-1.8,3.6-4.7,3.6h-10l-1.1,9.1l-8,0l1.8-14.7H43.3z"/>
		<polygon class="st0" points="-25.6,-140 -4.2,-140 -5.1,-133.3 -26.4,-133.3 		"/>
		<polygon class="st0" points="-26.7,-130.7 -28.6,-116 -7.2,-116 -6.4,-122.4 -19.8,-122.4 -19.5,-125.1 -6.1,-125.1 -5.4,-130.7 
					"/>
		<path class="st0" d="M46.1-140h17.4c2.8,0,5.6,1.3,5,5.7c-0.1,0.8-0.1,1-0.1,1H45.3L46.1-140z"/>
		<polygon class="st0" points="43.1,-116 51.1,-116 52.9,-130.7 44.9,-130.7 		"/>
		<polygon class="st0" points="58.3,-116 66.3,-116 68.1,-130.7 60.1,-130.7 		"/>
		<path class="st0" d="M13.8-130.7c-1.4,0-14.8,0-17.5,0c-0.6,3.8,1.3,5.6,4,5.6c1.5,0,10.8,0,10.8,0l-0.3,2.8H-4.8l-0.8,6.4
			c0,0,16.9,0,17.6,0c0.6,0,4.5-0.1,5.9-3.4c0.4-1.1,0.8-4.8,0.9-5.6C19.5-129.6,16.3-130.7,13.8-130.7"/>
	</g>
	<polygon class="st1" points="86.6,-131 87.3,-137 81,-137 80.2,-131 74.3,-131 73.6,-125.1 79.5,-125.1 78.8,-119 85.1,-119 
		85.9,-125.1 91.8,-125.1 92.6,-131 	"/>
</g>
</svg>
