<svg width="400" height="113" viewBox="0 0 400 113" xmlns="http://www.w3.org/2000/svg"><title>expedia</title><g fill="none"><path d="M193.484 88.094h-12.54l-10.75-12.927-10.749 12.927h-9.853l15.676-19.613-15.676-19.167h12.54l9.406 11.59 9.406-11.59h10.301l-14.78 17.83 17.02 20.95c0-.446 0-.446 0 0" fill="#000"/><path d="M260.129 55.772c-5.349 0-9.36 3.583-10.252 9.405h18.721v-.448c0-4.926-3.566-8.957-8.469-8.957M278.405 71s-.446 0 0 0h-28.528c.446 6.718 4.903 10.301 12.035 10.301 4.458 0 8.915-1.344 15.155-4.927h.446v8.958c-5.795 2.687-12.035 4.479-16.938 4.479-12.481 0-20.95-8.958-20.95-21.499 0-12.54 8.915-21.498 20.95-21.498 11.143 0 18.275 7.614 18.275 17.915-.445 2.24-.445 5.823-.445 6.27" fill="#000"/><path d="M335.327 40.905c-3.44 0-6.021-2.665-6.021-6.217 0-3.553 2.58-6.217 6.021-6.217s6.022 2.664 6.022 6.217c0 3.552-2.58 6.217-6.022 6.217zm-4.73 47.072c-.43 0-.43 0 0 0V49.342h9.892v38.635h-9.893z" fill="#000"/><path d="M211.378 81.853c-1.783 0-3.566-.445-5.794-.891V56c2.674-.891 4.903-1.337 7.132-1.337 7.132 0 12.035 5.349 12.035 12.926-.446 8.915-5.35 14.264-13.373 14.264m3.12-34.768c-3.12 0-5.794.446-8.914 1.783H195.33v63.742c3.12-.446 6.687-1.337 10.698-4.012V89.431c2.675.446 4.458.446 6.687.446 13.818 0 23.178-8.47 23.178-21.396-.445-12.927-9.36-21.396-21.395-21.396" fill="#000"/><path d="M311.437 78.592c-3.12 1.76-6.24 2.64-8.915 2.64-6.24 0-10.252-4.4-10.252-11.877 0-8.798 4.903-14.076 12.48-14.076 2.23 0 4.012.44 6.687 1.76v21.553zm0-49.706V49.12c-3.12-.88-5.795-1.32-8.47-1.32-12.034 0-21.395 9.238-21.395 21.115 0 11.877 8.023 20.674 19.167 20.674 4.012 0 7.578-.88 11.59-3.079v3.52c2.674-.44 6.24-1.76 9.36-3.96V24.927c-2.674 0-6.24 1.32-10.252 3.959z" fill="#000"/><path d="M375.507 79.51c-3.12 1.791-5.794 2.687-8.023 2.687-6.686 0-10.698-4.48-10.698-12.093 0-8.51 4.903-14.332 12.035-14.332 1.783 0 4.012.896 7.132 2.24l-.446 21.497zm10.698-30.456c0-.448 0-.448 0 0l-8.915-.448c-.445 0-.445 0-.445.448v1.343c-4.012-1.791-7.132-2.687-10.253-2.687-11.59 0-20.504 9.405-20.504 21.946 0 12.54 8.023 20.603 20.059 20.603 3.12 0 7.132 0 11.143-4.48v4.927c2.675-.447 5.795-1.791 8.915-4.03V49.054z" fill="#000"/><path d="M120.769 78.452h25.702c-.443 2.674-1.33 6.24-3.545 9.806h-27.032c-3.102 0-5.76-2.674-6.204-5.795V31.648c.444-3.12 3.102-5.795 6.204-5.795H146.471c-.443 2.675-1.33 6.24-3.545 9.807h-22.157v13.818h21.714v9.806h-21.714v19.168z" fill="#000"/><path d="M88.563 88.29c-2.58 0-3.87-1.721-3.87-4.302 0-2.58 1.72-4.3 3.87-4.3 2.15 0 3.871 1.72 3.871 4.3s-1.72 4.301-3.871 4.301m0-9.032c-2.58 0-4.731 1.72-4.731 4.731 0 2.58 2.15 4.731 4.731 4.731 2.58 0 4.731-1.72 4.731-4.73 0-3.011-2.15-4.732-4.731-4.732" fill="#072F54"/><path d="M87.507 83.52v-1.878h1.408c.47 0 1.408 0 1.408.939 0 .938-.47.938-1.408.938h-1.408zm3.754-.47c0-1.408-.938-1.877-2.346-1.877h-2.346v6.1h.938v-2.816h.939l1.407 2.816h.939l-1.877-2.816c1.877 0 2.346-.469 2.346-1.407z" fill="#072F54"/><path d="M395.034 55.64c-2.58 0-3.87-1.72-3.87-4.3 0-2.581 1.72-4.302 3.87-4.302 2.15 0 3.871 1.72 3.871 4.301 0 2.58-1.72 4.301-3.87 4.301m0-9.032c-2.581 0-4.732 1.72-4.732 4.731 0 2.58 2.15 4.731 4.731 4.731 2.58 0 4.731-1.72 4.731-4.73 0-3.012-2.15-4.732-4.73-4.732" fill="#000"/><path d="M393.9 50.674v-1.876h1.408c.47 0 1.408 0 1.408.938s-.939.938-1.408.938H393.9zm3.754-.938c0-1.408-.938-1.877-2.346-1.877h-2.346v6.1h.938v-2.815h.939l1.407 2.815h.939l-1.877-2.815c1.877.469 2.346 0 2.346-1.408z" fill="#000"/><path d="M55.02 35.813l-1.765-5.305L37.37 9.285l2.648-.884 26.918 23.433 15.886-4.421c1.765-.443 3.971-.443 5.736-.443-4.854-10.61-14.12-19.896-26.476-23.875-23.83-8.4-50.306 3.98-58.69 27.855C.743 38.466.3 45.982 1.184 53.499l38.391-13.264 15.445-4.422z" fill="#000"/><path d="M91.165 30.217c-1.328.892-3.54 2.229-5.31 2.674L69.922 37.35 59.302 72.117l-2.656.892 2.213-26.3-1.328-5.348-15.046 4.457-39.83 9.36C5.753 70.78 16.817 84.153 32.306 89.502c23.898 8.47 50.45-4.011 58.859-28.082 3.54-10.698 3.54-21.396 0-31.202" fill="#000"/></g></svg>
