<svg xmlns="http://www.w3.org/2000/svg" width="22" height="20" viewBox="0 0 22 20">
    <g fill="none" fill-rule="evenodd">
        <path d="M-1-2h24v24H-1z"/>
        <g fill="#333">
            <path d="M18 18h-1v-6a1 1 0 0 0-1-1h-4a1 1 0 0 0-1 1v6H4v-8h14v8zm-5-5h2v5h-2v-5zM4.693 2h2.026l-1.5 6H2.443l2.25-6zM12 2h1.219l1.5 6H12V2zM7.281 8l1.5-6H10v6H7.281zm12.276 0h-2.776l-1.5-6h2.026l2.25 6zm2.38.649l-3-8A1.002 1.002 0 0 0 18 0H4c-.417 0-.79.259-.937.649l-3 8A1.001 1.001 0 0 0 1 10h1v9a1 1 0 0 0 1 1h16a1 1 0 0 0 1-1v-9h1a1 1 0 0 0 .937-1.351z"/>
            <path d="M6 16h3a1 1 0 0 0 1-1v-3a1 1 0 0 0-1-1H6a1 1 0 0 0-1 1v3a1 1 0 0 0 1 1"/>
        </g>
    </g>
</svg>
