<?xml version="1.0" encoding="UTF-8"?>
<svg width="800px" height="388px" viewBox="0 0 800 388" version="1.1" xmlns="http://www.w3.org/2000/svg" xmlns:xlink="http://www.w3.org/1999/xlink">
    <!-- Generator: Sketch 55.2 (78181) - https://sketchapp.com -->
    <title>Illustration</title>
    <desc>Created with Sketch.</desc>
    <defs>
        <rect id="path-1" x="0" y="0" width="800" height="389"></rect>
        <linearGradient x1="50%" y1="50%" x2="24.1171875%" y2="50%" id="linearGradient-3">
            <stop stop-color="#EBEBEC" offset="0%"></stop>
            <stop stop-color="#F8F8F8" offset="100%"></stop>
        </linearGradient>
        <rect id="path-4" x="0" y="387" width="800" height="2"></rect>
    </defs>
    <g id="v0.4" stroke="none" stroke-width="1" fill="none" fill-rule="evenodd">
        <g id="Full-page-(D)" transform="translate(-113.000000, -114.000000)">
            <g id="Hero">
                <g id="Illustration" transform="translate(113.000000, 113.000000)">
                    <mask id="mask-2" fill="white">
                        <use xlink:href="#path-1"></use>
                    </mask>
                    <g id="frame"></g>
                    <g id="Horizon-Line" mask="url(#mask-2)">
                        <use fill="url(#linearGradient-3)" xlink:href="#path-4"></use>
                        <use fill="#EBEBEC" xlink:href="#path-4"></use>
                    </g>
                    <g id="Shapes" mask="url(#mask-2)" fill="#EBEBEC" fill-rule="nonzero">
                        <g transform="translate(424.000000, 1.000000)">
                            <path d="M249.309708,381.034221 C245.669149,380.388902 242.895002,377.194044 242.895002,373.3642 C242.895002,369.07074 246.381444,365.577479 250.666524,365.577479 C254.953773,365.577479 258.440215,369.07074 258.440215,373.3642 C258.440215,377.194569 255.665307,380.389778 252.022471,381.034486 L252.022471,388.239209 L249.309708,388.239209 L249.309708,381.034221 Z M249.382318,378.269335 L251.951609,378.269335 C254.122077,377.697747 255.727453,375.713969 255.727453,373.3642 C255.727453,370.570026 253.457413,368.295547 250.666524,368.295547 C247.877804,368.295547 245.607764,370.570026 245.607764,373.3642 C245.607764,375.713969 247.21314,377.697747 249.382318,378.269335 Z" id="Combined-Shape"></path>
                            <path d="M230.555839,381.623739 C227.83671,380.881706 225.251086,378.015963 225.251086,374.355425 C225.251086,370.55013 230.178548,361.947988 230.740632,360.980356 L232.018886,358.777634 L233.133289,361.067334 C233.972075,362.793851 238.16492,371.54603 238.16492,374.355425 C238.16492,378.180423 236.208915,381.001524 233.268601,381.663395 L233.268601,386.920402 L230.555839,386.920402 L230.555839,381.623739 Z M231.005858,378.924933 L232.950211,378.924933 C234.481352,378.400848 235.452158,376.69421 235.452158,374.355425 C235.452158,373.040967 233.580352,368.475701 231.817057,364.636701 C229.99408,368.074513 227.963849,372.494092 227.963849,374.355425 C227.963849,376.73701 229.548453,378.408365 231.005858,378.924933 Z" id="Combined-Shape"></path>
                            <path d="M73.8254488,379.221112 C70.1835377,378.576626 67.4087891,375.383012 67.4087891,371.550814 C67.4087891,367.259528 70.8952313,363.766267 75.1813959,363.766267 C79.4675605,363.766267 82.9540028,367.259528 82.9540028,371.550814 C82.9540028,375.382707 80.1796951,378.576119 76.5382112,379.220958 L76.5382112,386.427888 L73.8254488,386.427888 L73.8254488,379.221112 Z M73.9040924,376.458014 L76.4586995,376.458014 C78.632242,375.889413 80.2412404,373.905063 80.2412404,371.550814 C80.2412404,368.75664 77.9712008,366.484335 75.1813959,366.484335 C72.3915911,366.484335 70.1215515,368.75664 70.1215515,371.550814 C70.1215515,373.905063 71.7305499,375.889413 73.9040924,376.458014 Z" id="Combined-Shape"></path>
                            <path d="M137.766917,335.714925 L128.258437,335.714925 C127.509715,335.714925 126.902056,335.106078 126.902056,334.355891 C126.902056,333.605705 127.509715,332.996857 128.258437,332.996857 L139.108402,332.996857 L139.108402,173.718068 L73.4595514,173.718068 L73.4595514,332.996857 L117.948854,332.996857 C118.697577,332.996857 119.305236,333.605705 119.305236,334.355891 C119.305236,335.106078 118.697577,335.714925 117.948854,335.714925 L75.8476651,335.714925 C94.6242852,351.178168 90.287603,384.013054 90.084987,385.46329 L89.896179,386.809277 L87.2105441,386.432009 L87.3982675,385.087109 C87.4470972,384.732674 92.0870055,349.524994 71.7163303,336.033591 L70.5856509,335.283404 L70.8515146,334.880156 C70.7840601,334.718805 70.746789,334.541682 70.746789,334.355891 L70.746789,172.359034 C70.746789,171.608847 71.3544477,171 72.1031702,171 L140.464782,171 C141.213505,171 141.821164,171.608847 141.821164,172.359034 L141.821164,334.355891 C141.821164,334.725089 141.673987,335.060055 141.43525,335.305061 L141.850679,335.809731 L140.804638,336.674077 C121.876067,352.318189 126.04938,384.404439 126.09387,384.726259 L126.279423,386.072246 L123.591618,386.444078 L123.406065,385.09809 C123.220418,383.75138 119.180856,352.61662 137.766917,335.714925 Z M123.375465,335.714925 L123.037997,335.714925 C122.289274,335.714925 121.681616,335.106078 121.681616,334.355891 C121.681616,333.605705 122.289274,332.996857 123.037997,332.996857 L123.375465,332.996857 C124.124187,332.996857 124.731846,333.605705 124.731846,334.355891 C124.731846,335.106078 124.124187,335.714925 123.375465,335.714925 Z M78.8852932,328.104878 L78.8852932,186.221725 L81.5980556,186.221725 L81.5980556,328.104878 L78.8852932,328.104878 Z M84.672158,328.104878 L84.672158,186.221725 L87.38492,186.221725 L87.38492,328.104878 L84.672158,328.104878 Z M90.4590229,328.104878 L90.4590229,186.221725 L93.1717855,186.221725 L93.1717855,328.104878 L90.4590229,328.104878 Z M96.2469729,328.104878 L96.2469729,186.221725 L98.9597346,186.221725 L98.9597346,328.104878 L96.2469729,328.104878 Z M102.033837,328.104878 L102.033837,186.221725 L104.7466,186.221725 L104.7466,328.104878 L102.033837,328.104878 Z M107.820702,328.104878 L107.820702,186.221725 L110.533465,186.221725 L110.533465,328.104878 L107.820702,328.104878 Z M113.608652,328.104878 L113.608652,186.221725 L116.321415,186.221725 L116.321415,328.104878 L113.608652,328.104878 Z M119.395517,328.104878 L119.395517,186.221725 L122.108279,186.221725 L122.108279,328.104878 L119.395517,328.104878 Z M125.182381,328.104878 L125.182381,186.221725 L127.895144,186.221725 L127.895144,328.104878 L125.182381,328.104878 Z M130.970331,328.104878 L130.970331,186.221725 L133.683094,186.221725 L133.683094,328.104878 L130.970331,328.104878 Z" id="Combined-Shape"></path>
                            <path d="M233.754186,85.882947 L238.908434,85.882947 C239.657157,85.882947 240.264816,86.490707 240.264816,87.2419813 L240.264816,284.120349 L237.552053,284.120349 L237.552053,88.6010147 L183.839358,88.6010147 L183.839358,293.181301 L181.126595,293.181301 L181.126595,87.2419813 C181.126595,86.490707 181.734254,85.882947 182.482976,85.882947 L185.467015,85.882947 L185.467015,79.0872331 L216.392506,79.0872331 L233.754186,79.0872331 L233.754186,85.882947 Z M231.041424,85.882947 L231.041424,81.8053012 L216.392506,81.8053012 L216.392506,85.882947 L231.041424,85.882947 Z M213.679744,81.8053012 L211.509535,81.8053012 L188.179778,81.8053012 L188.179778,85.882947 L213.679744,85.882947 L213.679744,81.8053012 Z M232.397804,93.7648009 L226.442749,93.7648009 C225.692941,93.7648009 225.086368,93.1559535 225.086368,92.4057665 C225.086368,91.6555796 225.692941,91.0467331 226.442749,91.0467331 L232.397804,91.0467331 C233.146527,91.0467331 233.754186,91.6555796 233.754186,92.4057665 C233.754186,93.1559535 233.146527,93.7648009 232.397804,93.7648009 Z M221.740663,93.7648009 L221.570302,93.7648009 C220.820494,93.7648009 220.213921,93.1559535 220.213921,92.4057665 C220.213921,91.6555796 220.820494,91.0467331 221.570302,91.0467331 L221.740663,91.0467331 C222.489386,91.0467331 223.097045,91.6555796 223.097045,92.4057665 C223.097045,93.1559535 222.489386,93.7648009 221.740663,93.7648009 Z M232.397804,103.209 L226.442749,103.209 C225.692941,103.209 225.086368,102.600153 225.086368,101.849966 C225.086368,101.09978 225.692941,100.490932 226.442749,100.490932 L232.397804,100.490932 C233.146527,100.490932 233.754186,101.09978 233.754186,101.849966 C233.754186,102.600153 233.146527,103.209 232.397804,103.209 Z M221.739578,103.209 L221.570302,103.209 C220.820494,103.209 220.213921,102.600153 220.213921,101.849966 C220.213921,101.09978 220.820494,100.490932 221.570302,100.490932 L221.739578,100.490932 C222.4883,100.490932 223.095959,101.09978 223.095959,101.849966 C223.095959,102.600153 222.4883,103.209 221.739578,103.209 Z M232.397804,112.653199 L226.442749,112.653199 C225.692941,112.653199 225.086368,112.044352 225.086368,111.294166 C225.086368,110.543979 225.692941,109.935131 226.442749,109.935131 L232.397804,109.935131 C233.146527,109.935131 233.754186,110.543979 233.754186,111.294166 C233.754186,112.044352 233.146527,112.653199 232.397804,112.653199 Z M221.738493,112.653199 L221.570302,112.653199 C220.820494,112.653199 220.213921,112.044352 220.213921,111.294166 C220.213921,110.543979 220.820494,109.935131 221.570302,109.935131 L221.738493,109.935131 C222.487216,109.935131 223.094875,110.543979 223.094875,111.294166 C223.094875,112.044352 222.487216,112.653199 221.738493,112.653199 Z M232.397804,122.097508 L226.442749,122.097508 C225.692941,122.097508 225.086368,121.48866 225.086368,120.738473 C225.086368,119.988286 225.692941,119.379439 226.442749,119.379439 L232.397804,119.379439 C233.146527,119.379439 233.754186,119.988286 233.754186,120.738473 C233.754186,121.48866 233.146527,122.097508 232.397804,122.097508 Z M221.737408,122.097508 L221.570302,122.097508 C220.820494,122.097508 220.213921,121.48866 220.213921,120.738473 C220.213921,119.988286 220.820494,119.379439 221.570302,119.379439 L221.737408,119.379439 C222.48613,119.379439 223.093789,119.988286 223.093789,120.738473 C223.093789,121.48866 222.48613,122.097508 221.737408,122.097508 Z M232.397804,131.541707 L226.442749,131.541707 C225.692941,131.541707 225.086368,130.932859 225.086368,130.182672 C225.086368,129.432485 225.692941,128.823639 226.442749,128.823639 L232.397804,128.823639 C233.146527,128.823639 233.754186,129.432485 233.754186,130.182672 C233.754186,130.932859 233.146527,131.541707 232.397804,131.541707 Z M221.736431,131.541707 L221.570411,131.541707 C220.820603,131.541707 220.214029,130.932859 220.214029,130.182672 C220.214029,129.432485 220.820603,128.823639 221.570411,128.823639 L221.736431,128.823639 C222.485154,128.823639 223.092813,129.432485 223.092813,130.182672 C223.092813,130.932859 222.485154,131.541707 221.736431,131.541707 Z M232.397804,140.98645 L226.442749,140.98645 C225.692941,140.98645 225.086368,140.376515 225.086368,139.627416 C225.086368,138.876141 225.692941,138.268381 226.442749,138.268381 L232.397804,138.268381 C233.146527,138.268381 233.754186,138.876141 233.754186,139.627416 C233.754186,140.376515 233.146527,140.98645 232.397804,140.98645 Z M221.735347,140.98645 L221.570411,140.98645 C220.820603,140.98645 220.214029,140.376515 220.214029,139.627416 C220.214029,138.876141 220.820603,138.268381 221.570411,138.268381 L221.735347,138.268381 C222.484068,138.268381 223.091727,138.876141 223.091727,139.627416 C223.091727,140.376515 222.484068,140.98645 221.735347,140.98645 Z M232.397804,150.42967 L226.442749,150.42967 C225.692941,150.42967 225.086368,149.820824 225.086368,149.070637 C225.086368,148.32045 225.692941,147.711602 226.442749,147.711602 L232.397804,147.711602 C233.146527,147.711602 233.754186,148.32045 233.754186,149.070637 C233.754186,149.820824 233.146527,150.42967 232.397804,150.42967 Z M221.734261,150.42967 L221.570411,150.42967 C220.820603,150.42967 220.214029,149.820824 220.214029,149.070637 C220.214029,148.32045 220.820603,147.711602 221.570411,147.711602 L221.734261,147.711602 C222.482984,147.711602 223.090643,148.32045 223.090643,149.070637 C223.090643,149.820824 222.482984,150.42967 221.734261,150.42967 Z M232.397804,159.874957 L226.442749,159.874957 C225.692941,159.874957 225.086368,159.26611 225.086368,158.515923 C225.086368,157.765736 225.692941,157.156889 226.442749,157.156889 L232.397804,157.156889 C233.146527,157.156889 233.754186,157.765736 233.754186,158.515923 C233.754186,159.26611 233.146527,159.874957 232.397804,159.874957 Z M221.733177,159.874957 L221.570411,159.874957 C220.820603,159.874957 220.214029,159.26611 220.214029,158.515923 C220.214029,157.765736 220.820603,157.156889 221.570411,157.156889 L221.733177,157.156889 C222.481898,157.156889 223.089557,157.765736 223.089557,158.515923 C223.089557,159.26611 222.481898,159.874957 221.733177,159.874957 Z M232.397804,169.318069 L226.442749,169.318069 C225.692941,169.318069 225.086368,168.709222 225.086368,167.959035 C225.086368,167.208848 225.692941,166.600001 226.442749,166.600001 L232.397804,166.600001 C233.146527,166.600001 233.754186,167.208848 233.754186,167.959035 C233.754186,168.709222 233.146527,169.318069 232.397804,169.318069 Z M221.732199,169.318069 L221.570519,169.318069 C220.820712,169.318069 220.214138,168.709222 220.214138,167.959035 C220.214138,167.208848 220.820712,166.600001 221.570519,166.600001 L221.732199,166.600001 C222.480922,166.600001 223.088581,167.208848 223.088581,167.959035 C223.088581,168.709222 222.480922,169.318069 221.732199,169.318069 Z M232.397804,178.763356 L226.442749,178.763356 C225.692941,178.763356 225.086368,178.154509 225.086368,177.404322 C225.086368,176.654135 225.692941,176.045287 226.442749,176.045287 L232.397804,176.045287 C233.146527,176.045287 233.754186,176.654135 233.754186,177.404322 C233.754186,178.154509 233.146527,178.763356 232.397804,178.763356 Z M221.731115,178.763356 L221.570519,178.763356 C220.820712,178.763356 220.214138,178.154509 220.214138,177.404322 C220.214138,176.654135 220.820712,176.045287 221.570519,176.045287 L221.731115,176.045287 C222.479837,176.045287 223.087496,176.654135 223.087496,177.404322 C223.087496,178.154509 222.479837,178.763356 221.731115,178.763356 Z M232.397804,188.207555 L226.442749,188.207555 C225.692941,188.207555 225.086368,187.598708 225.086368,186.848521 C225.086368,186.098334 225.692941,185.489487 226.442749,185.489487 L232.397804,185.489487 C233.146527,185.489487 233.754186,186.098334 233.754186,186.848521 C233.754186,187.598708 233.146527,188.207555 232.397804,188.207555 Z M221.731115,188.207555 L221.570519,188.207555 C220.820712,188.207555 220.214138,187.598708 220.214138,186.848521 C220.214138,186.098334 220.820712,185.489487 221.570519,185.489487 L221.731115,185.489487 C222.478752,185.489487 223.087496,186.098334 223.087496,186.848521 C223.087496,187.598708 222.478752,188.207555 221.731115,188.207555 Z M232.397804,197.651754 L226.442749,197.651754 C225.692941,197.651754 225.086368,197.042907 225.086368,196.29272 C225.086368,195.542534 225.692941,194.933686 226.442749,194.933686 L232.397804,194.933686 C233.146527,194.933686 233.754186,195.542534 233.754186,196.29272 C233.754186,197.042907 233.146527,197.651754 232.397804,197.651754 Z M221.730029,197.651754 L221.570519,197.651754 C220.820712,197.651754 220.214138,197.042907 220.214138,196.29272 C220.214138,195.542534 220.820712,194.933686 221.570519,194.933686 L221.730029,194.933686 C222.478752,194.933686 223.086411,195.542534 223.086411,196.29272 C223.086411,197.042907 222.478752,197.651754 221.730029,197.651754 Z M232.397804,207.096063 L226.442749,207.096063 C225.692941,207.096063 225.086368,206.487215 225.086368,205.737028 C225.086368,204.986841 225.692941,204.377994 226.442749,204.377994 L232.397804,204.377994 C233.146527,204.377994 233.754186,204.986841 233.754186,205.737028 C233.754186,206.487215 233.146527,207.096063 232.397804,207.096063 Z M221.728945,207.096063 L221.570519,207.096063 C220.820712,207.096063 220.214138,206.487215 220.214138,205.737028 C220.214138,204.986841 220.820712,204.377994 221.570519,204.377994 L221.728945,204.377994 C222.477666,204.377994 223.085326,204.986841 223.085326,205.737028 C223.085326,206.487215 222.477666,207.096063 221.728945,207.096063 Z M232.397804,216.540262 L226.442749,216.540262 C225.692941,216.540262 225.086368,215.931414 225.086368,215.181227 C225.086368,214.431041 225.692941,213.822194 226.442749,213.822194 L232.397804,213.822194 C233.146527,213.822194 233.754186,214.431041 233.754186,215.181227 C233.754186,215.931414 233.146527,216.540262 232.397804,216.540262 Z M221.727967,216.540262 L221.569543,216.540262 C220.82082,216.540262 220.213161,215.931414 220.213161,215.181227 C220.213161,214.431041 220.82082,213.822194 221.569543,213.822194 L221.727967,213.822194 C222.47669,213.822194 223.084349,214.431041 223.084349,215.181227 C223.084349,215.931414 222.47669,216.540262 221.727967,216.540262 Z M232.397804,225.984461 L226.442749,225.984461 C225.692941,225.984461 225.086368,225.375614 225.086368,224.625427 C225.086368,223.875241 225.692941,223.266393 226.442749,223.266393 L232.397804,223.266393 C233.146527,223.266393 233.754186,223.875241 233.754186,224.625427 C233.754186,225.375614 233.146527,225.984461 232.397804,225.984461 Z M221.726883,225.984461 L221.569543,225.984461 C220.82082,225.984461 220.213161,225.375614 220.213161,224.625427 C220.213161,223.875241 220.82082,223.266393 221.569543,223.266393 L221.726883,223.266393 C222.475605,223.266393 223.083264,223.875241 223.083264,224.625427 C223.083264,225.375614 222.475605,225.984461 221.726883,225.984461 Z M232.397804,235.42866 L226.442749,235.42866 C225.692941,235.42866 225.086368,234.819813 225.086368,234.069627 C225.086368,233.31944 225.692941,232.710592 226.442749,232.710592 L232.397804,232.710592 C233.146527,232.710592 233.754186,233.31944 233.754186,234.069627 C233.754186,234.819813 233.146527,235.42866 232.397804,235.42866 Z M221.725797,235.42866 L221.569543,235.42866 C220.82082,235.42866 220.213161,234.819813 220.213161,234.069627 C220.213161,233.31944 220.82082,232.710592 221.569543,232.710592 L221.725797,232.710592 C222.47452,232.710592 223.082178,233.31944 223.082178,234.069627 C223.082178,234.819813 222.47452,235.42866 221.725797,235.42866 Z M232.397804,244.872968 L226.442749,244.872968 C225.692941,244.872968 225.086368,244.264121 225.086368,243.513934 C225.086368,242.763747 225.692941,242.154901 226.442749,242.154901 L232.397804,242.154901 C233.146527,242.154901 233.754186,242.763747 233.754186,243.513934 C233.754186,244.264121 233.146527,244.872968 232.397804,244.872968 Z M221.724712,244.872968 L221.569543,244.872968 C220.82082,244.872968 220.213161,244.264121 220.213161,243.513934 C220.213161,242.763747 220.82082,242.154901 221.569543,242.154901 L221.724712,242.154901 C222.473435,242.154901 223.081094,242.763747 223.081094,243.513934 C223.081094,244.264121 222.473435,244.872968 221.724712,244.872968 Z M232.397804,254.317168 L226.442749,254.317168 C225.692941,254.317168 225.086368,253.70832 225.086368,252.958133 C225.086368,252.207947 225.692941,251.5991 226.442749,251.5991 L232.397804,251.5991 C233.146527,251.5991 233.754186,252.207947 233.754186,252.958133 C233.754186,253.70832 233.146527,254.317168 232.397804,254.317168 Z M221.723627,254.317168 L221.569543,254.317168 C220.82082,254.317168 220.213161,253.70832 220.213161,252.958133 C220.213161,252.207947 220.82082,251.5991 221.569543,251.5991 L221.723627,251.5991 C222.47235,251.5991 223.080008,252.207947 223.080008,252.958133 C223.080008,253.70832 222.47235,254.317168 221.723627,254.317168 Z M232.397804,263.761367 L226.442749,263.761367 C225.692941,263.761367 225.086368,263.152519 225.086368,262.402333 C225.086368,261.652146 225.692941,261.043299 226.442749,261.043299 L232.397804,261.043299 C233.146527,261.043299 233.754186,261.652146 233.754186,262.402333 C233.754186,263.152519 233.146527,263.761367 232.397804,263.761367 Z M221.722651,263.761367 L221.569651,263.761367 C220.820928,263.761367 220.21327,263.152519 220.21327,262.402333 C220.21327,261.652146 220.820928,261.043299 221.569651,261.043299 L221.722651,261.043299 C222.471373,261.043299 223.079032,261.652146 223.079032,262.402333 C223.079032,263.152519 222.471373,263.761367 221.722651,263.761367 Z M232.397804,273.205566 L226.442749,273.205566 C225.692941,273.205566 225.086368,272.596719 225.086368,271.846533 C225.086368,271.096346 225.692941,270.487498 226.442749,270.487498 L232.397804,270.487498 C233.146527,270.487498 233.754186,271.096346 233.754186,271.846533 C233.754186,272.596719 233.146527,273.205566 232.397804,273.205566 Z M221.721565,273.205566 L221.569651,273.205566 C220.820928,273.205566 220.21327,272.596719 220.21327,271.846533 C220.21327,271.096346 220.820928,270.487498 221.569651,270.487498 L221.721565,270.487498 C222.470288,270.487498 223.077946,271.096346 223.077946,271.846533 C223.077946,272.596719 222.470288,273.205566 221.721565,273.205566 Z M232.397804,282.649874 L226.442749,282.649874 C225.692941,282.649874 225.086368,282.041027 225.086368,281.29084 C225.086368,280.540654 225.692941,279.931807 226.442749,279.931807 L232.397804,279.931807 C233.146527,279.931807 233.754186,280.540654 233.754186,281.29084 C233.754186,282.041027 233.146527,282.649874 232.397804,282.649874 Z M221.72048,282.649874 L221.569651,282.649874 C220.820928,282.649874 220.21327,282.041027 220.21327,281.29084 C220.21327,280.540654 220.820928,279.931807 221.569651,279.931807 L221.72048,279.931807 C222.469203,279.931807 223.076862,280.540654 223.076862,281.29084 C223.076862,282.041027 222.469203,282.649874 221.72048,282.649874 Z M232.397804,292.094074 L226.442749,292.094074 C225.692941,292.094074 225.086368,291.485226 225.086368,290.73504 C225.086368,289.984853 225.692941,289.376006 226.442749,289.376006 L232.397804,289.376006 C233.146527,289.376006 233.754186,289.984853 233.754186,290.73504 C233.754186,291.485226 233.146527,292.094074 232.397804,292.094074 Z M221.719395,292.094074 L221.569651,292.094074 C220.820928,292.094074 220.21327,291.485226 220.21327,290.73504 C220.21327,289.984853 220.820928,289.376006 221.569651,289.376006 L221.719395,289.376006 C222.468118,289.376006 223.075776,289.984853 223.075776,290.73504 C223.075776,291.485226 222.468118,292.094074 221.719395,292.094074 Z M186.36928,93.8550402 L186.36928,91.1369724 L214.404051,91.1369724 L214.404051,93.8550402 L186.36928,93.8550402 Z M186.366024,103.304133 L186.366024,100.586064 L214.425754,100.586064 L214.425754,103.304133 L186.366024,103.304133 Z M186.360599,112.752137 L186.360599,110.034069 L214.446371,110.034069 L214.446371,112.752137 L186.360599,112.752137 Z M186.357344,122.201228 L186.357344,119.483161 L214.469158,119.483161 L214.469158,122.201228 L186.357344,122.201228 Z M186.353003,131.649234 L186.353003,128.931166 L214.49086,128.931166 L214.49086,131.649234 L186.353003,131.649234 Z M186.348663,141.098325 L186.348663,138.380257 L214.511477,138.380257 L214.511477,141.098325 L186.348663,141.098325 Z M186.345408,150.54633 L186.345408,147.828262 L214.533179,147.828262 L214.533179,150.54633 L186.345408,150.54633 Z M186.341068,159.995422 L186.341068,157.277354 L214.553796,157.277354 L214.553796,159.995422 L186.341068,159.995422 Z M186.337812,169.443426 L186.337812,166.725358 L214.576584,166.725358 L214.576584,169.443426 L186.337812,169.443426 Z M186.332387,178.892519 L186.332387,176.17445 L214.5972,176.17445 L214.5972,178.892519 L186.332387,178.892519 Z M186.329131,188.340523 L186.329131,185.622455 L214.618902,185.622455 L214.618902,188.340523 L186.329131,188.340523 Z M186.323706,197.789614 L186.323706,195.071547 L214.639519,195.071547 L214.639519,197.789614 L186.323706,197.789614 Z M186.32045,207.238707 L186.32045,204.520638 L214.661221,204.520638 L214.661221,207.238707 L186.32045,207.238707 Z M186.315025,216.686711 L186.315025,213.968643 L214.681839,213.968643 L214.681839,216.686711 L186.315025,216.686711 Z M186.311769,226.134715 L186.311769,223.416648 L214.704625,223.416648 L214.704625,226.134715 L186.311769,226.134715 Z M186.307429,235.583808 L186.307429,232.865739 L214.725243,232.865739 L214.725243,235.583808 L186.307429,235.583808 Z M186.304174,245.031812 L186.304174,242.313744 L214.746945,242.313744 L214.746945,245.031812 L186.304174,245.031812 Z M186.299833,254.480904 L186.299833,251.762836 L214.767562,251.762836 L214.767562,254.480904 L186.299833,254.480904 Z M186.295492,263.928909 L186.295492,261.210841 L214.789264,261.210841 L214.789264,263.928909 L186.295492,263.928909 Z M186.291152,273.378 L186.291152,270.659933 L214.810966,270.659933 L214.810966,273.378 L186.291152,273.378 Z M186.286812,282.826006 L186.286812,280.107937 L214.832668,280.107937 L214.832668,282.826006 L186.286812,282.826006 Z M186.282471,292.27401 L186.282471,289.555942 L214.853286,289.555942 L214.853286,292.27401 L186.282471,292.27401 Z M237.59817,296.491364 L237.59817,289.424387 L240.310933,289.424387 L240.310933,296.491364 L237.59817,296.491364 Z" id="Combined-Shape"></path>
                            <path d="M166.20586,167.424445 L183.567539,167.424445 L183.567539,164.706377 L170.546822,164.706377 L170.546822,162.53138 L183.025529,162.53138 L183.025529,159.813311 L167.83406,159.813311 L167.83406,164.706377 L164.03565,164.706377 L164.03565,167.424445 L166.20586,167.424445 L166.20586,273.610667 L163.492012,273.610667 L163.492012,164.70529 L166.20586,164.70529 L166.20586,167.424445 Z" id="Combined-Shape"></path>
                            <path d="M274.173803,165.792844 L264.40851,165.792844 L264.40851,207.651853 L274.731547,207.651853 L274.731547,207.380046 L284.346663,207.380046 L284.346663,200.121355 C284.316585,200.008941 284.300546,199.890792 284.300546,199.768912 L284.300546,196.326751 C284.300546,195.576564 284.908204,194.967717 285.656926,194.967717 C286.405649,194.967717 287.013307,195.576564 287.013307,196.326751 L287.013307,197.459098 L287.059424,197.459098 L287.059424,207.380046 L292.891864,207.380046 L292.891864,176.846357 L286.854002,176.846357 C286.843032,179.958719 286.835242,183.590852 286.835242,187.628933 C286.835242,188.37912 286.227583,188.987967 285.47886,188.987967 C284.730139,188.987967 284.12248,188.37912 284.12248,187.628933 C284.12248,183.592056 284.13025,179.959914 284.141198,176.846357 L276.886566,176.846357 L276.886566,203.846558 L274.173803,203.846558 L274.173803,196.598014 L266.671387,196.598014 L266.671387,193.879945 L274.173803,193.879945 L274.173803,179.927558 L266.902515,179.927558 L266.902515,177.209491 L274.173803,177.209491 L274.173803,165.792844 Z M273.905131,163.074775 L273.905131,160.53697 L267.685309,160.53697 L265.152457,163.074775 L273.905131,163.074775 Z M261.858513,163.074775 L261.58702,162.802751 L266.561141,157.818902 L273.905131,157.818902 L273.905131,149.122606 L274.235988,149.122606 L274.068548,148.937342 L288.82272,135.547586 L288.82272,131.27414 L291.535482,131.27414 L291.535482,135.238779 L291.681971,135.385055 L305.022063,149.122606 L305.553302,149.122606 L305.553302,149.669673 L305.663549,149.783205 L305.553302,149.890647 L305.553302,157.818902 L311.418729,157.818902 L317.090767,163.074775 L317.573227,163.074775 L317.575081,163.523555 L317.596231,163.543153 L317.575256,163.56589 L317.755525,207.198805 L320.842648,207.198805 L319.740181,387.595896 L317.027419,387.5785 L318.111975,210.006787 L305.459549,210.006787 L305.459549,210.098114 L305.099294,210.098114 L305.099294,218.795932 L316.492896,218.795932 L316.492896,221.514 L305.099294,221.514 L305.099294,387.587959 L302.386532,387.587959 L302.386532,221.514 L295.604626,221.514 L295.604626,382.695437 L292.891864,382.695437 L292.891864,221.514 L287.011595,221.514 C286.998728,286.300142 286.924329,381.336946 286.924329,381.336946 L284.211566,381.334771 C284.211566,381.334771 284.285966,286.299902 284.298834,221.514 L276.886566,221.514 L276.886566,387.587959 L274.173803,387.587959 L274.173803,221.514 L262.237648,221.514 L262.237648,218.795932 L274.173803,218.795932 L274.173803,210.369921 L262.139551,210.369921 L261.688152,293.821461 L258.975389,293.806239 L259.441985,207.651092 L261.695747,207.651092 L261.695747,163.074775 L261.858513,163.074775 Z M313.09515,163.074775 L310.356411,160.53697 L305.553302,160.53697 L305.553302,163.074775 L313.09515,163.074775 Z M305.101721,165.792844 L305.101156,177.209491 L314.233708,177.209491 L314.233708,179.927558 L305.101021,179.927558 L305.10033,193.879945 L313.715028,193.879945 L313.715028,196.598014 L305.100196,196.598014 L305.099837,203.846014 L302.387074,203.846014 L302.388439,176.846357 L295.604626,176.846357 L295.604626,207.380046 L302.386532,207.380046 L302.386532,207.290894 L302.840106,207.290894 L302.840106,207.288719 L315.042755,207.288719 L314.871316,165.792844 L305.101721,165.792844 Z M286.916951,165.792844 C286.905671,167.112989 286.883346,170.014146 286.864879,174.128288 L292.891864,174.128288 L292.891864,165.792844 L286.916951,165.792844 Z M284.203958,165.792844 L276.886566,165.792844 L276.886566,174.128288 L284.152048,174.128288 C284.170404,170.028628 284.192593,167.129008 284.203958,165.792844 Z M276.981826,163.074775 L302.389136,163.074775 L302.389245,160.908149 C301.420246,159.72742 297.506273,155.642708 289.707623,155.642708 C289.573071,155.642708 289.438517,155.643795 289.300709,155.647057 C281.268762,155.79057 277.863702,159.482794 277.056384,160.534143 L276.981826,163.074775 Z M302.388998,165.792844 L295.604626,165.792844 L295.604626,174.128288 L302.388577,174.128288 L302.388998,165.792844 Z M292.891864,210.098114 L287.013226,210.098114 C287.012998,212.919713 287.012619,215.823189 287.012102,218.795932 L292.891864,218.795932 L292.891864,210.098114 Z M295.604626,210.098114 L295.604626,218.795932 L302.386532,218.795932 L302.386532,210.098114 L295.604626,210.098114 Z M284.300465,210.098114 L276.886566,210.098114 L276.886566,218.795932 L284.29934,218.795932 C284.299857,215.823192 284.300236,212.919717 284.300465,210.098114 Z M301.23727,149.122606 L290.308229,137.868282 L277.905408,149.122606 L301.23727,149.122606 Z M276.617894,157.121582 C278.756509,155.308017 282.719971,153.045972 289.252964,152.928988 C289.405964,152.926814 289.560049,152.92464 289.709793,152.92464 C296.322739,152.92464 300.571386,155.53699 302.84054,157.514804 L302.84054,151.840674 L276.617894,151.840674 L276.617894,157.121582 Z M309.007843,174.783887 L308.908013,168.351851 L311.620776,168.309449 L311.720605,174.741485 L309.007843,174.783887 Z M308.929715,191.705492 L308.929715,182.46406 L311.642477,182.46406 L311.642477,191.705492 L308.929715,191.705492 Z M308.929715,204.661978 L308.929715,198.773556 L311.642477,198.773556 L311.642477,204.661978 L308.929715,204.661978 Z M308.714864,217.165091 L308.714864,211.728955 L311.427627,211.728955 L311.427627,217.165091 L308.714864,217.165091 Z M268.418406,175.397082 L268.418406,168.330106 L271.131169,168.330106 L271.131169,175.397082 L268.418406,175.397082 Z M268.418406,191.705492 L268.418406,182.46406 L271.131169,182.46406 L271.131169,191.705492 L268.418406,191.705492 Z M268.418406,204.661978 L268.418406,198.773556 L271.131169,198.773556 L271.131169,204.661978 L268.418406,204.661978 Z M288.371316,226.134715 L288.371316,224.142916 L291.444334,224.142916 L291.444334,226.134715 L288.371316,226.134715 Z M288.371316,232.396058 L288.371316,230.404257 L291.444334,230.404257 L291.444334,232.396058 L288.371316,232.396058 Z M288.371316,238.658486 L288.371316,236.666686 L291.444334,236.666686 L291.444334,238.658486 L288.371316,238.658486 Z M288.371316,244.922002 L288.371316,242.930202 L291.444334,242.930202 L291.444334,244.922002 L288.371316,244.922002 Z M288.371316,251.184431 L288.371316,249.192631 L291.444334,249.192631 L291.444334,251.184431 L288.371316,251.184431 Z M288.371316,257.445772 L288.371316,255.453973 L291.444334,255.453973 L291.444334,257.445772 L288.371316,257.445772 Z M288.371316,263.708202 L288.371316,261.716402 L291.444334,261.716402 L291.444334,263.708202 L288.371316,263.708202 Z M288.371316,269.971718 L288.371316,267.979918 L291.444334,267.979918 L291.444334,269.971718 L288.371316,269.971718 Z M288.371316,276.234147 L288.371316,274.242346 L291.444334,274.242346 L291.444334,276.234147 L288.371316,276.234147 Z M288.371316,282.495488 L288.371316,280.503688 L291.444334,280.503688 L291.444334,282.495488 L288.371316,282.495488 Z M288.371316,288.757917 L288.371316,286.766116 L291.444334,286.766116 L291.444334,288.757917 L288.371316,288.757917 Z M288.371316,295.021433 L288.371316,293.029632 L291.444334,293.029632 L291.444334,295.021433 L288.371316,295.021433 Z M288.371316,301.283862 L288.371316,299.292062 L291.444334,299.292062 L291.444334,301.283862 L288.371316,301.283862 Z M288.371316,307.545204 L288.371316,305.553403 L291.444334,305.553403 L291.444334,307.545204 L288.371316,307.545204 Z M288.371316,313.807632 L288.371316,311.815832 L291.444334,311.815832 L291.444334,313.807632 L288.371316,313.807632 Z M288.371316,320.071148 L288.371316,318.079348 L291.444334,318.079348 L291.444334,320.071148 L288.371316,320.071148 Z M288.371316,326.333577 L288.371316,324.341777 L291.444334,324.341777 L291.444334,326.333577 L288.371316,326.333577 Z M288.371316,332.594919 L288.371316,330.603118 L291.444334,330.603118 L291.444334,332.594919 L288.371316,332.594919 Z M288.371316,338.857347 L288.371316,336.865548 L291.444334,336.865548 L291.444334,338.857347 L288.371316,338.857347 Z M288.371316,345.120864 L288.371316,343.129064 L291.444334,343.129064 L291.444334,345.120864 L288.371316,345.120864 Z M288.371316,351.383293 L288.371316,349.391492 L291.444334,349.391492 L291.444334,351.383293 L288.371316,351.383293 Z M288.371316,357.644634 L288.371316,355.652834 L291.444334,355.652834 L291.444334,357.644634 L288.371316,357.644634 Z M288.371316,363.907063 L288.371316,361.915262 L291.444334,361.915262 L291.444334,363.907063 L288.371316,363.907063 Z M288.371316,370.170579 L288.371316,368.178778 L291.444334,368.178778 L291.444334,370.170579 L288.371316,370.170579 Z M288.371316,376.433008 L288.371316,374.441208 L291.444334,374.441208 L291.444334,376.433008 L288.371316,376.433008 Z M288.371316,382.695437 L288.371316,380.703637 L291.444334,380.703637 L291.444334,382.695437 L288.371316,382.695437 Z M307.202228,226.043389 L307.202228,224.051588 L310.862287,224.051588 L310.862287,226.043389 L307.202228,226.043389 Z M307.202228,232.348219 L307.202228,230.356419 L310.862287,230.356419 L310.862287,232.348219 L307.202228,232.348219 Z M307.202228,238.654137 L307.202228,236.662337 L310.862287,236.662337 L310.862287,238.654137 L307.202228,238.654137 Z M307.202228,244.961142 L307.202228,242.969342 L310.862287,242.969342 L310.862287,244.961142 L307.202228,244.961142 Z M307.202228,251.26706 L307.202228,249.27526 L310.862287,249.27526 L310.862287,251.26706 L307.202228,251.26706 Z M307.202228,257.572978 L307.202228,255.581178 L310.862287,255.581178 L310.862287,257.572978 L307.202228,257.572978 Z M307.202228,263.877809 L307.202228,261.886009 L310.862287,261.886009 L310.862287,263.877809 L307.202228,263.877809 Z M307.202228,270.183727 L307.202228,268.191927 L310.862287,268.191927 L310.862287,270.183727 L307.202228,270.183727 Z M307.202228,276.490733 L307.202228,274.498932 L310.862287,274.498932 L310.862287,276.490733 L307.202228,276.490733 Z M307.202228,282.79665 L307.202228,280.80485 L310.862287,280.80485 L310.862287,282.79665 L307.202228,282.79665 Z M307.202228,289.102568 L307.202228,287.110768 L310.862287,287.110768 L310.862287,289.102568 L307.202228,289.102568 Z M307.202228,295.407399 L307.202228,293.415598 L310.862287,293.415598 L310.862287,295.407399 L307.202228,295.407399 Z M307.202228,301.713317 L307.202228,299.721516 L310.862287,299.721516 L310.862287,301.713317 L307.202228,301.713317 Z M307.202228,308.020322 L307.202228,306.028521 L310.862287,306.028521 L310.862287,308.020322 L307.202228,308.020322 Z M307.202228,314.32624 L307.202228,312.334439 L310.862287,312.334439 L310.862287,314.32624 L307.202228,314.32624 Z M307.202228,320.632158 L307.202228,318.640357 L310.862287,318.640357 L310.862287,320.632158 L307.202228,320.632158 Z M307.202228,326.936988 L307.202228,324.945188 L310.862287,324.945188 L310.862287,326.936988 L307.202228,326.936988 Z M307.202228,333.242906 L307.202228,331.251106 L310.862287,331.251106 L310.862287,333.242906 L307.202228,333.242906 Z M307.202228,339.549911 L307.202228,337.558112 L310.862287,337.558112 L310.862287,339.549911 L307.202228,339.549911 Z M307.202228,345.855829 L307.202228,343.864029 L310.862287,343.864029 L310.862287,345.855829 L307.202228,345.855829 Z M307.202228,352.161748 L307.202228,350.169947 L310.862287,350.169947 L310.862287,352.161748 L307.202228,352.161748 Z M307.202228,358.466578 L307.202228,356.474778 L310.862287,356.474778 L310.862287,358.466578 L307.202228,358.466578 Z M307.202228,364.772496 L307.202228,362.780696 L310.862287,362.780696 L310.862287,364.772496 L307.202228,364.772496 Z M307.202228,371.079501 L307.202228,369.087701 L310.862287,369.087701 L310.862287,371.079501 L307.202228,371.079501 Z M307.202228,377.385419 L307.202228,375.393619 L310.862287,375.393619 L310.862287,377.385419 L307.202228,377.385419 Z M307.202228,383.691337 L307.202228,381.699537 L310.862287,381.699537 L310.862287,383.691337 L307.202228,383.691337 Z M312.583263,226.043389 L312.583263,224.051588 L316.243322,224.051588 L316.243322,226.043389 L312.583263,226.043389 Z M312.583263,232.348219 L312.583263,230.356419 L316.243322,230.356419 L316.243322,232.348219 L312.583263,232.348219 Z M312.583263,238.654137 L312.583263,236.662337 L316.243322,236.662337 L316.243322,238.654137 L312.583263,238.654137 Z M312.583263,244.961142 L312.583263,242.969342 L316.243322,242.969342 L316.243322,244.961142 L312.583263,244.961142 Z M312.583263,251.26706 L312.583263,249.27526 L316.243322,249.27526 L316.243322,251.26706 L312.583263,251.26706 Z M312.583263,257.572978 L312.583263,255.581178 L316.243322,255.581178 L316.243322,257.572978 L312.583263,257.572978 Z M312.583263,263.877809 L312.583263,261.886009 L316.243322,261.886009 L316.243322,263.877809 L312.583263,263.877809 Z M312.584349,270.183727 L312.584349,268.191927 L316.243322,268.191927 L316.243322,270.183727 L312.584349,270.183727 Z M312.584349,276.490733 L312.584349,274.498932 L316.243322,274.498932 L316.243322,276.490733 L312.584349,276.490733 Z M312.584349,282.79665 L312.584349,280.80485 L316.243322,280.80485 L316.243322,282.79665 L312.584349,282.79665 Z M312.584349,289.102568 L312.584349,287.110768 L316.243322,287.110768 L316.243322,289.102568 L312.584349,289.102568 Z M312.584349,295.407399 L312.584349,293.415598 L316.243322,293.415598 L316.243322,295.407399 L312.584349,295.407399 Z M312.584349,301.713317 L312.584349,299.721516 L316.243322,299.721516 L316.243322,301.713317 L312.584349,301.713317 Z M312.584349,308.020322 L312.584349,306.028521 L316.243322,306.028521 L316.243322,308.020322 L312.584349,308.020322 Z M312.584349,314.32624 L312.584349,312.334439 L316.243322,312.334439 L316.243322,314.32624 L312.584349,314.32624 Z M312.584349,320.632158 L312.584349,318.640357 L316.243322,318.640357 L316.243322,320.632158 L312.584349,320.632158 Z M312.584349,326.936988 L312.584349,324.945188 L316.243322,324.945188 L316.243322,326.936988 L312.584349,326.936988 Z M312.584349,333.242906 L312.584349,331.251106 L316.243322,331.251106 L316.243322,333.242906 L312.584349,333.242906 Z M312.584349,339.549911 L312.584349,337.558112 L316.243322,337.558112 L316.243322,339.549911 L312.584349,339.549911 Z M312.585433,345.855829 L312.585433,343.864029 L316.243322,343.864029 L316.243322,345.855829 L312.585433,345.855829 Z M312.585433,352.161748 L312.585433,350.169947 L316.243322,350.169947 L316.243322,352.161748 L312.585433,352.161748 Z M312.585433,358.466578 L312.585433,356.474778 L316.243322,356.474778 L316.243322,358.466578 L312.585433,358.466578 Z M312.585433,364.772496 L312.585433,362.780696 L316.243322,362.780696 L316.243322,364.772496 L312.585433,364.772496 Z M312.585433,371.079501 L312.585433,369.087701 L316.243322,369.087701 L316.243322,371.079501 L312.585433,371.079501 Z M312.585433,377.385419 L312.585433,375.393619 L316.243322,375.393619 L316.243322,377.385419 L312.585433,377.385419 Z M312.585433,383.691337 L312.585433,381.699537 L316.243322,381.699537 L316.243322,383.691337 L312.585433,383.691337 Z M263.411732,225.953149 L263.411732,223.959174 L267.073961,223.959174 L267.073961,225.953149 L263.411732,225.953149 Z M263.411732,232.257979 L263.411732,230.26618 L267.073961,230.26618 L267.073961,232.257979 L263.411732,232.257979 Z M263.411732,238.564984 L263.411732,236.57101 L267.073961,236.57101 L267.073961,238.564984 L263.411732,238.564984 Z M263.411732,244.871989 L263.411732,242.878015 L267.073961,242.878015 L267.073961,244.871989 L263.411732,244.871989 Z M263.411732,251.176821 L263.411732,249.18502 L267.073961,249.18502 L267.073961,251.176821 L263.411732,251.176821 Z M263.411732,257.482739 L263.411732,255.488764 L267.073961,255.488764 L267.073961,257.482739 L263.411732,257.482739 Z M263.411732,263.787569 L263.411732,261.795769 L267.073961,261.795769 L267.073961,263.787569 L263.411732,263.787569 Z M263.411732,270.094574 L263.411732,268.100599 L267.073961,268.100599 L267.073961,270.094574 L263.411732,270.094574 Z M263.411732,276.40158 L263.411732,274.407605 L267.073961,274.407605 L267.073961,276.40158 L263.411732,276.40158 Z M263.411732,282.70641 L263.411732,280.71461 L267.073961,280.71461 L267.073961,282.70641 L263.411732,282.70641 Z M263.411732,289.012328 L263.411732,287.018353 L267.073961,287.018353 L267.073961,289.012328 L263.411732,289.012328 Z M263.411732,295.319333 L263.411732,293.325358 L267.073961,293.325358 L267.073961,295.319333 L263.411732,295.319333 Z M263.411732,301.624164 L263.411732,299.63019 L267.073961,299.63019 L267.073961,301.624164 L263.411732,301.624164 Z M268.794938,225.953149 L268.794938,223.959174 L272.454997,223.959174 L272.454997,225.953149 L268.794938,225.953149 Z M268.794938,232.259066 L268.794938,230.265092 L272.454997,230.265092 L272.454997,232.259066 L268.794938,232.259066 Z M268.794938,238.564984 L268.794938,236.57101 L272.454997,236.57101 L272.454997,238.564984 L268.794938,238.564984 Z M268.794938,244.871989 L268.794938,242.878015 L272.454997,242.878015 L272.454997,244.871989 L268.794938,244.871989 Z M268.794938,251.177908 L268.794938,249.183933 L272.454997,249.183933 L272.454997,251.177908 L268.794938,251.177908 Z M268.794938,257.482739 L268.794938,255.488764 L272.454997,255.488764 L272.454997,257.482739 L268.794938,257.482739 Z M268.794938,263.788657 L268.794938,261.794682 L272.454997,261.794682 L272.454997,263.788657 L268.794938,263.788657 Z M268.796023,270.094574 L268.796023,268.100599 L272.456082,268.100599 L272.456082,270.094574 L268.796023,270.094574 Z M268.796023,276.40158 L268.796023,274.407605 L272.456082,274.407605 L272.456082,276.40158 L268.796023,276.40158 Z M268.796023,282.707497 L268.796023,280.713522 L272.456082,280.713522 L272.456082,282.707497 L268.796023,282.707497 Z M268.796023,289.012328 L268.796023,287.018353 L272.456082,287.018353 L272.456082,289.012328 L268.796023,289.012328 Z M268.796023,295.318246 L268.796023,293.324272 L272.456082,293.324272 L272.456082,295.318246 L268.796023,295.318246 Z M268.796023,301.624164 L268.796023,299.63019 L272.456082,299.63019 L272.456082,301.624164 L268.796023,301.624164 Z M268.796023,307.931169 L268.796023,305.937195 L272.456082,305.937195 L272.456082,307.931169 L268.796023,307.931169 Z M268.796023,314.237087 L268.796023,312.243113 L272.456082,312.243113 L272.456082,314.237087 L268.796023,314.237087 Z M268.796023,320.541918 L268.796023,318.547943 L272.456082,318.547943 L272.456082,320.541918 L268.796023,320.541918 Z M268.796023,326.847836 L268.796023,324.853861 L272.456082,324.853861 L272.456082,326.847836 L268.796023,326.847836 Z M268.796023,333.153754 L268.796023,331.159779 L272.456082,331.159779 L272.456082,333.153754 L268.796023,333.153754 Z M268.796023,339.460759 L268.796023,337.466784 L272.456082,337.466784 L272.456082,339.460759 L268.796023,339.460759 Z M268.797108,345.766677 L268.797108,343.772702 L272.457167,343.772702 L272.457167,345.766677 L268.797108,345.766677 Z M268.797108,352.071507 L268.797108,350.077532 L272.457167,350.077532 L272.457167,352.071507 L268.797108,352.071507 Z M268.797108,358.377425 L268.797108,356.38345 L272.457167,356.38345 L272.457167,358.377425 L268.797108,358.377425 Z M268.797108,364.683343 L268.797108,362.689368 L272.457167,362.689368 L272.457167,364.683343 L268.797108,364.683343 Z M268.797108,370.990348 L268.797108,368.996373 L272.457167,368.996373 L272.457167,370.990348 L268.797108,370.990348 Z M268.797108,377.296266 L268.797108,375.302292 L272.457167,375.302292 L272.457167,377.296266 L268.797108,377.296266 Z M268.797108,383.601097 L268.797108,381.607123 L272.457167,381.607123 L272.457167,383.601097 L268.797108,383.601097 Z M285.571094,192.976894 C285.21301,192.976894 284.854926,192.823595 284.604266,192.574621 C284.355777,192.323471 284.214714,191.976645 284.214714,191.617861 C284.214714,191.259076 284.355777,190.911163 284.604266,190.649141 C285.11535,190.149017 286.026839,190.149017 286.525987,190.649141 C286.774476,190.911163 286.927476,191.259076 286.927476,191.617861 C286.927476,191.976645 286.774476,192.323471 286.525987,192.574621 C286.275327,192.823595 285.929179,192.976894 285.571094,192.976894 Z M297.952251,265.005699 C297.952251,264.255512 298.55991,263.646665 299.308632,263.646665 C300.05627,263.646665 300.665013,264.255512 300.665013,265.005699 C300.665013,265.754798 300.05627,266.364732 299.308632,266.364732 C298.55991,266.364732 297.952251,265.754798 297.952251,265.005699 Z M297.952251,271.529062 C297.952251,270.778875 298.55991,270.170028 299.308632,270.170028 C300.05627,270.170028 300.665013,270.778875 300.665013,271.529062 C300.665013,272.278161 300.05627,272.888096 299.308632,272.888096 C298.55991,272.888096 297.952251,272.278161 297.952251,271.529062 Z M297.952251,278.052425 C297.952251,277.302239 298.55991,276.693391 299.308632,276.693391 C300.05627,276.693391 300.665013,277.302239 300.665013,278.052425 C300.665013,278.801525 300.05627,279.41146 299.308632,279.41146 C298.55991,279.41146 297.952251,278.801525 297.952251,278.052425 Z M297.952251,284.575789 C297.952251,283.825602 298.55991,283.216755 299.308632,283.216755 C300.05627,283.216755 300.665013,283.825602 300.665013,284.575789 C300.665013,285.324888 300.05627,285.934823 299.308632,285.934823 C298.55991,285.934823 297.952251,285.324888 297.952251,284.575789 Z M297.952251,291.099152 C297.952251,290.348965 298.55991,289.740118 299.308632,289.740118 C300.05627,289.740118 300.665013,290.348965 300.665013,291.099152 C300.665013,291.848252 300.05627,292.458186 299.308632,292.458186 C298.55991,292.458186 297.952251,291.848252 297.952251,291.099152 Z M297.952251,297.622516 C297.952251,296.872329 298.55991,296.263481 299.308632,296.263481 C300.05627,296.263481 300.665013,296.872329 300.665013,297.622516 C300.665013,298.371615 300.05627,298.98155 299.308632,298.98155 C298.55991,298.98155 297.952251,298.371615 297.952251,297.622516 Z M297.952251,304.145879 C297.952251,303.395692 298.55991,302.786845 299.308632,302.786845 C300.05627,302.786845 300.665013,303.395692 300.665013,304.145879 C300.665013,304.894978 300.05627,305.504913 299.308632,305.504913 C298.55991,305.504913 297.952251,304.894978 297.952251,304.145879 Z M297.952251,310.669242 C297.952251,309.919055 298.55991,309.310209 299.308632,309.310209 C300.05627,309.310209 300.665013,309.919055 300.665013,310.669242 C300.665013,311.418342 300.05627,312.028276 299.308632,312.028276 C298.55991,312.028276 297.952251,311.418342 297.952251,310.669242 Z M297.952251,317.192606 C297.952251,316.442419 298.55991,315.833571 299.308632,315.833571 C300.05627,315.833571 300.665013,316.442419 300.665013,317.192606 C300.665013,317.941705 300.05627,318.55164 299.308632,318.55164 C298.55991,318.55164 297.952251,317.941705 297.952251,317.192606 Z M297.952251,323.715969 C297.952251,322.965782 298.55991,322.356935 299.308632,322.356935 C300.05627,322.356935 300.665013,322.965782 300.665013,323.715969 C300.665013,324.465069 300.05627,325.075003 299.308632,325.075003 C298.55991,325.075003 297.952251,324.465069 297.952251,323.715969 Z M297.952251,330.239332 C297.952251,329.489145 298.55991,328.880299 299.308632,328.880299 C300.05627,328.880299 300.665013,329.489145 300.665013,330.239332 C300.665013,330.988432 300.05627,331.598366 299.308632,331.598366 C298.55991,331.598366 297.952251,330.988432 297.952251,330.239332 Z M297.952251,336.762696 C297.952251,336.012509 298.55991,335.403661 299.308632,335.403661 C300.05627,335.403661 300.665013,336.012509 300.665013,336.762696 C300.665013,337.511795 300.05627,338.12173 299.308632,338.12173 C298.55991,338.12173 297.952251,337.511795 297.952251,336.762696 Z M297.952251,343.286059 C297.952251,342.535872 298.55991,341.927025 299.308632,341.927025 C300.05627,341.927025 300.665013,342.535872 300.665013,343.286059 C300.665013,344.035159 300.05627,344.645093 299.308632,344.645093 C298.55991,344.645093 297.952251,344.035159 297.952251,343.286059 Z M297.952251,349.809422 C297.952251,349.059235 298.55991,348.450389 299.308632,348.450389 C300.05627,348.450389 300.665013,349.059235 300.665013,349.809422 C300.665013,350.558522 300.05627,351.168457 299.308632,351.168457 C298.55991,351.168457 297.952251,350.558522 297.952251,349.809422 Z M297.952251,356.332786 C297.952251,355.582599 298.55991,354.973752 299.308632,354.973752 C300.05627,354.973752 300.665013,355.582599 300.665013,356.332786 C300.665013,357.081885 300.05627,357.69182 299.308632,357.69182 C298.55991,357.69182 297.952251,357.081885 297.952251,356.332786 Z M297.952251,362.85615 C297.952251,362.105963 298.55991,361.497115 299.308632,361.497115 C300.05627,361.497115 300.665013,362.105963 300.665013,362.85615 C300.665013,363.605249 300.05627,364.215183 299.308632,364.215183 C298.55991,364.215183 297.952251,363.605249 297.952251,362.85615 Z M297.952251,369.379512 C297.952251,368.629325 298.55991,368.020479 299.308632,368.020479 C300.05627,368.020479 300.665013,368.629325 300.665013,369.379512 C300.665013,370.128612 300.05627,370.738547 299.308632,370.738547 C298.55991,370.738547 297.952251,370.128612 297.952251,369.379512 Z M297.952251,375.902876 C297.952251,375.152689 298.55991,374.543842 299.308632,374.543842 C300.05627,374.543842 300.665013,375.152689 300.665013,375.902876 C300.665013,376.651976 300.05627,377.26191 299.308632,377.26191 C298.55991,377.26191 297.952251,376.651976 297.952251,375.902876 Z M297.952251,382.42624 C297.952251,381.676053 298.55991,381.067205 299.308632,381.067205 C300.05627,381.067205 300.665013,381.676053 300.665013,382.42624 C300.665013,383.175339 300.05627,383.785273 299.308632,383.785273 C298.55991,383.785273 297.952251,383.175339 297.952251,382.42624 Z M279.874294,266.45182 C279.874294,265.701633 280.481953,265.092786 281.230675,265.092786 C281.978312,265.092786 282.587056,265.701633 282.587056,266.45182 C282.587056,267.200919 281.978312,267.810853 281.230675,267.810853 C280.481953,267.810853 279.874294,267.200919 279.874294,266.45182 Z M279.874294,272.975183 C279.874294,272.224996 280.481953,271.616149 281.230675,271.616149 C281.978312,271.616149 282.587056,272.224996 282.587056,272.975183 C282.587056,273.724282 281.978312,274.334217 281.230675,274.334217 C280.481953,274.334217 279.874294,273.724282 279.874294,272.975183 Z M279.874294,279.498546 C279.874294,278.748359 280.481953,278.139512 281.230675,278.139512 C281.978312,278.139512 282.587056,278.748359 282.587056,279.498546 C282.587056,280.247646 281.978312,280.857581 281.230675,280.857581 C280.481953,280.857581 279.874294,280.247646 279.874294,279.498546 Z M279.874294,286.02191 C279.874294,285.271723 280.481953,284.662876 281.230675,284.662876 C281.978312,284.662876 282.587056,285.271723 282.587056,286.02191 C282.587056,286.771009 281.978312,287.380943 281.230675,287.380943 C280.481953,287.380943 279.874294,286.771009 279.874294,286.02191 Z M279.874294,292.545273 C279.874294,291.795086 280.481953,291.186239 281.230675,291.186239 C281.978312,291.186239 282.587056,291.795086 282.587056,292.545273 C282.587056,293.294372 281.978312,293.904307 281.230675,293.904307 C280.481953,293.904307 279.874294,293.294372 279.874294,292.545273 Z M279.874294,299.068636 C279.874294,298.31845 280.481953,297.709602 281.230675,297.709602 C281.978312,297.709602 282.587056,298.31845 282.587056,299.068636 C282.587056,299.817736 281.978312,300.427671 281.230675,300.427671 C280.481953,300.427671 279.874294,299.817736 279.874294,299.068636 Z M279.874294,305.592 C279.874294,304.841813 280.481953,304.232966 281.230675,304.232966 C281.978312,304.232966 282.587056,304.841813 282.587056,305.592 C282.587056,306.341099 281.978312,306.951034 281.230675,306.951034 C280.481953,306.951034 279.874294,306.341099 279.874294,305.592 Z M279.874294,312.115363 C279.874294,311.365176 280.481953,310.756329 281.230675,310.756329 C281.978312,310.756329 282.587056,311.365176 282.587056,312.115363 C282.587056,312.864463 281.978312,313.474397 281.230675,313.474397 C280.481953,313.474397 279.874294,312.864463 279.874294,312.115363 Z M279.874294,318.638727 C279.874294,317.88854 280.481953,317.279692 281.230675,317.279692 C281.978312,317.279692 282.587056,317.88854 282.587056,318.638727 C282.587056,319.387826 281.978312,319.997761 281.230675,319.997761 C280.481953,319.997761 279.874294,319.387826 279.874294,318.638727 Z M279.874294,325.16209 C279.874294,324.411903 280.481953,323.803056 281.230675,323.803056 C281.978312,323.803056 282.587056,324.411903 282.587056,325.16209 C282.587056,325.91119 281.978312,326.521124 281.230675,326.521124 C280.481953,326.521124 279.874294,325.91119 279.874294,325.16209 Z M279.874294,331.685453 C279.874294,330.935266 280.481953,330.32642 281.230675,330.32642 C281.978312,330.32642 282.587056,330.935266 282.587056,331.685453 C282.587056,332.434553 281.978312,333.044487 281.230675,333.044487 C280.481953,333.044487 279.874294,332.434553 279.874294,331.685453 Z M279.874294,338.208817 C279.874294,337.45863 280.481953,336.849782 281.230675,336.849782 C281.978312,336.849782 282.587056,337.45863 282.587056,338.208817 C282.587056,338.957916 281.978312,339.567851 281.230675,339.567851 C280.481953,339.567851 279.874294,338.957916 279.874294,338.208817 Z M279.874294,344.73218 C279.874294,343.981993 280.481953,343.373146 281.230675,343.373146 C281.978312,343.373146 282.587056,343.981993 282.587056,344.73218 C282.587056,345.48128 281.978312,346.091214 281.230675,346.091214 C280.481953,346.091214 279.874294,345.48128 279.874294,344.73218 Z M279.874294,351.255543 C279.874294,350.505356 280.481953,349.89651 281.230675,349.89651 C281.978312,349.89651 282.587056,350.505356 282.587056,351.255543 C282.587056,352.004643 281.978312,352.614577 281.230675,352.614577 C280.481953,352.614577 279.874294,352.004643 279.874294,351.255543 Z M279.874294,357.778907 C279.874294,357.02872 280.481953,356.419872 281.230675,356.419872 C281.978312,356.419872 282.587056,357.02872 282.587056,357.778907 C282.587056,358.528006 281.978312,359.137941 281.230675,359.137941 C280.481953,359.137941 279.874294,358.528006 279.874294,357.778907 Z M279.874294,364.30227 C279.874294,363.552084 280.481953,362.943236 281.230675,362.943236 C281.978312,362.943236 282.587056,363.552084 282.587056,364.30227 C282.587056,365.05137 281.978312,365.661304 281.230675,365.661304 C280.481953,365.661304 279.874294,365.05137 279.874294,364.30227 Z M279.874294,370.825633 C279.874294,370.075446 280.481953,369.4666 281.230675,369.4666 C281.978312,369.4666 282.587056,370.075446 282.587056,370.825633 C282.587056,371.574733 281.978312,372.184668 281.230675,372.184668 C280.481953,372.184668 279.874294,371.574733 279.874294,370.825633 Z M279.874294,377.348997 C279.874294,376.59881 280.481953,375.989963 281.230675,375.989963 C281.978312,375.989963 282.587056,376.59881 282.587056,377.348997 C282.587056,378.098097 281.978312,378.708031 281.230675,378.708031 C280.481953,378.708031 279.874294,378.098097 279.874294,377.348997 Z M279.874294,383.872361 C279.874294,383.122174 280.481953,382.513326 281.230675,382.513326 C281.978312,382.513326 282.587056,383.122174 282.587056,383.872361 C282.587056,384.62146 281.978312,385.231394 281.230675,385.231394 C280.481953,385.231394 279.874294,384.62146 279.874294,383.872361 Z M268.418406,217.165091 L268.418406,211.276668 L271.131169,211.276668 L271.131169,217.165091 L268.418406,217.165091 Z M261.948903,299.591049 L259.23831,299.47689 L259.358756,296.609872 L262.069349,296.724031 L261.948903,299.591049 Z" id="Combined-Shape"></path>
                            <path d="M58.8108514,108.461723 L58.2937989,108.130117 L58.8108514,107.320137 L58.8108514,107.083334 L58.9620152,107.083334 L59.7554353,105.840416 L70.721506,112.872602 L69.5409119,118.781682 L61.5236138,116.913431 L61.5236138,125.578047 L63.9930957,126.227231 L63.5971936,127.740108 L64.5074355,127.740108 C65.2561578,127.740108 65.8638167,128.348955 65.8638167,129.099142 L65.8638167,385.684768 C65.8638167,386.434955 65.2561578,387.043802 64.5074355,387.043802 C63.758713,387.043802 63.1510543,386.434955 63.1510543,385.684768 L63.1510543,130.458176 L2.92772893,130.458176 L2.92772893,187.085319 C2.92772893,187.835506 2.32007014,188.444353 1.57134773,188.444353 C0.8226253,188.444353 0.214966522,187.835506 0.214966522,187.085319 L0.214966522,129.099142 C0.214966522,128.348955 0.8226253,127.740108 1.57134773,127.740108 L6.18304381,127.740108 L6.18304381,111.029969 L58.8108514,124.864909 L58.8108514,108.461723 Z M61.5236138,110.201525 L61.5236138,114.122462 L67.4303827,115.498256 L67.6973185,114.160966 L61.5236138,110.201525 Z M8.89580623,127.740108 L59.0598361,127.740108 L8.89580623,114.552586 L8.89580623,127.740108 Z M1.57134773,193.656411 C0.8226253,193.656411 0.214966522,193.047564 0.214966522,192.297378 L0.214966522,192.01796 C0.214966522,191.267774 0.8226253,190.658926 1.57134773,190.658926 C2.32007014,190.658926 2.92772893,191.267774 2.92772893,192.01796 L2.92772893,192.297378 C2.92772893,193.047564 2.32007014,193.656411 1.57134773,193.656411 Z M1.57134773,387.043802 C0.8226253,387.043802 0.214966522,386.434955 0.214966522,385.684768 L0.214966522,199.405778 C0.214966522,198.655591 0.8226253,198.046744 1.57134773,198.046744 C2.32007014,198.046744 2.92772893,198.655591 2.92772893,199.405778 L2.92772893,385.684768 C2.92772893,386.434955 2.32007014,387.043802 1.57134773,387.043802 Z M8.17225822,143.505447 L8.17225822,140.787378 L57.544534,140.787378 L57.544534,143.505447 L8.17225822,143.505447 Z M8.17225822,151.768373 L8.17225822,149.050306 L57.544534,149.050306 L57.544534,151.768373 L8.17225822,151.768373 Z M8.17225822,160.0313 L8.17225822,157.313232 L57.544534,157.313232 L57.544534,160.0313 L8.17225822,160.0313 Z M8.17225822,168.294227 L8.17225822,165.576159 L57.544534,165.576159 L57.544534,168.294227 L8.17225822,168.294227 Z M8.17225822,176.557154 L8.17225822,173.839086 L57.544534,173.839086 L57.544534,176.557154 L8.17225822,176.557154 Z M8.17225822,184.820082 L8.17225822,182.102013 L57.544534,182.102013 L57.544534,184.820082 L8.17225822,184.820082 Z M8.53468327,191.705492 L8.53468327,188.987423 L29.3318049,188.987423 L29.3318049,191.705492 L8.53468327,191.705492 Z M8.62908741,199.789026 L8.62908741,197.070957 L29.4262091,197.070957 L29.4262091,199.789026 L8.62908741,199.789026 Z M8.72349154,207.87256 L8.72349154,205.154492 L29.5206132,205.154492 L29.5206132,207.87256 L8.72349154,207.87256 Z M8.81789565,215.956095 L8.81789565,213.238026 L29.6150173,213.238026 L29.6150173,215.956095 L8.81789565,215.956095 Z M8.91121471,224.039629 L8.91121471,221.321561 L29.7083364,221.321561 L29.7083364,224.039629 L8.91121471,224.039629 Z M9.00561879,232.122076 L9.00561879,229.404008 L29.8027405,229.404008 L29.8027405,232.122076 L9.00561879,232.122076 Z M9.10002296,240.20561 L9.10002296,237.487543 L29.8982297,237.487543 L29.8982297,240.20561 L9.10002296,240.20561 Z M9.19442712,248.289145 L9.19442712,245.571077 L29.9926339,245.571077 L29.9926339,248.289145 L9.19442712,248.289145 Z M9.28883121,256.372679 L9.28883121,253.654611 L30.087038,253.654611 L30.087038,256.372679 L9.28883121,256.372679 Z M9.38323537,264.456214 L9.38323537,261.738146 L30.1814422,261.738146 L30.1814422,264.456214 L9.38323537,264.456214 Z M9.47763945,272.538661 L9.47763945,269.820593 L30.2758462,269.820593 L30.2758462,272.538661 L9.47763945,272.538661 Z M9.57204362,280.622196 L9.57204362,277.904127 L30.3702504,277.904127 L30.3702504,280.622196 L9.57204362,280.622196 Z M9.66644779,288.70573 L9.66644779,285.987662 L30.4646545,285.987662 L30.4646545,288.70573 L9.66644779,288.70573 Z M9.76085187,296.789265 L9.76085187,294.071197 L30.5590587,294.071197 L30.5590587,296.789265 L9.76085187,296.789265 Z M9.85525604,304.871712 L9.85525604,302.153644 L30.6534628,302.153644 L30.6534628,304.871712 L9.85525604,304.871712 Z M9.94966012,312.955246 L9.94966012,310.237178 L30.7478669,310.237178 L30.7478669,312.955246 L9.94966012,312.955246 Z M10.0429792,321.03878 L10.0429792,318.320713 L30.841186,318.320713 L30.841186,321.03878 L10.0429792,321.03878 Z M10.1373833,329.122315 L10.1373833,326.404247 L30.93559,326.404247 L30.93559,329.122315 L10.1373833,329.122315 Z M10.2328725,337.20585 L10.2328725,334.487781 L31.0299942,334.487781 L31.0299942,337.20585 L10.2328725,337.20585 Z M10.3272767,345.288297 L10.3272767,342.570228 L31.1243984,342.570228 L31.1243984,345.288297 L10.3272767,345.288297 Z M10.4216808,353.371831 L10.4216808,350.653763 L31.2188025,350.653763 L31.2188025,353.371831 L10.4216808,353.371831 Z M10.516085,361.455366 L10.516085,358.737298 L31.3132066,358.737298 L31.3132066,361.455366 L10.516085,361.455366 Z M10.610489,369.5389 L10.610489,366.820832 L31.4076107,366.820832 L31.4076107,369.5389 L10.610489,369.5389 Z M10.7048932,377.621347 L10.7048932,374.903279 L31.5020149,374.903279 L31.5020149,377.621347 L10.7048932,377.621347 Z M35.6623073,191.705492 L35.6623073,188.987423 L56.4594289,188.987423 L56.4594289,191.705492 L35.6623073,191.705492 Z M35.7567114,199.789026 L35.7567114,197.070957 L56.5538331,197.070957 L56.5538331,199.789026 L35.7567114,199.789026 Z M35.8511156,207.87256 L35.8511156,205.154492 L56.6482373,205.154492 L56.6482373,207.87256 L35.8511156,207.87256 Z M35.9455197,215.956095 L35.9455197,213.238026 L56.7426413,213.238026 L56.7426413,215.956095 L35.9455197,215.956095 Z M36.0388387,224.039629 L36.0388387,221.321561 L56.8359604,221.321561 L56.8359604,224.039629 L36.0388387,224.039629 Z M36.1332428,232.122076 L36.1332428,229.404008 L56.9303645,229.404008 L56.9303645,232.122076 L36.1332428,232.122076 Z M36.227647,240.20561 L36.227647,237.487543 L57.0258538,237.487543 L57.0258538,240.20561 L36.227647,240.20561 Z M36.3220511,248.289145 L36.3220511,245.571077 L57.1202579,245.571077 L57.1202579,248.289145 L36.3220511,248.289145 Z M36.4164552,256.372679 L36.4164552,253.654611 L57.214662,253.654611 L57.214662,256.372679 L36.4164552,256.372679 Z M36.5108594,264.456214 L36.5108594,261.738146 L57.3090662,261.738146 L57.3090662,264.456214 L36.5108594,264.456214 Z M36.6052635,272.538661 L36.6052635,269.820593 L57.4034703,269.820593 L57.4034703,272.538661 L36.6052635,272.538661 Z M36.6996676,280.622196 L36.6996676,277.904127 L57.4978744,277.904127 L57.4978744,280.622196 L36.6996676,280.622196 Z M36.7940717,288.70573 L36.7940717,285.987662 L57.5922785,285.987662 L57.5922785,288.70573 L36.7940717,288.70573 Z M36.8884759,296.789265 L36.8884759,294.071197 L57.6866827,294.071197 L57.6866827,296.789265 L36.8884759,296.789265 Z M36.9828801,304.871712 L36.9828801,302.153644 L57.7810868,302.153644 L57.7810868,304.871712 L36.9828801,304.871712 Z M37.0772841,312.955246 L37.0772841,310.237178 L57.8754909,310.237178 L57.8754909,312.955246 L37.0772841,312.955246 Z M37.1706032,321.03878 L37.1706032,318.320713 L57.96881,318.320713 L57.96881,321.03878 L37.1706032,321.03878 Z M37.2650073,329.122315 L37.2650073,326.404247 L58.0632141,326.404247 L58.0632141,329.122315 L37.2650073,329.122315 Z M37.3604966,337.20585 L37.3604966,334.487781 L58.1576182,334.487781 L58.1576182,337.20585 L37.3604966,337.20585 Z M37.4549007,345.288297 L37.4549007,342.570228 L58.2520223,342.570228 L58.2520223,345.288297 L37.4549007,345.288297 Z M37.5493048,353.371831 L37.5493048,350.653763 L58.3464265,350.653763 L58.3464265,353.371831 L37.5493048,353.371831 Z M37.643709,361.455366 L37.643709,358.737298 L58.4408307,358.737298 L58.4408307,361.455366 L37.643709,361.455366 Z M37.7381131,369.5389 L37.7381131,366.820832 L58.5352347,366.820832 L58.5352347,369.5389 L37.7381131,369.5389 Z M37.8325172,377.621347 L37.8325172,374.903279 L58.6296389,374.903279 L58.6296389,377.621347 L37.8325172,377.621347 Z" id="Combined-Shape"></path>
                            <path d="M161.051068,386.502363 L158.338306,386.502363 L158.338306,300.246103 L270.467627,300.246103 L270.467627,386.500188 L267.754865,386.500188 L267.754865,302.964172 L161.051068,302.964172 L161.051068,386.502363 Z M170.684522,327.68163 L168.762801,325.808338 L170.680181,323.820887 L172.627945,325.714836 L170.684522,327.68163 Z M170.684522,334.239024 L168.762801,332.365732 L170.680181,330.37828 L172.627945,332.27223 L170.684522,334.239024 Z M170.684522,340.796309 L168.762801,338.923016 L170.680181,336.935565 L172.627945,338.829514 L170.684522,340.796309 Z M170.684522,347.353702 L168.762801,345.48041 L170.680181,343.492958 L172.627945,345.386908 L170.684522,347.353702 Z M170.684522,353.910987 L168.762801,352.037695 L170.680181,350.050244 L172.627945,351.944193 L170.684522,353.910987 Z M170.684522,360.468381 L168.762801,358.595089 L170.680181,356.607636 L172.627945,358.501586 L170.684522,360.468381 Z M170.684522,367.025666 L168.762801,365.152373 L170.680181,363.164922 L172.627945,365.058872 L170.684522,367.025666 Z M170.684522,373.583059 L168.762801,371.709767 L170.680181,369.722315 L172.627945,371.616265 L170.684522,373.583059 Z M170.684522,380.140344 L168.762801,378.267052 L170.680181,376.2796 L172.627945,378.17355 L170.684522,380.140344 Z M170.684522,386.697738 L168.762801,384.824445 L170.680181,382.836994 L172.627945,384.730943 L170.684522,386.697738 Z M182.260421,313.186717 L180.3387,311.313424 L182.256081,309.325973 L184.203845,311.219923 L182.260421,313.186717 Z M182.260421,319.744002 L180.3387,317.870709 L182.256081,315.883258 L184.203845,317.777208 L182.260421,319.744002 Z M182.260421,326.301395 L180.3387,324.428103 L182.256081,322.440651 L184.203845,324.334601 L182.260421,326.301395 Z M182.260421,332.85868 L180.3387,330.985387 L182.256081,328.997936 L184.203845,330.891886 L182.260421,332.85868 Z M182.260421,339.416073 L180.3387,337.542781 L182.256081,335.55533 L184.203845,337.44928 L182.260421,339.416073 Z M182.260421,345.973359 L180.3387,344.100066 L182.256081,342.112614 L184.203845,344.006565 L182.260421,345.973359 Z M182.260421,352.530752 L180.3387,350.65746 L182.256081,348.670008 L184.203845,350.563958 L182.260421,352.530752 Z M182.260421,359.088037 L180.3387,357.214744 L182.256081,355.227293 L184.203845,357.121243 L182.260421,359.088037 Z M182.260421,365.64543 L180.3387,363.772138 L182.256081,361.784687 L184.203845,363.678637 L182.260421,365.64543 Z M182.260421,372.202716 L180.3387,370.329423 L182.256081,368.341971 L184.203845,370.235921 L182.260421,372.202716 Z M182.260421,378.760109 L180.3387,376.886816 L182.256081,374.899365 L184.203845,376.793315 L182.260421,378.760109 Z M182.260421,385.317394 L180.3387,383.444101 L182.256081,381.45665 L184.203845,383.3506 L182.260421,385.317394 Z M192.386621,327.68163 L190.4649,325.808338 L192.382281,323.820887 L194.330044,325.714836 L192.386621,327.68163 Z M192.386621,334.239024 L190.4649,332.365732 L192.382281,330.37828 L194.330044,332.27223 L192.386621,334.239024 Z M192.386621,340.796309 L190.4649,338.923016 L192.382281,336.935565 L194.330044,338.829514 L192.386621,340.796309 Z M192.386621,347.353702 L190.4649,345.48041 L192.382281,343.492958 L194.330044,345.386908 L192.386621,347.353702 Z M192.386621,353.910987 L190.4649,352.037695 L192.382281,350.050244 L194.330044,351.944193 L192.386621,353.910987 Z M192.386621,360.468381 L190.4649,358.595089 L192.382281,356.607636 L194.330044,358.501586 L192.386621,360.468381 Z M192.386621,367.025666 L190.4649,365.152373 L192.382281,363.164922 L194.330044,365.058872 L192.386621,367.025666 Z M192.386621,373.583059 L190.4649,371.709767 L192.382281,369.722315 L194.330044,371.616265 L192.386621,373.583059 Z M192.386621,380.140344 L190.4649,378.267052 L192.382281,376.2796 L194.330044,378.17355 L192.386621,380.140344 Z M192.386621,386.697738 L190.4649,384.824445 L192.382281,382.836994 L194.330044,384.730943 L192.386621,386.697738 Z M205.40788,317.535626 L203.486159,315.662333 L205.40354,313.674882 L207.351304,315.568832 L205.40788,317.535626 Z M205.40788,324.09291 L203.486159,322.219618 L205.40354,320.232167 L207.351304,322.126117 L205.40788,324.09291 Z M205.40788,330.650304 L203.486159,328.777012 L205.40354,326.789561 L207.351304,328.683511 L205.40788,330.650304 Z M205.40788,337.207589 L203.486159,335.334296 L205.40354,333.346845 L207.351304,335.240795 L205.40788,337.207589 Z M205.40788,343.764983 L203.486159,341.89169 L205.40354,339.904239 L207.351304,341.798189 L205.40788,343.764983 Z M205.40788,350.322267 L203.486159,348.448975 L205.40354,346.461524 L207.351304,348.355474 L205.40788,350.322267 Z M205.40788,356.879661 L203.486159,355.006369 L205.40354,353.018917 L207.351304,354.912867 L205.40788,356.879661 Z M205.40788,363.436946 L203.486159,361.563653 L205.40354,359.576202 L207.351304,361.470152 L205.40788,363.436946 Z M205.40788,369.994339 L203.486159,368.121047 L205.40354,366.133596 L207.351304,368.027546 L205.40788,369.994339 Z M205.40788,376.551624 L203.486159,374.678332 L205.40354,372.69088 L207.351304,374.58483 L205.40788,376.551624 Z M205.40788,383.109018 L203.486159,381.235725 L205.40354,379.248274 L207.351304,381.142224 L205.40788,383.109018 Z M215.53625,318.985987 L213.614529,317.112694 L215.53191,315.125243 L217.479673,317.019193 L215.53625,318.985987 Z M215.53625,325.543272 L213.614529,323.669979 L215.53191,321.682528 L217.479673,323.576478 L215.53625,325.543272 Z M215.53625,332.100665 L213.614529,330.227373 L215.53191,328.239921 L217.479673,330.133872 L215.53625,332.100665 Z M215.53625,338.657951 L213.614529,336.784657 L215.53191,334.797206 L217.479673,336.691156 L215.53625,338.657951 Z M215.53625,345.215343 L213.614529,343.342051 L215.53191,341.3546 L217.479673,343.24855 L215.53625,345.215343 Z M215.53625,351.772629 L213.614529,349.899336 L215.53191,347.911885 L217.479673,349.805835 L215.53625,351.772629 Z M215.53625,358.330022 L213.614529,356.45673 L215.53191,354.469278 L217.479673,356.363228 L215.53625,358.330022 Z M215.53625,364.887307 L213.614529,363.014014 L215.53191,361.026563 L217.479673,362.920513 L215.53625,364.887307 Z M215.53625,371.4447 L213.614529,369.571408 L215.53191,367.583957 L217.479673,369.477907 L215.53625,371.4447 Z M215.53625,378.001986 L213.614529,376.128693 L215.53191,374.141241 L217.479673,376.035191 L215.53625,378.001986 Z M215.53625,384.559379 L213.614529,382.686086 L215.53191,380.698635 L217.479673,382.592585 L215.53625,384.559379 Z M225.075408,335.843228 L223.153687,333.969935 L225.071067,331.982484 L227.018831,333.876434 L225.075408,335.843228 Z M225.075408,342.400621 L223.153687,340.527329 L225.071067,338.539877 L227.018831,340.433827 L225.075408,342.400621 Z M225.075408,348.957906 L223.153687,347.084613 L225.071067,345.097162 L227.018831,346.991112 L225.075408,348.957906 Z M225.075408,355.515299 L223.153687,353.642007 L225.071067,351.654556 L227.018831,353.548506 L225.075408,355.515299 Z M225.075408,362.072585 L223.153687,360.199292 L225.071067,358.21184 L227.018831,360.10579 L225.075408,362.072585 Z M225.075408,368.629978 L223.153687,366.756685 L225.071067,364.769234 L227.018831,366.663184 L225.075408,368.629978 Z M225.075408,375.187263 L223.153687,373.31397 L225.071067,371.326519 L227.018831,373.220469 L225.075408,375.187263 Z M225.075408,381.744656 L223.153687,379.871364 L225.071067,377.883913 L227.018831,379.777863 L225.075408,381.744656 Z M225.075408,388.301942 L223.153687,386.428648 L225.071067,384.441197 L227.018831,386.335147 L225.075408,388.301942 Z" id="Combined-Shape"></path>
                            <path d="M216.728347,51.0736276 C216.713155,51.0736276 216.703389,51.0736276 216.690368,51.0736276 L215.452263,51.0399236 C214.704625,51.0203535 214.113244,50.3951979 214.13169,49.6460983 C214.153393,48.8948243 214.759966,48.2870643 215.524965,48.3229428 L216.761985,48.3555595 C217.512877,48.3762169 218.102089,49.0002854 218.082558,49.7504721 C218.06194,50.4886994 217.459708,51.0736276 216.728347,51.0736276 Z M223.762539,51.1988762 L223.747348,51.1988762 C223.077838,51.1912657 222.512499,51.1749572 221.990563,51.1608232 C221.407861,51.1445149 220.878331,51.1303809 220.305395,51.1303809 C219.557758,51.1303809 218.949014,50.5215336 218.949014,49.7713469 C218.949014,49.0200728 219.557758,48.4123128 220.305395,48.4123128 C220.903288,48.4123128 221.456691,48.4264468 222.065436,48.4438424 C222.092563,48.4449296 222.119691,48.4449296 222.147903,48.4460169 C222.068691,47.2544159 222.283541,46.149793 222.785945,45.1473695 C223.626901,43.4599928 225.16341,42.283613 226.998322,41.9183046 C228.047619,41.7117314 229.099086,41.7780523 230.06917,42.0966098 C230.739764,37.891215 233.02174,35.6700097 234.965163,34.5186361 C238.108712,32.6540414 242.512068,32.508353 245.666468,34.1576767 C248.501848,35.6395674 250.33676,38.1760685 251.184227,39.5644577 C252.142374,39.3752801 253.620288,39.1871898 255.162222,39.3807162 C257.42575,39.6633953 259.428854,40.7984605 260.660448,42.4923606 C261.81283,44.0829741 262.303297,46.0758615 262.116659,48.4340574 C263.395998,48.4427552 264.251061,48.4123128 264.262997,48.4123128 C265.01389,48.3644748 265.63891,48.977671 265.661698,49.7278578 C265.68557,50.4780446 265.096357,51.1053747 264.349806,51.1292937 C264.280358,51.1314681 262.646191,51.1825678 260.533491,51.1292937 C260.136343,51.1195087 259.761982,50.93468 259.511323,50.623733 C259.261749,50.3138733 259.159748,49.9083375 259.235705,49.5158485 C259.670833,47.2207118 259.412578,45.3963445 258.466366,44.0905846 C257.343283,42.5445475 255.546349,42.1672796 254.823669,42.0770398 C252.867225,41.829152 250.925972,42.4162547 250.909695,42.422778 C250.262973,42.6228278 249.569591,42.3227531 249.279868,41.7139059 C249.262506,41.6812891 247.558891,38.2130342 244.411002,36.5680594 C242.411154,35.5221468 239.000668,35.2873057 236.345416,36.8583491 C233.964696,38.2684828 232.667996,40.8495602 232.592039,44.3243384 C232.579017,44.8505565 232.265422,45.3235003 231.784721,45.5365968 C231.302933,45.7507806 230.744105,45.6659769 230.344786,45.3202386 C229.575447,44.6505066 228.545682,44.3819615 227.524598,44.585273 C226.502429,44.7874972 225.683176,45.4202635 225.210069,46.3661512 C224.773857,47.235933 224.729368,48.2524904 225.070091,49.4723594 C225.185112,49.8855057 225.099389,50.3280073 224.838963,50.6672221 C224.582879,51.0020881 224.186816,51.1988762 223.762539,51.1988762 Z M271.555879,51.1283152 C271.415901,51.1283152 271.271582,51.1054834 271.127262,51.0587327 L270.964497,51.0043713 C270.254838,50.7662685 269.870711,49.9965116 270.108349,49.2843778 C270.343817,48.5733312 271.108816,48.1884528 271.822814,48.4254683 L271.98558,48.4787424 C272.696324,48.7168452 273.079367,49.4866021 272.843899,50.1987359 C272.656176,50.7673557 272.125559,51.1283152 271.555879,51.1283152 Z" id="Combined-Shape"></path>
                            <path d="M160.718266,33.9126157 C160.360183,33.9126157 160.012949,33.7604038 159.764459,33.5103416 C159.514886,33.2602793 159.361886,32.9123665 159.361886,32.5535816 C159.361886,32.1947966 159.514886,31.8468839 159.764459,31.5859494 C160.275544,31.0858248 161.174011,31.0858248 161.685096,31.5859494 C161.934669,31.8468839 162.074648,32.1947966 162.074648,32.5535816 C162.074648,32.9014943 161.934669,33.2602793 161.685096,33.5103416 C161.423585,33.7604038 161.076351,33.9126157 160.718266,33.9126157 Z M155.672204,34.1302785 C155.32714,34.1302785 154.966885,33.9780667 154.718396,33.7280044 C154.468822,33.4779422 154.315822,33.1300295 154.315822,32.7712444 C154.315822,32.4124595 154.468822,32.0645468 154.718396,31.8036122 C155.218629,31.3034877 156.127947,31.3034877 156.639032,31.8036122 C156.888606,32.0645468 157.041606,32.4124595 157.041606,32.7712444 C157.041606,33.1300295 156.888606,33.4779422 156.639032,33.7280044 C156.377521,33.9889389 156.032458,34.1302785 155.672204,34.1302785 Z M171.336235,34.0708072 L171.318874,34.0708072 C170.45079,34.0599349 169.719429,34.0403648 169.043409,34.021882 C168.27841,34.0001375 167.585028,33.9805673 166.83088,33.9805673 C166.082158,33.9805673 165.474499,33.3717201 165.474499,32.6215333 C165.474499,31.8713465 166.082158,31.2624993 166.83088,31.2624993 C167.607815,31.2624993 168.32724,31.2820694 169.119367,31.3049011 C169.299494,31.3092501 169.488302,31.3146862 169.681451,31.3201223 C169.494813,29.6686241 169.742217,28.1508549 170.422578,26.7896465 C171.465364,24.7043446 173.362127,23.2507218 175.625655,22.8016969 C177.084037,22.5114073 178.550014,22.6570958 179.872757,23.1920116 C180.619309,17.5503895 183.596836,14.6170504 186.118621,13.1210257 C190.096615,10.7660915 195.662118,10.5736524 199.655305,12.6600414 C203.442321,14.6409694 205.826297,18.1016136 206.826764,19.7966009 C208.020379,19.5411025 210.0441,19.2399405 212.1568,19.505224 C214.986753,19.8574856 217.491175,21.2719682 219.027684,23.3844507 C220.543575,25.4697526 221.140383,28.1236742 220.812682,31.2885927 C222.700764,31.3059884 224.046295,31.2635865 224.063656,31.2624993 C224.790676,31.2211846 225.438484,31.8278574 225.462356,32.5780442 C225.485144,33.328231 224.898102,33.9566483 224.150464,33.9805673 C224.061486,33.9827418 221.952042,34.0479754 219.209982,33.9805673 C218.811748,33.9707823 218.438472,33.7859536 218.188897,33.4750067 C217.938239,33.1651469 217.837324,32.7596112 217.911111,32.3682093 C218.500323,29.2630884 218.137898,26.7787742 216.834687,24.9848492 C215.738731,23.4768651 213.909244,22.4624821 211.822587,22.2015476 C209.16191,21.8677688 206.566339,22.658183 206.540296,22.6668808 C205.894659,22.8647561 205.205617,22.5635942 204.912638,21.9558342 C204.894192,21.9112578 202.626322,17.2796699 198.397669,15.0693369 C195.778225,13.7005178 191.250082,13.2384463 187.499959,15.4607387 C184.275027,17.3731715 182.516072,20.8533858 182.414072,25.5252012 C182.401051,26.0525064 182.087455,26.524363 181.606754,26.7374595 C181.127138,26.9505561 180.563969,26.8668396 180.167905,26.5200141 C179.069779,25.5632541 177.607057,25.1816373 176.150846,25.4686654 C174.716338,25.7535189 173.512956,26.6787492 172.849957,28.007341 C172.234703,29.232646 172.169597,30.6514776 172.641617,32.3442903 C172.758808,32.7574367 172.670915,33.1999382 172.41266,33.5391531 C172.156575,33.8740191 171.758342,34.0708072 171.336235,34.0708072 Z M229.768704,33.9811109 C229.624385,33.9811109 229.477895,33.9582792 229.334662,33.909354 L229.119812,33.8365097 C228.410152,33.5962325 228.030366,32.8253884 228.272344,32.1143418 C228.509982,31.402208 229.279322,31.0184168 229.99115,31.2619556 L230.202746,31.3337126 C230.91349,31.5750771 231.294361,32.3459212 231.053468,33.0569678 C230.862489,33.6234132 230.334043,33.9811109 229.768704,33.9811109 Z M200.748548,28.8003645 C200.170188,28.8003645 199.608103,28.3937415 199.403018,27.8370811 C199.143678,27.1325579 199.506103,26.3519288 200.210336,26.0931686 C200.76374,25.8887699 201.371398,26.0714241 201.727313,26.510664 C201.90744,26.7107138 202.028973,26.9672994 202.06261,27.2565018 C202.142909,27.9403677 201.698015,28.6079252 201.030676,28.7677477 C200.935186,28.7894922 200.844038,28.8003645 200.748548,28.8003645 Z" id="Combined-Shape"></path>
                            <path d="M316.582418,113.27966 C315.848887,113.27966 315.245569,112.693644 315.226037,111.956505 C315.208675,111.20523 315.800057,110.583336 316.54878,110.561591 L317.783629,110.530062 C318.559479,110.544196 319.155202,111.105205 319.176904,111.854305 C319.195351,112.604492 318.603968,113.22856 317.854161,113.24813 L316.618226,113.27966 L316.582418,113.27966 Z M309.546164,113.407083 C309.124057,113.407083 308.727994,113.209208 308.469739,112.876516 C308.209314,112.536213 308.123591,112.092625 308.240782,111.680566 C308.581505,110.45961 308.537016,109.443053 308.100803,108.574357 C307.625527,107.627382 306.804103,106.994616 305.784104,106.792393 C304.763021,106.589081 303.733256,106.858713 302.963917,107.527357 C302.566768,107.873096 302.005769,107.9579 301.523982,107.743716 C301.043281,107.531707 300.729685,107.057676 300.716664,106.531458 C300.642877,103.056679 299.344006,100.476689 296.963286,99.0676428 C294.310205,97.4933381 290.897549,97.7292662 288.897701,98.7740916 C285.724854,100.432113 284.046197,103.885147 284.028835,103.918851 C283.739112,104.528785 283.04356,104.829947 282.401177,104.630985 C282.387071,104.624461 280.453414,104.040621 278.485033,104.284159 C277.762354,104.375486 275.96759,104.751667 274.844507,106.297704 C273.896125,107.603464 273.63787,109.427831 274.075167,111.722968 C274.148955,112.114369 274.046954,112.519906 273.799551,112.83194 C273.546721,113.1418 273.173445,113.326628 272.775212,113.3375 C270.660342,113.385338 269.028344,113.339675 268.961067,113.335326 C268.212345,113.311407 267.625303,112.685164 267.649176,111.934977 C267.671963,111.183703 268.292643,110.559635 269.045706,110.619432 C269.057642,110.619432 269.922471,110.64009 271.192043,110.64009 C271.007575,108.282981 271.495873,106.289006 272.650425,104.698393 C273.882018,103.004493 275.885122,101.870514 278.147566,101.587835 C279.686245,101.394309 281.166328,101.583487 282.125561,101.772664 C282.971942,100.383188 284.806855,97.8477734 287.642235,96.363709 C290.800975,94.7165591 295.19999,94.8622478 298.345709,96.7268427 C300.286963,97.8782159 302.568939,100.099422 303.240618,104.303729 C304.211787,103.985172 305.263254,103.916676 306.31038,104.125424 C308.145293,104.490733 309.681802,105.667112 310.524928,107.355576 C311.027332,108.356913 311.241097,109.461535 311.1608,110.653136 C311.184672,110.653136 311.205288,110.650962 311.226991,110.650962 C311.843331,110.633566 312.401074,110.619432 313.003308,110.619432 C313.753115,110.619432 314.359689,111.226105 314.359689,111.978466 C314.359689,112.727566 313.753115,113.3375 313.003308,113.3375 C312.426032,113.3375 311.89216,113.351634 311.302948,113.369029 C310.786438,113.382077 310.226524,113.398385 309.563525,113.407083 L309.546164,113.407083 Z M261.752824,113.334891 C261.185314,113.334891 260.654697,112.973931 260.464804,112.405312 C260.229336,111.693178 260.612378,110.922334 261.323122,110.686406 L261.485888,110.632044 C262.195547,110.393941 262.964886,110.779907 263.200354,111.49204 C263.437992,112.203087 263.053865,112.973931 262.344206,113.20986 L262.18144,113.265308 C262.039291,113.312059 261.894973,113.334891 261.752824,113.334891 Z" id="Combined-Shape"></path>
                            <path d="M12.3671364,74.0857736 L9.60229684,71.3884277 L7.46108043,71.3928173 L7.44805917,68.6747493 L9.55941619,68.6704342 L12.4224946,65.6345512 L12.3989591,63.7434127 L15.1117215,63.7097087 L15.1346798,65.5954602 L17.8945999,68.6698906 L20.0099938,68.673662 L19.9969725,71.3917301 L17.706201,71.3876335 L15.0801951,74.2140619 C15.0814232,74.7503608 15.0838343,74.9460849 15.0838343,74.9533778 L15.1044512,76.3124118 L12.3927739,76.3537264 L12.3710719,74.9946925 C12.3710719,74.9946925 12.3682143,74.7627716 12.3671364,74.0857736 Z M12.0515085,69.9848581 L13.7572934,71.6483157 L15.3665041,69.91745 L13.7811657,68.1517929 L12.0515085,69.9848581 Z" id="Combined-Shape"></path>
                            <path d="M157.242429,94.1315258 L154.477589,91.4341795 L152.336265,91.4385696 L152.323243,88.720501 L154.43471,88.7161858 L157.297788,85.6803034 L157.274252,83.7891648 L159.987015,83.7554607 L160.009973,85.6412125 L162.769893,88.7156425 L164.885287,88.7194137 L164.872266,91.4374823 L162.581494,91.4333855 L159.955488,94.2598133 C159.956716,94.7961127 159.959127,94.9918372 159.959127,94.9991299 L159.979745,96.3581642 L157.268067,96.3994788 L157.246365,95.0404445 C157.246365,95.0404445 157.243507,94.8085237 157.242429,94.1315258 Z M156.926801,90.0306105 L158.632587,91.6940681 L160.241797,89.9632018 L158.656459,88.1975446 L156.926801,90.0306105 Z" id="Combined-Shape"></path>
                            <path d="M72.2244342,32.8563366 L70.0542243,32.8563366 C69.3065869,32.8563366 68.6978431,32.2474893 68.6978431,31.4973025 C68.6978431,30.7471158 69.3065869,30.1382685 70.0542243,30.1382685 L72.2244342,30.1382685 L72.2244342,28.2356209 C72.2244342,27.485434 72.833178,26.8765868 73.5808154,26.8765868 C74.3306229,26.8765868 74.9371966,27.485434 74.9371966,28.2356209 L74.9371966,30.1382685 L77.1074065,30.1382685 C77.857214,30.1382685 78.4637877,30.7471158 78.4637877,31.4973025 C78.4637877,32.2474893 77.857214,32.8563366 77.1074065,32.8563366 L74.9371966,32.8563366 L74.9371966,34.7589842 C74.9371966,35.509171 74.3306229,36.1180182 73.5808154,36.1180182 C72.833178,36.1180182 72.2244342,35.509171 72.2244342,34.7589842 L72.2244342,32.8563366 Z" id="Combined-Shape"></path>
                            <path d="M110.669971,60.9266244 L108.499761,60.9266244 C107.752124,60.9266244 107.143379,60.3177771 107.143379,59.5675904 C107.143379,58.8174036 107.752124,58.2085563 108.499761,58.2085563 L110.669971,58.2085563 L110.669971,56.3059087 C110.669971,55.5557219 111.278715,54.9468747 112.026352,54.9468747 C112.776159,54.9468747 113.382733,55.5557219 113.382733,56.3059087 L113.382733,58.2085563 L115.552943,58.2085563 C116.302751,58.2085563 116.909324,58.8174036 116.909324,59.5675904 C116.909324,60.3177771 116.302751,60.9266244 115.552943,60.9266244 L113.382733,60.9266244 L113.382733,62.8292721 C113.382733,63.5794589 112.776159,64.1883061 112.026352,64.1883061 C111.278715,64.1883061 110.669971,63.5794589 110.669971,62.8292721 L110.669971,60.9266244 Z" id="Combined-Shape"></path>
                            <path d="M147.896233,153.037277 L145.726023,153.037277 C144.978385,153.037277 144.369642,152.429517 144.369642,151.678242 C144.369642,150.929143 144.978385,150.319208 145.726023,150.319208 L147.896233,150.319208 L147.896233,148.416561 C147.896233,147.667461 148.504976,147.057526 149.252613,147.057526 C150.002422,147.057526 150.608995,147.667461 150.608995,148.416561 L150.608995,150.319208 L152.779205,150.319208 C153.529012,150.319208 154.135586,150.929143 154.135586,151.678242 C154.135586,152.429517 153.529012,153.037277 152.779205,153.037277 L150.608995,153.037277 L150.608995,154.939924 C150.608995,155.691198 150.002422,156.298958 149.252613,156.298958 C148.504976,156.298958 147.896233,155.691198 147.896233,154.939924 L147.896233,153.037277 Z" id="Combined-Shape"></path>
                            <path d="M58.0837226,86.7280487 C57.5042765,86.7280487 56.9411071,86.3214257 56.7381925,85.7647654 C56.4788524,85.0602421 56.8401923,84.2796129 57.5433403,84.0208528 C58.1010843,83.8164541 58.7065728,84.0001955 59.0614021,84.4383482 C59.2404445,84.6383979 59.3641464,84.8949836 59.3966996,85.184186 C59.4769973,85.8680519 59.0331894,86.5356094 58.3636796,86.6954319 C58.2703607,86.7171764 58.1770416,86.7280487 58.0837226,86.7280487" id="Fill-401"></path>
                            <path d="M112.541342,93.1574757 C111.961896,93.1574757 111.399812,92.7519402 111.196898,92.1952794 C110.937557,91.4907562 111.297812,90.7101268 112.002045,90.4513673 C112.555449,90.2480554 113.153342,90.4263604 113.511426,90.8547282 C113.694809,91.0580401 113.821767,91.3200615 113.85649,91.6147 C113.934617,92.2985663 113.489724,92.9650368 112.822385,93.1248586 C112.729066,93.1466036 112.634662,93.1574757 112.541342,93.1574757" id="Fill-402"></path>
                            <path d="M159.821862,121.571942 C159.2435,121.571942 158.681416,121.166406 158.478502,120.609745 C158.219161,119.905222 158.578331,119.124594 159.283649,118.865833 C159.835968,118.662521 160.433861,118.840827 160.79303,119.269194 C160.976414,119.472506 161.102285,119.734527 161.137008,120.029166 C161.215137,120.713032 160.771328,121.379503 160.102904,121.539325 C160.01067,121.56107 159.916266,121.571942 159.821862,121.571942" id="Fill-403"></path>
                            <path d="M122.104915,3.01155206 C121.525469,3.01155206 120.9623,2.60492907 120.759385,2.04826873 C120.500045,1.34374549 120.861385,0.563116337 121.564533,0.304356256 C122.122277,0.0988703098 122.727766,0.284786166 123.082595,0.721851512 C123.261637,0.921901322 123.385339,1.17848694 123.417892,1.46768939 C123.49819,2.15155532 123.054382,2.81911284 122.384873,2.97893524 C122.291553,3.00067978 122.198234,3.01155206 122.104915,3.01155206" id="Fill-404"></path>
                            <path d="M134.328189,107.804274 L132.853531,107.685767 L131.512341,107.479193 L131.926851,104.793743 L133.227892,104.993793 L134.536529,105.093817 L134.328189,107.804274 Z M127.178432,108.757773 L126.134561,106.24954 L127.527836,105.675484 L128.825622,105.275384 L129.623173,107.873857 L128.381814,108.256561 L127.178432,108.757773 Z M138.235652,110.080928 L136.074123,108.506624 L137.537929,106.316948 L138.7348,107.083443 L139.830756,107.882555 L138.235652,110.080928 Z M124.717414,110.783277 L123.644245,109.950461 L122.637268,109.039365 L123.517288,108.056511 L125.539923,109.751498 L124.717414,110.783277 Z M140.833393,113.894922 L140.194266,112.721804 L141.375945,112.052071 L142.589093,111.444311 L141.375945,112.052071 L142.590178,111.446486 L143.189156,112.641349 L140.833393,113.894922 Z M122.233609,116.175924 L119.61525,115.56599 L120.257633,112.891411 L122.889012,113.55027 L122.233609,116.175924 Z M143.991049,118.519986 L141.278286,118.477584 L141.278286,115.759517 L143.991049,115.737772 L143.991049,118.519986 Z M119.927761,120.06711 L121.249419,119.7616 L119.927761,120.061675 L119.61959,118.748304 L122.233609,118.102491 L122.561311,119.411513 L119.927761,120.06711 Z M141.927178,124.052886 L139.546458,122.752562 L140.833393,120.386756 L143.204347,121.60445 L141.927178,124.052886 Z M123.544416,126.252346 L122.598204,125.194474 L121.750737,124.13334 L123.868862,122.436178 L125.538839,124.528004 L123.544416,126.252346 Z M137.724567,128.007131 L136.029633,125.884864 L137.225419,124.938976 L138.36912,124.209447 L139.824246,126.502408 L138.732629,127.199321 L137.724567,128.007131 Z M128.675877,129.088922 L127.473581,128.58771 L126.231135,128.205006 L127.028688,125.607621 L128.468622,126.05882 L129.719748,126.581777 L128.675877,129.088922 Z M131.832447,129.394433 L131.624107,126.685063 L134.278273,126.480664 L134.59838,129.076963 L133.184488,129.29006 L131.832447,129.394433 Z" id="Fill-405"></path>
                            <polygon id="Fill-406" points="178.099044 299.029387 175.386281 299.029387 175.386281 280.184478 145.726023 280.184478 145.726023 277.466409 178.099044 277.466409"></polygon>
                        </g>
                    </g>
                </g>
            </g>
        </g>
    </g>
</svg>