<svg xmlns="http://www.w3.org/2000/svg" width="24" height="20" viewBox="0 0 24 20">
    <g fill="none" fill-rule="evenodd">
        <path d="M0-2h24v24H0z"/>
        <g fill="#333">
            <path d="M22 14H2V6h20v8zm-6 2.911V16h1.263c-.39.343-.812.648-1.263.911zm-6 .827V16h4v1.738A7.952 7.952 0 0 1 12 18a7.958 7.958 0 0 1-2-.262zM6.737 16H8v.911A8.104 8.104 0 0 1 6.737 16zM8 3.09V4H6.737A8.164 8.164 0 0 1 8 3.09zm6-.827V4h-4V2.263A7.959 7.959 0 0 1 12 2c.691 0 1.36.097 2 .263zM17.263 4H16v-.91c.451.263.873.568 1.263.91zM23 4h-3.022C18.152 1.577 15.262 0 12 0 8.739 0 5.848 1.577 4.022 4H1a1 1 0 0 0-1 1v10a1 1 0 0 0 1 1h3.022c1.826 2.424 4.717 4 7.978 4 3.262 0 6.152-1.576 7.978-4H23a1 1 0 0 0 1-1V5a1 1 0 0 0-1-1z"/>
            <path d="M5.24 12h1.021l-.01-.041.493-1.95L7.232 12h1.029l-.01-.042 1-3.958H8.222l-.478 1.95L7.251 8H6.222l-.478 1.95L5.251 8h-1l.981 4zM10.24 12h1.021l-.01-.04.492-1.953.49 1.994H13.26l-.01-.041 1-3.96h-1.03l-.478 1.951-.493-1.95h-1.029l-.478 1.95L10.251 8h-1l.981 4z"/>
            <path d="M15.24 12h1.021l-.01-.04.492-1.952.49 1.993H18.26l-.01-.041 1-3.96h-1.03l-.478 1.951-.493-1.95h-1.029l-.478 1.95-.493-1.95h-1l.982 4z"/>
        </g>
    </g>
</svg>
