<svg xmlns="http://www.w3.org/2000/svg" width="22" height="22" viewBox="0 0 22 22">
    <g fill="none" fill-rule="evenodd">
        <path d="M-1-1h24v24H-1z"/>
        <g fill="#333">
            <path d="M8 18V7h12l.001 11H8zM2 5h4v15H2V5zm18 0H8c0-.737-.405-1.375-1-1.722V0H5v3H2C.897 3 0 3.897 0 5v15c0 1.103.897 2 2 2h4c1.103 0 2-.897 2-2h12c1.103 0 2-.897 2-2V7c0-1.103-.897-2-2-2z"/>
            <path d="M10 10h8V8h-8zM11 12a1 1 0 1 0 0 2 1 1 0 0 0 0-2M14 12a1 1 0 1 0 0 2 1 1 0 0 0 0-2M17 12a1 1 0 1 0 0 2 1 1 0 0 0 0-2M11 15a1 1 0 1 0 0 2 1 1 0 0 0 0-2M14 15a1 1 0 1 0 0 2 1 1 0 0 0 0-2M17 15a1 1 0 1 0 0 2 1 1 0 0 0 0-2"/>
        </g>
    </g>
</svg>
