<?xml version="1.0" encoding="UTF-8"?>
<svg width="40px" height="40px" viewBox="0 0 40 40" version="1.1" xmlns="http://www.w3.org/2000/svg" xmlns:xlink="http://www.w3.org/1999/xlink">
    <!-- Generator: Sketch 56.2 (81672) - https://sketch.com -->
    <title>icon_location</title>
    <desc>Created with Sketch.</desc>
    <g id="icon_location" stroke="none" stroke-width="1" fill="none" fill-rule="evenodd">
        <g id="location-map-1">
            <g id="Frame_-_24px">
                <rect id="Rectangle" x="0" y="0" width="40" height="40.0016667"></rect>
            </g>
            <g id="Line_Icons" transform="translate(3.333333, 1.666667)" fill="#333333" fill-rule="nonzero">
                <g id="Group">
                    <path d="M16.6666667,28.3333333 C16.0133333,28.3333333 15.42,27.9516667 15.15,27.3566667 C14.0116667,24.855 8.33333333,12.1816667 8.33333333,8.33333333 C8.33333333,3.73833333 12.0716667,0 16.6666667,0 C21.2616667,0 25,3.73833333 25,8.33333333 C25,12.1816667 19.3233333,24.855 18.1833333,27.3566667 C17.9133333,27.9516667 17.3216667,28.3333333 16.6666667,28.3333333 Z M16.6666667,3.33333333 C13.91,3.33333333 11.6666667,5.57666667 11.6666667,8.33333333 C11.6666667,10.305 14.3216667,17.1016667 16.6666667,22.545 C19.0133333,17.1 21.6666667,10.3033333 21.6666667,8.33333333 C21.6666667,5.57666667 19.4233333,3.33333333 16.6666667,3.33333333 Z M16.6666667,10.8333333 C15.2859548,10.8333333 14.1666667,9.71404521 14.1666667,8.33333333 C14.1666667,6.95262146 15.2859548,5.83333333 16.6666667,5.83333333 C18.0473785,5.83333333 19.1666667,6.95262146 19.1666667,8.33333333 C19.1666667,9.71404521 18.0473785,10.8333333 16.6666667,10.8333333 Z M29.1383333,33.3333333 L4.195,33.3333333 C3.07333333,33.3333333 2.035,32.775 1.41333333,31.8366667 C0.791666667,30.8933333 0.688333333,29.7166667 1.13333333,28.685 L4.70333333,20.3533333 C5.22666667,19.1266667 6.42833333,18.3333333 7.765,18.3333333 L9.13833333,18.3333333 L9.13833333,21.6666667 L7.765,21.6666667 L4.19333333,30 L29.1383333,30 L25.5666667,21.6666667 L24.1383333,21.6666667 L24.1383333,18.3333333 L25.5666667,18.3333333 C26.9033333,18.3333333 28.105,19.1266667 28.63,20.355 L32.2,28.6866667 C32.6433333,29.715 32.54,30.8933333 31.92,31.8333333 C31.3,32.775 30.26,33.3333333 29.1383333,33.3333333 Z" id="Combined-Shape"></path>
                </g>
            </g>
        </g>
    </g>
</svg>