<?xml version="1.0" encoding="UTF-8"?>
<svg width="40px" height="40px" viewBox="0 0 40 40" version="1.1" xmlns="http://www.w3.org/2000/svg" xmlns:xlink="http://www.w3.org/1999/xlink">
    <!-- Generator: Sketch 56.2 (81672) - https://sketch.com -->
    <title>icon_rent</title>
    <desc>Created with Sketch.</desc>
    <g id="icon_rent" stroke="none" stroke-width="1" fill="none" fill-rule="evenodd">
        <g id="phone-check">
            <g id="Frame_-_24px">
                <rect id="Rectangle" x="0" y="0" width="40" height="40"></rect>
            </g>
            <g id="Line_Icons" transform="translate(2.000000, 1.333333)">
                <g id="Group">
                    <g id="rent_icon" transform="translate(0.000000, 0.666667)">
                        <g id="Group" transform="translate(0.730769, 0.730769)" fill="#F9F9F9" stroke="#333333" stroke-width="2">
                            <path d="M34.3116698,5.5967713 L34.3116698,3.77221869 C34.3116698,3.24654045 33.8791013,2.82046726 33.3455635,2.82046726 L0.0344840902,2.82046726 L0.0344840902,6.54852273 L33.3455635,6.54852273 C33.8791013,6.54852273 34.3116698,6.1223816 34.3116698,5.5967713 Z" id="Path"></path>
                            <path d="M5.61166497,0.0243916879 L3.75959345,0.0243916879 C3.22598664,0.0243916879 2.79348718,0.450532819 2.79348718,0.976143118 L2.79348718,32.8602237 L6.57777124,32.8602237 L6.57777124,0.976143118 C6.57777124,0.450532819 6.14527178,0.0243916879 5.61166497,0.0243916879 Z" id="Path"></path>
                            <path d="M31.5733571,11.0565007 L11.8508714,11.0565007 C10.60972,11.0565007 9.60354325,12.0477273 9.60354325,13.2704371 L9.60354325,25.1787444 C9.60354325,26.4014542 10.60972,27.3926808 11.8508714,27.3926808 L31.5733571,27.3926808 C32.8145085,27.3926808 33.8206853,26.4014542 33.8206853,25.1787444 L33.8206853,13.2704371 C33.8206853,12.0476593 32.8145085,11.0565007 31.5733571,11.0565007 Z" id="Path"></path>
                        </g>
                        <g id="Group" fill="#333333">
                            <g id="Group-2" transform="translate(12.955135, 16.505410)" stroke="#333333" stroke-width="0.25">
                                <path d="M0.601038886,6.77746997 C0.906212952,6.77746997 1.20207777,6.64772636 1.20207777,6.39740351 L1.20207777,3.97750281 L1.97880755,3.97750281 L3.29183463,6.53639633 C3.3843347,6.72188981 3.54149173,6.82380091 3.707958,6.82380091 C4.05933979,6.82380091 4.4569293,6.49931461 4.4569293,6.19332675 C4.4569293,6.15624502 4.44770468,6.09133079 4.41072158,6.04499985 L3.19933456,3.79200934 C3.89287352,3.57876821 4.41072158,3.00387421 4.41072158,1.93766857 C4.41072158,0.463479122 3.43054242,-5.0048854e-13 2.21924003,-5.0048854e-13 L0.38836489,-5.0048854e-13 C0.157241657,-5.0048854e-13 -2.74669176e-13,0.176244258 -2.74669176e-13,0.37081724 L-2.74669176e-13,6.39731866 C-2.74669176e-13,6.64772636 0.305174067,6.77746997 0.601038886,6.77746997 Z M1.20207777,1.05687156 L2.21924003,1.05687156 C2.82027892,1.05687156 3.20864381,1.31644363 3.20864381,2.04891375 C3.20864381,2.78129901 2.82027892,3.03170671 2.21924003,3.03170671 L1.20207777,3.03170671 L1.20207777,1.05687156 Z" id="Shape" fill-rule="nonzero"></path>
                                <path d="M5.79796875,6.77746997 L9.08988801,6.77746997 C9.34876973,6.77746997 9.46894365,6.50856383 9.46894365,6.25824098 C9.46894365,5.9708364 9.33023586,5.72051355 9.08988801,5.72051355 L6.47305847,5.72051355 L6.47305847,3.85700843 L7.87858562,3.85700843 C8.13755197,3.85700843 8.25764126,3.60668557 8.25764126,3.39344445 C8.25764126,3.14320645 8.1190181,2.91138204 7.87858562,2.91138204 L6.47305847,2.91138204 L6.47305847,1.05704127 L9.08988801,1.05704127 C9.33032049,1.05704127 9.46894365,0.806803276 9.46894365,0.519398701 C9.46894365,0.269075851 9.34876973,0.000169710406 9.08988801,0.000169710406 L5.79796875,0.000169710406 C5.52986242,0.000169710406 5.27089607,0.129913317 5.27089607,0.380236167 L5.27089607,6.39748837 C5.2709807,6.64772636 5.52986242,6.77746997 5.79796875,6.77746997 Z" id="Path"></path>
                                <path d="M10.7730846,6.77746997 C11.0689494,6.77746997 11.3741235,6.64772636 11.3741235,6.39740351 L11.3741235,2.67022355 L13.3622403,6.39740351 C13.5193973,6.68480809 13.7690544,6.77746997 14.0556946,6.77746997 C14.3515595,6.77746997 14.6567335,6.64772636 14.6567335,6.39740351 L14.6567335,0.370902095 C14.6567335,0.111330027 14.3516441,8.48552032e-05 14.0556946,8.48552032e-05 C13.7505206,8.48552032e-05 13.4546558,0.111330027 13.4546558,0.370902095 L13.4546558,4.09808206 L11.6699883,0.639808235 C11.3833481,0.0927467376 11.2076572,8.48552032e-05 10.7730846,8.48552032e-05 C10.4679952,8.48552032e-05 10.1720457,0.120579244 10.1720457,0.380151312 L10.1720457,6.39740351 C10.1721304,6.64772636 10.4679952,6.77746997 10.7730846,6.77746997 Z" id="Path"></path>
                                <path d="M15.7020774,1.08478892 L17.0613122,1.08478892 L17.0613122,6.39731866 C17.0613122,6.64764151 17.3572617,6.77738511 17.6623511,6.77738511 C17.9583006,6.77738511 18.26339,6.64764151 18.26339,6.39731866 L18.26339,1.08478892 L19.6134848,1.08478892 C19.8539173,1.08478892 19.9925404,0.825132 19.9925404,0.537727425 C19.9925404,0.278070502 19.8723665,-3.17967874e-13 19.6134848,-3.17967874e-13 L15.7020774,-3.17967874e-13 C15.4431957,-3.17967874e-13 15.3229371,0.278155357 15.3229371,0.537727425 C15.3228525,0.834466072 15.4616449,1.08478892 15.7020774,1.08478892 Z" id="Path"></path>
                            </g>
                            <path d="M7.52749399,1.53644085 C7.52749399,0.721750077 6.86651322,0.0590066923 6.05398918,0.0590066923 L4.21423197,0.0590066923 C3.40170793,0.0590066923 2.74072716,0.721750077 2.74072716,1.53644085 L2.74072716,2.88590123 L0.513822115,2.88590123 C0.230055288,2.88590123 0,3.11657 0,3.40109354 L0,7.17024046 C0,7.454764 0.230055288,7.68543277 0.513822115,7.68543277 L2.74065865,7.68543277 L2.74065865,33.7719548 C2.74065865,34.0564784 2.97071394,34.2871472 3.25448077,34.2871472 L7.01360337,34.2871472 C7.29737019,34.2871472 7.52742548,34.0564784 7.52742548,33.7719548 L7.52742548,7.68543277 L12.6866106,7.68543277 L12.6866106,11.2127141 L12.2515745,11.2127141 C10.7373065,11.2127141 9.5054351,12.4479392 9.5054351,13.9662452 L9.5054351,26.0058086 C9.5054351,27.5241147 10.737375,28.7592711 12.2515745,28.7592711 L27.3045757,28.7592711 C27.5883425,28.7592711 27.8183978,28.5286023 27.8183978,28.2440788 C27.8183978,27.9595552 27.5883425,27.7288865 27.3045757,27.7288865 L12.251643,27.7288865 C11.304018,27.7288865 10.5331478,26.9558919 10.5331478,26.0058086 L10.5331478,13.9661765 C10.5331478,13.0160245 11.3040865,12.24303 12.251643,12.24303 L16.480125,12.24303 C16.7638918,12.24303 16.9939471,12.0123612 16.9939471,11.7278377 C16.9939471,11.4433142 16.7638918,11.2126454 16.480125,11.2126454 L13.7142548,11.2126454 L13.7142548,7.68536408 L30.3803149,7.68536408 L30.3803149,11.2126454 L18.5354135,11.2126454 C18.2516466,11.2126454 18.0215913,11.4433142 18.0215913,11.7278377 C18.0215913,12.0123612 18.2516466,12.24303 18.5354135,12.24303 L31.8429952,12.24303 C32.7906202,12.24303 33.5615589,13.0160245 33.5615589,13.9661765 L33.5615589,26.0057399 C33.5615589,26.9558919 32.7906202,27.7288178 31.8429952,27.7288178 L29.3599327,27.7288178 C29.0761659,27.7288178 28.8461106,27.9594865 28.8461106,28.2440101 C28.8461106,28.5285336 29.0761659,28.7592024 29.3599327,28.7592024 L31.8429952,28.7592024 C33.3572632,28.7592024 34.5892031,27.5239773 34.5892031,26.0057399 L34.5892031,13.9661765 C34.5892031,12.4478705 33.3572632,11.2126454 31.8429952,11.2126454 L31.4079591,11.2126454 L31.4079591,7.68536408 L33.6033498,7.68536408 C34.4158738,7.68536408 35.0768546,7.02262069 35.0768546,6.20792992 L35.0768546,4.36333538 C35.0768546,3.54864462 34.4158738,2.88590123 33.6033498,2.88590123 L7.52749399,2.88590123 L7.52749399,1.53644085 Z M7.52749399,3.91628585 L33.6034183,3.91628585 C33.8492993,3.91628585 34.0492788,4.11679869 34.0492788,4.36333538 L34.0492788,6.20799862 C34.0492788,6.45446662 33.8492993,6.65504815 33.6034183,6.65504815 L7.52749399,6.65504815 L7.52749399,3.91628585 Z M1.02764423,6.65504815 L1.02764423,3.91628585 L2.74065865,3.91628585 L2.74065865,6.65504815 L1.02764423,6.65504815 Z M6.49984976,33.2567625 L3.76837139,33.2567625 L3.76837139,1.53644085 C3.76837139,1.28990415 3.96835096,1.08939131 4.21423197,1.08939131 L6.05398918,1.08939131 C6.29980168,1.08939131 6.49984976,1.28990415 6.49984976,1.53644085 L6.49984976,33.2567625 Z" id="Shape" fill-rule="nonzero"></path>
                        </g>
                    </g>
                </g>
            </g>
        </g>
    </g>
</svg>