<svg xmlns="http://www.w3.org/2000/svg" width="24" height="24" viewBox="0 0 24 24">
    <g fill="none" fill-rule="evenodd">
        <path d="M0 0h24v24H0z"/>
        <g fill="#333">
            <path d="M18 9.999h2v12h-2v-12zm-7 6h2v6h-2v-6zm-7-3h2v9H4v-9zm18 9v-13a1 1 0 0 0-1-1h-4a1 1 0 0 0-1 1v13h-1v-7a1 1 0 0 0-1-1h-4a1 1 0 0 0-1 1v7H8v-10a1 1 0 0 0-1-1H3a1 1 0 0 0-1 1v10H0v2h24v-2h-2z"/>
            <path d="M5 7c.366 0 .704-.105.999-.277l4.002 2.286A2 2 0 0 0 14 8.999c0-.178-.031-.347-.074-.511l4.562-4.562c.165.043.334.074.512.074a2 2 0 1 0-2-2c0 .178.031.348.074.511l-4.563 4.563A1.96 1.96 0 0 0 12 7c-.366 0-.704.105-.999.277L6.999 4.991A2 2 0 1 0 5 7"/>
        </g>
    </g>
</svg>
