<svg xmlns="http://www.w3.org/2000/svg" width="52" height="64" viewBox="0 0 52 64">
  <g fill="none" fill-rule="evenodd">
    <rect width="52" height="64"/>
    <path fill="#777" d="M48.8727667,6.48104881 C48.8727667,5.69430404 48.3575533,5.01497828 47.3330942,4.44406615 C46.3066459,3.86818091 44.2040183,3.04761905 43.2163602,3.04761905 C42.153111,3.04761905 41.4727906,3.42259095 41.1783829,4.17750787 L28.2204678,38.4023973 L24.1554541,25.096365 C23.8600518,24.1654003 23.0544092,23.7009125 21.7335533,23.7009125 C20.4126974,23.7009125 19.6080494,24.1654003 19.3176202,25.096365 L15.1919346,38.350677 L9.69765132,23.1111026 C9.40324367,22.3621534 8.72391791,21.9871815 7.66066866,21.9871815 C6.63521498,21.9871815 5.60876669,22.263686 4.58430763,22.8157003 C3.55785933,23.3687093 3.04761905,24.043062 3.04761905,24.8248336 C3.04761905,25.1530584 3.13614027,25.4892401 3.32014505,25.8463088 L11.7863543,47.037692 C12.114579,47.8950548 13.0326137,48.3257254 14.5315067,48.3257254 C16.2223614,48.3257254 17.2289173,47.8950548 17.5571421,47.037692 L21.7335533,35.3956597 L25.9676525,47.0943853 C26.2958773,47.9139526 27.2696107,48.3257254 28.8808958,48.3257254 C30.4215629,48.3257254 31.3535222,47.9139526 31.6857254,47.0894122 L48.6529556,7.44583064 C48.7981702,7.19717553 48.8727667,6.87392389 48.8727667,6.48104881 L48.8727667,6.48104881 Z"/>
  </g>
</svg>