<svg height="917" viewBox="0 0 2625 917" width="2625" xmlns="http://www.w3.org/2000/svg"><g fill="#777"><path d="M2090.07 388.65v-50.57c0-32.527 12.7-60.5 38.1-83.92s56.147-35.123 92.24-35.11c33.72 0 62.58 10.667 86.58 32s36 48.137 36 80.41c0 11.8-1.47 21.5-4.47 29.18s-7.53 13.05-13.69 16.21a56.2 56.2 0 0 1-16.94 5.87 138.73 138.73 0 0 1-20.23 1.2h-120.82v8.93c0 17.04 6.333 30.827 19 41.36s29.537 15.78 50.61 15.74c15.06 0 29.93-3.763 44.61-11.29s24.203-11.29 28.57-11.29c8.32 0 15.26 3.84 20.81 11.6s8.34 15.16 8.34 22.31c0 11.093-10 22.093-30 33s-44.897 16.363-74.69 16.37c-42.46 0-77.073-11.207-103.84-33.62s-40.16-51.873-40.18-88.38zm76.77-50h86.9c6.31 0 10.79-1 13.38-3.05s3.89-6 3.89-12c0-12.953-5.07-23.51-15.21-31.67s-22.527-12.24-37.16-12.24c-13.9 0-26.01 3.977-36.33 11.93s-15.477 18.427-15.47 31.42zm187.25 120.8c0-7.12 2.613-14.557 7.84-22.31 5.19-7.73 11.25-11.58 18.06-11.58 4.38 0 9.92 2 16.56 6s15.34 8 26.21 12.21 23.68 6.2 38.54 6.2c29.3 0 43.967-8.29 44-24.87 0-9.26-4.853-16.593-14.56-22s-21.417-9.84-35.13-13.3c-13.68-3.46-27.467-7.607-41.36-12.44A80.8 80.8 0 0 1 2378.8 353c-9.74-11.387-14.6-25.963-14.58-43.73 0-24.62 8.53-45.803 25.59-63.55s44.06-26.633 81-26.66c24.567 0 46.487 3.767 65.76 11.3s28.887 16.657 28.84 27.37c0 6.77-2.67 14.58-8 23.51s-12 13.4-19.94 13.4c-3.153 0-11.777-2.483-25.87-7.45s-27.293-7.447-39.6-7.44c-13.52 0-23.853 2.707-31 8.12-7.13 5.39-10.74 11.37-10.74 17.93s3.61 12 10.74 16.21 16 7.55 26.46 9.84a329.14 329.14 0 0 1 33.85 9.56 229.53 229.53 0 0 1 33.55 14.18c10.28 5.41 19 13.81 25.95 25.2s10.51 25.16 10.51 41.37c0 27.5-9.623 49.12-28.87 64.86s-46.12 23.617-80.62 23.63c-29.76 0-55.157-5.15-76.19-15.45s-31.55-22.217-31.55-35.75zM1323 488.76a123.75 123.75 0 0 0 70.49 21.59c35.52 0 66.55-12.67 92.35-37.72 27.77-27.42 41.85-63.63 41.85-107.61 0-43.29-14.08-79.32-41.78-107-25.43-25.42-56.42-38.32-92.19-38.32a124.47 124.47 0 0 0-73.82 23.79 35.45 35.45 0 0 0-7.46-10.78c-13.86-13.82-38.23-13.79-52 0a35.7 35.7 0 0 0-10.56 25.77v343.45c0 6.06 3.48 11.47 10.48 16.16s15.59 7.09 25.82 7.09c9.82 0 18.44-2.46 25.79-7.35S1323 607.63 1323 602zm126.48-90c-10.56 28.23-30.31 41.38-62.17 41.38-24.27 0-45.35-9.36-64.31-28.66v-92.94c19-19.3 40-28.71 64.31-28.71 20.66 0 36.53 5.92 48.23 17.88 12.77 13.63 19 32.38 19 57.31-.05 12.85-1.76 24.3-5.1 33.74zM1752.72 255c-21.21-23.46-51-35.34-88.7-35.34a232.21 232.21 0 0 0-91.7 18.93c-18.66 7.94-21.43 21.75-21.43 29.28 0 11.22 3.31 20.07 9.83 26.28 10.35 9.84 21.51 10.48 33.24 7.4 48.24-15.41 86.62-14.24 102.52-.51 6.11 5.27 9.77 14.22 11 26.64h-45.46c-40.32 0-72.17 8.62-94.63 25.62-22.15 16.58-33.37 39.7-33.37 68.71 0 26.58 9.61 48.46 28.59 65.07 17.73 15.46 40 23.27 66.19 23.27 25.31 0 46.78-4.55 63.8-13.51 5.52-2.92 10.61-5.95 15.41-9.08.36 5.653 3.83 10.7 10.41 15.14 7 4.74 15.57 7.07 25.82 7.07 9.82 0 18.42-2.44 25.8-7.32s11.067-10.167 11.06-15.86V331.31c.04-30.31-9.58-56.01-28.38-76.31zm-70.59 178.07a72 72 0 0 1-36.45 9.59c-38.49 0-38.49-17.3-38.49-25.61 0-8.7 3.36-13.77 11.52-17.46 11.37-5.08 27.94-7.68 49.28-7.68h40v22a122.85 122.85 0 0 1-25.86 19.16zm326.96-199.97a37.25 37.25 0 0 0-7 10.1c-21.49-15.65-45.89-23.54-72.85-23.54-35.78 0-66.58 12-91.56 35.44-29 26.79-43.65 62.91-43.65 107.43s14.7 80.64 43.57 107.32c25 23.59 55.44 35.54 90.39 35.54 26.18 0 49.86-7.1 70.72-21.19v2.7c0 46.17-19.06 80.8-61.79 80.8a168.84 168.84 0 0 1-76.54-17.82 44 44 0 0 0-16.39-3c-5.7 0-14.19 1.91-22.36 11.14-6.13 6.89-9.26 15.44-9.26 25.42 0 11.27 5.57 20.9 16.17 27.39 33 18.24 71 27.53 112.83 27.53 41.29 0 73.8-12.83 96.64-38.11 22.44-24.83 33.86-74.48 33.86-119.79V259a36 36 0 0 0-10.87-26.08c-14.15-14.17-38.16-14.09-51.91.18zm-10.37 174.68c-19.29 18.91-38.54 28.42-57.34 28.42-12.9 0-23.79-1.55-32.41-4.61-28.49-10.22-41.77-32.17-41.77-69.06 0-25.26 6.51-43.63 19.72-56a64.63 64.63 0 0 1 22-13c8.7-3.08 19.58-4.63 32.46-4.63a58.84 58.84 0 0 1 32.23 9 154.78 154.78 0 0 1 25.11 19.41zM0 241.59c0-8.7 5.553-16.137 16.66-22.31 11.09-6.15 22.24-9.21 33.33-9.21 11.487 0 18.82 4.157 22 12.47l59.53 169 44.62-147c3.18-10.32 11.913-15.483 26.2-15.49 14.3 0 23 5.17 26.2 15.49l44 147.57L412.85 12.49C416.03 4.163 423.363 0 434.85 0c10.73 0 33.5 9.09 44.62 15.44s16.66 13.89 16.66 22.62a21.39 21.39 0 0 1-2.39 10.71L310.05 488.55c-3.567 9.127-13.683 13.7-30.35 13.72-17.45 0-28-4.59-31.55-13.69l-45.81-129.74L157.11 488c-3.587 9.507-14.507 14.273-32.76 14.3-16.24 0-26.147-4.767-29.72-14.3L3 252.91a25.06 25.06 0 0 1-3-11.32zm436.73-7.32l54-129c4.55-12 9.84-11.19 9.84-11.19 6.21.56 6 12.26 6 12.26v155.38c5.93-12.82 15.49-23.61 28.54-32.41s28.59-13.23 46.45-13.23c27.373 0 51.277 11.907 71.71 35.72s30.643 52.173 30.63 85.08V478c0 7.547-3.867 13.49-11.6 17.83s-16.753 6.527-27.06 6.56a53.06 53.06 0 0 1-26.49-6.54c-7.76-4.37-11.62-10.28-11.62-17.8V337.34c0-13.453-5.157-25.713-15.47-36.78s-22.413-16.61-36.3-16.63c-13.067 0-24.47 4.95-34.21 14.85s-14.6 22.753-14.58 38.56V478c0 5.92-3.87 11.49-11.6 16.63s-16.76 7.71-27.09 7.71c-10.707 0-19.737-2.487-27.09-7.46s-11.02-10.617-11-16.93V264.77a89.35 89.35 0 0 1 6.94-30.5zM712.66 478V243.45c0-7.15 3.44-12.87 10.28-17.25s15.67-6.54 26.3-6.54 19.57 2.17 26.64 6.54 10.58 10.1 10.58 17.25V478c0 5.92-3.74 11.49-11.19 16.66s-16.08 7.73-26 7.73c-10.3 0-18.94-2.49-26-7.46s-10.61-10.65-10.61-16.93zm106.21-71V121.78c0-6.64 4-12.26 11.91-16.77a52.09 52.09 0 0 1 26.15-6.74c10.33 0 19.38 2.16 27.11 6.57s11.6 9.82 11.6 16.3v98.52h70.21c6 0 10.72 3 14.3 9s5.34 13.12 5.34 21.32-1.78 15.28-5.34 21.29-8.32 9.05-14.3 9.05h-70.21v124.13c0 10.94 2.47 18.73 7.43 23.25s13.61 6.77 25.9 6.77h23.2c10.3 0 18.37 3.34 24.09 10a34.86 34.86 0 0 1 8.68 23.63c0 9.56-2.93 17.65-8.68 24.27s-13.79 10-24.09 10H929c-73.44-.02-110.15-31.81-110.13-95.37z"/><path d="M981.32 385.7v-50.59c0-32.54 12.693-60.507 38.08-83.9 25.387-23.393 56.133-35.103 92.24-35.13 33.74 0 62.613 10.667 86.62 32s36.007 48.13 36 80.39c0 11.83-1.47 21.51-4.45 29.17s-7.55 13.08-13.69 16.21a55.71 55.71 0 0 1-17 5.9 138.39 138.39 0 0 1-20.22 1.2h-120.83v8.92c0 17.02 6.353 30.81 19.06 41.37 12.71 10.48 29.53 15.75 50.59 15.75 15.09 0 29.94-3.77 44.65-11.33s24.17-11.27 28.54-11.27c8.34 0 15.277 3.867 20.81 11.6 5.57 7.74 8.34 15.14 8.34 22.32 0 11.08-10 22.08-30 33s-44.897 16.373-74.69 16.36c-42.46 0-77.073-11.2-103.84-33.6-26.767-22.4-40.17-51.857-40.21-88.37zm76.75-50H1145c6.36 0 10.81-1 13.41-3.07s3.86-6 3.86-12c0-12.953-5.063-23.51-15.19-31.67s-22.523-12.23-37.19-12.21c-13.887 0-25.987 3.977-36.3 11.93-10.33 8-15.49 18.45-15.49 31.39zM786.46 135.13a36.9 36.9 0 1 1-36.91-36.86c20.368-.006 36.888 16.492 36.91 36.86z"/><path d="M2625 240.84c-.261 12.557-10.515 22.6-23.075 22.6s-22.814-10.043-23.075-22.6c0-12.46 10.27-22.46 23.14-22.46 13.01 0 23.01 10 23.01 22.46zm-40.41 0c0 10 7.41 18 17.54 18 9.87 0 17.13-8 17.13-17.81S2612 222.9 2602 222.9s-17.41 8.1-17.41 17.94zm13.84 11.78h-5.2v-22.46a45.45 45.45 0 0 1 8.63-.69c4.24 0 6.15.69 7.8 1.65a6.24 6.24 0 0 1 2.19 4.93c0 2.46-1.92 4.38-4.65 5.21v.27c2.19.82 3.42 2.46 4.1 5.48.7 3.42 1.1 4.79 1.65 5.61h-5.62c-.68-.82-1.09-2.87-1.78-5.47-.4-2.47-1.77-3.57-4.65-3.57h-2.47zm.14-12.73h2.43c2.88 0 5.21-1 5.21-3.29 0-2.06-1.5-3.43-4.79-3.43a12.12 12.12 0 0 0-2.88.28z"/><path d="M67.91 895a15.2 15.2 0 0 1-6.09-12.25 15 15 0 0 1 15.22-15 15.63 15.63 0 0 1 9.27 3c11.18 8.26 23.41 13.34 37.76 13.37 13.3 0 21.33-5.24 21.34-13.9v-.42c0-8.23-5.06-12.46-29.73-18.82C86 843.29 66.75 835 66.8 805.68v-.42c0-26.8 21.61-44.5 51.79-44.45 17.94 0 33.55 4.71 46.82 13.17a15 15 0 0 1-8.06 27.84 15.58 15.58 0 0 1-8.23-2.33c-10.76-6.35-20.87-10-31-10-12.46 0-19 5.66-19 12.84v.42c0 9.71 6.3 12.88 31.83 19.47 29.95 7.87 46.82 18.65 46.77 44.4v.42c0 29.35-22.44 45.76-54.31 45.71A95.35 95.35 0 0 1 67.91 895zm139.87-.44l.2-115.24a16.14 16.14 0 0 1 16.28-16.22l81.88.14c8.038.033 14.536 6.562 14.53 14.6a14.4 14.4 0 0 1-14.58 14.32l-65.84-.11-.05 30 56.34.1c8.034.028 14.535 6.546 14.54 14.58A14.41 14.41 0 0 1 296.49 851l-56.34-.1-.05 31 66.89.11c8.038.033 14.536 6.562 14.53 14.6A14.4 14.4 0 0 1 306.94 911l-82.94-.16a16.14 16.14 0 0 1-16.22-16.28zm135.13-4.4L394.6 774c3.61-8 10.16-12.85 19-12.84h1.91c8.86 0 15.18 4.88 18.75 12.91l51.3 116.39a15.74 15.74 0 0 1 1.68 6.54 15.41 15.41 0 0 1-15.44 15.58c-7.6 0-12.65-4.45-15.6-11.2l-9.87-23.25-65-.11L371 902.23c-2.77 6.33-8.26 10.11-15 10.1a15 15 0 0 1-15-15.22 17.3 17.3 0 0 1 1.91-6.95zm91.45-40.79L414 800.59l-20.59 48.71zM511 779.85a16.14 16.14 0 0 1 16.28-16.23l51.28.09c18.79 0 33.34 5.34 43 15.06 8.23 8.26 12.64 19.87 12.61 33.8v.43c0 23.21-11.68 37.54-29.63 44.9l22.54 27.48c3.16 4 5.27 7.39 5.26 12.45 0 9.09-7.62 15-15.44 15-7.38 0-12.23-3.6-16-8.48l-31.59-40.15h-26l-.05 32.29c0 8.975-7.275 16.25-16.25 16.25s-16.25-7.275-16.25-16.25zm65.33 55.63c15.82 0 24.91-8.41 24.94-20.87v-.41c0-13.93-9.68-21.12-25.5-21.15h-32.29l-.08 42.42zm80.56 2.66v-.41c.07-42 31.78-76.35 77.15-76.27 22.16 0 37.14 6 49.37 15.07a16.24 16.24 0 0 1 6.3 12.89 15.85 15.85 0 0 1-16.06 15.78A17.06 17.06 0 0 1 764 802c-9.07-6.78-18.56-10.58-30.17-10.6-24.9 0-42.87 20.61-42.91 45.92v.44c0 25.31 17.43 46.44 42.76 46.49 13.71 0 22.79-4.17 32.09-11.55a15.05 15.05 0 1 1 19.38 23c-13.31 11.59-28.94 18.52-52.58 18.48-43.57-.02-75.76-33.63-75.68-76.04zm163.21-59.02c0-8.975 7.275-16.25 16.25-16.25s16.25 7.275 16.25 16.25l-.08 43.48 59.94.11.08-43.49a16.25 16.25 0 1 1 32.49.06l-.2 117.76c-.014 8.975-7.3 16.239-16.275 16.225s-16.239-7.3-16.225-16.275l.08-44.32-59.94-.1-.07 44.31c0 8.975-7.275 16.25-16.25 16.25s-16.25-7.275-16.25-16.25zm176.82 98.01c10.55 0 18.35 7.85 18.33 18v.43c0 10.13-7.84 17.92-18.39 17.9s-18.35-7.83-18.33-18V895c.02-10.08 7.84-17.88 18.39-17.87zm111.34-96.26a16.14 16.14 0 0 1 16.28-16.22l82.72.14a14.78 14.78 0 1 1 0 29.55l-66.47-.11-.06 31.46 57 .09a14.77 14.77 0 0 1-.05 29.54l-57-.1-.07 42.21a16.25 16.25 0 1 1-32.5-.06zm137.53-1.02c0-8.975 7.275-16.25 16.25-16.25s16.25 7.275 16.25 16.25l-.21 117.77a16.25 16.25 0 1 1-32.49-.06zm70.83.54a16.12 16.12 0 0 1 16.28-16.22h3.37c7.81 0 12.44 3.82 16.86 9.52l62.54 82.42.13-76.19c.017-8.861 7.214-16.032 16.075-16.015s16.032 7.214 16.015 16.075l-.2 117.56a16.14 16.14 0 0 1-16.28 16.22h-1.06c-7.81 0-12.44-3.84-16.86-9.54l-64.86-85.37-.14 79.13c0 8.856-7.18 16.035-16.035 16.035s-16.035-7.18-16.035-16.035zm169.08 1.13a16.14 16.14 0 0 1 16.3-16.22l41.36.07c46.43.08 78.46 32 78.39 73.58v.44c-.08 41.56-32.22 73.8-78.65 73.72l-41.35-.07a16.14 16.14 0 0 1-16.23-16.28zm57.43 102.26c26.6 0 44.57-17.87 44.62-44v-.41c0-26.18-17.86-44.57-44.46-44.61l-25.11-.05-.16 89.07zm115.7-5.51c10.55 0 18.35 7.85 18.33 18v.43c0 10.13-7.85 17.92-18.39 17.9s-18.35-7.83-18.33-18v-.42c.02-10.12 7.83-17.92 18.39-17.91zm111.34-97.52c.017-8.975 7.305-16.237 16.28-16.22s16.237 7.305 16.22 16.28l-.09 49.59 60-59.41c4-4 8-6.32 13.73-6.31a14.66 14.66 0 0 1 15 15c0 5.07-2.33 8.85-5.93 12.22l-41.65 38.76 45.27 57.09c2.53 3.17 4.42 6.55 4.41 11.4 0 9.08-7 15.81-16.48 15.8-6.34 0-10.13-3.19-13.71-7.83l-42.12-55.36-18.58 17.24v29.54a16.25 16.25 0 1 1-32.5-.06zm149.91.68a16.13 16.13 0 0 1 16.28-16.22h3.37c7.82 0 12.45 3.82 16.87 9.52l62.54 82.42.13-76.19c.017-8.859 7.211-16.027 16.07-16.01s16.027 7.211 16.01 16.07l-.2 117.55a16.13 16.13 0 0 1-16.28 16.23h-1c-7.82 0-12.45-3.83-16.87-9.53l-64.86-85.37-.14 79.1c0 8.856-7.18 16.035-16.035 16.035s-16.035-7.18-16.035-16.035zm161.15 59.16v-.41c.07-42 33.26-76.35 78.84-76.27s78.24 34.11 78.17 76.1v.44c-.07 42-33.26 76.32-78.84 76.24s-78.25-34.1-78.17-76.1zm123 .21v-.41c0-25.34-18.49-46.46-44.66-46.51s-44.35 20.61-44.39 45.92v.44c-.05 25.31 18.48 46.45 44.65 46.49s44.38-20.6 44.42-45.93zm49.57-53.51a20.94 20.94 0 0 1-1.26-6.12c0-9.09 7.62-15.83 16.7-15.81A16.37 16.37 0 0 1 2285 777l29.19 90.59 29.73-89.59c2.55-7.6 8.27-12.86 16.49-12.85h2.59c8.23 0 13.91 5.08 16.43 12.9l29.4 89.75 29.49-90.5c2.12-6.33 7.61-11.6 15.64-11.58 8.85 0 16 6.77 16 15.64a22.69 22.69 0 0 1-1.28 6.34l-41.56 116c-3 8.22-9.1 13.27-16.92 13.26h-3.37c-7.8 0-13.7-4.86-16.65-13.31l-29-84.69-29.28 84.54c-3 8.44-8.89 13.27-16.7 13.26h-3.38c-7.81 0-13.91-5.08-16.86-13.32zm242.82 92.43c10.55 0 18.35 7.84 18.33 18v.43c0 10.13-7.84 17.92-18.39 17.9s-18.35-7.83-18.33-18v-.42c.02-10.13 7.84-17.93 18.39-17.91z"/></g></svg>
