<svg width="32" height="32" viewBox="0 0 32 32" fill="none" xmlns="http://www.w3.org/2000/svg">
<path d="M12.5667 19.1704C12.123 19.3832 11.2744 19.5684 10.6417 19.5843C8.73128 19.6357 8.3605 18.2347 8.34511 17.219V9.74767H13.1371V6.1137H8.3617V-4.5872e-09C8.3617 -4.5872e-09 4.92323 -4.5872e-09 4.86718 -4.5872e-09C4.80965 -4.5872e-09 4.70922 0.0506558 4.69502 0.179174C4.49058 2.05027 3.6202 5.33432 -4.8344e-07 6.64746V9.74752H2.41506V17.5889C2.41506 20.274 4.38417 24.0885 9.58238 23.9984C11.3363 23.9682 13.2842 23.2299 13.7143 22.5924L12.5667 19.1704Z" transform="translate(8.7998 4)" fill="white"/>
</svg>
