<svg width="14" height="9" viewBox="0 0 14 9" fill="none" xmlns="http://www.w3.org/2000/svg">
<path d="M6.98224 0C3.73222 0 1.30142 2.50267 0.275143 3.77517C-0.0746631 4.20917 -0.0914467 4.76483 0.227796 5.16583C1.22527 6.41833 3.68134 9 6.98224 9C10.3508 9 12.8396 6.31133 13.796 5.0905C14.0769 4.732 14.0674 4.2535 13.7692 3.8755C12.7938 2.6395 10.3199 0 6.98224 0ZM6.98224 6.33333C5.90897 6.33333 5.03887 5.51233 5.03887 4.5C5.03887 3.4875 5.90897 2.66667 6.98224 2.66667C8.05551 2.66667 8.92561 3.4875 8.92561 4.5C8.92561 5.51233 8.05551 6.33333 6.98224 6.33333Z" fill="#B5B9C1"/>
</svg>
