<svg width="32" height="32" viewBox="0 0 32 32" fill="none" xmlns="http://www.w3.org/2000/svg">
<path d="M21.4 19.4667C20 19.4667 18.9333 18.3333 18.9333 17C18.9333 15.6 20.0667 14.4667 21.4 14.4667C22.7333 14.4667 23.8667 15.6 23.8667 17C23.9333 18.3333 22.8 19.4667 21.4 19.4667ZM21.8667 23.6C20.1333 25.3333 16.8667 25.4667 15.9333 25.4667C15 25.4667 11.7333 25.3333 10 23.6C9.73334 23.3333 9.73334 22.9333 10 22.6667C10.2667 22.4 10.6667 22.4 10.9333 22.6667C12 23.7333 14.3333 24.1333 15.9333 24.1333C17.6 24.1333 19.8667 23.7333 20.9333 22.6667C21.2 22.4 21.6 22.4 21.8667 22.6667C22.1333 22.9333 22.1333 23.3333 21.8667 23.6ZM7.93333 17C7.93333 15.6 9.06667 14.4667 10.4667 14.4667C11.8667 14.4667 12.9333 15.6 12.9333 17C12.9333 18.4 11.8 19.4667 10.4667 19.4667C9.06667 19.4667 7.93333 18.3333 7.93333 17ZM31.9333 14.4667C31.9333 12.5333 30.3333 10.9333 28.4 10.9333C27.4667 10.9333 26.6 11.3333 26 11.9333C23.6 10.2 20.3333 9.06667 16.6667 8.93334L18.2667 1.4L23.4667 2.53334C23.5333 3.86667 24.6 4.93334 25.9333 4.93334C27.3333 4.93334 28.4 3.8 28.4 2.46667C28.4 1.06667 27.2667 -8.13802e-06 25.9333 -8.13802e-06C24.9333 -8.13802e-06 24.1333 0.599996 23.7333 1.4L17.9333 0.133333C17.8 0.0666667 17.6 0.133337 17.4667 0.200004C17.3333 0.266671 17.2 0.400008 17.2 0.600008L15.4667 8.8C15.4667 8.86667 15.4667 8.86667 15.4667 8.93334C11.7333 9.00001 8.4 10.1333 5.93333 11.8667C5.33333 11.2667 4.46666 10.8667 3.53333 10.8667C1.6 10.8667 4.06901e-06 12.4667 4.06901e-06 14.4C4.06901e-06 15.8 0.866665 17.0667 2.06666 17.6C2 17.9333 2 18.3333 2 18.6667C2 24.0667 8.26667 28.4 16 28.4C23.7333 28.4 30 24.0667 30 18.6667C30 18.3333 30 17.9333 29.9333 17.6C31.0667 17.1333 31.9333 15.8667 31.9333 14.4667Z" transform="translate(0 2)" fill="white"/>
</svg>
