<svg xmlns="http://www.w3.org/2000/svg" width="24" height="24" viewBox="0 0 24 24">
  <g fill="none" fill-rule="evenodd">
    <rect width="24" height="24"/>
    <g fill="#333" transform="translate(0 2)">
      <path d="M16,17 L11,17 C8.702,17 6.577,15.654 5.586,13.57 C5.42,13.222 5.068,13 4.683,13 L2,13 L2,10 L4.294,10 C4.736,10 5.126,9.71 5.253,9.285 C5.529,8.357 6.034,7.5 6.715,6.805 C6.897,6.618 7,6.367 7,6.105 L7,3.135 L9.103,4.887 C9.33,5.077 9.632,5.156 9.922,5.103 C10.303,5.034 10.656,5 11,5 L16,5 C19.309,5 22,7.691 22,11 C22,14.309 19.309,17 16,17 M24,11 C24,6.589 20.411,3 16,3 L11,3 C10.684,3 10.365,3.021 10.036,3.062 L6.641,0.232 C6.342,-0.017 5.928,-0.07 5.576,0.094 C5.225,0.259 5,0.612 5,1 L5,5.713 C4.404,6.39 3.925,7.167 3.587,8 L1,8 C0.448,8 0,8.448 0,9 L0,14 C0,14.552 0.448,15 1,15 L4.08,15 C4.979,16.552 6.375,17.739 8,18.403 L8,21 L10,21 L10,18.933 C10.33,18.975 10.663,19 11,19 L16,19 C16.34,19 16.672,18.972 17,18.931 L17,21 L19,21 L19,18.411 C21.928,17.221 24,14.35 24,11"/>
      <polygon points="11 9 17 9 17 7 11 7"/>
      <path d="M8,8 C7.448,8 7,8.449 7,9 C7,9.553 7.448,10 8,10 C8.553,10 9,9.553 9,9 C9,8.449 8.553,8 8,8"/>
    </g>
  </g>
</svg>
