<?xml version="1.0" encoding="UTF-8"?>
<svg width="40px" height="40px" viewBox="0 0 40 40" version="1.1" xmlns="http://www.w3.org/2000/svg" xmlns:xlink="http://www.w3.org/1999/xlink">
    <!-- Generator: Sketch 56.2 (81672) - https://sketch.com -->
    <title>icon_store</title>
    <desc>Created with Sketch.</desc>
    <g id="icon_store" stroke="none" stroke-width="1" fill="none" fill-rule="evenodd">
        <g id="store">
            <g id="Frame_-_24px">
                <rect id="Rectangle" x="0" y="0" width="40" height="40"></rect>
            </g>
            <g id="Line_Icons" transform="translate(1.666667, 3.333333)" fill="#333333" fill-rule="nonzero">
                <g id="Group">
                    <path d="M36.5616667,14.415 C36.7516667,14.9266667 36.6816667,15.5 36.37,15.9483333 C36.0583333,16.3983333 35.5466667,16.6666667 35,16.6666667 L33.3333333,16.6666667 L33.3333333,31.6666667 C33.3333333,32.5866667 32.5883333,33.3333333 31.6666667,33.3333333 L5,33.3333333 C4.07833333,33.3333333 3.33333333,32.5866667 3.33333333,31.6666667 L3.33333333,16.6666667 L1.66666667,16.6666667 C1.12,16.6666667 0.608333333,16.3983333 0.295,15.9483333 C-0.015,15.5 -0.085,14.9266667 0.105,14.415 L5.105,1.08166667 C5.35,0.431666667 5.97166667,0 6.66666667,0 L30,0 C30.695,0 31.3166667,0.431666667 31.5616667,1.08166667 L36.5616667,14.415 Z M32.595,13.3333333 L28.845,3.33333333 L25.47,3.33333333 L27.97,13.3333333 L32.595,13.3333333 Z M12.135,13.3333333 L16.6666667,13.3333333 L16.6666667,3.33333333 L14.635,3.33333333 L12.135,13.3333333 Z M20,3.33333333 L20,13.3333333 L24.5316667,13.3333333 L22.0316667,3.33333333 L20,3.33333333 Z M7.82166667,3.33333333 L4.07166667,13.3333333 L8.69666667,13.3333333 L11.1966667,3.33333333 L7.82166667,3.33333333 Z M21.6666667,30 L25,30 L25,21.6666667 L21.6666667,21.6666667 L21.6666667,30 Z M30,30 L30,16.6666667 L6.66666667,16.6666667 L6.66666667,30 L18.3333333,30 L18.3333333,20 C18.3333333,19.08 19.0783333,18.3333333 20,18.3333333 L26.6666667,18.3333333 C27.5883333,18.3333333 28.3333333,19.08 28.3333333,20 L28.3333333,30 L30,30 Z M10,26.6666667 C9.07833333,26.6666667 8.33333333,25.92 8.33333333,25 L8.33333333,20 C8.33333333,19.08 9.07833333,18.3333333 10,18.3333333 L15,18.3333333 C15.9216667,18.3333333 16.6666667,19.08 16.6666667,20 L16.6666667,25 C16.6666667,25.92 15.9216667,26.6666667 15,26.6666667 L10,26.6666667 Z" id="Combined-Shape"></path>
                </g>
            </g>
        </g>
    </g>
</svg>