<svg xmlns="http://www.w3.org/2000/svg" width="38" height="38" class="mdl-js"><g fill="none"><path fill="#A0A5BB" d="M27.14 6.02C24 6.35 7.17 8.26 7.17 8.26a6.84 6.84 0 0 0-5.51 6.1C.96 17.22.02 29.97.02 29.97A7.46 7.46 0 0 0 7.22 38h22.35c4.56.05 9.05-3.6 8.36-8.3l-2.58-17.32a7.82 7.82 0 0 0-8.21-6.36"/><path fill="#BCC1D2" d="M24.64 10.02c-2.37.23-15.2 1.77-15.2 1.77-2.65.35-3.61 2.04-4.28 4.72C4.64 18.54 4 27.24 4 27.24A5.48 5.48 0 0 0 9.5 33h17c3.47.04 6.98-2.57 6.46-5.95L30.9 14.66a5.96 5.96 0 0 0-6.25-4.64"/><path fill="#E2E3ED" d="M32.95 27l-1.5-9.27a4.82 4.82 0 0 0-5.02-3.71c-1.92.19-12.03 1.46-12.03 1.46-2.15.28-2.92 1.68-3.46 3.9-.42 1.67-.94 8.87-.94 8.87A4.49 4.49 0 0 0 14.43 33h12.15c3.43.04 6.89-2.6 6.37-6"/><path fill="#FFF" d="M32.74 25.57l-.88-5.6a3.8 3.8 0 0 0-3.89-2.96l-9.54 1.21a3.4 3.4 0 0 0-2.63 3.03C15.52 22.64 15 29 15 29c-.09 2.1 1.4 3.9 3.34 4h8.3c4.84 0 7.19-2.17 6.1-7.43"/></g></svg>