<svg xmlns="http://www.w3.org/2000/svg" width="24" height="24" viewBox="0 0 24 24">
    <g fill="none" fill-rule="evenodd">
        <path d="M0 0h24v24H0z"/>
        <g fill="#333">
            <path d="M3 21h4v1H3v-1zm6-1a1 1 0 0 0-1-1H2a1 1 0 0 0-1 1v2H0v2h10v-2H9v-2zM13 5.415L15.586 8 12 11.586 9.414 9 13 5.415zm-2 9.17L6.414 10 7 9.415 11.586 14l-.586.586zm3-12.17L18.586 7 18 7.586 13.414 3 14 2.415zm8.293 17.292l1.414-1.414-7.793-7.793L17 9.415l.293.292A.993.993 0 0 0 18 10a.993.993 0 0 0 .707-.293l2-2a.999.999 0 0 0 0-1.414l-6-6a1 1 0 0 0-1.414 0l-2 2a.999.999 0 0 0 0 1.414l.293.293L8 7.587l-.293-.294a1 1 0 0 0-1.414 0l-2 2a.999.999 0 0 0 0 1.414l6 6A.993.993 0 0 0 11 17a.993.993 0 0 0 .707-.293l2-2a.999.999 0 0 0 0-1.414L13.414 13l1.086-1.085 7.793 7.792z"/>
        </g>
    </g>
</svg>
