<svg xmlns="http://www.w3.org/2000/svg" width="24" height="24" viewBox="0 0 24 24">
  <g fill="none" fill-rule="evenodd">
    <rect width="24" height="24"/>
    <path fill="#333" d="M19,14 C17.696,14 16.584,13.164 16.171,12 L21.829,12 C21.416,13.164 20.304,14 19,14 L19,14 Z M21.382,10 L16.618,10 L19,5.236 L21.382,10 Z M5,14 C3.696,14 2.584,13.164 2.171,12 L7.829,12 C7.416,13.164 6.304,14 5,14 L5,14 Z M5,5.236 L7.382,10 L2.618,10 L5,5.236 Z M23.885,10.558 L23.895,10.553 L20.618,4 L22,4 L22,2 L13,2 L13,0 L11,0 L11,2 L2,2 L2,4 L3.382,4 L0.105,10.553 L0.115,10.558 C0.047,10.692 0,10.839 0,11 C0,13.757 2.243,16 5,16 C7.757,16 10,13.757 10,11 C10,10.839 9.953,10.692 9.885,10.558 L9.895,10.553 L6.618,4 L11,4 L11,18 L8,18 L8,20 L16,20 L16,18 L13,18 L13,4 L17.382,4 L14.105,10.553 L14.115,10.558 C14.047,10.692 14,10.839 14,11 C14,13.757 16.243,16 19,16 C21.757,16 24,13.757 24,11 C24,10.839 23.953,10.692 23.885,10.558 L23.885,10.558 Z" transform="translate(0 2)"/>
  </g>
</svg>